<svg xmlns="http://www.w3.org/2000/svg" width="6011.2305" height="1202.2461" viewBox="0 0 6011.2305 1202.2461" preserveAspectRatio="xMidYMid meet" role="img" aria-label="Muga World">
  <g fill="#131313" transform="translate(-169,-1556) scale(0.48828125,-0.60172477)">
    <path d="M169 1493H610L916 694L1224 1493H1664V0H1336V1092L1027 287H807L498 1092V0H169Z"/>
    <path d="M144 436V1120H468V1008Q468 917 467 779.5Q466 642 466 596Q466 461 472.5 401.5Q479 342 499 307Q526 257 575.5 230Q625 203 695 203Q815 203 886.5 279.5Q958 356 958 498V1120H1282V0H958V162Q881 63 795.5 15Q710 -33 601 -33Q416 -33 280 -4Q144 25 144 436Z" transform="translate(1696,0)"/>
    <path d="M868 -29Q712 -29 606 22Q500 73 436 178Q377 277 377 422Q377 611 510.5 716.5Q644 822 885 822H1106V852Q1106 972 1041 1024Q976 1076 836 1076Q742 1076 680 1049Q618 1022 599 971L290 1004Q331 1143 478.5 1225Q626 1307 852 1307Q1120 1307 1265 1194Q1410 1081 1410 874V0H1106V162Q1059 77 960 24Q861 -29 868 -29ZM766 213Q873 213 953 272Q1033 331 1070 426Q1089 477 1097.5 534.5Q1106 592 1106 652V659H915Q790 659 731.5 604.5Q673 550 673 468Q673 346 728 279.5Q783 213 766 213Z" transform="translate(2993,0)"/>
    <path d="M671 -436Q470 -436 340 -365Q210 -294 181 -154L493 -116Q504 -184 556.5 -221Q609 -258 707 -258Q838 -258 908.5 -189.5Q979 -121 979 21V169Q927 84 844.5 36Q762 -12 644 -12Q440 -12 309.5 120.5Q179 253 179 503V798Q179 1051 312 1179Q445 1307 644 1307Q765 1307 850.5 1253Q936 1199 983 1112V1280H1307V39Q1307 -186 1162.5 -311Q1018 -436 671 -436ZM750 231Q858 231 923.5 310Q989 389 989 503V792Q989 901 922.5 979Q856 1057 750 1057Q640 1057 576.5 977Q513 897 513 792V503Q513 390 577.5 310.5Q642 231 750 231Z" transform="translate(4485,0)"/>
    <path d="M144 0V1280H468V1128Q528 1216 608.5 1261.5Q689 1307 790 1307Q919 1307 1006 1256Q1093 1205 1136 1101Q1197 1204 1284.5 1255.5Q1372 1307 1493 1307Q1709 1307 1830.5 1163Q1952 1019 1952 756V0H1628V722Q1628 878 1568 954.5Q1508 1031 1389 1031Q1250 1031 1177 941Q1104 851 1104 684V0H780V722Q780 878 721 954.5Q662 1031 542 1031Q405 1031 331 940Q257 849 257 684V0H144Z" transform="translate(6689,0)"/>
    <path d="M743 -29Q533 -29 387.5 116Q242 261 242 472V808Q242 1020 387.5 1163.5Q533 1307 743 1307Q954 1307 1100 1163.5Q1246 1020 1246 808V472Q1246 261 1100 116Q954 -29 743 -29ZM743 200Q845 200 916 273Q987 346 987 472V808Q987 934 916 1007Q845 1080 743 1080Q641 1080 570 1007Q499 934 499 808V472Q499 346 570 273Q641 200 743 200Z" transform="translate(8733,0)"/>
    <path d="M144 0V1280H468V1128Q531 1216 617 1261.5Q703 1307 819 1307Q1012 1307 1126.5 1169.5Q1241 1032 1241 786V0H917V722Q917 880 853.5 956Q790 1032 669 1032Q530 1032 454 943Q378 854 378 694V0H144Z" transform="translate(10012,0)"/>
    <path d="M144 0V1734H468V0H144Z" transform="translate(11338,0)"/>
    <path d="M144 0V1280H468V1086Q511 1187 590.5 1247Q670 1307 792 1307Q949 1307 1046 1214Q1143 1121 1143 951Q1143 919 1141 889.5Q1139 860 1136 830H816Q689 830 619 766Q549 702 549 579V0H144ZM813 1032Q721 1032 667 976.5Q613 921 606 819H1122Q1129 917 1081 974.5Q1033 1032 942 1032H813Z" transform="translate(11777,0)"/>
    <path d="M144 0V1280H468V1071Q502 1168 577.5 1225Q653 1282 774 1282Q810 1282 842 1278Q874 1274 901 1267V979Q871 988 838.5 992Q806 996 772 996Q608 996 538 912Q468 828 468 654V0H144Z" transform="translate(12888,0)"/>
    <path d="M669 -29Q507 -29 380 24Q253 77 179 178Q105 279 105 422Q105 611 238 716.5Q371 822 612 822H833V852Q833 972 768 1024Q703 1076 563 1076Q469 1076 407 1049Q345 1022 326 971L17 1004Q58 1143 205.5 1225Q353 1307 579 1307Q847 1307 992 1194Q1137 1081 1137 874V0H833V162Q786 77 687 24Q588 -29 669 -29ZM493 468Q493 346 548 279.5Q603 213 686 213Q793 213 873 272Q953 331 990 426Q1009 477 1017 534.5Q1025 592 1025 652V659H634Q509 659 501 604.5Q493 550 493 468Z" transform="translate(13824,0)"/>
  </g>
</svg>
