<svg width="1080" height="1080" viewBox="0 0 1080 1080" fill="none" xmlns="http://www.w3.org/2000/svg">
<rect width="1080" height="1080" fill="white"/>
<g clip-path="url(#clip0_1171_3644)">
<rect width="1080" height="1080" fill="#FA6151"/>
<path fill-rule="evenodd" clip-rule="evenodd" d="M1184.67 -110.25H1129.09L1129.1 -110.26C1128.35 -110.26 1127.74 -109.627 1127.78 -108.875C1137.06 68.2934 1146.32 245.142 1155.57 421.827L1156.23 434.367C1165.6 613.258 1174.96 791.987 1184.32 970.716C1184.34 971.171 1184.72 971.517 1185.18 971.498H1185.2C1185.63 971.478 1185.98 971.122 1185.98 970.676V-108.934C1185.98 -109.666 1185.39 -110.25 1184.67 -110.25ZM1007.29 -109.894H1065.6C1066.27 -109.894 1066.84 -109.389 1066.91 -108.716C1104.97 256.841 1142.98 621.893 1181 986.946C1181.07 987.658 1180.56 988.292 1179.86 988.381H1179.84C1179.14 988.47 1178.48 987.985 1178.38 987.282C1140.19 744.576 1102.01 501.87 1063.77 258.84L1062.81 252.732C1043.89 132.454 1024.95 12.0968 1006 -108.38C1005.87 -109.181 1006.49 -109.894 1007.29 -109.894ZM-106.057 66.8084C-106.057 67.61 -105.335 68.2334 -104.544 68.1048L957.058 -101.136C958.729 -101.403 958.413 -103.897 956.732 -103.749C851.304 -94.2979 746.124 -83.1749 640.944 -72.0221C577.9 -65.3365 514.854 -58.6439 451.807 -51.9511C348.741 -41.01 245.672 -30.0687 142.604 -19.1578C120.309 -16.7973 98.0116 -14.4587 75.7152 -12.1203C18.9353 -6.16513 -37.8404 -0.210416 -94.5754 6.10655C-98.709 6.57166 -105.285 12.3014 -105.532 15.9431C-106.389 28.3619 -106.27 40.848 -106.146 53.8362C-106.105 58.101 -106.064 62.4199 -106.057 66.8084ZM947.634 -97.0686L-91.065 125.581C-91.7671 125.729 -92.222 126.422 -92.0737 127.134L128.779 1173.5C128.927 1174.21 129.629 1174.66 130.341 1174.51C309.204 1136.25 487.387 1098.13 665.426 1060.04L666.692 1059.77C834.093 1023.96 1001.37 988.171 1168.96 952.32C1169.66 952.171 1170.12 951.478 1169.97 950.766C1096.17 600.845 1022.76 252.774 949.196 -96.0592C949.048 -96.7618 948.345 -97.2171 947.634 -97.0686ZM183.367 1157.48L-75.9446 182.384V182.374C-76.1325 181.681 -75.7171 180.959 -75.015 180.771L55.8443 145.464C334.877 70.1791 613.083 -4.88271 892.561 -80.2851C893.263 -80.4731 893.985 -80.0575 894.173 -79.3548C953.373 143.245 1012.41 365.197 1071.52 587.451C1098.79 689.981 1126.08 792.576 1153.41 895.329C1153.58 896.021 1153.18 896.744 1152.48 896.932L184.979 1158.41C184.276 1158.6 183.555 1158.19 183.367 1157.48ZM1183.25 1010.79C1183.17 1010.04 1182.48 1009.51 1181.74 1009.63C819.818 1067.49 460.251 1124.97 100.685 1182.46L101.031 1185.06C349.482 1158.8 597.933 1132.54 846.583 1106.27C959.322 1094.35 1072.1 1082.43 1184.94 1070.51C1185.61 1070.43 1186.12 1069.86 1186.12 1069.19C1186.12 1065.87 1186.16 1062.73 1186.19 1059.71C1186.26 1052.53 1186.33 1046.06 1186.01 1039.61C1185.69 1033.12 1184.98 1026.64 1184.19 1019.54L1184.19 1019.53L1184.19 1019.52L1184.18 1019.48C1183.88 1016.69 1183.56 1013.81 1183.25 1010.79ZM-100.805 89.9949L71.3538 1186.69C71.4823 1187.49 70.8593 1188.2 70.0583 1188.2H12.6226C11.9501 1188.2 11.3864 1187.7 11.3172 1187.02C-26.8348 822.396 -65.1253 456.373 -103.406 90.3413C-103.465 89.7277 -103.099 89.1538 -102.526 88.9559C-101.754 88.6986 -100.934 89.1934 -100.805 89.9949ZM143.998 1187.6C490.343 1169.2 836.708 1150.8 1184.13 1132.36C1184.88 1132.32 1185.52 1132.91 1185.52 1133.67V1188.91C1185.52 1189.63 1184.93 1190.23 1184.2 1190.23H144.068C144.059 1189.93 144.053 1189.71 144.048 1189.54L144.043 1189.36L144.037 1189.09L144.033 1188.92V1188.92C144.028 1188.69 144.023 1188.46 143.998 1187.61V1187.6ZM-103.841 1189.66H-51.8842C-51.1327 1189.66 -50.5294 1189.03 -50.569 1188.28C-59.9867 1005.48 -69.3798 823.212 -78.7599 641.201L-78.7712 640.981L-78.8772 638.924L-78.9198 638.098L-78.9681 637.161L-79.0091 636.365L-79.0559 635.457L-79.0659 635.263L-79.077 635.048C-87.4383 472.805 -95.7893 310.761 -104.138 148.717C-104.317 148.727 -104.494 148.74 -104.669 148.753C-104.832 148.765 -104.994 148.777 -105.157 148.786V1188.35C-105.157 1189.08 -104.563 1189.66 -103.841 1189.66ZM-104.673 -56.1786V-108.291C-104.673 -109.013 -104.089 -109.607 -103.357 -109.607H888.427C888.452 -108.756 888.457 -108.526 888.462 -108.296C888.467 -108.066 888.472 -107.835 888.497 -106.984C733.189 -98.8223 577.877 -90.6602 422.468 -82.4929L417.992 -82.2577C244.399 -73.1348 70.6823 -64.0054 -103.288 -54.8624C-104.04 -54.8228 -104.673 -55.4265 -104.673 -56.1786ZM919.39 178.481L842.592 -59.7413H842.582C842.354 -60.434 841.623 -60.82 840.93 -60.5923C813.237 -51.5154 331.195 106.423 85.4277 186.948L79.0407 189.04L68.4904 192.497L67.5221 192.814L-54.9798 232.952C-55.6622 233.179 -56.0281 233.912 -55.8105 234.604L235.245 1137.22C235.472 1137.91 236.214 1138.28 236.906 1138.06C435.64 1073.04 633.715 1008.24 831.875 943.412L839.96 940.768C937.545 908.841 1035.15 876.908 1132.88 844.938C1133.56 844.71 1133.93 843.978 1133.72 843.285C1062.11 621.17 990.805 400.004 919.39 178.481ZM707.568 950.944L701.252 953.389C562.977 1006.92 424.578 1060.49 285.689 1114.26C285.006 1114.51 284.245 1114.18 283.988 1113.49C192.792 874.112 102.113 636.117 10.9682 396.902L-32.1262 283.797C-32.3833 283.124 -32.0471 282.362 -31.3746 282.105C89.4191 235.412 210.052 188.782 330.785 142.114L331.319 141.907L335.355 140.347C487.198 81.6531 639.206 22.8954 791.9 -36.1295C792.583 -36.3868 793.344 -36.0504 793.601 -35.3675C892.745 224.827 991.582 484.206 1091.04 745.206L1104.39 780.244L1109.6 793.914C1109.85 794.587 1109.52 795.349 1108.84 795.607C974.975 847.426 841.327 899.164 707.568 950.944ZM-4.37734 327.795L746.47 -9.32119C747.133 -9.61806 747.914 -9.32118 748.211 -8.65815C751.159 -2.07267 754.085 4.44637 756.991 10.9208L756.995 10.9301C763.865 26.2359 770.624 41.2924 777.294 56.388C801.226 110.545 825.154 164.703 849.082 218.86L850.165 221.311L850.341 221.71L850.857 222.878C926.608 394.329 1002.36 565.778 1078.21 737.181C1081.78 745.236 1083.07 750.026 1072.91 754.568C874.58 843.218 676.348 932.083 478.119 1020.95L477.925 1021.03L477.871 1021.06L477.677 1021.14L477.623 1021.17L477.366 1021.28C430.71 1042.2 384.055 1063.11 337.399 1084.02C336.275 1084.53 335.095 1084.91 333.385 1085.47C332.611 1085.72 331.729 1086 330.694 1086.35C330.051 1086.57 329.349 1086.26 329.072 1085.64C248.017 902.21 166.983 718.836 85.563 534.587L-5.0498 329.536C-5.34647 328.873 -5.0498 328.102 -4.38723 327.805L-4.37734 327.795ZM372.93 1056.48C518.911 981.501 664.307 906.817 809.736 832.115L840.154 816.491L1051.76 707.8C1052.4 707.473 1052.66 706.682 1052.33 706.038C983.246 569.435 914.494 433.49 845.801 297.663C799.358 205.83 752.941 114.05 706.469 22.1579C706.142 21.5048 705.341 21.2474 704.699 21.5839C609.659 70.3483 515.019 118.911 420.524 167.398L420.261 167.533C288.699 235.04 157.421 302.402 25.7448 369.961C25.102 370.288 24.8449 371.08 25.1712 371.723C89.7655 499.452 154.113 626.699 218.525 754.076L219.123 755.259L221.451 759.862L222.936 762.799C272.255 860.327 321.616 957.939 371.16 1055.91C371.486 1056.56 372.287 1056.82 372.93 1056.48ZM209.887 675.059L212.828 680.19L219.879 692.496L219.895 692.525L222.749 697.507C284.835 805.863 346.915 914.211 409.193 1022.91H409.184C409.549 1023.54 410.35 1023.76 410.983 1023.39C553.349 940.6 694.688 858.401 836.02 776.205L844.55 771.245L846.406 770.165C904.025 736.656 961.646 703.144 1019.34 669.592C1019.96 669.226 1020.17 668.424 1019.81 667.8C974.903 589.413 930.109 511.229 885.342 433.091C813.132 307.055 740.993 181.141 668.544 54.6958C668.178 54.0625 667.377 53.8448 666.744 54.2109C601.339 92.2877 536.099 130.269 470.922 168.213L467.298 170.323C331.079 249.627 195.132 328.772 58.5368 408.289C57.9138 408.655 57.7062 409.456 58.0622 410.08C104.385 490.927 150.606 571.595 196.808 652.232L197.725 653.832L205.728 667.8L209.887 675.059ZM467.884 198.103L632.518 90.4104V90.4203C633.122 90.0244 633.942 90.1927 634.338 90.8062C750.712 271.378 866.662 451.296 983.936 633.283C984.322 633.887 984.154 634.698 983.551 635.094C905.266 686.348 827.023 737.576 748.658 788.883L744.962 791.303C645.35 856.521 545.537 921.871 445.19 987.569C444.586 987.965 443.766 987.796 443.37 987.183C383.499 894.302 323.702 801.53 263.797 708.593C207.202 620.79 150.512 532.839 93.5738 444.508C93.1881 443.904 93.3563 443.093 93.9595 442.697C218.687 361.11 343.129 279.709 467.884 198.103ZM941.295 608.791C787.352 721.456 634.803 833.102 480.583 945.976C477.043 948.569 472.059 947.777 469.487 944.214C358.107 789.738 247.043 635.708 134.821 480.074C132.28 476.541 133.051 471.613 136.562 469.05C290.021 356.641 442.797 244.738 597.145 131.686C600.686 129.094 605.67 129.875 608.241 133.438C658.428 203.038 708.543 272.541 758.727 342.14L761.268 345.664C821.673 429.438 882.18 513.354 943.036 597.747C945.577 601.28 944.796 606.208 941.285 608.781L941.295 608.791ZM506.265 905.808C575.421 849.342 644.15 793.226 712.775 737.195C775.774 685.758 838.684 634.392 901.758 582.893C905.131 580.142 905.645 575.184 902.925 571.79C844.296 498.851 785.992 426.312 727.687 353.772L724.374 349.65L723.681 348.787L720.459 344.779C674.578 287.696 628.687 230.601 582.628 173.299C579.879 169.875 574.865 169.35 571.463 172.121C524.19 210.679 477.014 249.155 429.87 287.605L429.008 288.308C344.626 357.129 260.348 425.865 175.802 494.829C172.43 497.58 171.905 502.538 174.635 505.932C256.95 608.349 338.63 709.966 420.614 811.963L422.837 814.728L495.1 904.631C497.849 908.055 502.873 908.579 506.275 905.808H506.265ZM302.77 625.055L303.269 625.613C374.349 705.149 445.087 784.302 516.332 864.018H516.342C519.269 867.293 524.303 867.56 527.556 864.611C596.766 801.845 665.581 739.435 734.418 677.006L737.564 674.153L803.609 614.256L861.728 561.547C864.952 558.618 865.209 553.641 862.311 550.395C803.755 484.862 745.488 419.662 687.173 354.409L685.105 352.095L683.534 350.337L679.561 345.891L679.32 345.622L679.103 345.379L671.778 337.182L670.862 336.158C634.428 295.389 597.964 254.586 561.387 213.655C558.45 210.379 553.416 210.122 550.163 213.071C454.505 299.909 359.547 386.118 264.636 472.285L263.903 472.95L216.13 516.323C212.916 519.242 212.658 524.22 215.556 527.466C241.602 556.61 267.556 585.651 293.459 614.636L302.77 625.055ZM821.242 544.863C727.197 636.935 634.734 727.463 544.793 815.527L544.783 815.517C541.707 818.526 536.802 818.526 533.727 815.517L479.603 762.517L479.027 761.952L477.199 760.163C404.886 689.349 331.416 617.403 257.238 544.774C254.074 541.676 254.064 536.57 257.229 533.463C283.285 507.85 309.234 482.344 335.054 456.964L336.456 455.586L337.219 454.836C403.445 389.738 468.815 325.482 532.966 262.432C536.041 259.414 540.956 259.414 544.031 262.422L591.754 309.095L643.378 359.583L644.222 360.408C702.551 417.454 761.58 475.184 821.242 533.532C824.416 536.639 824.416 541.755 821.242 544.863ZM545.722 779.387C514.188 750.764 482.812 722.284 451.498 693.862L451.445 693.814C401.182 648.191 351.08 602.715 300.75 557.025C297.526 554.106 297.269 549.118 300.166 545.882C373.85 463.409 446.811 381.738 520.732 298.988C523.659 295.712 528.703 295.445 531.956 298.394C613.838 372.653 694.908 446.18 777.096 520.727C780.32 523.646 780.577 528.634 777.68 531.879C737.345 577.005 697.17 621.945 656.973 666.909L656.686 667.23L656.622 667.302L655.043 669.068L654.612 669.55L649.462 675.311C618.67 709.755 587.858 744.221 556.946 778.804C554.029 782.069 548.975 782.336 545.722 779.387ZM512.752 343.064C455.84 413.88 399.818 483.597 343.243 554.007C340.514 557.401 341.038 562.359 344.41 565.11C396.342 607.492 447.92 649.579 499.788 691.903L503.478 694.915L553.771 735.954C557.163 738.725 562.197 738.2 564.946 734.776L734.366 523.765C737.085 520.37 736.561 515.413 733.199 512.661C713.763 496.801 694.408 481.006 675.082 465.235C624.808 424.207 574.728 383.339 523.926 341.887C520.534 339.116 515.501 339.65 512.752 343.064ZM623.202 615.382L623.499 614.97L624.448 613.654C646.783 582.679 669.169 551.633 691.893 520.113V520.133C694.434 516.6 693.653 511.672 690.143 509.099C632.954 467.249 576.923 426.25 520.268 384.796C516.738 382.203 511.734 383.004 509.173 386.557L507.728 388.564L506.046 390.9L503.422 394.544C463.82 449.547 425.043 503.404 385.905 557.757C383.364 561.28 384.145 566.218 387.656 568.781C415.171 588.912 442.349 608.796 469.439 628.616L472.937 631.175L488.232 642.365C511.264 659.216 534.276 676.052 557.421 692.986C560.962 695.569 565.956 694.777 568.517 691.224C586.158 666.757 603.682 642.452 621.23 618.116L622.754 616.003L623.202 615.382ZM568.409 458.993C594.468 476.047 620.401 493.018 646.522 510.108C650.161 512.483 651.199 517.362 648.846 521.023C621.661 563.279 595.039 604.654 567.538 647.395C565.165 651.076 560.22 652.135 556.551 649.74L526.36 630.01L524.754 628.961C493.646 608.632 462.633 588.365 431.108 567.762C427.469 565.387 426.431 560.498 428.784 556.837C444.342 532.697 459.754 508.779 475.216 484.784L476.077 483.447C487.407 465.864 498.766 448.236 510.231 430.446C512.604 426.764 517.549 425.715 521.218 428.11C537.04 438.464 552.747 448.743 568.409 458.993ZM604.305 515.343C588.001 505.886 572.07 496.647 556.146 487.413C546.243 481.67 536.343 475.929 526.359 470.138C522.572 467.941 517.696 469.258 515.521 473.048L513.833 475.994C499.215 501.516 485.069 526.212 470.565 551.543C468.419 555.293 469.715 560.152 473.453 562.329L478.66 565.362C502.931 579.501 526.773 593.388 551.398 607.742C555.186 609.948 560.071 608.642 562.247 604.832C577.673 577.836 592.319 552.206 607.212 526.13C609.358 522.369 608.053 517.52 604.315 515.343H604.305ZM574.42 528.96C567.765 543.448 561.218 557.698 554.316 572.7C553.346 574.818 550.825 575.738 548.708 574.749C541.293 571.263 534.006 567.841 526.739 564.428C519.626 561.087 512.531 557.756 505.355 554.383C503.278 553.403 502.358 550.899 503.327 548.811C507.995 538.675 512.581 528.724 517.222 518.655L517.481 518.093C519.451 513.819 521.431 509.522 523.432 505.18C524.401 503.072 526.923 502.152 529.029 503.131C534.114 505.507 539.157 507.865 544.198 510.221L544.424 510.326C553.67 514.648 562.909 518.967 572.383 523.388C574.46 524.358 575.379 526.872 574.42 528.96ZM536.505 548.192C538.734 549.009 540.971 549.828 543.241 550.662L543.25 550.652C543.992 550.919 544.803 550.543 545.07 549.801C545.653 548.166 546.227 546.558 546.796 544.965C548.048 541.455 549.274 538.019 550.519 534.541C550.776 533.809 550.39 532.997 549.668 532.73C547.156 531.814 544.688 530.915 542.23 530.02L534.538 527.218C533.796 526.951 532.986 527.337 532.719 528.069C530.869 533.225 529.089 538.193 527.26 543.299C526.993 544.031 527.378 544.843 528.1 545.11C530.92 546.146 533.706 547.167 536.505 548.192Z" fill="#131313"/>
</g>
<defs>
<clipPath id="clip0_1171_3644">
<rect width="1080" height="1080" fill="white"/>
</clipPath>
</defs>
</svg>
