<svg width="500" height="500" viewBox="0 0 500 500" fill="none" xmlns="http://www.w3.org/2000/svg">
<g clip-path="url(#clip0_1364_1109)">
<path fill-rule="evenodd" clip-rule="evenodd" d="M220.751 196.788C217.757 173.922 223.523 149.6 231.62 125.111L231.612 125.116C234.695 115.786 238.117 106.432 241.521 97.1252C250.759 71.8718 259.87 46.9642 261.758 23.8105C265.944 -27.5193 227.595 -75.7809 193.63 -110.211L193.615 -110.237C139.055 -165.536 154.504 -230.239 188.32 -293.087C236.457 -382.551 251.962 -465.935 172.896 -543.482C158.473 -557.631 142.287 -569.517 126.109 -581.398C105.667 -596.41 85.2397 -611.411 68.4011 -630.953C0.297241 -710.003 35.7656 -796.96 71.9329 -885.631C103.918 -964.049 136.45 -1043.81 98.3721 -1120.62C79.4979 -1158.7 48.7651 -1188.75 18.1495 -1218.68C9.55542 -1227.09 0.970581 -1235.48 -7.34009 -1244.04C-45.2568 -1283.09 -80.0299 -1331.72 -78.2999 -1386.13C122.698 -1432.17 323.616 -1478.54 524.537 -1524.92C548.412 -1530.43 572.286 -1535.94 596.161 -1541.45C549.156 -1530.6 550.899 -1395.12 559.402 -1361.17C565.026 -1338.72 572.122 -1316.85 579.184 -1295.09C595.496 -1244.82 611.629 -1195.1 609.031 -1139.97C604.874 -1051.67 546.377 -991.605 487.684 -931.335C449.594 -892.223 411.422 -853.026 387.965 -805.973C367.112 -764.131 359.379 -713.224 378.656 -670.637C387.316 -651.507 400.779 -635.186 414.206 -618.908C417.819 -614.528 421.43 -610.151 424.943 -605.724C481.894 -533.942 494.496 -435.274 440.074 -357.516C422.914 -332.998 403.967 -312.476 386.093 -293.117C337.548 -240.538 296.929 -196.544 321.584 -104.388C323.225 -98.2512 324.961 -92.0875 326.702 -85.9028C337.112 -48.9314 347.733 -11.2114 339.74 25.8995C332.895 57.6681 313.437 84.2128 293.978 110.758C286.522 120.929 279.067 131.1 272.32 141.566C262.457 156.871 255.383 172.716 251.327 189.13C260.185 167.895 277.303 149.76 296.516 132.64H296.506C303.841 126.102 311.482 119.712 319.084 113.354C339.71 96.103 360.055 79.0881 373.266 59.9802C402.556 17.6202 393.476 -43.3497 381.276 -90.1498V-90.1797C361.676 -165.35 407.406 -213.66 468.116 -251.18C554.536 -304.59 609.656 -369.05 579.956 -475.74C574.54 -495.205 566.465 -513.592 558.395 -531.97C548.198 -555.191 538.008 -578.397 533.196 -603.74C513.741 -706.251 587.936 -763.824 663.594 -822.531C730.503 -874.451 798.556 -927.258 803.986 -1012.82C806.679 -1055.23 795.089 -1096.62 783.542 -1137.86L783.527 -1137.91L783.52 -1137.93C780.286 -1149.48 777.056 -1161.02 774.146 -1172.56C760.836 -1225.34 755.036 -1284.84 783.736 -1331.09C980.642 -1270.52 1177.64 -1210.28 1374.65 -1150.03L1374.89 -1149.96L1375.12 -1149.89C1398.58 -1142.72 1422.04 -1135.54 1445.5 -1128.37C1399.37 -1142.48 1333.14 -1024.28 1323.53 -990.63C1317.17 -968.374 1312.38 -945.891 1307.62 -923.514L1307.61 -923.506C1296.61 -871.815 1285.72 -820.692 1255.91 -774.25C1208.15 -699.857 1127.46 -677.085 1046.5 -654.237C993.954 -639.41 941.298 -624.55 897.456 -595.53C858.476 -569.72 826.326 -529.5 821.726 -482.98C819.661 -462.082 823.16 -441.216 826.649 -420.405C827.588 -414.806 828.527 -409.211 829.356 -403.62C842.786 -312.98 804.366 -221.23 718.356 -181.1C691.236 -168.447 664.566 -160.148 639.408 -152.32C571.077 -131.058 513.902 -113.267 489.176 -21.1298C487.529 -14.9948 485.95 -8.78906 484.366 -2.56226C474.896 34.6611 465.234 72.6379 439.756 100.78C417.943 124.87 387.82 138.129 357.696 151.389L357.674 151.4C346.139 156.477 334.604 161.554 323.536 167.24C307.284 175.593 293.194 185.821 281.449 198.064C299.755 184.037 323.702 176.868 348.961 171.636L348.952 171.631C358.572 169.637 368.381 167.923 378.142 166.219L378.148 166.218C404.637 161.591 430.763 157.028 451.758 147.086C498.304 125.046 520.926 67.7043 533.76 21.0743L533.775 21.0483C554.386 -53.8507 618.144 -72.8235 689.481 -74.9617C791.028 -78.0061 870.993 -106.27 898.617 -213.516C903.659 -233.082 905.86 -253.043 908.06 -272.994C910.839 -298.203 913.617 -323.394 922.122 -347.748C956.529 -446.252 1049.57 -459.015 1144.45 -472.028C1228.35 -483.537 1313.69 -495.243 1361.17 -566.626C1384.71 -602.011 1395.37 -643.651 1405.99 -685.131C1408.97 -696.776 1411.94 -708.408 1415.2 -719.885C1430.06 -772.249 1454.79 -826.678 1502.77 -852.381C1643.21 -701.256 1783.9 -550.367 1924.6 -399.476L1974.51 -345.943C1941.61 -381.222 1825.16 -311.975 1800.01 -287.639C1783.38 -271.543 1767.99 -254.465 1752.67 -237.468L1752.67 -237.464C1717.29 -198.203 1682.3 -159.373 1633.26 -134.059C1554.71 -93.5083 1473.44 -114.134 1391.9 -134.83C1338.99 -148.26 1285.95 -161.719 1233.48 -158.508C1186.81 -155.646 1138.86 -136.889 1111.62 -98.9015C1099.38 -81.8363 1091.98 -62.0165 1084.59 -42.2493C1082.61 -36.9303 1080.62 -31.6152 1078.54 -26.3586C1044.85 58.8529 965.707 119.101 871.155 110.849C841.342 108.247 814.095 102.099 788.394 96.2996C718.586 80.5475 660.176 67.3674 592.694 134.797C588.2 139.287 583.73 143.872 579.245 148.473C552.432 175.974 525.076 204.032 488.94 215.665C458.005 225.621 425.288 222.042 392.569 218.463C380.033 217.092 367.497 215.721 355.061 215.111C336.831 214.22 319.533 216.027 303.256 220.746C326.111 217.763 350.419 223.526 374.894 231.62L374.889 231.611C384.219 234.694 393.573 238.116 402.88 241.521C428.134 250.758 453.041 259.87 476.195 261.757C527.525 265.943 575.786 227.594 610.216 193.629L610.242 193.614C665.541 139.055 730.244 154.503 793.092 188.32C882.557 236.456 965.941 251.962 1043.49 172.896C1057.64 158.473 1069.52 142.286 1081.4 126.108C1096.42 105.667 1111.42 85.239 1130.96 68.4004C1210.01 0.296509 1296.97 35.7649 1385.64 71.9321C1464.05 103.918 1543.81 136.45 1620.63 98.3715C1658.7 79.4976 1688.75 48.7654 1718.69 18.1504L1718.69 18.1489L1718.7 18.1368C1727.1 9.54675 1735.49 0.966064 1744.05 -7.3407C1783.1 -45.2576 1831.73 -80.0305 1886.13 -78.3005C1932.17 122.686 1978.54 323.591 2024.91 524.499L2041.45 596.157C2030.6 549.156 1895.13 550.899 1861.18 559.401C1838.72 565.025 1816.86 572.121 1795.09 579.183C1744.82 595.495 1695.11 611.628 1639.98 609.031C1551.68 604.873 1491.61 546.376 1431.34 487.683C1392.23 449.594 1353.03 411.422 1305.98 387.964C1264.14 367.111 1213.23 359.379 1170.64 378.655C1151.51 387.315 1135.19 400.779 1118.91 414.206L1118.91 414.21C1114.53 417.822 1110.15 421.43 1105.73 424.943C1033.95 481.893 935.28 494.496 857.521 440.074C833.003 422.914 812.481 403.966 793.123 386.093C740.544 337.547 696.55 296.928 604.393 321.583C598.257 323.224 592.093 324.96 585.908 326.701C548.937 337.112 511.217 347.732 474.106 339.739C442.337 332.894 415.793 313.436 389.247 293.978L389.236 293.97C379.069 286.517 368.901 279.064 358.44 272.32C343.113 262.443 327.246 255.363 310.808 251.31C332.07 260.161 350.224 277.293 367.36 296.524V296.514C373.898 303.85 380.288 311.49 386.646 319.092C403.897 339.719 420.912 360.063 440.02 373.274C482.38 402.564 543.35 393.484 590.15 381.284H590.18C665.35 361.684 713.66 407.414 751.18 468.124C804.59 554.544 869.05 609.664 975.74 579.964C995.205 574.548 1013.59 566.474 1031.97 558.403C1055.19 548.206 1078.4 538.016 1103.74 533.204C1206.25 513.75 1263.82 587.945 1322.53 663.602C1374.45 730.511 1427.26 798.564 1512.82 803.994C1555.23 806.688 1596.62 795.097 1637.86 783.551L1637.92 783.531C1649.47 780.296 1661.01 777.065 1672.56 774.154C1725.34 760.844 1784.84 755.044 1831.09 783.744C1770.51 980.666 1710.27 1177.68 1650.02 1374.71L1650 1374.79L1649.87 1375.2C1642.7 1398.64 1635.54 1422.07 1628.37 1445.5C1642.48 1399.37 1524.28 1333.14 1490.63 1323.53C1468.37 1317.18 1445.89 1312.39 1423.51 1307.62C1371.82 1296.61 1320.69 1285.73 1274.25 1255.91C1199.86 1208.16 1177.09 1127.47 1154.24 1046.5C1139.41 993.962 1124.55 941.306 1095.53 897.464C1069.72 858.484 1029.5 826.334 982.98 821.734C962.083 819.67 941.218 823.168 920.408 826.657L920.405 826.658L920.379 826.663C914.789 827.6 909.202 828.536 903.62 829.364C812.98 842.794 721.23 804.374 681.1 718.364C668.447 691.244 660.148 664.574 652.32 639.416C631.058 571.085 613.267 513.91 521.13 489.184C514.997 487.538 508.793 485.96 502.568 484.376L502.562 484.375C465.339 474.904 427.362 465.242 399.22 439.764C375.13 417.952 361.871 387.828 348.611 357.704L348.601 357.684C343.524 346.149 338.447 334.613 332.76 323.544C324.414 307.306 314.196 293.225 301.965 281.486C315.979 299.789 323.143 323.724 328.373 348.971L328.378 348.962C330.371 358.573 332.082 368.372 333.786 378.123L333.791 378.158C338.418 404.647 342.981 430.773 352.924 451.768C374.963 498.314 432.305 520.936 478.935 533.77L478.961 533.785C553.86 554.396 572.833 618.155 574.971 689.491C578.015 791.038 606.279 871.003 713.526 898.627C733.079 903.667 753.029 905.866 772.968 908.064L773.003 908.07C798.212 910.85 823.403 913.627 847.757 922.132C946.261 956.539 959.024 1049.58 972.037 1144.46C983.546 1228.36 995.252 1313.7 1066.64 1361.18C1102.02 1384.72 1143.66 1395.38 1185.14 1406C1196.79 1408.98 1208.42 1411.95 1219.89 1415.21C1272.26 1430.07 1326.69 1454.8 1352.39 1502.78C1201.42 1643.08 1050.69 1783.63 899.948 1924.17L845.952 1974.52C881.231 1941.62 811.985 1825.17 787.648 1800.02C771.554 1783.39 754.479 1768.01 737.485 1752.69L737.474 1752.68C698.212 1717.3 659.382 1682.31 634.068 1633.27C593.518 1554.72 614.144 1473.45 634.839 1391.91C648.269 1339 661.729 1285.96 658.517 1233.49C655.655 1186.82 636.898 1138.87 598.911 1111.63C581.846 1099.39 562.026 1091.99 542.259 1084.6C536.94 1082.62 531.625 1080.63 526.368 1078.55C441.156 1044.86 380.909 965.717 389.16 871.165C391.762 841.352 397.91 814.105 403.71 788.404C419.462 718.597 432.642 660.187 365.212 592.704C360.722 588.211 356.138 583.741 351.537 579.256C324.036 552.443 295.978 525.086 284.345 488.95C274.388 458.015 277.967 425.298 281.546 392.58L281.547 392.574C282.918 380.039 284.289 367.505 284.899 355.071C285.79 336.836 283.981 319.533 279.26 303.252C282.239 326.105 276.476 350.409 268.384 374.882L268.393 374.877C265.309 384.207 261.888 393.561 258.483 402.868C249.245 428.121 240.134 453.029 238.247 476.182C234.061 527.512 272.41 575.774 306.375 610.204L306.39 610.229C360.949 665.529 345.501 730.231 311.684 793.08C263.547 882.544 248.042 965.928 327.108 1043.47C341.531 1057.62 357.718 1069.51 373.896 1081.39C394.337 1096.4 414.765 1111.4 431.604 1130.95C499.707 1210 464.239 1296.95 428.072 1385.62C396.086 1464.04 363.554 1543.8 401.633 1620.61C420.507 1658.69 451.24 1688.74 481.855 1718.68L481.867 1718.69C490.457 1727.09 499.038 1735.48 507.345 1744.03C545.261 1783.09 580.034 1831.72 578.305 1886.12C377.217 1932.18 176.209 1978.58 -24.8008 2024.97L-96.1532 2041.44C-49.1517 2030.59 -50.895 1895.11 -59.3972 1861.17C-65.0208 1838.71 -72.116 1816.85 -79.1776 1795.08L-79.1791 1795.08C-95.4911 1744.81 -111.624 1695.09 -109.027 1639.97C-104.869 1551.66 -46.3723 1491.6 12.3212 1431.33C50.4103 1392.22 88.5823 1353.02 112.04 1305.97C132.893 1264.12 140.625 1213.22 121.349 1170.63C112.689 1151.5 99.226 1135.18 85.799 1118.9C82.1858 1114.52 78.5752 1110.14 75.0615 1105.72C18.1107 1033.94 5.50842 935.267 59.9302 857.509C77.0902 832.991 96.038 812.469 113.911 793.11C162.457 740.531 203.076 696.537 178.421 604.381C176.781 598.248 175.046 592.088 173.306 585.907L173.303 585.896C162.892 548.925 152.271 511.205 160.265 474.093C167.11 442.325 186.568 415.78 206.027 389.235L206.032 389.227C213.486 379.059 220.94 368.89 227.684 358.427C237.556 343.109 244.633 327.25 248.688 310.822C239.835 332.078 222.706 350.228 203.479 367.36H203.489C196.155 373.897 188.516 380.286 180.916 386.642L180.912 386.646C160.285 403.897 139.94 420.912 126.729 440.02C97.4388 482.38 106.519 543.35 118.719 590.15V590.18C138.319 665.35 92.5887 713.66 31.8788 751.18C-54.5413 804.59 -109.661 869.05 -79.9613 975.74C-74.545 995.205 -66.4705 1013.59 -58.4003 1031.97C-48.2032 1055.19 -38.0131 1078.4 -33.2013 1103.74C-13.7466 1206.25 -87.9419 1263.82 -163.599 1322.53C-230.508 1374.45 -298.561 1427.26 -303.991 1512.82C-306.685 1555.23 -295.094 1596.62 -283.548 1637.86L-283.545 1637.86C-280.305 1649.44 -277.068 1660.99 -274.151 1672.56C-260.841 1725.34 -255.041 1784.84 -283.741 1831.09C-480.814 1770.47 -677.982 1710.18 -875.154 1649.88L-945.498 1628.37C-899.368 1642.47 -833.141 1524.28 -823.531 1490.63C-817.175 1468.37 -812.386 1445.89 -807.62 1423.51L-807.62 1423.51C-796.611 1371.82 -785.724 1320.69 -755.911 1274.25C-708.16 1199.86 -627.466 1177.09 -546.502 1154.24C-493.96 1139.41 -441.303 1124.55 -397.461 1095.53C-358.481 1069.72 -326.331 1029.5 -321.731 982.98C-319.667 962.083 -323.166 941.217 -326.655 920.406L-326.661 920.373C-327.598 914.785 -328.534 909.2 -329.361 903.62C-342.791 812.98 -304.371 721.23 -218.361 681.1C-191.241 668.447 -164.571 660.148 -139.413 652.32C-71.082 631.058 -13.9076 613.267 10.8188 521.13C12.4655 514.995 14.0443 508.789 15.6285 502.562C25.0989 465.339 34.7609 427.362 60.2388 399.22C82.0513 375.13 112.175 361.871 142.299 348.611L142.31 348.606C153.849 343.527 165.387 338.448 176.459 332.76C192.693 324.416 206.771 314.201 218.509 301.974C200.207 315.983 176.276 323.146 151.034 328.375L151.042 328.38C141.422 330.374 131.613 332.087 121.852 333.792L121.846 333.793C95.3575 338.419 69.2313 342.983 48.2362 352.925C1.69043 374.965 -20.9312 432.306 -33.7656 478.936L-33.7805 478.962C-54.3915 553.861 -118.15 572.834 -189.486 574.972C-291.033 578.017 -370.999 606.281 -398.623 713.527C-403.664 733.093 -405.865 753.054 -408.065 773.005C-410.845 798.213 -413.623 823.405 -422.127 847.758C-456.535 946.263 -549.576 959.025 -644.451 972.039C-728.356 983.548 -813.695 995.253 -861.178 1066.64C-884.718 1102.02 -895.375 1143.66 -905.991 1185.14C-908.971 1196.79 -911.948 1208.42 -915.206 1219.9C-930.069 1272.26 -954.796 1326.69 -1002.78 1352.39C-1143.18 1201.31 -1283.82 1050.47 -1424.47 899.629C-1441.15 881.736 -1457.83 863.844 -1474.52 845.951C-1441.62 881.236 -1325.17 811.987 -1300.02 787.65C-1283.38 771.552 -1267.99 754.473 -1252.68 737.475L-1252.68 737.474C-1217.3 698.213 -1182.31 659.383 -1133.27 634.069C-1054.72 593.519 -973.449 614.145 -891.907 634.84C-838.991 648.271 -785.959 661.73 -733.481 658.518C-686.818 655.656 -638.865 636.9 -611.622 598.912C-599.385 581.847 -591.982 562.027 -584.599 542.26C-582.612 536.941 -580.627 531.626 -578.549 526.369C-544.86 441.158 -465.712 380.91 -371.161 389.161C-341.347 391.763 -314.101 397.911 -288.399 403.711C-218.592 419.463 -160.182 432.643 -92.6997 365.213C-88.2273 360.745 -83.7782 356.182 -79.3138 351.604L-79.3113 351.601L-79.2673 351.556L-79.2509 351.538C-52.4376 324.037 -25.0815 295.979 11.0543 284.346C41.9894 274.39 74.7068 277.969 107.425 281.548C119.961 282.919 132.498 284.29 144.934 284.9C163.164 285.791 180.461 283.984 196.738 279.265C173.889 282.241 149.589 276.479 125.121 268.388L125.126 268.397C115.796 265.313 106.442 261.892 97.135 258.487C71.8816 249.249 46.974 240.138 23.8203 238.251C-27.5095 234.065 -75.7711 272.413 -110.201 306.379L-110.227 306.394C-165.526 360.953 -230.229 345.505 -293.077 311.688C-382.542 263.551 -465.925 248.046 -543.472 327.112C-557.62 341.535 -569.507 357.721 -581.387 373.898L-581.388 373.9C-596.4 394.341 -611.401 414.769 -630.943 431.607C-709.993 499.711 -796.951 464.243 -885.621 428.076C-964.04 396.09 -1043.8 363.558 -1120.61 401.636C-1158.69 420.511 -1188.74 451.243 -1218.67 481.859C-1227.08 490.453 -1235.47 499.038 -1244.03 507.349C-1283.08 545.265 -1331.71 580.038 -1386.12 578.309C-1432.16 377.316 -1478.53 176.404 -1524.9 -24.5109L-1524.9 -24.5153L-1524.91 -24.5325L-1525.2 -25.8193C-1530.61 -49.2637 -1536.03 -72.708 -1541.44 -96.1526C-1530.59 -49.1478 -1395.11 -50.891 -1361.16 -59.3934C-1338.71 -65.0173 -1316.84 -72.1132 -1295.08 -79.1754C-1244.81 -95.4873 -1195.09 -111.62 -1139.96 -109.023C-1051.66 -104.865 -991.595 -46.3684 -931.325 12.325C-892.213 50.4141 -853.017 88.5861 -805.963 112.044C-764.121 132.897 -713.214 140.629 -670.627 121.353C-651.497 112.692 -635.176 99.2294 -618.898 85.8021C-614.518 82.1892 -610.142 78.5789 -605.714 75.0653C-533.932 18.1146 -435.265 5.51221 -357.506 59.9341C-332.988 77.0941 -312.466 96.0419 -293.108 113.915C-240.529 162.461 -196.534 203.08 -104.378 178.425C-98.2415 176.783 -92.0778 175.048 -85.8931 173.306C-48.9216 162.896 -11.2017 152.275 25.9093 160.269C57.6779 167.114 84.2225 186.572 110.768 206.031L110.771 206.033C120.941 213.488 131.111 220.943 141.575 227.688C156.903 237.565 172.771 244.645 189.209 248.699C167.94 239.85 149.781 222.713 132.64 203.477V203.487C126.103 196.153 119.714 188.514 113.358 180.914L113.354 180.91C96.1028 160.283 79.0876 139.938 59.9796 126.727C17.6196 97.4368 -43.3503 106.517 -90.1504 118.717H-90.1803C-165.35 138.317 -213.66 92.5867 -251.18 31.8767C-304.59 -54.5433 -369.05 -109.663 -475.74 -79.9634C-495.205 -74.5471 -513.593 -66.4727 -531.971 -58.4025C-555.192 -48.2053 -578.397 -38.0151 -603.74 -33.2034C-706.252 -13.7487 -763.825 -87.944 -822.532 -163.601C-874.452 -230.51 -927.258 -298.563 -1012.82 -303.993C-1055.23 -306.687 -1096.62 -295.096 -1137.86 -283.55L-1137.86 -283.547C-1149.44 -280.307 -1160.99 -277.07 -1172.56 -274.153C-1225.34 -260.843 -1284.84 -255.043 -1331.09 -283.743C-1270.46 -480.833 -1210.17 -678.018 -1149.87 -875.207C-1142.7 -898.639 -1135.54 -922.071 -1128.37 -945.503C-1142.48 -899.373 -1024.28 -833.143 -990.63 -823.533C-968.372 -817.176 -945.887 -812.388 -923.508 -807.622L-923.507 -807.622C-871.816 -796.613 -820.693 -785.726 -774.25 -755.913C-699.857 -708.162 -677.086 -627.468 -654.238 -546.504C-639.411 -493.962 -624.551 -441.305 -595.53 -397.463C-569.72 -358.483 -529.5 -326.333 -482.98 -321.733C-462.083 -319.669 -441.217 -323.168 -420.406 -326.657L-420.396 -326.659C-414.8 -327.597 -409.208 -328.535 -403.62 -329.363C-312.98 -342.793 -221.23 -304.373 -181.1 -218.363C-168.447 -191.243 -160.148 -164.573 -152.32 -139.415C-131.058 -71.0842 -113.268 -13.9097 -21.1304 10.8168C-14.9954 12.4634 -8.78967 14.0422 -2.56287 15.6265C34.6605 25.0967 72.6373 34.7587 100.78 60.2367C124.87 82.0492 138.129 112.173 151.389 142.297L151.391 142.301C156.471 153.842 161.551 165.383 167.24 176.457C175.583 192.689 185.796 206.765 198.02 218.501C184.017 200.201 176.856 176.274 171.629 151.037L171.624 151.046C169.629 141.426 167.916 131.617 166.211 121.856L166.21 121.85C161.584 95.3613 157.021 69.2351 147.078 48.24C125.038 1.69421 67.6968 -20.9274 21.0668 -33.7618L21.0408 -33.7767C-53.8583 -54.3877 -72.8311 -118.146 -74.9692 -189.482C-78.0137 -291.029 -106.278 -370.995 -213.524 -398.619C-233.089 -403.661 -253.049 -405.861 -272.999 -408.061L-273.002 -408.062C-298.21 -410.841 -323.402 -413.619 -347.755 -422.123C-446.26 -456.531 -459.022 -549.572 -472.036 -644.447C-483.545 -728.352 -495.25 -813.691 -566.634 -861.174C-602.019 -884.714 -643.659 -895.371 -685.14 -905.987L-685.143 -905.988C-696.786 -908.968 -708.417 -911.945 -719.893 -915.202C-772.257 -930.065 -826.685 -954.792 -852.389 -1002.77C-701.323 -1143.16 -550.493 -1283.8 -399.661 -1424.43L-399.646 -1424.45L-397.756 -1426.21C-380.487 -1442.31 -363.218 -1458.41 -345.948 -1474.51C-381.233 -1441.62 -311.984 -1325.16 -287.647 -1300.01C-271.55 -1283.38 -254.471 -1267.99 -237.474 -1252.67L-237.472 -1252.67C-198.211 -1217.29 -159.38 -1182.3 -134.066 -1133.26C-93.5159 -1054.71 -114.142 -973.445 -134.837 -891.903C-148.267 -838.987 -161.727 -785.955 -158.515 -733.477C-155.653 -686.814 -136.896 -638.861 -98.9091 -611.618C-81.8439 -599.381 -62.024 -591.978 -42.257 -584.595C-36.938 -582.608 -31.6228 -580.623 -26.3662 -578.545C58.8453 -544.856 119.093 -465.708 110.842 -371.157C108.24 -341.344 102.092 -314.097 96.292 -288.396C80.5399 -218.588 67.3599 -160.178 134.79 -92.6959C139.274 -88.208 143.853 -83.7434 148.448 -79.2635L148.465 -79.2471C175.966 -52.4338 204.024 -25.0778 215.657 11.0581C225.613 41.9932 222.034 74.7106 218.455 107.429C217.084 119.965 215.713 132.501 215.103 144.938C214.211 163.185 216.023 180.498 220.751 196.788ZM249.991 249.989C249.991 249.989 249.992 249.99 249.992 249.99ZM249.986 250.001L249.988 250.001L249.981 250.003L249.986 250.001Z" fill="#131313"/>
</g>
<defs>
<clipPath id="clip0_1364_1109">
<rect width="500" height="500" fill="white"/>
</clipPath>
</defs>
</svg>
