<svg width="500" height="500" viewBox="0 0 500 500" fill="none" xmlns="http://www.w3.org/2000/svg">
<g clip-path="url(#clip0_1364_1100)">
<path d="M-225 1065V993L-161 959V887L-97 853V781L-33 747V675L31 641V569L95 535V463L159 429V357L223 323V251L287 217V145L351 111V39L415 5V-67L479 -101V-173L543 -207V-279L607 -321V-393L671 -427V-499L735 -533" stroke="#131313" stroke-width="34"/>
<path d="M-305 1025V953L-241 919V847L-177 813V741L-113 707V635L-49 601V529L15 495V423L79 389V317L143 283V211L207 177V105L271 71V-1L335 -35V-107L399 -141V-213L463 -247V-319L527 -361V-433L591 -467V-539L655 -573" stroke="#131313" stroke-width="34"/>
<path d="M-385 985V913L-321 879V807L-257 773V701L-193 667V595L-129 561V489L-65 455V383L-1 349V277L63 243V171L127 137V65L191 31V-41L255 -75V-147L319 -181V-253L383 -287V-359L447 -401V-473L511 -507V-579L575 -613" stroke="#131313" stroke-width="34"/>
<path d="M-465 945V873L-401 839V767L-337 733V661L-273 627V555L-209 521V449L-145 415V343L-81 309V237L-17 203V131L47 97V25L111 -9V-81L175 -115V-187L239 -221V-293L303 -327V-399L367 -441V-513L431 -547V-619L495 -653" stroke="#131313" stroke-width="34"/>
<path d="M-545 905V833L-481 799V727L-417 693V621L-353 587V515L-289 481V409L-225 375V303L-161 269V197L-97 163V91L-33 57V-15L31 -49V-121L95 -155V-227L159 -261V-333L223 -367V-439L287 -481V-553L351 -587V-659L415 -693" stroke="#131313" stroke-width="34"/>
<path d="M-625 865V793L-561 759V687L-497 653V581L-433 547V475L-369 441V369L-305 335V263L-241 229V157L-177 123V51L-113 17V-55L-49 -89V-161L15 -195V-267L79 -301V-373L143 -407V-479L207 -521V-593L271 -627V-699L335 -733" stroke="#131313" stroke-width="34"/>
<path d="M-705 825V753L-641 719V647L-577 613V541L-513 507V435L-449 401V329L-385 295V223L-321 189V117L-257 83V11L-193 -23V-95L-129 -129V-201L-65 -235V-307L-1 -341V-413L63 -447V-519L127 -561V-633L191 -667V-739L255 -773" stroke="#131313" stroke-width="34"/>
<path d="M-785 785V713L-721 679V607L-657 573V501L-593 467V395L-529 361V289L-465 255V183L-401 149V77L-337 43V-29L-273 -63V-135L-209 -169V-241L-145 -275V-347L-81 -381V-453L-17 -487V-559L47 -601V-673L111 -707V-779L175 -813" stroke="#131313" stroke-width="34"/>
<path d="M-865 745V673L-801 639V567L-737 533V461L-673 427V355L-609 321V249L-545 215V143L-481 109V37L-417 3V-69L-353 -103V-175L-289 -209V-281L-225 -315V-387L-161 -421V-493L-97 -527V-599L-33 -641V-713L31 -747V-819L95 -853" stroke="#131313" stroke-width="34"/>
<path d="M-945 705V633L-881 599V527L-817 493V421L-753 387V315L-689 281V209L-625 175V103L-561 69V-3L-497 -37V-109L-433 -143V-215L-369 -249V-321L-305 -355V-427L-241 -461V-533L-177 -567V-639L-113 -681V-753L-49 -787V-859L15 -893" stroke="#131313" stroke-width="34"/>
<path d="M-145 1105V1033L-81 999V927L-17 893V821L47 787V715L111 681V609L175 575V503L239 469V397L303 363V291L367 257V185L431 151V79L495 45V-27L559 -61V-133L623 -167V-239L687 -281V-353L751 -387V-459L815 -493" stroke="#131313" stroke-width="34"/>
<path d="M-65 1145V1073L-1 1039V967L63 933V861L127 827V755L191 721V649L255 615V543L319 509V437L383 403V331L447 297V225L511 191V119L575 85V13L639 -21V-93L703 -127V-199L767 -241V-313L831 -347V-419L895 -453" stroke="#131313" stroke-width="34"/>
<path d="M15 1185V1113L79 1079V1007L143 973V901L207 867V795L271 761V689L335 655V583L399 549V477L463 443V371L527 337V265L591 231V159L655 125V53L719 19V-53L783 -87V-159L847 -201V-273L911 -307V-379L975 -413" stroke="#131313" stroke-width="34"/>
<path d="M95 1225V1153L159 1119V1047L223 1013V941L287 907V835L351 801V729L415 695V623L479 589V517L543 483V411L607 377V305L671 271V199L735 165V93L799 59V-13L863 -47V-119L927 -161V-233L991 -267V-339L1055 -373" stroke="#131313" stroke-width="34"/>
<path d="M175 1265V1193L239 1159V1087L303 1053V981L367 947V875L431 841V769L495 735V663L559 629V557L623 523V451L687 417V345L751 311V239L815 205V133L879 99V27L943 -7V-79L1007 -121V-193L1071 -227V-299L1135 -333" stroke="#131313" stroke-width="34"/>
<path d="M255 1305V1233L319 1199V1127L383 1093V1021L447 987V915L511 881V809L575 775V703L639 669V597L703 563V491L767 457V385L831 351V279L895 245V173L959 139V67L1023 33V-39L1087 -81V-153L1151 -187V-259L1215 -293" stroke="#131313" stroke-width="34"/>
<path d="M335 1345V1273L399 1239V1167L463 1133V1061L527 1027V955L591 921V849L655 815V743L719 709V637L783 603V531L847 497V425L911 391V319L975 285V213L1039 179V107L1103 73V1L1167 -41V-113L1231 -147V-219L1295 -253" stroke="#131313" stroke-width="34"/>
<path d="M415 1385V1313L479 1279V1207L543 1173V1101L607 1067V995L671 961V889L735 855V783L799 749V677L863 643V571L927 537V465L991 431V359L1055 325V253L1119 219V147L1183 113V41L1247 -1V-73L1311 -107V-179L1375 -213" stroke="#131313" stroke-width="34"/>
<path d="M495 1425V1353L559 1319V1247L623 1213V1141L687 1107V1035L751 1001V929L815 895V823L879 789V717L943 683V611L1007 577V505L1071 471V399L1135 365V293L1199 259V187L1263 153V81L1327 39V-33L1391 -67V-139L1455 -173" stroke="#131313" stroke-width="34"/>
</g>
<defs>
<clipPath id="clip0_1364_1100">
<rect width="500" height="500" fill="white"/>
</clipPath>
</defs>
</svg>
