<svg width="500" height="500" viewBox="0 0 500 500" fill="none" xmlns="http://www.w3.org/2000/svg">
<g clip-path="url(#clip0_1364_1107)">
<path fill-rule="evenodd" clip-rule="evenodd" d="M6.06198 -1543.76L-307.572 -1383.96L250 250L-807.506 -1219.28L-1009.4 -930.935L250 250L-1373.51 -550.826L-1416.4 -201.449L250 250L-1559.44 305.103L-1433.29 633.723L250 250L-1337.2 1120.56L-1075.62 1356.1L250 250L-742.712 1763.81L-401.168 1848.96L250 250L84.1771 2052.66L425.721 1967.51L250 250L920.643 1931.47L1186.3 1700.53L250 250L1631.54 1419.8L1757.69 1091.18L250 250L2019.02 634.276L1976.12 284.9L250 250L1992.36 -241.207L1790.46 -529.549L250 250L1557.8 -1001.7L1244.17 -1161.5L250 250L847 -1459H495L250 250L6.06198 -1543.76Z" fill="#131313"/>
</g>
<defs>
<clipPath id="clip0_1364_1107">
<rect width="500" height="500" fill="white"/>
</clipPath>
</defs>
</svg>
