<svg width="500" height="500" viewBox="0 0 500 500" fill="none" xmlns="http://www.w3.org/2000/svg">
<g clip-path="url(#clip0_1364_1110)">
<path fill-rule="evenodd" clip-rule="evenodd" d="M548.456 -51.0418H522.726L522.731 -51.0464C522.383 -51.0464 522.103 -50.7532 522.122 -50.405C526.128 26.1069 530.128 102.49 534.125 178.803L534.696 189.704L535.124 197.885L535.375 202.671L535.752 209.87L536.495 224.06C540.431 299.213 544.364 374.309 548.296 449.406C548.305 449.616 548.483 449.777 548.694 449.767H548.703C548.905 449.758 549.065 449.593 549.065 449.387V-50.4325C549.065 -50.7715 548.79 -51.0418 548.456 -51.0418ZM466.34 -50.8769H493.334C493.645 -50.8769 493.906 -50.6432 493.938 -50.3317C511.418 117.545 528.875 285.193 546.332 452.838L546.642 455.807L546.757 456.919C546.79 457.249 546.556 457.542 546.231 457.584H546.222C545.897 457.625 545.595 457.4 545.544 457.075C527.496 342.345 509.445 227.615 491.369 112.725C482.833 58.466 474.291 4.1712 465.74 -50.1759C465.681 -50.547 465.969 -50.8769 466.34 -50.8769ZM-49.1002 30.9298C-49.1002 31.3009 -48.766 31.5895 -48.3998 31.53L443.082 -46.8223C443.856 -46.946 443.71 -48.1005 442.931 -48.0318C394.122 -43.6565 345.428 -38.5069 296.733 -33.3436C267.546 -30.2484 238.358 -27.15 209.17 -24.0514L209.159 -24.0503L209.148 -24.0492L209.138 -24.048L209.127 -24.0469L209.116 -24.0458L209.105 -24.0446L209.095 -24.0435L209.084 -24.0424L209.073 -24.0412C161.39 -18.9793 113.705 -13.9173 66.0204 -8.8694C55.6985 -7.77655 45.3759 -6.6939 35.0535 -5.61128C8.76648 -2.85426 -17.5186 -0.0974468 -43.7849 2.82708C-45.6986 3.04241 -48.7431 5.69508 -48.8576 7.38105C-49.254 13.1305 -49.1988 18.9111 -49.1415 24.9241C-49.1227 26.8986 -49.1036 28.8981 -49.1002 30.9298ZM438.719 -44.9393L-42.1596 58.1391C-42.4846 58.2079 -42.6952 58.5286 -42.6266 58.8584L59.62 543.289C59.6887 543.614 60.0137 543.825 60.3434 543.756C143.304 526.009 225.95 508.328 308.528 490.662L314.731 489.335L315.083 489.259C390.438 473.138 465.742 457.028 541.186 440.889C541.511 440.82 541.721 440.499 541.653 440.169C507.485 278.169 473.501 117.025 439.443 -44.472C439.374 -44.7973 439.049 -45.008 438.719 -44.9393ZM84.8921 535.872L-35.1594 84.4368V84.4322C-35.2464 84.1115 -35.0541 83.777 -34.729 83.69L25.8607 67.3425C155.04 32.489 283.837 -2.26123 413.223 -37.1691C413.548 -37.2562 413.882 -37.0638 413.969 -36.7385C441.243 65.8171 468.441 168.075 495.675 270.47C508.433 318.436 521.199 366.433 533.984 414.504C534.066 414.825 533.879 415.159 533.554 415.246L85.6384 536.302C85.3133 536.389 84.9791 536.197 84.8921 535.872ZM547.801 467.961C547.765 467.612 547.444 467.365 547.101 467.42L46.6132 547.435L46.7734 548.64C153.342 537.376 259.911 526.113 366.554 514.843L384.603 512.935L390.089 512.356L407.676 510.497C454.628 505.535 501.595 500.571 548.584 495.605C548.896 495.569 549.129 495.307 549.129 494.996C549.132 493.458 549.147 492.003 549.161 490.607V490.605V490.603V490.602V490.6V490.598V490.597V490.595V490.594V490.592V490.591V490.59V490.588V490.587V490.586C549.196 487.268 549.227 484.28 549.079 481.302C548.931 478.294 548.6 475.296 548.237 472.01C548.094 470.712 547.945 469.368 547.801 467.961ZM-46.6692 41.6642L33.034 549.392C33.0935 549.763 32.8051 550.092 32.4342 550.092H5.84362C5.53229 550.092 5.27133 549.859 5.23928 549.547C-12.4237 380.739 -30.1508 211.284 -47.8733 41.8245C-47.9007 41.5405 -47.7313 41.2747 -47.4658 41.1831C-47.1087 41.064 -46.7287 41.2931 -46.6692 41.6642ZM66.666 549.813C227.011 541.296 387.365 532.779 548.209 524.239C548.557 524.221 548.85 524.496 548.85 524.849V550.422C548.85 550.757 548.58 551.032 548.241 551.032H66.698C66.6866 550.638 66.6843 550.531 66.682 550.425C66.6797 550.318 66.6774 550.212 66.666 549.818V549.813ZM-48.0747 550.77H-24.0205C-23.6725 550.77 -23.3932 550.477 -23.4116 550.129C-27.7694 465.541 -32.116 381.2 -36.4564 296.978L-36.4646 296.819L-36.4803 296.515L-36.5017 296.1L-36.5154 295.833L-36.5525 295.113L-36.559 294.988C-40.4469 219.546 -44.33 144.198 -48.2121 68.8506C-48.2948 68.8553 -48.3764 68.8613 -48.4574 68.8672L-48.4578 68.8672C-48.5334 68.8728 -48.6085 68.8782 -48.6836 68.8827V550.161C-48.6836 550.5 -48.4089 550.77 -48.0747 550.77ZM-48.4593 -26.0087V-50.1347C-48.4593 -50.4691 -48.1892 -50.744 -47.8504 -50.744H411.309C411.321 -50.35 411.323 -50.2435 411.325 -50.137C411.328 -50.0304 411.33 -49.9239 411.341 -49.5299L193.178 -38.0646L-47.8183 -25.3993C-48.1663 -25.381 -48.4593 -25.6605 -48.4593 -26.0087ZM425.562 82.376L390.089 -27.658H390.084C389.979 -27.9787 389.64 -28.1574 389.32 -28.052C376.2 -23.7515 142.789 52.7242 31.7585 89.1028L-25.4535 107.848C-25.7694 107.953 -25.9388 108.292 -25.838 108.613L108.91 526.489C109.015 526.809 109.358 526.983 109.679 526.878C202.203 496.611 294.418 466.442 386.676 436.259L387.957 435.84L390.107 435.136C434.874 420.49 479.651 405.841 524.48 391.175C524.796 391.07 524.969 390.731 524.869 390.41C491.688 287.494 458.652 185.018 425.562 82.376ZM327.965 440.102C262.847 465.31 197.673 490.54 132.263 515.86C131.948 515.979 131.595 515.823 131.476 515.507C89.2438 404.65 47.2509 294.437 5.04227 183.657L4.95872 183.438L-14.8731 131.388C-14.9921 131.076 -14.8364 130.723 -14.5251 130.604C38.4801 110.115 91.4183 89.652 144.393 69.1751L148.779 67.4795L153.084 65.8156L153.719 65.5702C224.528 38.1993 295.413 10.7991 366.621 -16.7266C366.937 -16.8457 367.289 -16.69 367.408 -16.3738C412.683 102.447 457.82 220.9 503.229 340.067L505.631 346.372L513.702 367.553C513.821 367.865 513.666 368.217 513.354 368.336C454.957 390.942 396.65 413.513 338.306 436.099L335.043 437.362L330.297 439.199L329.443 439.53L327.965 440.102ZM-2.02644 151.757L345.588 -4.31543C345.895 -4.45287 346.257 -4.31543 346.394 -4.00847C347.755 -0.968953 349.105 2.03999 350.447 5.02838L350.458 5.05393L350.46 5.05844L350.466 5.07102C353.645 12.1533 356.772 19.1204 359.859 26.1055C370.992 51.3009 382.124 76.4969 393.256 101.693L393.611 102.496C428.782 182.101 463.953 261.705 499.171 341.287C500.824 345.017 501.423 347.234 496.717 349.337C404.81 390.418 312.947 431.599 221.086 472.779L221.004 472.816C199.404 482.499 177.804 492.182 156.203 501.863C155.684 502.096 155.138 502.273 154.347 502.53L154.345 502.53L154.345 502.53C153.987 502.646 153.578 502.779 153.099 502.94C152.802 503.041 152.477 502.899 152.348 502.61C114.751 417.526 77.1627 332.467 39.3948 247.001L-2.33776 152.563C-2.47511 152.256 -2.33776 151.899 -2.03101 151.761L-2.02644 151.757ZM172.653 489.113C239.857 454.594 306.793 420.211 373.743 385.822L486.924 327.685C487.222 327.534 487.341 327.167 487.19 326.87C455.185 263.584 423.333 200.604 391.51 137.679C370.03 95.2058 348.562 52.7581 327.069 10.2582C326.918 9.95584 326.547 9.83672 326.25 9.99249C282.255 32.5659 238.445 55.0457 194.703 77.4908L194.12 77.7902C133.361 108.967 72.7317 140.077 11.919 171.278C11.6214 171.43 11.5024 171.796 11.6534 172.094C41.9815 232.065 72.1918 291.806 102.435 351.613C125.526 397.276 148.637 442.976 171.834 488.847C171.985 489.15 172.355 489.269 172.653 489.113ZM97.2191 312.613C127.932 366.214 158.634 419.799 189.442 473.568H189.437C189.606 473.861 189.977 473.962 190.27 473.793C257.311 434.806 323.859 396.103 390.413 357.397L391.772 356.606L471.916 309.996C472.205 309.827 472.301 309.455 472.136 309.167C451.525 273.192 430.967 237.31 410.422 201.45L408.721 198.482L406.987 195.455L405.391 192.669L402.338 187.341C371.426 133.385 340.53 79.459 309.511 25.3221C309.342 25.0289 308.971 24.9281 308.678 25.0976C277.734 43.1122 246.87 61.0808 216.035 79.032L215.807 79.1649L212.666 80.9931C150.832 116.992 89.1105 152.924 27.1005 189.022C26.8121 189.192 26.716 189.563 26.8808 189.852C50.3665 230.842 73.7957 271.732 97.2191 312.613ZM214.059 93.3848L292.833 41.8566V41.8612C293.112 41.6779 293.492 41.7558 293.675 42.0399C347.552 125.638 401.232 208.934 455.526 293.187C455.705 293.466 455.627 293.842 455.348 294.025C418.825 317.937 382.322 341.836 345.762 365.773C299.355 396.156 252.856 426.6 206.106 457.208C205.827 457.391 205.447 457.313 205.264 457.029C177.65 414.189 150.069 371.4 122.44 328.535C96.135 287.725 69.7859 246.847 43.3214 205.791C43.1428 205.511 43.2206 205.135 43.4999 204.952C100.365 167.756 157.101 130.643 213.974 93.4404L214.059 93.3848ZM435.785 281.848C364.515 334.008 293.89 385.696 222.492 437.952C220.853 439.152 218.546 438.786 217.355 437.136C165.79 365.62 114.372 294.309 62.4173 222.256C61.2407 220.621 61.5978 218.339 63.2231 217.153C134.269 165.112 204.999 113.305 276.456 60.9659C278.095 59.7655 280.403 60.1275 281.593 61.7768C304.391 93.3928 327.156 124.966 349.951 156.58L350.796 157.752L351.226 158.348L351.675 158.971C379.894 198.107 408.16 237.308 436.591 276.735C437.767 278.37 437.405 280.652 435.78 281.843L435.785 281.848ZM234.382 419.356C265.569 393.891 296.569 368.58 327.52 343.31L333.99 338.027L336.599 335.897L341.738 331.701L343.055 330.626L417.481 269.858C419.042 268.584 419.28 266.289 418.021 264.717C390.581 230.581 363.296 196.633 336.008 162.683L335.093 161.544L334.303 160.562C312.81 133.821 291.312 107.075 269.735 80.2309C268.463 78.6458 266.141 78.4029 264.566 79.6857C242.518 97.669 220.515 115.614 198.528 133.547C159.491 165.385 120.502 197.184 81.3897 229.087C79.8285 230.361 79.5859 232.656 80.8495 234.228C119.186 281.927 157.226 329.251 195.41 376.757L195.606 376.999L195.855 377.31L229.213 418.81C230.486 420.396 232.812 420.638 234.386 419.356H234.382ZM139.687 288.836L140.271 289.488L140.738 290.011C173.532 326.707 206.171 363.228 239.043 400.008H239.047C240.402 401.525 242.733 401.648 244.239 400.283C274.606 372.743 304.808 345.352 335.011 317.961L340.936 312.587L398.948 259.976C400.44 258.62 400.559 256.315 399.218 254.812C371.45 223.736 343.822 192.821 316.167 161.875L315.657 161.305L315.595 161.235L315.032 160.605L314.8 160.346C296.529 139.902 278.246 119.443 259.901 98.9142C258.541 97.3977 256.211 97.2786 254.705 98.6439C211.439 137.92 168.483 176.919 125.554 215.893L122.848 218.349L122.428 218.731L100.06 239.038C98.572 240.39 98.4529 242.694 99.7944 244.197L139.687 288.836ZM380.204 252.251C336.665 294.877 293.858 336.788 252.219 377.559L252.214 377.554C250.79 378.947 248.52 378.947 247.096 377.554L221.624 352.611C187.921 319.607 153.672 286.069 119.092 252.21C117.627 250.776 117.622 248.412 119.087 246.973L155.328 211.35C186.259 180.946 216.789 150.937 246.743 121.496C248.167 120.099 250.442 120.099 251.866 121.492L297.574 166.194C324.798 192.819 352.353 219.767 380.204 247.005C381.674 248.444 381.674 250.813 380.204 252.251ZM252.649 360.827C237.999 347.53 223.423 334.299 208.876 321.095L208.35 320.617C185.299 299.694 162.319 278.837 139.236 257.882C137.744 256.53 137.625 254.221 138.966 252.723C173.079 214.541 206.857 176.73 241.08 138.42C242.435 136.904 244.77 136.78 246.276 138.145C284.184 172.525 321.717 206.565 359.767 241.077C361.26 242.429 361.379 244.738 360.037 246.24C341.496 266.984 323.028 287.642 304.551 308.311L304.52 308.345L304.197 308.707L304.015 308.911C288.648 326.1 273.274 343.297 257.846 360.557C256.495 362.069 254.155 362.193 252.649 360.827ZM237.385 158.826C211.037 191.611 185.101 223.887 158.909 256.485C157.645 258.056 157.888 260.351 159.449 261.625C182.849 280.722 206.094 299.689 229.458 318.754L230.269 319.416L231.068 320.068L256.376 340.719C257.946 342.002 260.277 341.759 261.549 340.174L339.984 242.484C341.243 240.912 341.001 238.617 339.444 237.343L312.586 215.425C289.295 196.418 266.094 177.485 242.559 158.281C240.988 156.998 238.658 157.245 237.385 158.826ZM288.541 284.869C299.065 270.273 309.612 255.647 320.321 240.793V240.802C321.497 239.167 321.136 236.885 319.51 235.694C293.034 216.319 267.094 197.338 240.865 178.146C239.23 176.946 236.914 177.317 235.728 178.962L232.548 183.378L232.543 183.385L232.056 184.062C214.072 209.04 196.446 233.52 178.66 258.221C177.483 259.852 177.845 262.138 179.47 263.325C192.378 272.768 205.125 282.094 217.833 291.392C231.241 301.201 244.604 310.978 258.065 320.827C259.704 322.022 262.016 321.656 263.202 320.011C271.573 308.4 279.888 296.869 288.216 285.32L288.541 284.869ZM263.057 212.434C275.153 220.35 287.19 228.228 299.316 236.161C301 237.261 301.481 239.519 300.391 241.215C287.806 260.777 275.481 279.932 262.749 299.72C261.65 301.424 259.361 301.914 257.662 300.806L243.548 291.582L240.357 289.497C226.821 280.651 213.309 271.82 199.587 262.853C197.902 261.753 197.421 259.49 198.511 257.795C205.614 246.774 212.651 235.853 219.709 224.9L219.877 224.639L221.072 222.785C226.096 214.987 231.135 207.168 236.218 199.28C237.317 197.576 239.606 197.09 241.304 198.199C248.597 202.971 255.837 207.71 263.057 212.434ZM279.771 238.585C272.244 234.218 264.888 229.953 257.536 225.689C252.931 223.019 248.328 220.349 243.685 217.657C241.931 216.64 239.674 217.249 238.667 219.004L238.156 219.896C231.292 231.879 224.658 243.461 217.854 255.344C216.861 257.08 217.461 259.33 219.191 260.338L221.57 261.723C232.818 268.275 243.866 274.71 255.277 281.362C257.031 282.384 259.292 281.779 260.299 280.015C267.442 267.517 274.222 255.651 281.117 243.579C282.11 241.838 281.506 239.593 279.775 238.585H279.771ZM265.935 244.889C262.854 251.596 259.823 258.193 256.628 265.139C256.179 266.119 255.012 266.545 254.032 266.087C250.603 264.476 247.234 262.894 243.875 261.316L243.863 261.31C240.569 259.763 237.284 258.221 233.961 256.659C232.999 256.205 232.573 255.046 233.022 254.079C235.155 249.446 237.252 244.897 239.373 240.296L239.417 240.199C240.381 238.107 241.35 236.005 242.33 233.88C242.778 232.904 243.946 232.478 244.921 232.931C246.16 233.51 247.393 234.086 248.624 234.662C249.726 235.177 250.825 235.691 251.925 236.204L251.996 236.238C256.294 238.247 260.589 240.254 264.992 242.309C265.954 242.758 266.379 243.922 265.935 244.889ZM248.369 253.788C249.405 254.168 250.445 254.549 251.5 254.936L251.505 254.931C251.848 255.055 252.223 254.881 252.347 254.537C252.62 253.774 252.888 253.022 253.154 252.278C253.731 250.66 254.296 249.076 254.87 247.473C254.989 247.134 254.81 246.758 254.476 246.634C252.939 246.074 251.438 245.527 249.936 244.98L247.471 244.082C247.128 243.959 246.752 244.137 246.629 244.477C245.773 246.863 244.949 249.163 244.102 251.527C243.978 251.866 244.157 252.242 244.491 252.366C245.792 252.844 247.077 253.315 248.369 253.788Z" fill="#131313"/>
</g>
<defs>
<clipPath id="clip0_1364_1110">
<rect width="500" height="500" fill="white"/>
</clipPath>
</defs>
</svg>
