<svg width="500" height="500" viewBox="0 0 500 500" fill="none" xmlns="http://www.w3.org/2000/svg">
<g clip-path="url(#clip0_1364_1113)">
<g clip-path="url(#clip1_1364_1113)">
<path fill-rule="evenodd" clip-rule="evenodd" d="M1656 -369.234C1656 -369.234 1622.33 -341.393 1571.75 -332.472C1527.6 -324.678 1480.17 -332.472 1480.17 -332.472V-361.659C1477.12 -362.143 1431.41 -369.162 1388.76 -361.633C1338.18 -352.712 1304.51 -324.87 1304.51 -324.87V-354.127C1304.51 -354.127 1270.84 -326.285 1220.26 -317.364C1176.1 -309.57 1128.68 -317.364 1128.68 -317.364V-346.548C1125.77 -347.012 1079.98 -354.067 1037.25 -346.525C986.671 -337.604 953 -309.762 953 -309.762V-339.227C952.379 -338.716 918.865 -311.309 868.757 -302.472C824.606 -294.678 777.182 -302.472 777.182 -302.472V-331.659C774.132 -332.143 728.422 -339.162 685.768 -331.633C635.187 -322.712 601.516 -294.87 601.516 -294.87V-324.127C601.516 -324.127 567.845 -296.285 517.265 -287.364C473.114 -279.57 425.689 -287.364 425.689 -287.364V-316.548C422.775 -317.012 376.985 -324.067 334.26 -316.525C283.68 -307.604 250.009 -279.762 250.009 -279.762V-309.234C250.009 -309.234 216.338 -281.393 165.757 -272.472C121.606 -264.678 74.1816 -272.472 74.1816 -272.472V-301.659C71.1323 -302.143 25.4225 -309.162 -17.2324 -301.633C-67.8127 -292.712 -101.484 -264.87 -101.484 -264.87V-294.127C-101.484 -294.127 -135.155 -266.285 -185.735 -257.364C-229.886 -249.57 -277.311 -257.364 -277.311 -257.364V-286.548C-280.225 -287.012 -326.015 -294.067 -368.74 -286.525C-419.32 -277.604 -452.991 -249.762 -452.991 -249.762V-281.234C-452.991 -281.234 -486.662 -253.393 -537.243 -244.472C-581.394 -236.678 -628.818 -244.472 -628.818 -244.472V-273.659C-631.868 -274.143 -677.578 -281.162 -720.232 -273.633C-770.813 -264.712 -804.484 -236.87 -804.484 -236.87V-266.127C-804.484 -266.127 -838.155 -238.285 -888.735 -229.364C-932.886 -221.57 -980.311 -229.364 -980.311 -229.364V-258.548C-983.225 -259.012 -1029.01 -266.067 -1071.74 -258.525C-1122.32 -249.604 -1155.99 -221.762 -1155.99 -221.762V-279.124C-1155.99 -279.124 -1122.32 -306.966 -1071.74 -315.887C-1027.59 -323.681 -980.164 -315.887 -980.164 -315.887V-286.703C-977.25 -286.239 -931.46 -279.184 -888.735 -286.726C-838.155 -295.647 -804.484 -323.489 -804.484 -323.489V-294.232C-804.484 -294.232 -770.813 -322.074 -720.232 -330.995C-676.081 -338.789 -628.657 -330.995 -628.657 -330.995V-301.808C-625.608 -301.324 -579.898 -294.304 -537.243 -301.834C-486.662 -310.755 -452.991 -338.597 -452.991 -338.597V-307.124C-452.991 -307.124 -419.32 -334.966 -368.74 -343.887C-324.589 -351.681 -277.164 -343.887 -277.164 -343.887V-314.703C-274.25 -314.239 -228.46 -307.184 -185.735 -314.726C-135.155 -323.647 -101.484 -351.489 -101.484 -351.489V-322.232C-101.484 -322.232 -67.8127 -350.074 -17.2324 -358.995C26.9187 -366.789 74.3431 -358.995 74.3431 -358.995V-329.808C77.3925 -329.324 123.102 -322.304 165.757 -329.834C216.338 -338.755 250.009 -366.597 250.009 -366.597V-337.124C250.009 -337.124 283.68 -364.966 334.26 -373.887C378.411 -381.681 425.836 -373.887 425.836 -373.887V-344.703C428.75 -344.239 474.54 -337.184 517.265 -344.726C567.845 -353.647 601.516 -381.489 601.516 -381.489V-352.232C601.516 -352.232 635.187 -380.074 685.768 -388.995C729.919 -396.789 777.343 -388.995 777.343 -388.995V-359.808C780.392 -359.324 826.102 -352.304 868.757 -359.834C919.337 -368.755 953.009 -396.597 953.009 -396.597V-367.132C953.63 -367.642 987.143 -395.049 1037.25 -403.887C1081.4 -411.681 1128.83 -403.887 1128.83 -403.887V-374.703C1131.74 -374.239 1177.53 -367.184 1220.26 -374.726C1270.84 -383.647 1304.51 -411.489 1304.51 -411.489V-382.232C1304.51 -382.232 1338.18 -410.074 1388.76 -418.995C1432.91 -426.789 1480.33 -418.995 1480.33 -418.995V-389.808C1483.38 -389.324 1529.09 -382.304 1571.75 -389.834C1622.33 -398.755 1656 -426.597 1656 -426.597V-369.234ZM1656 -139.542C1656 -139.542 1622.33 -111.7 1571.75 -102.779C1527.6 -94.9852 1480.17 -102.779 1480.17 -102.779V-131.966C1477.12 -132.45 1431.41 -139.469 1388.76 -131.94C1338.18 -123.019 1304.51 -95.1772 1304.51 -95.1772V-124.434C1304.51 -124.434 1270.84 -96.5919 1220.26 -87.6711C1176.1 -79.8773 1128.68 -87.6711 1128.68 -87.6711V-116.855C1125.77 -117.319 1079.98 -124.374 1037.25 -116.832C986.671 -107.911 953 -80.0692 953 -80.0692V-109.534C952.379 -109.023 918.865 -81.6166 868.757 -72.779C824.606 -64.9852 777.182 -72.779 777.182 -72.779V-101.966C774.132 -102.45 728.422 -109.469 685.768 -101.94C635.187 -93.0189 601.516 -65.1772 601.516 -65.1772V-94.4337C601.516 -94.4337 567.845 -66.5919 517.265 -57.6711C473.114 -49.8773 425.689 -57.6711 425.689 -57.6711V-86.8555C422.775 -87.3192 376.985 -94.3739 334.26 -86.8319C283.68 -77.911 250.009 -50.0692 250.009 -50.0692V-79.5416C250.009 -79.5416 216.338 -51.6999 165.757 -42.779C121.606 -34.9852 74.1816 -42.779 74.1816 -42.779V-71.9657C71.1323 -72.4501 25.4225 -79.4694 -17.2324 -71.9398C-67.8127 -63.0189 -101.484 -35.1772 -101.484 -35.1772V-64.4337C-101.484 -64.4337 -135.155 -36.5919 -185.735 -27.6711C-229.886 -19.8773 -277.311 -27.6711 -277.311 -27.6711V-56.8555C-280.225 -57.3192 -326.015 -64.3739 -368.74 -56.8319C-419.32 -47.911 -452.991 -20.0692 -452.991 -20.0692V-51.5416C-452.991 -51.5416 -486.662 -23.6999 -537.243 -14.779C-581.394 -6.98523 -628.818 -14.779 -628.818 -14.779V-43.9657C-631.868 -44.4501 -677.578 -51.4694 -720.232 -43.9398C-770.813 -35.0189 -804.484 -7.17715 -804.484 -7.17715V-36.4337C-804.484 -36.4337 -838.155 -8.59195 -888.735 0.328918C-932.886 8.12268 -980.311 0.328918 -980.311 0.328918V-28.8555C-983.225 -29.3192 -1029.01 -36.3739 -1071.74 -28.8319C-1122.32 -19.911 -1155.99 7.93076 -1155.99 7.93076V-49.4314C-1155.99 -49.4314 -1122.32 -77.2732 -1071.74 -86.1941C-1027.59 -93.9878 -980.164 -86.1941 -980.164 -86.1941V-57.0096C-977.25 -56.546 -931.46 -49.4913 -888.735 -57.0333C-838.155 -65.9541 -804.484 -93.7959 -804.484 -93.7959V-64.5393C-804.484 -64.5393 -770.813 -92.3811 -720.232 -101.302C-676.081 -109.096 -628.657 -101.302 -628.657 -101.302V-72.1152C-625.608 -71.6308 -579.898 -64.6115 -537.243 -72.1412C-486.662 -81.062 -452.991 -108.904 -452.991 -108.904V-77.4314C-452.991 -77.4314 -419.32 -105.273 -368.74 -114.194C-324.589 -121.988 -277.164 -114.194 -277.164 -114.194V-85.0096C-274.25 -84.546 -228.46 -77.4913 -185.735 -85.0333C-135.155 -93.9541 -101.484 -121.796 -101.484 -121.796V-92.5393C-101.484 -92.5393 -67.8127 -120.381 -17.2324 -129.302C26.9187 -137.096 74.3431 -129.302 74.3431 -129.302V-100.115C77.3925 -99.6308 123.102 -92.6115 165.757 -100.141C216.338 -109.062 250.009 -136.904 250.009 -136.904V-107.431C250.009 -107.431 283.68 -135.273 334.26 -144.194C378.411 -151.988 425.836 -144.194 425.836 -144.194V-115.01C428.75 -114.546 474.54 -107.491 517.265 -115.033C567.845 -123.954 601.516 -151.796 601.516 -151.796V-122.539C601.516 -122.539 635.187 -150.381 685.768 -159.302C729.919 -167.096 777.343 -159.302 777.343 -159.302V-130.115C780.392 -129.631 826.102 -122.612 868.757 -130.141C919.337 -139.062 953.009 -166.904 953.009 -166.904V-137.439C953.63 -137.95 987.143 -165.356 1037.25 -174.194C1081.4 -181.988 1128.83 -174.194 1128.83 -174.194V-145.01C1131.74 -144.546 1177.53 -137.491 1220.26 -145.033C1270.84 -153.954 1304.51 -181.796 1304.51 -181.796V-152.539C1304.51 -152.539 1338.18 -180.381 1388.76 -189.302C1432.91 -197.096 1480.33 -189.302 1480.33 -189.302V-160.115C1483.38 -159.631 1529.09 -152.612 1571.75 -160.141C1622.33 -169.062 1656 -196.904 1656 -196.904V-139.542ZM1571.75 12.0555C1622.33 3.13461 1656 -24.7072 1656 -24.7072V-82.0693C1656 -82.0693 1622.33 -54.2276 1571.75 -45.3067C1529.09 -37.7771 1483.38 -44.7963 1480.33 -45.2808V-74.4675C1480.33 -74.4675 1432.91 -82.2613 1388.76 -74.4675C1338.18 -65.5466 1304.51 -37.7049 1304.51 -37.7049V-66.9375C1304.51 -66.9375 1270.84 -39.0957 1220.26 -30.1749C1177.53 -22.6329 1131.74 -29.6876 1128.83 -30.1512V-59.3596C1128.83 -59.3596 1081.4 -67.1534 1037.25 -59.3596C987.143 -50.522 953.63 -23.1151 953.009 -22.6042V-52.0693C953.009 -52.0693 919.337 -24.2276 868.757 -15.3067C826.102 -7.77704 780.392 -14.7963 777.343 -15.2808V-44.4675C777.343 -44.4675 729.919 -52.2613 685.768 -44.4675C635.187 -35.5466 601.516 -7.70486 601.516 -7.70486V-36.9375C601.516 -36.9375 567.845 -9.09576 517.265 -0.174866C474.54 7.36713 428.75 0.312408 425.836 -0.151245V-29.3596C425.836 -29.3596 378.411 -37.1534 334.26 -29.3596C283.68 -20.4387 250.009 7.40308 250.009 7.40308V-22.0693C250.009 -22.0693 216.338 5.77243 165.757 14.6933C123.102 22.223 77.3925 15.2037 74.3431 14.7192V-14.4675C74.3431 -14.4675 26.9187 -22.2613 -17.2324 -14.4675C-67.8127 -5.54663 -101.484 22.2951 -101.484 22.2951V-6.9375C-101.484 -6.9375 -135.155 20.9042 -185.735 29.8251C-228.46 37.3671 -274.25 30.3124 -277.164 29.8488V0.640411C-277.164 0.640411 -324.589 -7.15335 -368.74 0.640411C-419.32 9.56128 -452.991 37.4031 -452.991 37.4031V5.93066C-452.991 5.93066 -486.662 33.7724 -537.243 42.6933C-579.898 50.223 -625.608 43.2037 -628.657 42.7192V13.5325C-628.657 13.5325 -676.081 5.73874 -720.232 13.5325C-770.813 22.4534 -804.484 50.2951 -804.484 50.2951V21.0625C-804.484 21.0625 -838.155 48.9042 -888.735 57.8251C-931.46 65.3671 -977.25 58.3124 -980.164 57.8488V28.6404C-980.164 28.6404 -1027.59 20.8466 -1071.74 28.6404C-1122.32 37.5613 -1155.99 65.4031 -1155.99 65.4031V65.427V122.789C-1155.99 122.789 -1122.32 94.9474 -1071.74 86.0026C-1029.01 78.4606 -983.225 85.5153 -980.311 85.979V115.187C-980.311 115.187 -932.886 122.981 -888.735 115.187C-838.155 106.266 -804.484 78.4247 -804.484 78.4247V107.657C-804.484 107.657 -770.813 79.8156 -720.232 70.8947C-677.578 63.3651 -631.868 70.3843 -628.818 70.8687V100.055C-628.818 100.055 -581.394 107.849 -537.243 100.055C-486.662 91.1346 -452.991 63.2928 -452.991 63.2928V94.7892C-452.991 94.7892 -419.32 66.9474 -368.74 58.0026C-326.015 50.4606 -280.225 57.5153 -277.311 57.979V87.1873C-277.311 87.1873 -229.886 94.9811 -185.735 87.1873C-135.155 78.2664 -101.484 50.4247 -101.484 50.4247V79.6573C-101.484 79.6573 -67.8127 51.8156 -17.2324 42.8947C25.4225 35.3651 71.1323 42.3843 74.1816 42.8687V72.0555C74.1816 72.0555 121.606 79.8492 165.757 72.0555C216.338 63.1346 250.009 35.2928 250.009 35.2928V64.7892C250.009 64.7892 283.68 36.9474 334.26 28.0026C376.985 20.4606 422.775 27.5153 425.689 27.979V57.1873C425.689 57.1873 473.114 64.9811 517.265 57.1873C567.845 48.2664 601.516 20.4247 601.516 20.4247V49.6573C601.516 49.6573 635.187 21.8156 685.768 12.8947C728.422 5.36505 774.132 12.3843 777.182 12.8687V42.0555C777.182 42.0555 824.606 49.8492 868.757 42.0555C918.865 33.2179 952.379 5.811 953 5.30008V34.7892C953 34.7892 986.671 6.94745 1037.25 -1.99741C1079.98 -9.53943 1125.77 -2.48468 1128.68 -2.02103V27.1873C1128.68 27.1873 1176.1 34.9811 1220.26 27.1873C1270.84 18.2664 1304.51 -9.57532 1304.51 -9.57532V19.6573C1304.51 19.6573 1338.18 -8.18445 1388.76 -17.1053C1431.41 -24.6349 1477.12 -17.6157 1480.17 -17.1313V12.0555C1480.17 12.0555 1527.6 19.8492 1571.75 12.0555ZM1656 -254.4C1656 -254.4 1622.33 -226.558 1571.75 -217.637C1527.6 -209.844 1480.17 -217.637 1480.17 -217.637V-246.824C1477.12 -247.309 1431.41 -254.328 1388.76 -246.798C1338.18 -237.877 1304.51 -210.036 1304.51 -210.036V-239.268C1304.51 -239.268 1270.84 -211.426 1220.26 -202.506C1176.1 -194.712 1128.68 -202.506 1128.68 -202.506V-231.714C1125.77 -232.178 1079.98 -239.232 1037.25 -231.69C986.671 -222.745 953 -194.904 953 -194.904V-224.393C952.379 -223.882 918.865 -196.475 868.757 -187.637C824.606 -179.844 777.182 -187.637 777.182 -187.637V-216.824C774.132 -217.309 728.422 -224.328 685.768 -216.798C635.187 -207.877 601.516 -180.036 601.516 -180.036V-209.268C601.516 -209.268 567.845 -181.426 517.265 -172.506C473.114 -164.712 425.689 -172.506 425.689 -172.506V-201.714C422.775 -202.178 376.985 -209.232 334.26 -201.69C283.68 -192.745 250.009 -164.904 250.009 -164.904V-194.4C250.009 -194.4 216.338 -166.558 165.757 -157.637C121.606 -149.844 74.1816 -157.637 74.1816 -157.637V-186.824C71.1323 -187.309 25.4225 -194.328 -17.2324 -186.798C-67.8127 -177.877 -101.484 -150.036 -101.484 -150.036V-179.268C-101.484 -179.268 -135.155 -151.426 -185.735 -142.506C-229.886 -134.712 -277.311 -142.506 -277.311 -142.506V-171.714C-280.225 -172.178 -326.015 -179.232 -368.74 -171.69C-419.32 -162.745 -452.991 -134.904 -452.991 -134.904V-166.4C-452.991 -166.4 -486.662 -138.558 -537.243 -129.637C-581.394 -121.844 -628.818 -129.637 -628.818 -129.637V-158.824C-631.868 -159.309 -677.578 -166.328 -720.232 -158.798C-770.813 -149.877 -804.484 -122.036 -804.484 -122.036V-151.268C-804.484 -151.268 -838.155 -123.426 -888.735 -114.506C-932.886 -106.712 -980.311 -114.506 -980.311 -114.506V-143.714C-983.225 -144.178 -1029.01 -151.232 -1071.74 -143.69C-1122.32 -134.745 -1155.99 -106.904 -1155.99 -106.904V-164.266V-164.29C-1155.99 -164.29 -1122.32 -192.132 -1071.74 -201.052C-1027.59 -208.846 -980.164 -201.052 -980.164 -201.052V-171.844C-977.25 -171.38 -931.46 -164.326 -888.735 -171.868C-838.155 -180.789 -804.484 -208.63 -804.484 -208.63V-179.398C-804.484 -179.398 -770.813 -207.24 -720.232 -216.16C-676.081 -223.954 -628.657 -216.16 -628.657 -216.16V-186.974C-625.608 -186.489 -579.898 -179.47 -537.243 -187C-486.662 -195.92 -452.991 -223.762 -452.991 -223.762V-192.29C-452.991 -192.29 -419.32 -220.132 -368.74 -229.052C-324.589 -236.846 -277.164 -229.052 -277.164 -229.052V-199.844C-274.25 -199.38 -228.46 -192.326 -185.735 -199.868C-135.155 -208.789 -101.484 -236.63 -101.484 -236.63V-207.398C-101.484 -207.398 -67.8127 -235.24 -17.2324 -244.16C26.9187 -251.954 74.3431 -244.16 74.3431 -244.16V-214.974C77.3925 -214.489 123.102 -207.47 165.757 -215C216.338 -223.92 250.009 -251.762 250.009 -251.762V-222.29C250.009 -222.29 283.68 -250.132 334.26 -259.052C378.411 -266.846 425.836 -259.052 425.836 -259.052V-229.844C428.75 -229.38 474.54 -222.326 517.265 -229.868C567.845 -238.789 601.516 -266.63 601.516 -266.63V-237.398C601.516 -237.398 635.187 -265.24 685.768 -274.16C729.919 -281.954 777.343 -274.16 777.343 -274.16V-244.974C780.392 -244.489 826.102 -237.47 868.757 -245C919.337 -253.92 953.009 -281.762 953.009 -281.762V-252.297C953.63 -252.808 987.143 -280.215 1037.25 -289.052C1081.4 -296.846 1128.83 -289.052 1128.83 -289.052V-259.844C1131.74 -259.38 1177.53 -252.326 1220.26 -259.868C1270.84 -268.789 1304.51 -296.63 1304.51 -296.63V-267.398C1304.51 -267.398 1338.18 -295.24 1388.76 -304.16C1432.91 -311.954 1480.33 -304.16 1480.33 -304.16V-274.974C1483.38 -274.489 1529.09 -267.47 1571.75 -275C1622.33 -283.92 1656 -311.762 1656 -311.762V-254.4ZM1571.75 126.914C1622.33 117.993 1656 90.1512 1656 90.1512V32.7891C1656 32.7891 1622.33 60.6308 1571.75 69.5517C1529.09 77.0813 1483.38 70.062 1480.33 69.5776V40.3909C1480.33 40.3909 1432.91 32.5971 1388.76 40.3909C1338.18 49.3118 1304.51 77.1535 1304.51 77.1535V47.897C1304.51 47.897 1270.84 75.7387 1220.26 84.6596C1177.53 92.2016 1131.74 85.1469 1128.83 84.6832V55.4988C1128.83 55.4988 1081.4 47.705 1037.25 55.4988C987.143 64.3364 953.63 91.7433 953.009 92.2542V62.7891C953.009 62.7891 919.337 90.6308 868.757 99.5517C826.102 107.081 780.392 100.062 777.343 99.5776V70.3909C777.343 70.3909 729.919 62.5971 685.768 70.3909C635.187 79.3118 601.516 107.154 601.516 107.154V77.897C601.516 77.897 567.845 105.739 517.265 114.66C474.54 122.202 428.75 115.147 425.836 114.683V85.4988C425.836 85.4988 378.411 77.705 334.26 85.4988C283.68 94.4197 250.009 122.261 250.009 122.261V92.7891C250.009 92.7891 216.338 120.631 165.757 129.552C123.102 137.081 77.3925 130.062 74.3431 129.578V100.391C74.3431 100.391 26.9187 92.5971 -17.2324 100.391C-67.8127 109.312 -101.484 137.154 -101.484 137.154V107.897C-101.484 107.897 -135.155 135.739 -185.735 144.66C-228.46 152.202 -274.25 145.147 -277.164 144.683V115.499C-277.164 115.499 -324.589 107.705 -368.74 115.499C-419.32 124.42 -452.991 152.261 -452.991 152.261V120.789C-452.991 120.789 -486.662 148.631 -537.243 157.552C-579.898 165.081 -625.608 158.062 -628.657 157.578V128.391C-628.657 128.391 -676.081 120.597 -720.232 128.391C-770.813 137.312 -804.484 165.154 -804.484 165.154V135.897C-804.484 135.897 -838.155 163.739 -888.735 172.66C-931.46 180.202 -977.25 173.147 -980.164 172.683V143.499C-980.164 143.499 -1027.59 135.705 -1071.74 143.499C-1122.32 152.42 -1155.99 180.261 -1155.99 180.261V237.624C-1155.99 237.624 -1122.32 209.782 -1071.74 200.861C-1029.01 193.319 -983.225 200.374 -980.311 200.837V230.022C-980.311 230.022 -932.886 237.816 -888.735 230.022C-838.155 221.101 -804.484 193.259 -804.484 193.259V222.516C-804.484 222.516 -770.813 194.674 -720.232 185.753C-677.578 178.223 -631.868 185.243 -628.818 185.727V214.914C-628.818 214.914 -581.394 222.708 -537.243 214.914C-486.662 205.993 -452.991 178.151 -452.991 178.151V209.624C-452.991 209.624 -419.32 181.782 -368.74 172.861C-326.015 165.319 -280.225 172.374 -277.311 172.837V202.022C-277.311 202.022 -229.886 209.816 -185.735 202.022C-135.155 193.101 -101.484 165.259 -101.484 165.259V194.516C-101.484 194.516 -67.8127 166.674 -17.2324 157.753C25.4225 150.223 71.1323 157.243 74.1816 157.727V186.914C74.1816 186.914 121.606 194.708 165.757 186.914C216.338 177.993 250.009 150.151 250.009 150.151V179.624C250.009 179.624 283.68 151.782 334.26 142.861C376.985 135.319 422.775 142.374 425.689 142.837V172.022C425.689 172.022 473.114 179.816 517.265 172.022C567.845 163.101 601.516 135.259 601.516 135.259V164.516C601.516 164.516 635.187 136.674 685.768 127.753C728.422 120.223 774.132 127.243 777.182 127.727V156.914C777.182 156.914 824.606 164.708 868.757 156.914C918.865 148.076 952.379 120.669 953 120.159V149.624C953 149.624 986.671 121.782 1037.25 112.861C1079.98 105.319 1125.77 112.374 1128.68 112.837V142.022C1128.68 142.022 1176.1 149.816 1220.26 142.022C1270.84 133.101 1304.51 105.259 1304.51 105.259V134.516C1304.51 134.516 1338.18 106.674 1388.76 97.7531C1431.41 90.2234 1477.12 97.2427 1480.17 97.7271V126.914C1480.17 126.914 1527.6 134.708 1571.75 126.914ZM1656 204.986C1656 204.986 1622.33 232.828 1571.75 241.748C1527.6 249.542 1480.17 241.748 1480.17 241.748V212.562C1477.12 212.077 1431.41 205.058 1388.76 212.588C1338.18 221.508 1304.51 249.35 1304.51 249.35V220.094C1304.51 220.094 1270.84 247.935 1220.26 256.856C1176.1 264.65 1128.68 256.856 1128.68 256.856V227.672C1125.77 227.208 1079.98 220.153 1037.25 227.695C986.671 236.616 953 264.458 953 264.458V234.993C952.379 235.504 918.865 262.911 868.757 271.748C824.606 279.542 777.182 271.748 777.182 271.748V242.562C774.132 242.077 728.422 235.058 685.768 242.588C635.187 251.508 601.516 279.35 601.516 279.35V250.094C601.516 250.094 567.845 277.935 517.265 286.856C473.114 294.65 425.689 286.856 425.689 286.856V257.672C422.775 257.208 376.985 250.153 334.26 257.695C283.68 266.616 250.009 294.458 250.009 294.458V264.986C250.009 264.986 216.338 292.828 165.757 301.748C121.606 309.542 74.1816 301.748 74.1816 301.748V272.562C71.1323 272.077 25.4225 265.058 -17.2324 272.588C-67.8127 281.508 -101.484 309.35 -101.484 309.35V280.094C-101.484 280.094 -135.155 307.935 -185.735 316.856C-229.886 324.65 -277.311 316.856 -277.311 316.856V287.672C-280.225 287.208 -326.015 280.153 -368.74 287.695C-419.32 296.616 -452.991 324.458 -452.991 324.458V292.986C-452.991 292.986 -486.662 320.828 -537.243 329.748C-581.394 337.542 -628.818 329.748 -628.818 329.748V300.562C-631.868 300.077 -677.578 293.058 -720.232 300.588C-770.813 309.508 -804.484 337.35 -804.484 337.35V308.094C-804.484 308.094 -838.155 335.935 -888.735 344.856C-932.886 352.65 -980.311 344.856 -980.311 344.856V315.672C-983.225 315.208 -1029.01 308.153 -1071.74 315.695C-1122.32 324.616 -1155.99 352.458 -1155.99 352.458V295.096C-1155.99 295.096 -1122.32 267.254 -1071.74 258.333C-1027.59 250.539 -980.164 258.333 -980.164 258.333V287.518C-977.25 287.981 -931.46 295.036 -888.735 287.494C-838.155 278.573 -804.484 250.731 -804.484 250.731V279.988C-804.484 279.988 -770.813 252.146 -720.232 243.225C-676.081 235.432 -628.657 243.225 -628.657 243.225V272.412C-625.608 272.897 -579.898 279.916 -537.243 272.386C-486.662 263.465 -452.991 235.624 -452.991 235.624V267.096C-452.991 267.096 -419.32 239.254 -368.74 230.333C-324.589 222.539 -277.164 230.333 -277.164 230.333V259.518C-274.25 259.981 -228.46 267.036 -185.735 259.494C-135.155 250.573 -101.484 222.731 -101.484 222.731V251.988C-101.484 251.988 -67.8127 224.146 -17.2324 215.225C26.9187 207.432 74.3431 215.225 74.3431 215.225V244.412C77.3925 244.897 123.102 251.916 165.757 244.386C216.338 235.465 250.009 207.624 250.009 207.624V237.096C250.009 237.096 283.68 209.254 334.26 200.333C378.411 192.539 425.836 200.333 425.836 200.333V229.518C428.75 229.981 474.54 237.036 517.265 229.494C567.845 220.573 601.516 192.731 601.516 192.731V221.988C601.516 221.988 635.187 194.146 685.768 185.225C729.919 177.432 777.343 185.225 777.343 185.225V214.412C780.392 214.897 826.102 221.916 868.757 214.386C919.337 205.465 953.009 177.624 953.009 177.624V207.089C953.63 206.578 987.143 179.171 1037.25 170.333C1081.4 162.539 1128.83 170.333 1128.83 170.333V199.518C1131.74 199.981 1177.53 207.036 1220.26 199.494C1270.84 190.573 1304.51 162.731 1304.51 162.731V191.988C1304.51 191.988 1338.18 164.146 1388.76 155.225C1432.91 147.432 1480.33 155.225 1480.33 155.225V184.412C1483.38 184.897 1529.09 191.916 1571.75 184.386C1622.33 175.465 1656 147.624 1656 147.624V204.986ZM1571.75 356.583C1622.33 347.662 1656 319.82 1656 319.82V262.458C1656 262.458 1622.33 290.3 1571.75 299.221C1529.1 306.75 1483.39 299.731 1480.34 299.247V270.06C1480.34 270.06 1432.91 262.266 1388.76 270.06C1338.18 278.981 1304.51 306.823 1304.51 306.823V277.59C1304.51 277.59 1270.84 305.432 1220.26 314.352C1177.53 321.894 1131.74 314.84 1128.83 314.376V285.168C1128.83 285.168 1081.41 277.374 1037.25 285.168C987.044 294.024 953.496 321.525 953.009 321.926V292.458C953.009 292.458 919.337 320.3 868.757 329.221C826.102 336.75 780.392 329.731 777.343 329.247V300.06C777.343 300.06 729.919 292.266 685.768 300.06C635.187 308.981 601.516 336.823 601.516 336.823V307.59C601.516 307.59 567.845 335.432 517.265 344.352C474.54 351.894 428.75 344.84 425.836 344.376V315.168C425.836 315.168 378.411 307.374 334.26 315.168C283.68 324.089 250.009 351.931 250.009 351.931V322.458C250.009 322.458 216.338 350.3 165.757 359.221C123.102 366.75 77.3925 359.731 74.3431 359.247V330.06C74.3431 330.06 26.9187 322.266 -17.2324 330.06C-67.8127 338.981 -101.484 366.823 -101.484 366.823V337.59C-101.484 337.59 -135.155 365.432 -185.735 374.352C-228.46 381.894 -274.25 374.84 -277.164 374.376V345.168C-277.164 345.168 -324.589 337.374 -368.74 345.168C-419.32 354.089 -452.991 381.931 -452.991 381.931V350.458C-452.991 350.458 -486.662 378.3 -537.243 387.221C-579.898 394.75 -625.608 387.731 -628.657 387.247V358.06C-628.657 358.06 -676.081 350.266 -720.232 358.06C-770.813 366.981 -804.484 394.823 -804.484 394.823V365.59C-804.484 365.59 -838.155 393.432 -888.735 402.352C-931.46 409.894 -977.25 402.84 -980.164 402.376V373.168C-980.164 373.168 -1027.59 365.374 -1071.74 373.168C-1122.32 382.089 -1155.99 409.931 -1155.99 409.931V467.293C-1155.99 467.293 -1122.32 439.451 -1071.74 430.53C-1029.01 422.988 -983.225 430.043 -980.311 430.507V459.715C-980.311 459.715 -932.886 467.508 -888.735 459.715C-838.155 450.794 -804.484 422.952 -804.484 422.952V452.185C-804.484 452.185 -770.813 424.343 -720.232 415.422C-677.578 407.893 -631.868 414.912 -628.818 415.396V444.583C-628.818 444.583 -581.394 452.377 -537.243 444.583C-486.662 435.662 -452.991 407.82 -452.991 407.82V439.293C-452.991 439.293 -419.32 411.451 -368.74 402.53C-326.015 394.988 -280.225 402.043 -277.311 402.507V431.715C-277.311 431.715 -229.886 439.508 -185.735 431.715C-135.155 422.794 -101.484 394.952 -101.484 394.952V424.185C-101.484 424.185 -67.8127 396.343 -17.2324 387.422C25.4225 379.893 71.1323 386.912 74.1816 387.396V416.583C74.1816 416.583 121.606 424.377 165.757 416.583C216.338 407.662 250.009 379.82 250.009 379.82V409.293C250.009 409.293 283.68 381.451 334.26 372.53C376.985 364.988 422.775 372.043 425.689 372.507V401.715C425.689 401.715 473.114 409.508 517.265 401.715C567.845 392.794 601.516 364.952 601.516 364.952V394.185C601.516 394.185 635.187 366.343 685.768 357.422C728.422 349.893 774.132 356.912 777.182 357.396V386.583C777.182 386.583 824.606 394.377 868.757 386.583C918.968 377.727 952.517 350.225 953.003 349.825V379.293C953.003 379.293 986.675 351.451 1037.25 342.53C1079.98 334.988 1125.77 342.043 1128.68 342.507V371.715C1128.68 371.715 1176.11 379.508 1220.26 371.715C1270.84 362.794 1304.51 334.952 1304.51 334.952V364.185C1304.51 364.185 1338.18 336.343 1388.76 327.422C1431.42 319.893 1477.13 326.912 1480.18 327.396V356.583C1480.18 356.583 1527.6 364.377 1571.75 356.583ZM1656 434.655C1656 434.655 1622.33 462.497 1571.75 471.418C1527.6 479.212 1480.18 471.418 1480.18 471.418V442.231C1477.13 441.747 1431.42 434.728 1388.76 442.257C1338.18 451.178 1304.51 479.02 1304.51 479.02V449.764C1304.51 449.764 1270.84 477.605 1220.26 486.526C1176.11 494.32 1128.68 486.526 1128.68 486.526V457.341C1125.77 456.878 1079.98 449.823 1037.25 457.365C986.675 466.286 953.003 494.128 953.003 494.128V464.66C952.517 465.06 918.968 492.562 868.757 501.418C824.606 509.212 777.182 501.418 777.182 501.418V472.231C774.132 471.747 728.422 464.728 685.768 472.257C635.187 481.178 601.516 509.02 601.516 509.02V479.764C601.516 479.764 567.845 507.605 517.265 516.526C473.114 524.32 425.689 516.526 425.689 516.526V487.341C422.775 486.878 376.985 479.823 334.26 487.365C283.68 496.286 250.009 524.128 250.009 524.128V494.655C250.009 494.655 216.338 522.497 165.757 531.418C121.606 539.212 74.1816 531.418 74.1816 531.418V502.231C71.1323 501.747 25.4225 494.728 -17.2324 502.257C-67.8127 511.178 -101.484 539.02 -101.484 539.02V509.764C-101.484 509.764 -135.155 537.605 -185.735 546.526C-229.886 554.32 -277.311 546.526 -277.311 546.526V517.341C-280.225 516.878 -326.015 509.823 -368.74 517.365C-419.32 526.286 -452.991 554.128 -452.991 554.128V522.655C-452.991 522.655 -486.662 550.497 -537.243 559.418C-581.394 567.212 -628.818 559.418 -628.818 559.418V530.231C-631.868 529.747 -677.578 522.728 -720.232 530.257C-770.813 539.178 -804.484 567.02 -804.484 567.02V537.764C-804.484 537.764 -838.155 565.605 -888.735 574.526C-932.886 582.32 -980.311 574.526 -980.311 574.526V545.341C-983.225 544.878 -1029.01 537.823 -1071.74 545.365C-1122.32 554.286 -1155.99 582.128 -1155.99 582.128V524.766C-1155.99 524.766 -1122.32 496.924 -1071.74 488.003C-1027.59 480.209 -980.164 488.003 -980.164 488.003V517.188C-977.25 517.651 -931.46 524.706 -888.735 517.164C-838.155 508.243 -804.484 480.401 -804.484 480.401V509.658C-804.484 509.658 -770.813 481.816 -720.232 472.895C-676.081 465.101 -628.657 472.895 -628.657 472.895V502.082C-625.608 502.566 -579.898 509.585 -537.243 502.056C-486.662 493.135 -452.991 465.293 -452.991 465.293V496.766C-452.991 496.766 -419.32 468.924 -368.74 460.003C-324.589 452.209 -277.164 460.003 -277.164 460.003V489.188C-274.25 489.651 -228.46 496.706 -185.735 489.164C-135.155 480.243 -101.484 452.401 -101.484 452.401V481.658C-101.484 481.658 -67.8127 453.816 -17.2324 444.895C26.9187 437.101 74.3431 444.895 74.3431 444.895V474.082C77.3925 474.566 123.102 481.585 165.757 474.056C216.338 465.135 250.009 437.293 250.009 437.293V466.766C250.009 466.766 283.68 438.924 334.26 430.003C378.411 422.209 425.836 430.003 425.836 430.003V459.188C428.75 459.651 474.54 466.706 517.265 459.164C567.845 450.243 601.516 422.401 601.516 422.401V451.658C601.516 451.658 635.187 423.816 685.768 414.895C729.919 407.101 777.343 414.895 777.343 414.895V444.082C780.392 444.566 826.102 451.585 868.757 444.056C919.337 435.135 953.009 407.293 953.009 407.293V436.761C953.496 436.36 987.044 408.859 1037.25 400.003C1081.41 392.209 1128.83 400.003 1128.83 400.003V429.188C1131.74 429.651 1177.53 436.706 1220.26 429.164C1270.84 420.243 1304.51 392.401 1304.51 392.401V421.658C1304.51 421.658 1338.18 393.816 1388.76 384.895C1432.91 377.101 1480.34 384.895 1480.34 384.895V414.082C1483.39 414.566 1529.1 421.585 1571.75 414.056C1622.33 405.135 1656 377.293 1656 377.293V434.655ZM1571.75 701.087C1622.33 692.166 1656 664.325 1656 664.325V606.962C1656 606.962 1622.33 634.804 1571.75 643.725C1529.09 651.255 1483.38 644.235 1480.33 643.751V614.564C1480.33 614.564 1432.91 606.771 1388.76 614.564C1338.18 623.485 1304.51 651.327 1304.51 651.327V622.071C1304.51 622.071 1270.84 649.913 1220.26 658.833C1177.53 666.375 1131.74 659.321 1128.83 658.857V629.672C1128.83 629.672 1081.4 621.879 1037.25 629.672C987.143 638.51 953.63 665.917 953.009 666.428V636.962C953.009 636.962 919.337 664.804 868.757 673.725C826.102 681.255 780.392 674.235 777.343 673.751V644.564C777.343 644.564 729.919 636.771 685.768 644.564C635.187 653.485 601.516 681.327 601.516 681.327V652.071C601.516 652.071 567.845 679.913 517.265 688.833C474.54 696.375 428.75 689.321 425.836 688.857V659.672C425.836 659.672 378.411 651.879 334.26 659.672C283.68 668.593 250.009 696.435 250.009 696.435V666.962C250.009 666.962 216.338 694.804 165.757 703.725C123.102 711.255 77.3925 704.235 74.3431 703.751V674.564C74.3431 674.564 26.9187 666.771 -17.2324 674.564C-67.8127 683.485 -101.484 711.327 -101.484 711.327V682.071C-101.484 682.071 -135.155 709.913 -185.735 718.833C-228.46 726.375 -274.25 719.321 -277.164 718.857V689.672C-277.164 689.672 -324.589 681.879 -368.74 689.672C-419.32 698.593 -452.991 726.435 -452.991 726.435V694.962C-452.991 694.962 -486.662 722.804 -537.243 731.725C-579.898 739.255 -625.608 732.235 -628.657 731.751V702.564C-628.657 702.564 -676.081 694.771 -720.232 702.564C-770.813 711.485 -804.484 739.327 -804.484 739.327V710.071C-804.484 710.071 -838.155 737.913 -888.735 746.833C-931.46 754.375 -977.25 747.321 -980.164 746.857V717.672C-980.164 717.672 -1027.59 709.879 -1071.74 717.672C-1122.32 726.593 -1155.99 754.435 -1155.99 754.435V811.797C-1155.99 811.797 -1122.32 783.955 -1071.74 775.035C-1029.01 767.493 -983.225 774.547 -980.311 775.011V804.196C-980.311 804.196 -932.886 811.989 -888.735 804.196C-838.155 795.275 -804.484 767.433 -804.484 767.433V796.689C-804.484 796.689 -770.813 768.848 -720.232 759.927C-677.578 752.397 -631.868 759.416 -628.818 759.901V789.087C-628.818 789.087 -581.394 796.881 -537.243 789.087C-486.662 780.166 -452.991 752.325 -452.991 752.325V783.797C-452.991 783.797 -419.32 755.955 -368.74 747.035C-326.015 739.493 -280.225 746.547 -277.311 747.011V776.196C-277.311 776.196 -229.886 783.989 -185.735 776.196C-135.155 767.275 -101.484 739.433 -101.484 739.433V768.689C-101.484 768.689 -67.8127 740.848 -17.2324 731.927C25.4225 724.397 71.1323 731.416 74.1816 731.901V761.087C74.1816 761.087 121.606 768.881 165.757 761.087C216.338 752.166 250.009 724.325 250.009 724.325V753.797C250.009 753.797 283.68 725.955 334.26 717.035C376.985 709.493 422.775 716.547 425.689 717.011V746.196C425.689 746.196 473.114 753.989 517.265 746.196C567.845 737.275 601.516 709.433 601.516 709.433V738.689C601.516 738.689 635.187 710.848 685.768 701.927C728.422 694.397 774.132 701.416 777.182 701.901V731.087C777.182 731.087 824.606 738.881 868.757 731.087C918.865 722.25 952.379 694.843 953 694.332V723.797C953 723.797 986.671 695.955 1037.25 687.035C1079.98 679.493 1125.77 686.547 1128.68 687.011V716.196C1128.68 716.196 1176.1 723.989 1220.26 716.196C1270.84 707.275 1304.51 679.433 1304.51 679.433V708.689C1304.51 708.689 1338.18 680.848 1388.76 671.927C1431.41 664.397 1477.12 671.416 1480.17 671.901V701.087C1480.17 701.087 1527.6 708.881 1571.75 701.087ZM1656 549.49C1656 549.49 1622.33 577.332 1571.75 586.253C1527.6 594.047 1480.18 586.253 1480.18 586.253V557.066C1477.13 556.581 1431.42 549.562 1388.76 557.092C1338.18 566.013 1304.51 593.854 1304.51 593.854V564.598C1304.51 564.598 1270.84 592.44 1220.26 601.361C1176.11 609.154 1128.68 601.361 1128.68 601.361V572.176C1125.77 571.713 1079.98 564.658 1037.25 572.2C986.675 581.121 953.003 608.963 953.003 608.963V579.495C952.517 579.895 918.968 607.397 868.757 616.253C824.606 624.047 777.182 616.253 777.182 616.253V587.066C774.132 586.581 728.422 579.562 685.768 587.092C635.187 596.013 601.516 623.854 601.516 623.854V594.598C601.516 594.598 567.845 622.44 517.265 631.361C473.114 639.154 425.689 631.361 425.689 631.361V602.177C422.775 601.713 376.985 594.658 334.26 602.2C283.68 611.121 250.009 638.963 250.009 638.963V609.49C250.009 609.49 216.338 637.332 165.757 646.253C121.606 654.047 74.1816 646.253 74.1816 646.253V617.066C71.1323 616.581 25.4225 609.562 -17.2324 617.092C-67.8127 626.013 -101.484 653.854 -101.484 653.854V624.598C-101.484 624.598 -135.155 652.44 -185.735 661.361C-229.886 669.154 -277.311 661.361 -277.311 661.361V632.177C-280.225 631.713 -326.015 624.658 -368.74 632.2C-419.32 641.121 -452.991 668.963 -452.991 668.963V637.49C-452.991 637.49 -486.662 665.332 -537.243 674.253C-581.394 682.047 -628.818 674.253 -628.818 674.253V645.066C-631.868 644.581 -677.578 637.562 -720.232 645.092C-770.813 654.013 -804.484 681.854 -804.484 681.854V652.598C-804.484 652.598 -838.155 680.44 -888.735 689.361C-932.886 697.154 -980.311 689.361 -980.311 689.361V660.177C-983.225 659.713 -1029.01 652.658 -1071.74 660.2C-1122.32 669.121 -1155.99 696.963 -1155.99 696.963V639.601C-1155.99 639.601 -1122.32 611.759 -1071.74 602.838C-1027.59 595.044 -980.164 602.838 -980.164 602.838V632.022C-977.25 632.486 -931.46 639.541 -888.735 631.999C-838.155 623.078 -804.484 595.236 -804.484 595.236V624.492C-804.484 624.492 -770.813 596.65 -720.232 587.729C-676.081 579.936 -628.657 587.729 -628.657 587.729L-628.657 616.917C-625.608 617.401 -579.898 624.42 -537.243 616.891C-486.662 607.97 -452.991 580.128 -452.991 580.128L-452.991 611.601C-452.991 611.601 -419.32 583.759 -368.74 574.838C-324.589 567.044 -277.164 574.838 -277.164 574.838L-277.164 604.022C-274.25 604.486 -228.46 611.541 -185.735 603.999C-135.155 595.078 -101.484 567.236 -101.484 567.236V596.492C-101.484 596.492 -67.8127 568.65 -17.2324 559.729C26.9187 551.936 74.3431 559.729 74.3431 559.729V588.917C77.3925 589.401 123.102 596.42 165.757 588.891C216.338 579.97 250.009 552.128 250.009 552.128V581.601C250.009 581.601 283.68 553.759 334.26 544.838C378.411 537.044 425.836 544.838 425.836 544.838V574.022C428.75 574.486 474.54 581.541 517.265 573.999C567.845 565.078 601.516 537.236 601.516 537.236V566.492C601.516 566.492 635.187 538.65 685.768 529.73C729.919 521.936 777.343 529.73 777.343 529.73V558.917C780.392 559.401 826.102 566.42 868.757 558.891C919.337 549.97 953.009 522.128 953.009 522.128V551.596C953.496 551.195 987.044 523.694 1037.25 514.838C1081.41 507.044 1128.83 514.838 1128.83 514.838V544.022C1131.74 544.486 1177.53 551.541 1220.26 543.999C1270.84 535.078 1304.51 507.236 1304.51 507.236V536.492C1304.51 536.492 1338.18 508.65 1388.76 499.73C1432.91 491.936 1480.34 499.73 1480.34 499.73V528.917C1483.39 529.401 1529.1 536.42 1571.75 528.891C1622.33 519.97 1656 492.128 1656 492.128V549.49ZM1571.75 815.922C1622.33 807.001 1656 779.16 1656 779.16V721.797C1656 721.797 1622.33 749.639 1571.75 758.56C1529.09 766.09 1483.38 759.07 1480.33 758.586V729.399C1480.33 729.399 1432.91 721.605 1388.76 729.399C1338.18 738.32 1304.51 766.162 1304.51 766.162V736.905C1304.51 736.905 1270.84 764.747 1220.26 773.668C1177.53 781.21 1131.74 774.155 1128.83 773.692V744.507C1128.83 744.507 1081.4 736.714 1037.25 744.507C987.143 753.345 953.63 780.752 953.009 781.263V751.797C953.009 751.797 919.337 779.639 868.757 788.56C826.102 796.09 780.392 789.07 777.343 788.586V759.399C777.343 759.399 729.919 751.605 685.768 759.399C635.187 768.32 601.516 796.162 601.516 796.162V766.905C601.516 766.905 567.845 794.747 517.265 803.668C474.54 811.21 428.75 804.155 425.836 803.692V774.507C425.836 774.507 378.411 766.714 334.26 774.507C283.68 783.428 250.009 811.27 250.009 811.27V781.797C250.009 781.797 216.338 809.639 165.757 818.56C123.102 826.09 77.3925 819.07 74.3431 818.586V789.399C74.3431 789.399 26.9187 781.605 -17.2324 789.399C-67.8127 798.32 -101.484 826.162 -101.484 826.162V796.905C-101.484 796.905 -135.155 824.747 -185.735 833.668C-228.46 841.21 -274.25 834.155 -277.164 833.692V804.507C-277.164 804.507 -324.589 796.714 -368.74 804.507C-419.32 813.428 -452.991 841.27 -452.991 841.27V809.797C-452.991 809.797 -486.662 837.639 -537.243 846.56C-579.898 854.09 -625.608 847.07 -628.657 846.586V817.399C-628.657 817.399 -676.081 809.605 -720.232 817.399C-770.813 826.32 -804.484 854.162 -804.484 854.162V824.905C-804.484 824.905 -838.155 852.747 -888.735 861.668C-931.46 869.21 -977.25 862.155 -980.164 861.692L-980.164 832.507C-980.164 832.507 -1027.59 824.714 -1071.74 832.507C-1122.32 841.428 -1155.99 869.27 -1155.99 869.27V926.632C-1155.99 926.632 -1122.32 898.79 -1071.74 889.87C-1029.01 882.328 -983.225 889.382 -980.311 889.846V919.03C-980.311 919.03 -932.886 926.824 -888.735 919.03C-838.155 910.109 -804.484 882.267 -804.484 882.267V911.524C-804.484 911.524 -770.813 883.682 -720.232 874.761C-677.578 867.232 -631.868 874.251 -628.818 874.735V903.922C-628.818 903.922 -581.394 911.716 -537.243 903.922C-486.662 895.001 -452.991 867.16 -452.991 867.16V898.632C-452.991 898.632 -419.32 870.79 -368.74 861.87C-326.015 854.328 -280.225 861.382 -277.311 861.846V891.03C-277.311 891.03 -229.886 898.824 -185.735 891.03C-135.155 882.109 -101.484 854.267 -101.484 854.267V883.524C-101.484 883.524 -67.8127 855.682 -17.2324 846.761C25.4225 839.232 71.1323 846.251 74.1816 846.735V875.922C74.1816 875.922 121.606 883.716 165.757 875.922C216.338 867.001 250.009 839.16 250.009 839.16V868.632C250.009 868.632 283.68 840.79 334.26 831.87C376.985 824.328 422.775 831.382 425.689 831.846V861.03C425.689 861.03 473.114 868.824 517.265 861.03C567.845 852.109 601.516 824.267 601.516 824.267V853.524C601.516 853.524 635.187 825.682 685.768 816.761C728.422 809.232 774.132 816.251 777.182 816.735V845.922C777.182 845.922 824.606 853.716 868.757 845.922C918.865 837.085 952.379 809.678 953 809.167V838.632C953 838.632 986.671 810.79 1037.25 801.87C1079.98 794.328 1125.77 801.382 1128.68 801.846V831.03C1128.68 831.03 1176.1 838.824 1220.26 831.03C1270.84 822.109 1304.51 794.267 1304.51 794.267V823.524C1304.51 823.524 1338.18 795.682 1388.76 786.761C1431.41 779.232 1477.12 786.251 1480.17 786.735V815.922C1480.17 815.922 1527.6 823.716 1571.75 815.922Z" fill="#131313"/>
</g>
</g>
<defs>
<clipPath id="clip0_1364_1113">
<rect width="500" height="500" fill="white"/>
</clipPath>
<clipPath id="clip1_1364_1113">
<rect width="2813" height="1354" fill="white" transform="translate(-1156.5 -427)"/>
</clipPath>
</defs>
</svg>
