<svg width="500" height="500" viewBox="0 0 500 500" fill="none" xmlns="http://www.w3.org/2000/svg">
<g clip-path="url(#clip0_1364_1106)">
<path fill-rule="evenodd" clip-rule="evenodd" d="M-1092 298C-1092 -469.676 -469.676 -1092 298 -1092C1065.68 -1092 1688 -469.676 1688 298C1688 1065.68 1065.68 1688 298 1688C-469.676 1688 -1092 1065.68 -1092 298ZM298 -1112C-480.721 -1112 -1112 -480.721 -1112 298C-1112 1076.72 -480.721 1708 298 1708C1076.72 1708 1708 1076.72 1708 298C1708 -480.721 1076.72 -1112 298 -1112ZM290 -1060C-455.584 -1060 -1060 -455.584 -1060 290C-1060 1035.58 -455.584 1640 290 1640C1035.58 1640 1640 1035.58 1640 290C1640 -455.584 1035.58 -1060 290 -1060ZM-1080 290C-1080 -466.63 -466.63 -1080 290 -1080C1046.63 -1080 1660 -466.63 1660 290C1660 1046.63 1046.63 1660 290 1660C-466.63 1660 -1080 1046.63 -1080 290ZM-1028 282C-1028 -441.493 -441.493 -1028 282 -1028C1005.49 -1028 1592 -441.493 1592 282C1592 1005.49 1005.49 1592 282 1592C-441.493 1592 -1028 1005.49 -1028 282ZM282 -1048C-452.539 -1048 -1048 -452.539 -1048 282C-1048 1016.54 -452.539 1612 282 1612C1016.54 1612 1612 1016.54 1612 282C1612 -452.539 1016.54 -1048 282 -1048ZM274 -996C-427.402 -996 -996 -427.402 -996 274C-996 975.402 -427.402 1544 274 1544C975.402 1544 1544 975.402 1544 274C1544 -427.402 975.402 -996 274 -996ZM-1016 274C-1016 -438.447 -438.447 -1016 274 -1016C986.447 -1016 1564 -438.447 1564 274C1564 986.447 986.447 1564 274 1564C-438.447 1564 -1016 986.447 -1016 274ZM-964 266C-964 -413.31 -413.31 -964 266 -964C945.31 -964 1496 -413.31 1496 266C1496 945.31 945.31 1496 266 1496C-413.31 1496 -964 945.31 -964 266ZM266 -984C-424.356 -984 -984 -424.356 -984 266C-984 956.356 -424.356 1516 266 1516C956.356 1516 1516 956.356 1516 266C1516 -424.356 956.356 -984 266 -984ZM258 -932C-399.219 -932 -932 -399.219 -932 258C-932 915.219 -399.219 1448 258 1448C915.219 1448 1448 915.219 1448 258C1448 -399.219 915.219 -932 258 -932ZM-952 258C-952 -410.265 -410.265 -952 258 -952C926.265 -952 1468 -410.265 1468 258C1468 926.265 926.265 1468 258 1468C-410.265 1468 -952 926.265 -952 258ZM-900 250C-900 -385.127 -385.127 -900 250 -900C885.127 -900 1400 -385.127 1400 250C1400 885.127 885.127 1400 250 1400C-385.127 1400 -900 885.127 -900 250ZM250 -920C-396.173 -920 -920 -396.173 -920 250C-920 896.173 -396.173 1420 250 1420C896.173 1420 1420 896.173 1420 250C1420 -396.173 896.173 -920 250 -920ZM250 -860C-363.036 -860 -860 -363.036 -860 250C-860 863.036 -363.036 1360 250 1360C863.036 1360 1360 863.036 1360 250C1360 -363.036 863.036 -860 250 -860ZM-880 250C-880 -374.082 -374.082 -880 250 -880C874.082 -880 1380 -374.082 1380 250C1380 874.082 874.082 1380 250 1380C-374.082 1380 -880 874.082 -880 250ZM-820 250C-820 -340.945 -340.945 -820 250 -820C840.945 -820 1320 -340.945 1320 250C1320 840.945 840.945 1320 250 1320C-340.945 1320 -820 840.945 -820 250ZM250 -840C-351.99 -840 -840 -351.99 -840 250C-840 851.99 -351.99 1340 250 1340C851.99 1340 1340 851.99 1340 250C1340 -351.99 851.99 -840 250 -840ZM250 -780C-318.853 -780 -780 -318.853 -780 250C-780 818.853 -318.853 1280 250 1280C818.853 1280 1280 818.853 1280 250C1280 -318.853 818.853 -780 250 -780ZM-800 250C-800 -329.899 -329.899 -800 250 -800C829.899 -800 1300 -329.899 1300 250C1300 829.899 829.899 1300 250 1300C-329.899 1300 -800 829.899 -800 250ZM-740 250C-740 -296.762 -296.762 -740 250 -740C796.762 -740 1240 -296.762 1240 250C1240 796.762 796.762 1240 250 1240C-296.762 1240 -740 796.762 -740 250ZM250 -760C-307.808 -760 -760 -307.808 -760 250C-760 807.808 -307.808 1260 250 1260C807.808 1260 1260 807.808 1260 250C1260 -307.808 807.808 -760 250 -760ZM250 -700C-274.671 -700 -700 -274.671 -700 250C-700 774.671 -274.671 1200 250 1200C774.671 1200 1200 774.671 1200 250C1200 -274.671 774.671 -700 250 -700ZM-720 250C-720 -285.716 -285.716 -720 250 -720C785.716 -720 1220 -285.716 1220 250C1220 785.716 785.716 1220 250 1220C-285.716 1220 -720 785.716 -720 250ZM-660 250C-660 -252.579 -252.579 -660 250 -660C752.579 -660 1160 -252.579 1160 250C1160 752.579 752.579 1160 250 1160C-252.579 1160 -660 752.579 -660 250ZM250 -680C-263.625 -680 -680 -263.625 -680 250C-680 763.625 -263.625 1180 250 1180C763.625 1180 1180 763.625 1180 250C1180 -263.625 763.625 -680 250 -680ZM250 -620C-230.488 -620 -620 -230.488 -620 250C-620 730.488 -230.488 1120 250 1120C730.488 1120 1120 730.488 1120 250C1120 -230.488 730.488 -620 250 -620ZM-640 250C-640 -241.533 -241.533 -640 250 -640C741.533 -640 1140 -241.533 1140 250C1140 741.533 741.533 1140 250 1140C-241.533 1140 -640 741.533 -640 250ZM-580 250C-580 -208.396 -208.396 -580 250 -580C708.396 -580 1080 -208.396 1080 250C1080 708.396 708.396 1080 250 1080C-208.396 1080 -580 708.396 -580 250ZM250 -600C-219.442 -600 -600 -219.442 -600 250C-600 719.442 -219.442 1100 250 1100C719.442 1100 1100 719.442 1100 250C1100 -219.442 719.442 -600 250 -600ZM250 -540C-186.305 -540 -540 -186.305 -540 250C-540 686.305 -186.305 1040 250 1040C686.305 1040 1040 686.305 1040 250C1040 -186.305 686.305 -540 250 -540ZM-560 250C-560 -197.351 -197.351 -560 250 -560C697.351 -560 1060 -197.351 1060 250C1060 697.351 697.351 1060 250 1060C-197.351 1060 -560 697.351 -560 250ZM-500 250C-500 -164.214 -164.214 -500 250 -500C664.214 -500 1000 -164.214 1000 250C1000 664.214 664.214 1000 250 1000C-164.214 1000 -500 664.214 -500 250ZM250 -520C-175.259 -520 -520 -175.259 -520 250C-520 675.259 -175.259 1020 250 1020C675.259 1020 1020 675.259 1020 250C1020 -175.259 675.259 -520 250 -520ZM250 -460C-142.122 -460 -460 -142.122 -460 250C-460 642.122 -142.122 960 250 960C642.122 960 960 642.122 960 250C960 -142.122 642.122 -460 250 -460ZM-480 250C-480 -153.168 -153.168 -480 250 -480C653.168 -480 980 -153.168 980 250C980 653.168 653.168 980 250 980C-153.168 980 -480 653.168 -480 250ZM-420 250C-420 -120.031 -120.031 -420 250 -420C620.031 -420 920 -120.031 920 250C920 620.031 620.031 920 250 920C-120.031 920 -420 620.031 -420 250ZM250 -440C-131.076 -440 -440 -131.076 -440 250C-440 631.077 -131.076 940 250 940C631.077 940 940 631.077 940 250C940 -131.076 631.077 -440 250 -440ZM250 -380C-97.9394 -380 -380 -97.9394 -380 250C-380 597.939 -97.9394 880 250 880C597.939 880 880 597.939 880 250C880 -97.9394 597.939 -380 250 -380ZM-400 250C-400 -108.985 -108.985 -400 250 -400C608.985 -400 900 -108.985 900 250C900 608.985 608.985 900 250 900C-108.985 900 -400 608.985 -400 250ZM-340 250C-340 -75.848 -75.848 -340 250 -340C575.848 -340 840 -75.848 840 250C840 575.848 575.848 840 250 840C-75.848 840 -340 575.848 -340 250ZM250 -360C-86.8937 -360 -360 -86.8937 -360 250C-360 586.894 -86.8937 860 250 860C586.894 860 860 586.894 860 250C860 -86.8937 586.894 -360 250 -360ZM250 -300C-53.7566 -300 -300 -53.7566 -300 250C-300 553.757 -53.7566 800 250 800C553.757 800 800 553.757 800 250C800 -53.7566 553.757 -300 250 -300ZM-320 250C-320 -64.8022 -64.8022 -320 250 -320C564.802 -320 820 -64.8022 820 250C820 564.802 564.802 820 250 820C-64.8022 820 -320 564.802 -320 250ZM-260 250C-260 -31.6653 -31.6653 -260 250 -260C531.665 -260 760 -31.6653 760 250C760 531.665 531.665 760 250 760C-31.6653 760 -260 531.665 -260 250ZM250 -280C-42.7109 -280 -280 -42.7109 -280 250C-280 542.711 -42.7109 780 250 780C542.711 780 780 542.711 780 250C780 -42.7109 542.711 -280 250 -280ZM250 -220C-9.57385 -220 -220 -9.57385 -220 250C-220 509.574 -9.57385 720 250 720C509.574 720 720 509.574 720 250C720 -9.57385 509.574 -220 250 -220ZM-240 250C-240 -20.6195 -20.6195 -240 250 -240C520.62 -240 740 -20.6195 740 250C740 520.62 520.62 740 250 740C-20.6195 740 -240 520.62 -240 250ZM-180 250C-180 12.5176 12.5176 -180 250 -180C487.482 -180 680 12.5176 680 250C680 487.482 487.482 680 250 680C12.5176 680 -180 487.482 -180 250ZM250 -200C1.47192 -200 -200 1.47192 -200 250C-200 498.528 1.47192 700 250 700C498.528 700 700 498.528 700 250C700 1.47192 498.528 -200 250 -200ZM250 -140C34.6089 -140 -140 34.6089 -140 250C-140 465.391 34.6089 640 250 640C465.391 640 640 465.391 640 250C640 34.6089 465.391 -140 250 -140ZM-160 250C-160 23.5632 23.5632 -160 250 -160C476.437 -160 660 23.5632 660 250C660 476.437 476.437 660 250 660C23.5632 660 -160 476.437 -160 250ZM-100 250C-100 56.7003 56.7003 -100 250 -100C443.3 -100 600 56.7003 600 250C600 443.3 443.3 600 250 600C56.7003 600 -100 443.3 -100 250ZM250 -120C45.6547 -120 -120 45.6547 -120 250C-120 454.345 45.6547 620 250 620C454.345 620 620 454.345 620 250C620 45.6547 454.345 -120 250 -120ZM250 -60C78.7917 -60 -60 78.7917 -60 250C-60 421.208 78.7917 560 250 560C421.208 560 560 421.208 560 250C560 78.7917 421.208 -60 250 -60ZM-80 250C-80 67.7461 67.7461 -80 250 -80C432.254 -80 580 67.7461 580 250C580 432.254 432.254 580 250 580C67.7461 580 -80 432.254 -80 250ZM-20 250C-20 100.883 100.883 -20 250 -20C399.117 -20 520 100.883 520 250C520 399.117 399.117 520 250 520C100.883 520 -20 399.117 -20 250ZM250 -40C89.8374 -40 -40 89.8374 -40 250C-40 410.163 89.8374 540 250 540C410.163 540 540 410.163 540 250C540 89.8374 410.163 -40 250 -40ZM250 20C122.974 20 20 122.974 20 250C20 377.026 122.974 480 250 480C377.026 480 480 377.026 480 250C480 122.974 377.026 20 250 20ZM0 250C0 111.929 111.929 0 250 0C388.071 0 500 111.929 500 250C500 388.071 388.071 500 250 500C111.929 500 0 388.071 0 250ZM60 250C60 145.066 145.066 60 250 60C354.934 60 440 145.066 440 250C440 354.934 354.934 440 250 440C145.066 440 60 354.934 60 250ZM250 40C134.02 40 40 134.02 40 250C40 365.98 134.02 460 250 460C365.98 460 460 365.98 460 250C460 134.02 365.98 40 250 40ZM250 100C167.157 100 100 167.157 100 250C100 332.843 167.157 400 250 400C332.843 400 400 332.843 400 250C400 167.157 332.843 100 250 100ZM80 250C80 156.112 156.112 80 250 80C343.888 80 420 156.112 420 250C420 343.888 343.888 420 250 420C156.112 420 80 343.888 80 250ZM140 250C140 189.249 189.249 140 250 140C310.751 140 360 189.249 360 250C360 310.751 310.751 360 250 360C189.249 360 140 310.751 140 250ZM250 120C178.203 120 120 178.203 120 250C120 321.797 178.203 380 250 380C321.797 380 380 321.797 380 250C380 178.203 321.797 120 250 120ZM250 180C211.34 180 180 211.34 180 250C180 288.66 211.34 320 250 320C288.66 320 320 288.66 320 250C320 211.34 288.66 180 250 180ZM160 250C160 200.294 200.294 160 250 160C299.706 160 340 200.294 340 250C340 299.706 299.706 340 250 340C200.294 340 160 299.706 160 250ZM250 220C233.431 220 220 233.431 220 250C220 266.569 233.431 280 250 280C266.569 280 280 266.569 280 250C280 233.431 266.569 220 250 220ZM200 250C200 222.386 222.386 200 250 200C277.614 200 300 222.386 300 250C300 277.614 277.614 300 250 300C222.386 300 200 277.614 200 250Z" fill="#131313"/>
</g>
<defs>
<clipPath id="clip0_1364_1106">
<rect width="500" height="500" fill="white"/>
</clipPath>
</defs>
</svg>
