<svg width="500" height="500" viewBox="0 0 500 500" fill="none" xmlns="http://www.w3.org/2000/svg">
<g clip-path="url(#clip0_1364_1102)">
<rect x="-50" width="100" height="100" fill="#131313"/>
<rect x="150" width="100" height="100" fill="#131313"/>
<rect x="350" width="100" height="100" fill="#131313"/>
<rect x="50" y="100" width="100" height="100" fill="#131313"/>
<rect x="250" y="100" width="100" height="100" fill="#131313"/>
<rect x="450" y="100" width="100" height="100" fill="#131313"/>
<rect x="-50" y="200" width="100" height="100" fill="#131313"/>
<rect x="150" y="200" width="100" height="100" fill="#131313"/>
<rect x="350" y="200" width="100" height="100" fill="#131313"/>
<rect x="50" y="300" width="100" height="100" fill="#131313"/>
<rect x="250" y="300" width="100" height="100" fill="#131313"/>
<rect x="450" y="300" width="100" height="100" fill="#131313"/>
<rect x="-50" y="400" width="100" height="100" fill="#131313"/>
<rect x="150" y="400" width="100" height="100" fill="#131313"/>
<rect x="350" y="400" width="100" height="100" fill="#131313"/>
</g>
<defs>
<clipPath id="clip0_1364_1102">
<rect width="500" height="500" fill="white"/>
</clipPath>
</defs>
</svg>
