<svg width="500" height="500" viewBox="0 0 500 500" fill="none" xmlns="http://www.w3.org/2000/svg">
<path d="M40 0H0V148H40V0Z" fill="#131313"/>
<path d="M208 0H124V148H208V0Z" fill="#131313"/>
<path d="M376 0H292V148H376V0Z" fill="#131313"/>
<path d="M500 0H460V148H500V0Z" fill="#131313"/>
<path d="M40 264H124L124 148H40L40 264Z" fill="#131313"/>
<path d="M208 264H292V148H208V264Z" fill="#131313"/>
<path d="M376 264H460V148H376V264Z" fill="#131313"/>
<path d="M40 264H0V348H40V264Z" fill="#131313"/>
<path d="M208 264H124V348H208V264Z" fill="#131313"/>
<path d="M376 264H292V348H376V264Z" fill="#131313"/>
<path d="M500 264H460V348H500V264Z" fill="#131313"/>
<path d="M40 408H124L124 348H40L40 408Z" fill="#131313"/>
<path d="M40 476H124V448H40V476Z" fill="#131313"/>
<path d="M208 408H292V348H208V408Z" fill="#131313"/>
<path d="M208 476H292V448H208V476Z" fill="#131313"/>
<path d="M376 408H460V348H376V408Z" fill="#131313"/>
<path d="M376 476H460V448H376V476Z" fill="#131313"/>
<path d="M40 408H0V448H40V408Z" fill="#131313"/>
<path d="M40 476H0V492H40V476Z" fill="#131313"/>
<path d="M208 408H124V448H208V408Z" fill="#131313"/>
<path d="M208 476H124V492H208V476Z" fill="#131313"/>
<path d="M376 408H292V448H376V408Z" fill="#131313"/>
<path d="M376 476H292V492H376V476Z" fill="#131313"/>
<path d="M500 408H460V448H500V408Z" fill="#131313"/>
<path d="M500 476H460V492H500V476Z" fill="#131313"/>
<path d="M40 500H124V492H40V500Z" fill="#131313"/>
<path d="M208 500H292V492H208V500Z" fill="#131313"/>
<path d="M376 500H460V492H376V500Z" fill="#131313"/>
</svg>
