<svg width="500" height="500" viewBox="0 0 500 500" fill="none" xmlns="http://www.w3.org/2000/svg">
<g clip-path="url(#clip0_1364_1101)">
<g clip-path="url(#clip1_1364_1101)">
<path d="M375.504 299.317C375.504 299.317 270.424 337.401 262.308 340.496C251.575 344.587 250.005 351.058 250.005 351.058V340.512V304.278L375.504 258.622V299.317Z" fill="#131313"/>
<path d="M124.504 305.317C124.504 305.317 19.4236 343.401 11.3079 346.496C0.575132 350.587 -0.995117 357.058 -0.995117 357.058V346.512V310.278L124.504 264.622V305.317Z" fill="#131313"/>
<path d="M124.501 345.534C124.501 345.534 229.581 383.619 237.696 386.713C248.429 390.805 249.999 397.275 249.999 397.275V386.73V350.496L124.501 304.84V345.534Z" fill="#131313"/>
<path d="M375.501 339.534C375.501 339.534 480.581 377.619 488.696 380.713C499.429 384.805 500.999 391.275 500.999 391.275V380.73V344.496L375.501 298.84V339.534Z" fill="#131313"/>
<path d="M375.504 379.752C375.504 379.752 270.424 417.836 262.308 420.931C251.575 425.023 250.005 431.493 250.005 431.493V420.948V384.714L375.504 339.058V379.752Z" fill="#131313"/>
<path d="M124.504 385.752C124.504 385.752 19.4236 423.836 11.3079 426.931C0.575132 431.023 -0.995117 437.493 -0.995117 437.493V426.948V390.714L124.504 345.058V385.752Z" fill="#131313"/>
<path d="M124.501 425.97C124.501 425.97 229.581 464.054 237.696 467.149C248.429 471.24 249.999 477.711 249.999 477.711V467.166V430.931L124.501 385.275V425.97Z" fill="#131313"/>
<path d="M375.501 419.97C375.501 419.97 480.581 458.054 488.696 461.149C499.429 465.24 500.999 471.711 500.999 471.711V461.166V424.931L375.501 379.275V419.97Z" fill="#131313"/>
<path d="M375.504 460.188C375.504 460.188 270.424 498.272 262.308 501.367C251.575 505.458 250.005 511.929 250.005 511.929V501.383V465.149L375.504 419.493V460.188Z" fill="#131313"/>
<path d="M124.504 466.188C124.504 466.188 19.4236 504.272 11.3079 507.367C0.575132 511.458 -0.995117 517.929 -0.995117 517.929V507.383V471.149L124.504 425.493V466.188Z" fill="#131313"/>
<path d="M124.501 506.405C124.501 506.405 229.581 544.49 237.696 547.585C248.429 551.676 249.999 558.146 249.999 558.146V547.601V511.367L124.501 465.711V506.405Z" fill="#131313"/>
<path d="M375.501 500.405C375.501 500.405 480.581 538.49 488.696 541.585C499.429 545.676 500.999 552.146 500.999 552.146V541.601V505.367L375.501 459.711V500.405Z" fill="#131313"/>
<path d="M375.504 540.623C375.504 540.623 270.424 578.708 262.308 581.802C251.575 585.894 250.005 592.364 250.005 592.364V581.819V545.585L375.504 499.929V540.623Z" fill="#131313"/>
<path d="M375.504 -22.9129C375.504 -22.9129 270.424 15.1714 262.308 18.2662C251.575 22.3577 250.005 28.828 250.005 28.828V18.2827V-17.9514L375.504 -63.6074V-22.9129Z" fill="#131313"/>
<path d="M124.504 -16.9129C124.504 -16.9129 19.4236 21.1714 11.3079 24.2662C0.575132 28.3577 -0.995117 34.828 -0.995117 34.828V24.2827V-11.9514L124.504 -57.6074V-16.9129Z" fill="#131313"/>
<path d="M124.501 23.3049C124.501 23.3049 229.581 61.3892 237.696 64.484C248.429 68.5754 249.999 75.0458 249.999 75.0458V64.5005V28.2664L124.501 -17.3896V23.3049Z" fill="#131313"/>
<path d="M375.501 17.3049C375.501 17.3049 480.581 55.3892 488.696 58.484C499.429 62.5754 500.999 69.0458 500.999 69.0458V58.5005V22.2664L375.501 -23.3896V17.3049Z" fill="#131313"/>
<path d="M375.504 57.5226C375.504 57.5226 270.424 95.607 262.308 98.7018C251.575 102.793 250.005 109.264 250.005 109.264V98.7183V62.4842L375.504 16.8281V57.5226Z" fill="#131313"/>
<path d="M124.504 63.5226C124.504 63.5226 19.4236 101.607 11.3079 104.702C0.575132 108.793 -0.995117 115.264 -0.995117 115.264V104.718V68.4842L124.504 22.8281V63.5226Z" fill="#131313"/>
<path d="M124.501 103.746C124.501 103.746 229.581 141.83 237.696 144.925C248.429 149.017 249.999 155.487 249.999 155.487V144.942V108.707L124.501 63.0459V103.74V103.746Z" fill="#131313"/>
<path d="M375.501 97.7459C375.501 97.7459 480.581 135.83 488.696 138.925C499.429 143.017 500.999 149.487 500.999 149.487V138.942V102.707L375.501 57.0459V97.7404V97.7459Z" fill="#131313"/>
<path d="M375.504 137.958C375.504 137.958 270.424 176.043 262.308 179.137C251.575 183.229 250.005 189.699 250.005 189.699V179.154V142.92L375.504 97.2637V137.958Z" fill="#131313"/>
<path d="M124.504 143.958C124.504 143.958 19.4236 182.043 11.3079 185.137C0.575132 189.229 -0.995117 195.699 -0.995117 195.699V185.154V148.92L124.504 103.264V143.958Z" fill="#131313"/>
<path d="M124.501 184.187C124.501 184.187 229.581 222.271 237.696 225.366C248.429 229.457 249.999 235.928 249.999 235.928V225.382V189.148L124.501 143.487V184.181V184.187Z" fill="#131313"/>
<path d="M375.501 178.187C375.501 178.187 480.581 216.271 488.696 219.366C499.429 223.457 500.999 229.928 500.999 229.928V219.382V183.148L375.501 137.487V178.181V178.187Z" fill="#131313"/>
<path d="M375.504 218.394C375.504 218.394 270.424 256.478 262.308 259.573C251.575 263.664 250.005 270.135 250.005 270.135V259.589V223.355L375.504 177.699V218.394Z" fill="#131313"/>
<path d="M124.504 224.394C124.504 224.394 19.4236 262.478 11.3079 265.573C0.575132 269.664 -0.995117 276.135 -0.995117 276.135V265.589V229.355L124.504 183.699V224.394Z" fill="#131313"/>
<path d="M124.501 264.628C124.501 264.628 229.581 302.712 237.696 305.807C248.429 309.898 249.999 316.369 249.999 316.369V305.823V269.589L124.501 223.928V264.622V264.628Z" fill="#131313"/>
<path d="M375.501 258.628C375.501 258.628 480.581 296.712 488.696 299.807C499.429 303.898 500.999 310.369 500.999 310.369V299.823V263.589L375.501 217.928V258.622V258.628Z" fill="#131313"/>
</g>
</g>
<defs>
<clipPath id="clip0_1364_1101">
<rect width="500" height="500" fill="white"/>
</clipPath>
<clipPath id="clip1_1364_1101">
<rect width="2763" height="1407" fill="white" transform="translate(-1131.5 -416.004)"/>
</clipPath>
</defs>
</svg>
