<svg width="500" height="500" viewBox="0 0 500 500" fill="none" xmlns="http://www.w3.org/2000/svg">
<g clip-path="url(#clip0_1364_1112)">
<path fill-rule="evenodd" clip-rule="evenodd" d="M384.302 -714.592L416.047 -902.573L309.78 -690.05H379.338L285.344 -502.07H354.969L260.969 -314.079H330.578L236.573 -126.079H306.176L212.119 62.0278H281.751L250.011 249.974L249.977 249.985L37.4865 143.73V213.337L-150.62 119.275V188.888L-338.62 94.8798V164.509L-526.611 70.5045V140.067L-714.591 46.0681V115.701L-902.573 83.9557L-690.05 190.222V120.664L-502.07 214.658V145.034L-314.079 239.034V169.424L-126.078 263.429V193.826L62.028 287.884V218.251L249.962 249.99L24.6331 325.09L73.8526 374.31L-125.67 440.81L-76.4463 490.034L-275.857 556.496L-226.622 605.731L-426.022 672.19L-376.835 721.378L-576.223 787.833L-532.154 831.902L-526.986 837.07L-682.356 947.546L-456.938 872.411L-506.123 823.226L-306.737 756.769L-355.969 707.536L-156.571 641.075L-205.792 591.854L-6.3847 525.388L-55.6012 476.172L143.919 409.669L94.6813 360.432L249.998 249.996L250.001 249.994L250.001 249.995L250.002 249.998L249.991 250.006L250.004 250.002L250.004 250.004L143.74 462.514H213.346L119.285 650.62H188.898L94.8895 838.621H164.518L70.5142 1026.61H140.076L46.0779 1214.59H115.71L83.9655 1402.57L190.232 1190.05H120.674L214.668 1002.07H145.044L239.043 814.079H169.434L263.439 626.079H193.836L287.894 437.972H218.261L250.005 250.006L325.128 475.402L374.347 426.182L440.847 625.705L490.071 576.481L556.533 775.892L605.768 726.657L672.227 926.057L721.415 876.869L787.87 1076.26L831.94 1032.19L837.107 1027.02L947.583 1182.39L872.449 956.973L823.264 1006.16L756.806 806.772L707.574 856.004L641.112 656.606L591.891 705.827L525.426 506.42L476.209 555.636L409.707 356.116L360.469 405.354L250.007 250.001L250.01 250L462.514 356.261V286.655L650.62 380.716V311.103L838.62 405.111V335.483L1026.61 429.487V359.925L1214.59 453.923V384.291L1402.57 416.036L1190.05 309.769V379.327L1002.07 285.333V354.957L814.079 260.958V330.567L626.078 236.562V306.165L437.972 212.107V281.74L250.016 249.998L475.402 174.878L426.183 125.659L625.706 59.1591L576.481 9.93494L775.892 -56.5272L726.657 -105.762L926.058 -172.221L876.87 -221.409L1076.26 -287.864L1032.19 -331.934L1027.02 -337.101L1182.39 -447.577L956.973 -372.443L1006.16 -323.258L806.772 -256.8L856.004 -207.568L656.606 -141.106L705.827 -91.8847L506.42 -25.4196L555.636 23.7969L356.116 90.2996L405.354 139.537L250.01 249.993L250.014 249.984L250.045 249.962L250.021 249.97L356.273 37.4862H286.666L380.728 -150.62H311.114L405.123 -338.621H335.494L429.498 -526.612H359.936L453.934 -714.592H384.302ZM250.008 249.988L250.001 249.994L250.004 249.996L250.005 249.996L250.007 249.995L250.008 249.988Z" fill="#131313"/>
<path d="M-337.109 -527.068L-447.585 -682.438L-372.45 -457.02L-323.265 -506.205L-256.807 -306.819L-207.575 -356.051L-141.113 -156.653L-91.8921 -205.874L-25.427 -6.46692L23.7895 -55.6833L90.2922 143.837L139.53 94.5991L249.999 249.962L174.871 24.5509L125.651 73.7704L59.1517 -125.753L9.92755 -76.5284L-56.5345 -275.939L-105.77 -226.704L-172.228 -426.105L-221.416 -376.917L-287.871 -576.306L-331.941 -532.236L-337.109 -527.068Z" fill="#131313"/>
</g>
<defs>
<clipPath id="clip0_1364_1112">
<rect width="500" height="500" fill="white"/>
</clipPath>
</defs>
</svg>
