<svg width="500" height="500" viewBox="0 0 500 500" fill="none" xmlns="http://www.w3.org/2000/svg">
<g clip-path="url(#clip0_1364_1105)">
<g clip-path="url(#clip1_1364_1105)">
<path d="M364.53 450.257L364.53 526.545C376.656 521.282 389.311 517.028 402.674 517.028C416.036 517.028 428.694 521.282 440.818 526.545L440.818 450.257C428.694 444.993 416.03 440.739 402.674 440.739C389.317 440.739 376.656 444.993 364.53 450.257Z" fill="#131313"/>
<path d="M211.953 492.216L211.953 568.504C224.079 573.768 236.734 578.022 250.097 578.022C263.46 578.022 276.117 573.768 288.241 568.504L288.241 492.216C276.117 497.48 263.453 501.734 250.097 501.734C236.74 501.734 224.079 497.48 211.953 492.216Z" fill="#131313"/>
<path d="M97.52 440.739C84.1573 440.739 71.5025 444.993 59.3757 450.257L59.3757 526.545C71.5025 521.282 84.1573 517.028 97.52 517.028C110.883 517.028 123.54 521.282 135.664 526.545L135.664 450.257C123.54 444.993 110.877 440.739 97.52 440.739Z" fill="#131313"/>
<path d="M59.3757 297.681L59.3757 373.969C71.5025 368.705 84.1573 364.452 97.52 364.452C110.883 364.452 123.54 368.705 135.664 373.969L135.664 297.681C123.54 292.417 110.877 288.163 97.52 288.163C84.1634 288.163 71.5025 292.417 59.3757 297.681Z" fill="#131313"/>
<path d="M364.53 297.681L364.53 373.969C376.656 368.705 389.311 364.452 402.674 364.452C416.036 364.452 428.694 368.705 440.818 373.969L440.818 297.681C428.694 292.417 416.03 288.163 402.674 288.163C389.317 288.163 376.656 292.417 364.53 297.681Z" fill="#131313"/>
<path d="M211.953 339.639L211.953 415.928C224.079 421.192 236.734 425.445 250.097 425.445C263.46 425.445 276.117 421.192 288.241 415.928L288.241 339.639C276.117 344.903 263.453 349.157 250.097 349.157C236.74 349.157 224.079 344.903 211.953 339.639Z" fill="#131313"/>
<path d="M440.818 450.257C467.208 462.494 490.717 479.979 517.106 492.216L517.106 415.927C490.717 403.691 467.208 386.205 440.818 373.969L440.818 450.257Z" fill="#131313"/>
<path d="M288.241 492.216C314.631 479.979 338.14 462.494 364.53 450.257L364.53 373.969C338.14 386.205 314.631 403.691 288.241 415.927L288.241 492.216Z" fill="#131313"/>
<path d="M135.664 450.257C162.054 462.494 185.563 479.979 211.953 492.216L211.953 415.927C185.563 403.691 162.054 386.205 135.664 373.969L135.664 450.257Z" fill="#131313"/>
<path d="M-16.9126 415.927L-16.9126 492.216C9.47711 479.979 32.9862 462.494 59.3759 450.257L59.3759 373.969C32.9862 386.205 9.47711 403.691 -16.9126 415.927Z" fill="#131313"/>
<path d="M59.3757 145.104L59.3757 221.392C71.5025 216.128 84.1573 211.874 97.52 211.874C110.883 211.874 123.54 216.128 135.664 221.392L135.664 145.104C123.54 139.84 110.877 135.586 97.52 135.586C84.1634 135.586 71.5025 139.84 59.3757 145.104Z" fill="#131313"/>
<path d="M211.953 187.062L211.953 263.351C224.079 268.618 236.734 272.869 250.097 272.869C263.46 272.869 276.117 268.615 288.241 263.351L288.241 187.062C276.117 192.326 263.453 196.58 250.097 196.58C236.74 196.58 224.079 192.326 211.953 187.062Z" fill="#131313"/>
<path d="M364.53 145.104L364.53 221.392C376.657 216.128 389.311 211.874 402.674 211.874C416.037 211.874 428.694 216.128 440.818 221.392L440.818 145.104C428.694 139.84 416.031 135.586 402.674 135.586C389.317 135.586 376.657 139.84 364.53 145.104Z" fill="#131313"/>
<path d="M364.53 -7.47348L364.53 68.815C376.656 63.5511 389.311 59.2973 402.674 59.2973C416.036 59.2973 428.694 63.5511 440.818 68.815L440.818 -7.47348C428.694 -12.7374 416.03 -16.9912 402.674 -16.9912C389.317 -16.9912 376.656 -12.7374 364.53 -7.47348Z" fill="#131313"/>
<path d="M211.953 34.4854L211.953 110.774C224.079 116.038 236.734 120.292 250.097 120.292C263.46 120.292 276.117 116.038 288.241 110.774L288.241 34.4854C276.117 39.7493 263.453 44.0031 250.097 44.0031C236.74 44.0031 224.079 39.7493 211.953 34.4854Z" fill="#131313"/>
<path d="M97.52 59.2973C110.877 59.2973 123.54 63.5511 135.664 68.815L135.664 -7.47348C123.54 -12.7374 110.877 -16.9912 97.52 -16.9912C84.1634 -16.9912 71.5025 -12.7374 59.3757 -7.47348L59.3757 68.815C71.5025 63.5511 84.1573 59.2973 97.52 59.2973Z" fill="#131313"/>
<path d="M440.818 145.103C467.208 157.34 490.717 174.825 517.106 187.062L517.106 110.773C490.717 98.5364 467.208 81.0511 440.818 68.8145L440.818 145.103Z" fill="#131313"/>
<path d="M440.818 259.536L440.818 297.68C467.208 309.917 490.717 327.402 517.107 339.639L517.107 263.35C490.717 251.114 467.208 233.628 440.818 221.392L440.818 259.536Z" fill="#131313"/>
<path d="M440.818 -7.47326C467.208 4.76341 490.717 22.2487 517.106 34.4854L517.106 -41.8031C490.717 -54.0397 467.208 -71.5251 440.818 -83.7617L440.818 -7.47326Z" fill="#131313"/>
<path d="M288.241 301.494L288.241 339.639C314.631 327.402 338.14 309.917 364.53 297.68L364.53 221.392C338.14 233.628 314.631 251.114 288.241 263.35L288.241 301.494Z" fill="#131313"/>
<path d="M288.241 34.4854C314.631 22.2487 338.14 4.76341 364.529 -7.47326L364.529 -83.7617C338.14 -71.5251 314.631 -54.0397 288.241 -41.8031L288.241 34.4854Z" fill="#131313"/>
<path d="M288.241 187.062C314.631 174.825 338.14 157.34 364.53 145.103L364.53 68.8145C338.14 81.0511 314.631 98.5364 288.241 110.773L288.241 187.062Z" fill="#131313"/>
<path d="M211.953 34.4854L211.953 -41.8031C185.563 -54.0397 162.054 -71.5251 135.664 -83.7617L135.664 -7.47326C162.054 4.76341 185.563 22.2487 211.953 34.4854Z" fill="#131313"/>
<path d="M135.664 259.536L135.664 297.68C162.054 309.917 185.563 327.402 211.952 339.639L211.952 263.35C185.563 251.114 162.054 233.628 135.664 221.392L135.664 259.536Z" fill="#131313"/>
<path d="M135.664 145.103C162.054 157.34 185.563 174.825 211.952 187.062L211.952 110.773C185.563 98.5364 162.054 81.0511 135.664 68.8145L135.664 145.103Z" fill="#131313"/>
<path d="M59.3759 145.103L59.3759 68.8145C32.9862 81.0511 9.47711 98.5364 -16.9126 110.773L-16.9126 187.062C9.47711 174.825 32.9862 157.34 59.3759 145.103Z" fill="#131313"/>
<path d="M-16.9126 301.494L-16.9126 339.639C9.47711 327.402 32.9862 309.917 59.3759 297.68L59.3759 221.392C32.9862 233.628 9.47711 251.114 -16.9126 263.35L-16.9126 301.494Z" fill="#131313"/>
<path d="M59.3756 -7.47375L59.3756 -83.7622C32.9859 -71.5255 9.47687 -54.0402 -16.9128 -41.8036L-16.9128 34.4849C9.47687 22.2482 32.9859 4.76292 59.3756 -7.47375Z" fill="#131313"/>
</g>
</g>
<defs>
<clipPath id="clip0_1364_1105">
<rect width="500" height="500" fill="white"/>
</clipPath>
<clipPath id="clip1_1364_1105">
<rect width="2670" height="1222" fill="white" transform="translate(-1085 -361)"/>
</clipPath>
</defs>
</svg>
