<svg width="500" height="500" viewBox="0 0 500 500" fill="none" xmlns="http://www.w3.org/2000/svg">
<g clip-path="url(#clip0_1364_1104)">
<path d="M250 -1504.09L-1020.89 -232.449L-1000.93 -212.491L250 -1464.16L1500.93 -212.491L1520.89 -232.449L250 -1504.09Z" fill="#131313"/>
<path d="M250 -1421.56L1520.88 -151.015L1500.93 -131.045L250 -1381.64L-1000.93 -131.045L-1020.88 -151.015L250 -1421.56Z" fill="#131313"/>
<path d="M250 -1340.13L-1020.89 -68.483L-1000.93 -48.5253L250 -1300.19L1500.93 -48.5253L1520.89 -68.483L250 -1340.13Z" fill="#131313"/>
<path d="M250 -1258.69L1520.89 12.9568L1500.93 32.9146L250 -1218.75L-1000.93 32.9146L-1020.89 12.9568L250 -1258.69Z" fill="#131313"/>
<path d="M250 -1176.15L-1020.88 94.391L-1000.93 114.36L250 -1136.24L1500.93 114.36L1520.88 94.391L250 -1176.15Z" fill="#131313"/>
<path d="M250 -1094.72L1520.89 176.922L1500.93 196.88L250 -1054.79L-1000.93 196.88L-1020.89 176.922L250 -1094.72Z" fill="#131313"/>
<path d="M250 -1012.19L-1020.88 258.357L-1000.93 278.326L250 -972.271L1500.93 278.326L1520.88 258.357L250 -1012.19Z" fill="#131313"/>
<path d="M250 -930.758L1520.89 340.888L1500.93 360.846L250 -890.82L-1000.93 360.846L-1020.89 340.888L250 -930.758Z" fill="#131313"/>
<path d="M250 -849.318L-1020.89 422.328L-1000.93 442.286L250 -809.38L1500.93 442.286L1520.89 422.328L250 -849.318Z" fill="#131313"/>
<path d="M250 -766.781L1520.88 503.762L1500.93 523.731L250 -726.866L-1000.93 523.731L-1020.88 503.762L250 -766.781Z" fill="#131313"/>
<path d="M250 -685.353L-1020.89 586.293L-1000.93 606.251L250 -645.415L1500.93 606.251L1520.89 586.293L250 -685.353Z" fill="#131313"/>
<path d="M250 -603.913L1520.89 667.733L1500.93 687.691L250 -563.975L-1000.93 687.691L-1020.89 667.733L250 -603.913Z" fill="#131313"/>
<path d="M250 -521.376L-1020.88 749.167L-1000.93 769.137L250 -481.46L1500.93 769.137L1520.88 749.167L250 -521.376Z" fill="#131313"/>
<path d="M250 -439.947L1520.89 831.699L1500.93 851.657L250 -400.009L-1000.93 851.657L-1020.89 831.699L250 -439.947Z" fill="#131313"/>
<path d="M250 -357.41L-1020.88 913.133L-1000.93 933.102L250 -317.495L1500.93 933.102L1520.88 913.133L250 -357.41Z" fill="#131313"/>
<path d="M250 -275.97L1520.88 994.573L1500.93 1014.54L250 -236.055L-1000.93 1014.54L-1020.88 994.573L250 -275.97Z" fill="#131313"/>
<path d="M250 -194.542L-1020.89 1077.1L-1000.93 1097.06L250 -154.604L1500.93 1097.06L1520.89 1077.1L250 -194.542Z" fill="#131313"/>
<path d="M250 -112.005L1520.88 1158.54L1500.93 1178.51L250 -72.0892L-1000.93 1178.51L-1020.88 1158.54L250 -112.005Z" fill="#131313"/>
<path d="M250 -30.5763L-1020.89 1241.07L-1000.93 1261.03L250 9.36194L1500.93 1261.03L1520.89 1241.07L250 -30.5763Z" fill="#131313"/>
<path d="M250 50.8638L1520.89 1322.51L1500.93 1342.47L250 90.8018L-1000.93 1342.47L-1020.89 1322.51L250 50.8638Z" fill="#131313"/>
<path d="M250 133.401L-1020.88 1403.94L-1000.93 1423.91L250 173.316L1500.93 1423.91L1520.88 1403.94L250 133.401Z" fill="#131313"/>
<path d="M250 214.829L1520.89 1486.48L1500.93 1506.43L250 254.767L-1000.93 1506.43L-1020.89 1486.48L250 214.829Z" fill="#131313"/>
<path d="M250 297.366L-1020.88 1567.91L-1000.93 1587.88L250 337.282L1500.93 1587.88L1520.88 1567.91L250 297.366Z" fill="#131313"/>
<path d="M250 378.806L1520.88 1649.35L1500.93 1669.32L250 418.722L-1000.93 1669.32L-1020.88 1649.35L250 378.806Z" fill="#131313"/>
<path d="M250 460.235L-1020.89 1731.88L-1000.93 1751.84L250 500.173L1500.93 1751.84L1520.89 1731.88L250 460.235Z" fill="#131313"/>
<path d="M250 542.772L1520.88 1813.32L1500.93 1833.28L250 582.687L-1000.93 1833.28L-1020.88 1813.32L250 542.772Z" fill="#131313"/>
<path d="M250 624.2L-1020.89 1895.85L-1000.93 1915.8L250 664.138L1500.93 1915.8L1520.89 1895.85L250 624.2Z" fill="#131313"/>
<path d="M250 705.64L1520.89 1977.29L1500.93 1997.24L250 745.578L-1000.93 1997.24L-1020.89 1977.29L250 705.64Z" fill="#131313"/>
<path d="M250 788.177L-1020.88 2058.72L-1000.93 2078.69L250 828.093L1500.93 2078.69L1520.88 2058.72L250 788.177Z" fill="#131313"/>
<path d="M250 869.606L1520.89 2141.25L1500.93 2161.21L250 909.544L-1000.93 2161.21L-1020.89 2141.25L250 869.606Z" fill="#131313"/>
<path d="M250 952.143L-1020.88 2222.69L-1000.93 2242.66L250 992.058L1500.93 2242.66L1520.88 2222.69L250 952.143Z" fill="#131313"/>
<path d="M250 1033.58L-1020.88 2304.13L-1000.93 2324.09L250 1073.5L1500.93 2324.09L1520.88 2304.13L250 1033.58Z" fill="#131313"/>
</g>
<defs>
<clipPath id="clip0_1364_1104">
<rect width="500" height="500" fill="white"/>
</clipPath>
</defs>
</svg>
