<svg width="500" height="500" viewBox="0 0 500 500" fill="none" xmlns="http://www.w3.org/2000/svg">
<g clip-path="url(#clip0_1364_1114)">
<path fill-rule="evenodd" clip-rule="evenodd" d="M234.007 412.754L180.409 524.601L242.983 506.76L-85.6873 1477.49H-407.266L137.744 568.042L76.7213 585.107L144.726 447.03L102.32 452.719L155.158 381.542L52.8073 451.612L115.919 467.448L-654.085 1143.79L-932.581 983.004L-5.86121 467.9L-67.2415 452.168L60.6907 366.592L21.1218 350.315L102.47 315.093L-21.2041 324.6L25.5344 369.87L-979.482 570.601L-1140.27 292.105L-80.1565 309.372L-125.447 265.057L28.1332 254.912L2.00378 221.032L90.0643 231.202L-21.7937 177.599L-3.95203 240.173L-974.687 -88.4968V-410.076L-65.2338 134.935L-82.2996 73.9117L55.7776 141.916L50.089 99.5104L121.266 152.348L51.196 49.9978L35.3601 113.11L-640.986 -656.895L-480.197 -935.39L34.908 -8.67065L50.6401 -70.051L136.216 57.8811L152.493 18.3124L187.715 99.6603L178.208 -24.0138L132.938 22.7247L-67.7932 -982.292L210.702 -1143.08L193.436 -82.9662L237.751 -128.257L247.896 25.3235L281.776 -0.805908L271.606 87.2466L325.204 -24.6008L262.63 -6.75916L591.3 -977.494H912.879L367.869 -68.0409L428.892 -85.1066L360.887 52.9705L403.293 47.2819L350.455 118.459L452.806 48.3887L389.694 32.5529L1159.7 -643.793L1438.19 -483.004L511.474 32.1007L572.855 47.8328L444.923 133.409L484.491 149.685L403.143 184.908L526.817 175.401L480.079 130.13L1485.09 -70.6003L1645.88 207.895L585.77 190.629L631.06 234.944L477.48 245.089L503.609 278.969L415.549 268.798L527.407 322.402L509.565 259.827L1480.3 588.497V910.076L570.847 365.066L587.913 426.089L449.836 358.084L455.524 400.49L384.347 347.652L454.417 450.003L470.253 386.891L1146.6 1156.9L985.81 1435.39L470.705 508.671L454.973 570.052L369.397 442.12L353.121 481.688L317.898 400.341L327.406 524.014L372.676 477.276L573.406 1482.29L294.911 1643.08L312.177 582.967L267.863 628.257L257.718 474.677L223.837 500.806L234.007 412.754ZM182.994 409.796L252.803 250.012L235.957 395.87L182.994 409.796ZM269.656 104.13L252.81 249.989L322.619 90.2048L269.656 104.13ZM252.808 249.993L233.371 76.7037L194.464 115.248L252.807 249.995L252.808 249.993ZM252.807 249.995L149.328 109.64L134.905 162.473L252.805 249.999L93.012 180.185L106.938 233.151L252.805 249.999L79.5134 269.436L118.058 308.344L252.804 250.002L112.449 353.48L165.283 367.903L252.804 250.002L252.805 249.999L252.807 249.995ZM252.807 250.001L426.1 230.564L387.556 191.657L252.809 249.999L393.164 146.521L340.33 132.098L252.809 249.999L252.807 250.001ZM252.807 250.001L398.675 266.849L412.601 319.816L252.807 250.001ZM252.806 250.005L356.285 390.361L370.708 337.527L252.807 250.001L252.806 250.005ZM252.806 250.005L252.805 250.008L272.242 423.297L311.149 384.753L252.806 250.005Z" fill="#131313"/>
</g>
<defs>
<clipPath id="clip0_1364_1114">
<rect width="500" height="500" fill="white"/>
</clipPath>
</defs>
</svg>
