<svg width="500" height="500" viewBox="0 0 500 500" fill="none" xmlns="http://www.w3.org/2000/svg">
<g clip-path="url(#clip0_1364_1111)">
<path fill-rule="evenodd" clip-rule="evenodd" d="M1447.06 -957.415H1343.86L1343.87 -957.433C1342.48 -957.433 1341.36 -956.257 1341.43 -954.861C1356.5 -667.092 1371.55 -379.778 1386.58 -92.7234L1390.55 -16.849L1390.85 -11.1196L1393.25 34.6011L1394.39 56.4814L1395.65 80.3939L1400.47 172.406L1404.19 243.519L1405.71 272.577C1419.28 531.755 1432.85 790.788 1446.41 1049.82C1446.45 1050.67 1447.17 1051.31 1448.01 1051.27H1448.05C1448.86 1051.24 1449.5 1050.58 1449.5 1049.75V-954.971C1449.5 -956.331 1448.4 -957.415 1447.06 -957.415ZM1117.7 -956.753H1225.97C1227.21 -956.753 1228.26 -955.816 1228.39 -954.566C1299.07 -275.767 1369.66 402.096 1440.24 1079.96C1440.37 1081.28 1439.44 1082.46 1438.13 1082.62H1438.09C1436.79 1082.79 1435.58 1081.89 1435.38 1080.58C1362.7 618.565 1290.01 156.546 1217.21 -306.119C1183.27 -521.898 1149.29 -737.816 1115.29 -953.942C1115.05 -955.43 1116.21 -956.753 1117.7 -956.753ZM-949.674 -628.636C-949.674 -627.148 -948.333 -625.99 -946.864 -626.229L1024.41 -940.491C1027.52 -940.987 1026.93 -945.618 1023.81 -945.342C828.042 -927.793 632.733 -907.139 437.425 -886.429C320.345 -874.013 203.261 -861.584 86.1763 -849.155C-105.192 -828.84 -296.565 -808.525 -487.938 -788.266C-529.293 -783.887 -570.652 -779.55 -612.009 -775.212L-612.017 -775.211L-612.026 -775.21L-612.034 -775.209L-612.042 -775.209L-612.051 -775.208L-612.059 -775.207L-612.067 -775.206L-612.076 -775.205L-612.084 -775.204L-612.092 -775.203L-612.101 -775.202L-612.109 -775.202L-612.117 -775.201L-612.126 -775.2L-612.134 -775.199L-612.142 -775.198L-612.147 -775.198L-612.152 -775.197L-612.157 -775.197C-717.586 -764.139 -823.008 -753.082 -928.354 -741.353C-936.03 -740.489 -948.241 -729.85 -948.7 -723.087C-950.29 -700.027 -950.069 -676.842 -949.839 -652.724C-949.764 -644.805 -949.687 -636.785 -949.674 -628.636ZM1006.91 -932.938L-921.835 -519.502C-923.139 -519.227 -923.984 -517.941 -923.708 -516.617L-513.609 1426.38C-513.334 1427.68 -512.03 1428.53 -510.708 1428.25C-177.652 1357.01 154.137 1286.02 485.659 1215.1C796.365 1148.63 1106.84 1082.2 1417.9 1015.66C1419.2 1015.39 1420.04 1014.1 1419.77 1012.78C1282.73 363.011 1146.42 -283.319 1009.82 -931.064C1009.54 -932.369 1008.24 -933.214 1006.91 -932.938ZM-412.246 1396.63L-893.758 -414.026V-414.044C-894.107 -415.33 -893.336 -416.672 -892.032 -417.021L-652.557 -481.633C-133.246 -621.747 384.516 -761.442 904.651 -901.773C905.955 -902.122 907.296 -901.35 907.645 -900.046C1017.3 -487.717 1126.65 -76.5868 1236.15 335.098C1287.05 526.499 1337.99 718.019 1389.01 909.836C1389.34 911.122 1388.59 912.464 1387.28 912.813L-409.253 1398.36C-410.556 1398.7 -411.897 1397.93 -412.246 1396.63ZM1444.43 1124.24C1444.28 1122.85 1443 1121.86 1441.62 1122.08C945.984 1201.32 452.724 1280.18 -39.9114 1358.94L-565.778 1443.01L-565.135 1447.84C-112.777 1400.03 339.581 1352.22 792.288 1304.38L829.253 1300.47C1035.27 1278.7 1241.37 1256.92 1447.57 1235.12C1448.82 1234.98 1449.76 1233.93 1449.76 1232.68C1449.77 1226.51 1449.83 1220.68 1449.88 1215.07C1450.02 1201.73 1450.15 1189.73 1449.55 1177.75C1448.96 1165.7 1447.64 1153.69 1446.18 1140.53L1446.18 1140.5L1446.18 1140.49L1446.17 1140.45C1445.6 1135.25 1445.01 1129.87 1444.43 1124.24ZM-939.923 -585.582L-620.243 1450.85C-620.004 1452.34 -621.161 1453.67 -622.648 1453.67H-729.3C-730.549 1453.67 -731.595 1452.73 -731.724 1451.48C-802.568 774.407 -873.669 94.7434 -944.752 -584.938C-944.862 -586.078 -944.183 -587.144 -943.118 -587.511C-941.686 -587.989 -940.162 -587.07 -939.923 -585.582ZM-485.348 1452.55C157.777 1418.39 800.938 1384.22 1446.06 1349.97C1447.46 1349.9 1448.64 1351 1448.64 1352.42V1454.99C1448.64 1456.33 1447.55 1457.43 1446.19 1457.43H-485.22C-485.266 1455.85 -485.275 1455.43 -485.284 1455C-485.293 1454.57 -485.303 1454.14 -485.348 1452.56V1452.55ZM-945.56 1456.39H-849.081C-847.686 1456.39 -846.566 1455.21 -846.639 1453.81C-864.131 1114.29 -881.577 775.772 -898.998 437.721L-899.062 436.494C-914.759 131.894 -930.437 -172.323 -946.111 -476.54C-946.444 -476.521 -946.772 -476.497 -947.098 -476.473L-947.104 -476.473C-947.405 -476.451 -947.704 -476.429 -948.003 -476.411V1453.94C-948.003 1455.3 -946.901 1456.39 -945.56 1456.39ZM-947.103 -857.01V-953.776C-947.103 -955.118 -946.019 -956.22 -944.66 -956.22H896.976C897.022 -954.64 897.031 -954.213 897.04 -953.786L897.04 -953.772V-953.771V-953.769C897.05 -953.347 897.059 -952.91 897.104 -951.351C605.686 -936.035 314.259 -920.72 22.6448 -905.395L17.8559 -905.143C-302.633 -888.3 -623.35 -871.445 -944.532 -854.566C-945.928 -854.492 -947.103 -855.613 -947.103 -857.01ZM955.861 -416.958L936.271 -477.726L932.335 -489.934L916.147 -540.148L811.864 -863.625H811.846C811.423 -864.911 810.064 -865.628 808.779 -865.205C757.692 -848.46 -126.104 -558.889 -585.123 -408.494L-587.692 -407.652L-596.66 -404.714L-625.395 -395.299L-642.662 -389.641C-760.528 -351.023 -840.544 -324.806 -854.829 -320.126C-856.096 -319.703 -856.775 -318.343 -856.372 -317.057L-315.914 1358.99C-315.491 1360.28 -314.114 1360.98 -312.829 1360.56C61.5743 1238.08 434.719 1116 808.048 993.861C988.897 934.695 1169.79 875.514 1350.89 816.267C1352.16 815.844 1352.85 814.484 1352.45 813.198C1219.94 402.196 1088.01 -7.05524 955.861 -416.958ZM561.18 1013.09L552.246 1016.55L517.3 1030.08C271.222 1125.34 24.9072 1220.69 -222.245 1316.36C-223.512 1316.84 -224.926 1316.22 -225.403 1314.95C-394.588 870.848 -562.815 429.323 -731.904 -14.4623L-812.392 -225.711C-812.87 -226.961 -812.245 -228.376 -810.997 -228.853C-587.113 -315.396 -363.528 -401.821 -139.757 -488.319C145.438 -598.559 430.935 -708.916 717.735 -819.78C719.002 -820.258 720.416 -819.633 720.894 -818.365C910.339 -321.181 1099.18 174.4 1289.29 673.306L1307.66 721.521C1308.14 722.771 1307.52 724.186 1306.27 724.664C1064.08 818.414 822.276 912.019 580.295 1005.69L574.453 1007.95L561.18 1013.09ZM-760.866 -144.013L633.376 -770.001C634.606 -770.552 636.057 -770.001 636.608 -768.769C641.976 -756.778 647.305 -744.906 652.597 -733.114L652.855 -732.54L652.907 -732.424L652.921 -732.393L652.943 -732.344C665.692 -703.941 678.234 -676 690.613 -647.986C735.752 -545.837 780.885 -443.685 826.017 -341.534L826.039 -341.486L826.287 -340.923C967.256 -21.8599 1108.22 297.199 1249.38 616.173C1256.01 631.131 1258.41 640.025 1239.54 648.459C870.818 813.271 502.281 978.481 133.749 1143.69C47.0912 1182.54 -39.5657 1221.38 -126.225 1260.22C-128.307 1261.16 -130.493 1261.87 -133.659 1262.89L-133.664 1262.9L-133.673 1262.9L-133.677 1262.9C-135.114 1263.36 -136.753 1263.9 -138.675 1264.54C-139.868 1264.95 -141.172 1264.38 -141.686 1263.22C-291.794 923.527 -441.862 583.932 -592.642 242.727L-595.877 235.405L-762.115 -140.779C-762.665 -142.01 -762.115 -143.443 -760.884 -143.994L-760.866 -144.013ZM-60.2468 1209.08C214.147 1068.14 487.426 927.769 760.784 787.356L1200.26 561.615C1201.45 561.009 1201.93 559.539 1201.32 558.344C1077.25 313 953.747 68.8002 830.366 -175.163L819.045 -197.548L816.205 -203.164L795.885 -243.342L794.521 -246.039L762.968 -308.429C695.026 -442.773 627.094 -577.095 559.098 -711.547C558.492 -712.76 557.005 -713.238 555.811 -712.613C385.143 -625.044 215.167 -537.825 45.4597 -450.745L41.2625 -448.591L32.7172 -444.206L28.6188 -442.103L27.7773 -441.672C-216.564 -316.295 -460.378 -191.188 -704.932 -65.7138C-706.126 -65.1074 -706.603 -63.6373 -705.997 -62.4429C-584.246 178.31 -462.967 418.14 -341.554 658.235L-339.295 662.702C-247.541 844.147 -155.708 1025.75 -63.5338 1208.02C-62.9278 1209.23 -61.4404 1209.71 -60.2468 1209.08ZM-363.213 500.447L-362.024 502.521L-358.057 509.446C-236.455 721.674 -114.887 933.845 7.09026 1146.74H7.07189C7.75134 1147.91 9.23876 1148.32 10.414 1147.64C280.62 990.499 548.833 834.513 817.077 678.509L862.089 652.331L1140.06 490.667C1141.22 489.987 1141.61 488.499 1140.95 487.341C1056.5 339.956 972.284 192.957 888.113 46.0435L884.149 39.1251C752.434 -190.774 620.832 -420.475 488.676 -651.128C487.997 -652.304 486.51 -652.708 485.335 -652.028C361.636 -580.015 238.255 -508.186 114.994 -436.426L113.274 -435.424C-139.097 -288.5 -390.97 -141.865 -644.041 5.45557C-645.198 6.1355 -645.583 7.6239 -644.922 8.78162C-558.353 159.872 -471.976 310.625 -385.631 461.32L-365.725 496.062L-363.213 500.447ZM109.403 -380.475L421.78 -584.81V-584.792C422.9 -585.527 424.425 -585.214 425.159 -584.075C641.254 -248.773 856.56 85.3167 1074.33 423.246C1075.04 424.367 1074.73 425.874 1073.61 426.609C938.817 514.859 804.091 603.067 669.191 691.39L632.659 715.308L609.138 730.707C431.285 847.151 253.067 963.835 73.9313 1081.12C72.8112 1081.85 71.2871 1081.54 70.5525 1080.4C-40.5489 908.041 -151.515 735.886 -262.678 563.424C-367.841 400.272 -473.181 236.846 -578.981 72.7108C-579.697 71.59 -579.385 70.0831 -578.265 69.348C-348.881 -80.6967 -120.02 -230.402 109.403 -380.475ZM995.144 377.766C709.289 586.974 426.022 794.289 139.652 1003.88C133.078 1008.7 123.823 1007.23 119.049 1000.61C-87.7727 713.767 -294.007 427.748 -502.389 138.753C-507.109 132.193 -505.676 123.042 -499.157 118.283C-214.201 -90.4474 69.4875 -298.24 356.096 -508.165C362.67 -512.979 371.925 -511.527 376.699 -504.912C465.342 -381.982 553.863 -259.214 642.488 -136.302L648.464 -128.015L651.134 -124.311L655.961 -117.617L656.499 -116.87L660.065 -111.925C772.491 43.9967 885.109 200.183 998.376 357.259C1003.1 363.819 1001.64 372.97 995.126 377.748L995.144 377.766ZM560.674 624.474L563.984 621.771C683.246 524.396 802.33 427.165 921.729 329.677C927.991 324.568 928.946 315.362 923.896 309.059C812.09 169.965 700.92 31.6535 589.731 -106.683L589.175 -107.376C502.612 -215.072 416.037 -322.785 329.139 -430.895C324.034 -437.253 314.724 -438.227 308.408 -433.081C230.832 -369.809 153.398 -306.655 76.0219 -243.548L58.9313 -229.609L50.9375 -223.089L44.0489 -217.471L42.6382 -216.32C-113.634 -88.8666 -269.716 38.4327 -426.293 166.151C-432.555 171.26 -433.528 180.466 -428.46 186.769C-275.727 376.8 -124.171 565.35 27.9473 754.6L28.6872 755.521L31.1646 758.603L166.609 927.109C171.714 933.467 181.042 934.441 187.359 929.296H187.341C312.352 827.224 436.612 725.768 560.674 624.474ZM-192.083 406.227C-59.2589 554.852 72.9108 702.745 206.034 851.695H206.052C211.488 857.777 220.835 858.274 226.876 852.798C353.463 737.996 479.34 623.836 605.244 509.652L617.177 498.829L847.396 290.041C853.382 284.601 853.86 275.359 848.479 269.331C734.921 142.244 621.947 15.828 508.847 -110.728C435.912 -192.34 362.925 -274.011 289.696 -355.959C284.242 -362.041 274.895 -362.519 268.854 -357.043C90.2592 -194.915 -87.0206 -33.9678 -264.22 126.907L-351.409 206.063C-357.377 211.484 -357.855 220.727 -352.474 226.755C-298.836 286.774 -245.407 346.559 -192.083 406.227ZM772.218 259.059C597.587 430.027 425.893 598.128 258.883 761.654L258.864 761.636C253.153 767.222 244.045 767.222 238.335 761.636L135.52 660.954C0.547784 528.781 -136.599 394.479 -275.075 258.894C-280.951 253.142 -280.969 243.66 -275.093 237.89C-230.137 193.701 -185.354 149.681 -140.776 105.863L-128.534 93.83C-4.88373 -27.7133 117.163 -147.68 236.921 -265.385C242.631 -270.989 251.758 -270.989 257.469 -265.403C305.314 -218.61 353.436 -171.548 401.822 -124.226L436.936 -89.8845C547.384 18.1343 659.19 127.48 772.218 238.019C778.113 243.789 778.113 253.289 772.218 259.059ZM90.0182 539.703L85.2463 535.371C-7.98627 450.746 -100.92 366.393 -194.278 281.643C-200.264 276.222 -200.742 266.961 -195.361 260.952C-58.539 107.809 76.9427 -43.8465 214.206 -197.504C219.641 -203.587 229.006 -204.083 235.047 -198.607C387.092 -60.7154 537.632 75.8163 690.246 214.241C696.232 219.662 696.71 228.923 691.33 234.95C616.13 319.083 541.229 402.867 466.286 486.697C404.765 555.514 343.216 624.363 281.451 693.462C276.034 699.526 266.65 700.022 260.609 694.546C203.522 642.727 146.712 591.162 90.0182 539.703ZM199.387 -115.659C93.7081 15.8379 -10.3179 145.295 -115.372 276.038C-120.44 282.341 -119.467 291.547 -113.205 296.656C-17.6663 374.625 77.2261 452.057 172.636 529.912L239.409 584.399L275.556 613.895C281.855 619.04 291.201 618.066 296.306 611.708L610.9 219.882C615.95 213.579 614.976 204.373 608.733 199.265C573.895 170.835 539.197 142.519 504.553 114.246L501.487 111.745L501.161 111.479C407.692 35.2013 314.587 -40.7791 220.137 -117.846C213.838 -122.991 204.492 -121.999 199.387 -115.659ZM404.538 389.924L406.957 386.57C448.376 329.128 489.89 271.553 532.031 213.101V213.138C536.751 206.578 535.3 197.427 528.781 192.649C422.588 114.938 318.544 38.8076 213.343 -38.1685C206.787 -42.9828 197.495 -41.4944 192.739 -34.8976L188.638 -29.2016C112.815 76.1091 38.6846 179.068 -36.1544 283.003C-40.8737 289.545 -39.4231 298.714 -32.9042 303.473C19.8424 342.063 71.9211 380.166 123.844 418.154C176.655 456.792 229.304 495.312 282.332 534.107C288.906 538.903 298.179 537.433 302.935 530.836C336.939 483.674 370.71 436.838 404.538 389.924ZM301.685 98.9207C350.427 130.819 398.927 162.559 447.782 194.524C454.54 198.934 456.468 207.993 452.097 214.792C401.618 293.256 352.185 370.085 301.117 449.45C296.71 456.286 287.529 458.252 280.716 453.805L224.037 416.766C165.479 378.498 107.119 340.36 47.7825 301.581C41.0249 297.17 39.0969 288.093 43.4672 281.294C72.2657 236.607 100.796 192.331 129.418 147.913C141.794 128.707 154.187 109.474 166.626 90.1708C175.956 75.6931 185.311 61.1754 194.704 46.5989C199.111 39.7631 208.293 37.8153 215.106 42.2622C244.132 61.2561 272.95 80.116 301.685 98.9207ZM281.838 153.467L279.513 152.118C261.275 141.542 243.042 130.968 224.654 120.304C217.621 116.224 208.568 118.668 204.528 125.706L202.717 128.869C175.102 177.08 148.419 223.664 121.051 271.463C117.066 278.427 119.471 287.45 126.413 291.492L137.017 297.67C181.764 323.735 225.739 349.35 271.149 375.818C278.182 379.916 287.253 377.491 291.293 370.416C319.94 320.287 347.135 272.694 374.79 224.274C378.774 217.291 376.35 208.287 369.409 204.244H369.391C339.756 187.054 310.783 170.252 281.838 153.467ZM313.898 229.529C301.54 256.431 289.384 282.892 276.566 310.75C274.767 314.682 270.084 316.391 266.154 314.554C252.415 308.096 238.914 301.755 225.45 295.432C212.211 289.215 199.008 283.014 185.651 276.737C181.795 274.917 180.087 270.268 181.887 266.391C190.492 247.702 198.95 229.352 207.504 210.791C211.382 202.379 215.279 193.923 219.219 185.372C221.018 181.458 225.701 179.75 229.612 181.569C232.978 183.141 236.333 184.709 239.682 186.274C245.711 189.092 251.718 191.9 257.723 194.707L257.775 194.731C275.086 202.822 292.38 210.906 310.115 219.184C313.971 220.984 315.679 225.652 313.898 229.529ZM243.454 265.228C247.604 266.749 251.771 268.275 256 269.827L256.018 269.809C257.395 270.305 258.901 269.607 259.397 268.229C260.488 265.172 261.561 262.165 262.624 259.186C264.942 252.69 267.211 246.331 269.515 239.893C269.992 238.533 269.276 237.027 267.936 236.53C258.405 233.057 249.224 229.713 239.84 226.295C238.463 225.799 236.957 226.516 236.461 227.875C233.028 237.449 229.722 246.674 226.325 256.156C225.829 257.516 226.546 259.022 227.886 259.518C233.108 261.437 238.268 263.328 243.454 265.228Z" fill="#131313"/>
</g>
<defs>
<clipPath id="clip0_1364_1111">
<rect width="500" height="500" fill="white"/>
</clipPath>
</defs>
</svg>
