<svg width="290" height="130" viewBox="0 0 290 130" fill="none" xmlns="http://www.w3.org/2000/svg">
<g clip-path="url(#clip0_962_10733)">
<path d="M160.781 66.4791C160.781 61.9363 158.845 57.9226 152.297 57.9226C148.938 57.9226 146.269 58.8843 144.822 59.7261L145.883 63.3706C147.215 62.5312 149.34 61.8399 151.347 61.8399C154.661 61.8352 155.205 63.7186 155.205 64.9295V65.2211C147.969 65.2093 143.395 67.7205 143.395 72.8347C143.395 75.9596 145.717 78.8893 149.776 78.8893C152.253 78.8893 154.345 77.8853 155.595 76.3005H155.717C155.717 76.3005 156.541 79.764 161.099 78.4402C160.867 76.9894 160.781 75.4611 160.781 73.6035V66.4791V66.4791ZM155.383 71.2757C155.383 71.6425 155.352 72.0235 155.244 72.3503C154.828 73.7493 153.39 74.9203 151.602 74.9203C150.092 74.9203 148.907 74.0621 148.907 72.2633C148.907 69.5122 151.932 68.7551 155.383 68.7739" fill="#131313"/>
<path d="M50 51.7417C50 51.7417 54.7263 71.1636 55.4778 74.3096C56.3626 77.9871 57.9475 79.3462 62.5217 78.4409L65.4759 66.3975C66.2227 63.4136 66.7306 61.2739 67.2129 58.2337H67.2948C67.6296 61.3045 68.1118 63.4136 68.7228 66.4069C68.7228 66.4069 69.9283 71.8784 70.5534 74.7446C71.162 77.6109 72.8756 79.4191 77.3632 78.4409L84.3954 51.7417H78.7186L76.3051 63.2914C75.666 66.6373 75.0854 69.2731 74.6337 72.3392H74.5517C74.1444 69.306 73.6271 66.7784 72.9623 63.5006L70.4621 51.7417H64.5396L61.8709 63.1997C61.11 66.6984 60.3984 69.5036 59.9513 72.4733H59.8741C59.4129 69.687 58.7879 66.1388 58.1253 62.7717C58.1253 62.7717 56.5405 54.568 55.9811 51.7417" fill="#131313"/>
<path d="M100.215 66.4791C100.215 61.9363 98.2743 57.9226 91.7267 57.9226C88.3769 57.9226 85.7035 58.8843 84.2569 59.7261L85.3173 63.3706C86.6446 62.5312 88.7679 61.8399 90.781 61.8399C94.0958 61.8352 94.6389 63.7186 94.6389 64.9295V65.2211C87.4031 65.2093 82.8242 67.7205 82.8242 72.8347C82.8242 75.9596 85.1558 78.8893 89.1962 78.8893C91.6963 78.8893 93.7704 77.8853 95.0205 76.3005H95.1468C95.1468 76.3005 95.9755 79.764 100.529 78.4402C100.295 76.9894 100.215 75.4611 100.215 73.6035V66.4791V66.4791ZM94.8122 71.2757C94.8122 71.6425 94.7817 72.0235 94.6787 72.3503C94.2572 73.7493 92.82 74.9203 91.0269 74.9203C89.5263 74.9203 88.3371 74.0621 88.3371 72.2633C88.3371 69.5122 91.3615 68.7551 94.8122 68.7739" fill="#131313"/>
<path d="M103.16 51.7417V78.4315H108.563V72.7719V51.7417H103.16Z" fill="#131313"/>
<path d="M177.363 51.7417V71.434C177.363 74.1521 177.871 76.0473 178.964 77.2088C179.924 78.2269 181.495 78.89 183.365 78.89C184.971 78.89 186.542 78.5796 187.284 78.3092L187.219 74.0698C186.664 74.1991 186.029 74.3096 185.158 74.3096C183.314 74.3096 182.705 73.1363 182.705 70.6957V63.1573H187.411V58.0573H182.705V51.7417" fill="#131313"/>
<path d="M163.398 58.3857V78.4401H168.984V68.1695C168.984 67.617 169.019 67.1397 169.106 66.6976C169.522 64.5321 171.159 63.1612 173.516 63.1612C174.174 63.1612 174.621 63.2341 175.117 63.3117V58.0542C174.7 57.9789 174.417 57.939 173.905 57.939C171.814 57.939 169.445 59.2722 168.445 62.176H168.307V58.3857" fill="#131313"/>
<path d="M111.703 58.3857V78.4401H117.146V66.6694C117.146 66.1168 117.207 65.5525 117.401 65.0423C117.843 63.8502 118.941 62.47 120.704 62.47C122.895 62.47 123.93 64.3275 123.93 67.008V78.4401H129.358V66.5283C129.358 66.0087 129.431 65.3715 129.583 64.9106C130.019 63.5586 131.208 62.47 132.851 62.47C135.066 62.47 136.138 64.2875 136.138 67.4477V78.4401H141.562V66.6153C141.562 60.4031 138.415 57.939 134.843 57.939C133.273 57.939 132.022 58.3269 130.899 59.0229C129.948 59.6084 129.115 60.4337 128.368 61.513H128.286C127.427 59.3545 125.409 57.939 122.773 57.939C119.393 57.939 117.857 59.6531 116.954 61.1015H116.872V58.3857" fill="#131313"/>
<path d="M216.642 57.4858C217.709 57.4858 218.608 56.9262 218.725 56.2067L219.783 44.1679C219.783 42.9758 218.386 42 216.642 42C214.888 42 213.5 42.9758 213.5 44.1679L214.567 56.2067C214.68 56.9262 215.574 57.4858 216.642 57.4858Z" fill="#131313"/>
<path d="M210.15 61.2528C210.679 60.3123 210.648 59.2683 210.077 58.8027L200.198 51.864C199.171 51.262 197.633 51.9792 196.752 53.4981C195.875 55.0147 196.053 56.7171 197.059 57.3073L207.996 62.4002C208.696 62.6636 209.611 62.1745 210.15 61.2434" fill="#131313"/>
<path d="M223.131 61.2428C223.691 62.1739 224.606 62.663 225.287 62.4137L236.224 57.3067C237.24 56.7047 237.392 55.0188 236.533 53.5022C235.655 51.9833 234.108 51.2708 233.083 51.861L223.201 58.7927C222.654 59.2653 222.614 60.314 223.143 61.2522" fill="#131313"/>
<path d="M216.642 72.5237C217.709 72.5237 218.608 73.0833 218.725 73.8028L219.783 85.8415C219.783 87.0337 218.386 88.0001 216.642 88.0001C214.888 88.0001 213.5 87.0337 213.5 85.8415L214.567 73.8028C214.68 73.0833 215.574 72.5237 216.642 72.5237Z" fill="#131313"/>
<path d="M223.131 68.767C223.691 67.8336 224.606 67.3351 225.287 67.6055L236.224 72.7031C237.24 73.2933 237.392 74.9933 236.533 76.5123C235.655 78.0195 234.108 78.7366 233.083 78.1464L223.201 71.2053C222.654 70.7374 222.614 69.6934 223.143 68.767" fill="#131313"/>
<path d="M210.15 68.757C210.679 69.6952 210.648 70.7368 210.077 71.2071L200.198 78.1364C199.171 78.7383 197.633 78.0188 196.752 76.5116C195.875 74.9951 196.053 73.2927 197.059 72.7025L207.996 67.6049C208.696 67.3368 209.611 67.8306 210.15 68.757Z" fill="#131313"/>
<path d="M239.426 77.0901H239.562C239.747 77.0901 239.821 77.1489 239.843 77.297C239.882 77.4616 239.903 77.5721 239.943 77.6192H240.294C240.264 77.5839 240.224 77.4945 240.203 77.2876C240.163 77.1089 240.072 77.0078 239.943 76.9725V76.9396C240.121 76.8997 240.224 76.7797 240.224 76.6316C240.224 76.4976 240.163 76.4012 240.102 76.34C239.985 76.2836 239.873 76.2389 239.625 76.2389C239.405 76.2389 239.243 76.2577 239.115 76.2883V77.6192H239.426V77.0901V77.0901ZM239.435 76.4835L239.594 76.4623C239.782 76.4623 239.882 76.5493 239.882 76.6716C239.882 76.808 239.747 76.8714 239.573 76.8714H239.435V76.4835V76.4835ZM239.634 75.5806C238.866 75.5806 238.258 76.1825 238.258 76.9208C238.258 77.6779 238.866 78.2799 239.634 78.2799C240.411 78.2799 241.001 77.6779 241.001 76.9208C241.001 76.1825 240.411 75.5806 239.634 75.5806ZM239.634 75.851C240.224 75.851 240.662 76.3306 240.662 76.9208C240.662 77.5157 240.224 78.0095 239.634 78.0001C239.044 78.0001 238.597 77.5157 238.597 76.9208C238.597 76.3306 239.044 75.851 239.625 75.851" fill="#131313"/>
</g>
<defs>
<clipPath id="clip0_962_10733">
<rect width="191" height="46" fill="white" transform="translate(50 42)"/>
</clipPath>
</defs>
</svg>
