<svg width="290" height="130" viewBox="0 0 290 130" fill="none" xmlns="http://www.w3.org/2000/svg">
<path d="M140.837 44.9319H152.689V62.949H169.914V44.9319H181.837V91.5931H169.914V72.8558H152.689V91.5931H140.837V44.9319Z" fill="#131313"/>
<path d="M202.875 44.9319H191.023V91.5931H202.875V44.9319Z" fill="#131313"/>
<path d="M195.289 35H205.15L198.96 42.2219H191.978L195.289 35Z" fill="#131313"/>
<path d="M104.367 69.4744C106.598 73.0005 109.477 74.1282 112.523 73.4093C112.572 73.3857 112.572 73.3134 112.523 73.3134C109.668 73.1451 106.238 70.0028 104.126 67.0036C102.734 65.0362 99.4237 62.5418 97.7691 62.685C97.7219 62.7086 96.7374 62.8532 96.7374 62.8532C95.2983 63.0687 93.2113 63.1897 90.8837 63.2133C89.8757 63.237 88.5812 64.1004 88.6048 65.5645C88.7967 66.7158 89.9966 66.4767 90.5486 66.2598C91.4357 65.9233 91.9641 65.3727 93.1154 65.4922C95.6585 65.7314 98.0333 68.2745 100.721 68.9711C101.032 69.1393 101.058 69.1866 101.058 69.3076C101.058 69.6913 100.866 69.6913 100.697 69.6441C99.2583 69.2116 97.4104 70.0514 96.1632 69.5717C95.2038 69.2116 95.1315 68.9961 94.4112 68.3482C93.5714 67.6043 92.5634 66.4044 90.981 67.6043C90.8128 67.7489 90.55 67.9158 90.3567 67.9644C89.9243 68.0604 89.4933 68.0131 89.0609 67.7962C89.0451 67.7962 89.0372 67.8041 89.0372 67.8198C89.2527 68.0117 89.4697 68.2759 89.5656 68.611C89.7338 69.1866 89.5892 69.619 89.5892 69.619L89.3973 70.1224C89.3487 70.2183 89.325 70.3142 89.3014 70.4102L89.2291 70.5784C88.6771 72.0411 87.5981 75.3281 87.8623 75.976C88.2461 76.9354 90.094 76.2402 91.1729 76.2639C91.7722 76.2875 92.3478 76.624 92.5884 76.6003C92.9958 76.5517 93.0444 76.1207 92.8762 75.8328C92.7566 75.641 92.4688 75.4254 92.181 75.3295C91.9168 75.2336 91.5094 75.3782 91.4135 75.1376C91.6054 74.6579 92.5898 74.9694 92.9721 75.1863C93.2127 75.3295 94.795 76.5294 93.4755 78.0408C93.3072 78.2327 92.6843 78.4732 92.2032 78.4969C91.9627 77.6807 91.052 77.9449 90.5723 78.2091C90.2121 78.4009 90.2372 79.0962 90.1885 79.5286C90.1398 79.7928 90.1398 79.8887 90.0439 80.1529C89.9716 80.4171 89.9952 80.6326 89.9952 80.6326C90.6668 80.5603 91.0506 80.1765 91.4594 80.0569C91.8195 79.961 92.2269 80.3448 92.587 80.488C93.4505 80.8481 94.1707 81.0163 95.322 80.9913C95.1537 81.8075 94.2666 81.9034 93.9065 81.9271C93.4268 81.9271 92.9708 81.6392 92.4424 81.6392C91.914 81.6392 91.3871 81.9271 90.8587 81.9034C90.8351 81.9034 90.8351 81.9271 90.8351 81.9521C90.931 82.0717 91.0269 82.2635 91.0506 82.3595C91.0992 82.6473 90.81 82.9588 90.7391 83.2466C90.7391 83.2702 90.7628 83.2952 90.7878 83.2702C91.0756 82.8628 91.7472 82.7669 92.4674 82.7669C93.0431 82.7669 93.5228 82.9351 93.9552 82.7669C94.1707 82.6946 94.1707 82.4304 94.3876 82.4791C94.5558 82.5027 94.5558 82.8628 94.5322 82.9351C94.3167 83.6303 93.5492 83.9668 92.9721 84.3019C92.9485 84.3255 92.5161 84.662 92.4201 85.0931C92.2519 85.7174 92.3242 85.8133 92.3715 86.1484C92.5397 86.8923 93.139 88.5719 96.7861 87.4679C97.3854 87.276 102.784 86.2207 105.447 83.5817C105.471 83.558 108.374 80.4393 105.423 76.4321C104.895 75.6882 104.776 75.3281 104.776 74.6565C104.967 72.1607 104.776 70.5298 104.2 69.2825C104.224 69.3062 104.319 69.3785 104.368 69.4744H104.367ZM91.0033 68.4664C90.9797 68.3704 90.9074 68.2508 90.9074 68.1549C91.2675 67.8907 91.8668 67.8907 92.2992 67.9867C93.2349 68.2022 93.8106 69.3062 94.4822 69.594C94.1943 69.8582 93.7869 70.0501 93.2113 70.1696C93.3072 69.9778 93.4755 69.4258 92.9708 69.0893C92.8748 69.569 92.5147 69.6885 92.2505 69.8331C92.2018 70.0014 92.2269 70.0487 92.2269 70.121C91.9391 69.9055 91.9627 69.8804 91.8668 69.5453C92.035 69.473 92.0823 69.3535 92.1073 69.2088C92.2269 68.5373 91.5553 68.2731 91.0033 68.465V68.4664ZM95.4416 70.5298C95.3929 70.6493 95.2497 71.0094 95.1537 71.129C94.6977 71.681 93.8342 72.0884 93.139 71.8006C92.7066 71.6324 91.6999 71.2973 92.1073 70.6493C93.1863 71.1777 94.1471 70.3379 94.8423 69.8818C95.0578 69.9778 95.226 70.0737 95.3456 70.146C95.5139 70.2183 95.5139 70.3142 95.4416 70.5298Z" fill="#131313"/>
<path d="M120.61 79.7896C125.697 81.2051 123.034 84.0596 124.953 85.7156C125.385 85.2123 125.769 84.7076 126.153 84.2042C125.289 82.3564 125.745 80.2457 120.634 79.7173C120.562 79.6937 120.562 79.766 120.61 79.7896Z" fill="#131313"/>
<path d="M121.71 88.9069C121.519 88.7623 121.303 88.6191 121.111 88.4508C120.919 88.3062 120.032 87.5387 119.84 87.3955C119.84 88.1867 119.913 89.2907 119.864 90.3223C120.488 89.8663 121.111 89.3866 121.712 88.9069H121.71Z" fill="#131313"/>
<path d="M117.996 91.4736C118.332 89.6271 118.476 87.2995 117.996 85.98C117.205 85.428 116.581 85.1165 115.741 84.6368C115.502 87.1563 114.733 89.5784 113.581 91.8337C113.294 92.4093 112.861 93.1532 112.406 93.8734C114.374 93.2978 116.245 92.4816 117.996 91.475V91.4736Z" fill="#131313"/>
<path d="M113.34 86.8673C113.965 85.1154 112.716 84.0851 113.292 80.7258L113.34 80.2698C112.14 79.9097 109.55 79.8624 108.951 80.8454C107.775 82.7406 107.296 91.1137 102.665 94.9276C103.336 94.9763 104.031 94.9999 104.728 94.9999C106.048 94.9999 107.367 94.904 108.638 94.7121C110.437 93.2007 111.925 90.8732 113.34 86.8673Z" fill="#131313"/>
<path d="M84.192 62.6125C83.7123 62.397 84.1683 61.7491 85.1514 60.3809C92.4205 50.4241 111.781 55.919 113.028 55.7272C113.94 55.5826 100.673 48.7222 90.8841 53.8793C89.1808 54.7664 85.15 56.446 84.8872 55.7272C84.8872 55.7272 89.6133 53.3523 91.6767 51.4808C91.7962 51.3612 92.4442 50.8565 93.0448 50.4728C96.7629 48.2411 101.058 47.1858 105.424 47.45C117.155 48.1452 126.152 58.0784 125.456 69.5688C125.409 70.3364 125.313 71.1039 125.192 71.8478C124.64 71.1275 124.136 70.4559 124.113 70.3364C124.113 70.3364 125.648 51.7672 105.999 48.7931C102.425 48.2411 98.6344 48.8168 96.019 50.3532C96.8824 50.3045 97.7459 50.2809 98.4425 50.1613C107.511 48.6263 122.889 54.0239 122.337 68.1061C122.313 68.5622 116.339 59.0378 106.912 57.2622C96.3318 55.2711 91.3902 58.2703 91.3902 58.2703C91.3902 58.2703 98.3952 57.3832 105.905 58.8695C114.517 60.5728 121.091 67.3136 124.498 73.8875C124.257 74.3672 121.451 74.128 120.731 73.2632C118.524 70.5519 112.646 63.4746 105.018 61.6754C89.4965 57.981 84.794 62.899 84.1934 62.6112L84.192 62.6125Z" fill="#131313"/>
<path d="M113.17 69.6424C110.603 69.6911 108.9 64.8677 104.413 63.2367C104.364 63.2131 104.389 63.1408 104.437 63.1408C109.787 63.6691 111.081 67.9864 113.194 69.5465C113.217 69.5951 113.217 69.6424 113.17 69.6424ZM113.219 71.8254C110.748 70.8173 105.734 63.5482 101.271 62.9725C101.222 62.9725 101.198 63.0448 101.247 63.0685C104.822 64.6271 109.812 71.8003 113.195 71.9213C113.267 71.8977 113.267 71.8254 113.219 71.8254ZM113.747 78.3034C111.227 73.7928 108.493 78.2311 105.495 72.2091C105.471 72.1605 105.399 72.1855 105.399 72.2328C106.19 80.0539 111.372 76.8392 113.676 78.3506C113.725 78.3993 113.772 78.3506 113.748 78.302L113.747 78.3034Z" fill="#131313"/>
<path d="M123.102 87.3719C120.224 83.4856 115.017 84.0849 115.569 79.8872C115.569 79.8386 115.641 79.8386 115.665 79.8636C116.816 82.5513 121.734 79.9595 123.198 87.3246C123.175 87.3733 123.126 87.3969 123.102 87.3733V87.3719Z" fill="#131313"/>
<path d="M119.551 80.4613C109.044 75.7825 117.511 72.305 114.009 68.5856C114.009 68.5699 114.017 68.562 114.032 68.562C119.311 73.0239 112.858 76.2149 119.598 80.3653C119.647 80.414 119.598 80.4849 119.55 80.4613H119.551Z" fill="#131313"/>
<path d="M126.921 81.1819C125.649 76.3113 116.845 79.4064 117.949 72.7852C117.949 72.7365 118.021 72.7365 118.045 72.7852C119.748 78.6875 127.785 72.3291 127.017 81.1819C126.993 81.2056 126.921 81.2306 126.921 81.1819Z" fill="#131313"/>
<path d="M126.106 73.1452C126.37 72.0176 126.538 70.8427 126.609 69.6664C127.329 57.5516 117.877 47.1151 105.522 46.3712C101.035 46.107 96.6452 47.1387 92.7826 49.3704C92.7353 49.3704 92.6866 49.394 92.6393 49.394L90.5523 45.9638C95.2784 42.9647 100.725 41.5729 106.338 41.9094C120.972 42.7728 132.151 55.3923 131.288 70.0029C131.096 73.3135 130.305 76.4558 128.96 79.4077C128.432 77.368 127.497 75.306 126.106 73.1466V73.1452Z" fill="#131313"/>
</svg>
