<svg width="290" height="130" viewBox="0 0 290 130" fill="none" xmlns="http://www.w3.org/2000/svg">
<g clip-path="url(#clip0_962_10732)">
<path fill-rule="evenodd" clip-rule="evenodd" d="M92.7559 60.7578V63.1817L95.1556 61.5657L97.5202 63.1642V60.7578L95.1556 59.1945L92.7559 60.7578Z" fill="#131313"/>
<path fill-rule="evenodd" clip-rule="evenodd" d="M84.2429 55.7329L82.4212 54.4155L80.0215 56.0315V58.4731L82.4212 56.8395L84.2254 58.192L86.0997 56.8395L88.4994 58.4731V56.0315L86.0997 54.4155L84.2429 55.7329Z" fill="#131313"/>
<path fill-rule="evenodd" clip-rule="evenodd" d="M95.1556 54.3812L92.7559 55.9445V58.3685L95.1556 56.7525L97.5202 58.3685V55.9445L95.1556 54.3812Z" fill="#131313"/>
<path fill-rule="evenodd" clip-rule="evenodd" d="M73.3472 51.957L75.747 53.5554V50.0424H80.021V53.5905L82.4207 51.957L84.2249 53.3095L86.0992 51.957L88.4989 53.5905V50.0424H92.7554V53.5554L95.1552 51.957L97.5198 53.5554V44H92.7729V47.917H88.5164V44H84.3125H79.9859V47.917H75.747V44H71V53.5554L73.3472 51.957Z" fill="#131313"/>
<path fill-rule="evenodd" clip-rule="evenodd" d="M73.3472 61.5646L75.7469 63.163V60.7391L73.3472 59.1758L71 60.7566V63.163L73.3472 61.5646Z" fill="#131313"/>
<path fill-rule="evenodd" clip-rule="evenodd" d="M75.747 58.3685V55.9445L73.3473 54.3812L71.0001 55.9445V58.3509L73.3473 56.7525L75.747 58.3685Z" fill="#131313"/>
<path fill-rule="evenodd" clip-rule="evenodd" d="M95.1556 63.9889L92.7559 65.5522V78.9544C95.3133 76.0736 97.1701 72.6134 97.5028 68.9247V65.5346L95.1556 63.9889Z" fill="#131313"/>
<path fill-rule="evenodd" clip-rule="evenodd" d="M75.747 65.5522L73.3473 63.9889L71.0001 65.5522V68.9423C71.3329 72.631 73.1896 76.1088 75.747 79.007V65.5522Z" fill="#131313"/>
<path fill-rule="evenodd" clip-rule="evenodd" d="M88.4994 65.7982L86.0996 64.1998L84.2604 65.5172L82.4212 64.1998L80.0039 65.7982L79.9864 82.854C81.3527 83.8376 82.789 84.6983 84.2078 85.3481C85.6617 84.6807 87.1156 83.82 88.4994 82.8011" fill="#131313"/>
<path fill-rule="evenodd" clip-rule="evenodd" d="M88.4994 60.9151L86.0996 59.3167L84.2429 60.634L82.4212 59.3167L80.0039 60.9151V63.3742L82.4212 61.7231L84.2254 63.0756L86.0996 61.7231L88.4994 63.3742" fill="#131313"/>
<path d="M115.197 63.1397H113.726V69.8276H110.256V52.1616H116.035C120.42 52.1616 122.243 54.9103 122.243 57.637C122.243 59.7547 121.152 61.8779 118.618 62.7337L122.651 69.8276H118.75L115.197 63.1397ZM113.726 60.0619H115.726C117.753 60.0619 118.739 59.1292 118.739 57.637C118.739 56.1447 117.753 55.2394 115.726 55.2394H113.726V60.0619Z" fill="#131313"/>
<path d="M136.38 64.6538H127.511C127.638 66.0144 128.574 67.4573 130.657 67.4573C132.128 67.4573 132.937 66.777 133.191 65.8937H136.204C135.697 68.5161 133.72 70.184 130.602 70.184C126.569 70.184 124.189 67.3091 124.189 63.4961C124.189 59.738 126.696 56.8083 130.425 56.8083C133.67 56.8083 136.38 58.9535 136.38 63.0408V64.6538ZM133.262 62.355C133.213 60.764 132.122 59.5295 130.376 59.5295C128.552 59.5295 127.638 60.8408 127.511 62.355H133.262Z" fill="#131313"/>
<path d="M150.845 57.1602L143.447 75.435H140.23L142.411 69.7568L137.062 57.1602H140.637L144.031 65.5377L147.248 57.1602H150.845Z" fill="#131313"/>
<path d="M160.542 69.8275L156.058 64.1218V69.8275H152.736V50.9492H156.058V61.4719L160.035 57.1323H164.189L158.917 62.7119L164.646 69.8275H160.542Z" fill="#131313"/>
<path d="M164.496 72.5759H164.904C165.89 72.5759 166.628 72.0986 166.628 70.6558V57.1596H169.95V70.5131C169.95 74.019 167.95 75.4343 165.719 75.4343H164.501V72.5759H164.496ZM166.297 53.0668C166.297 52.0079 167.184 51.0972 168.297 51.0972C169.388 51.0972 170.275 52.0079 170.275 53.0668C170.275 54.175 169.388 55.0583 168.297 55.0583C167.184 55.0638 166.297 54.1805 166.297 53.0668Z" fill="#131313"/>
<path d="M172.518 66.8483C172.518 64.2752 174.517 63.0353 177.508 62.2069L180.197 61.4498C180.197 60.0617 179.26 59.4802 178.12 59.4802C176.93 59.4802 175.916 60.0123 175.916 61.4498H172.876C172.876 58.0428 175.536 56.8083 178.12 56.8083C180.604 56.8083 183.392 58.0208 183.392 61.5266V69.8328H180.246V68.368C179.332 69.5311 177.74 70.184 176.192 70.184C174.391 70.1784 172.518 69.2952 172.518 66.8483ZM180.07 65.0049V63.946L178.015 64.5276C176.241 65.0323 175.762 65.762 175.762 66.4478C175.762 67.1061 176.269 67.4847 177.002 67.4847C178.17 67.4792 180.07 66.4697 180.07 65.0049Z" fill="#131313"/>
<path d="M197.707 57.1602L192.843 69.828H189.444L184.58 57.1602H188.001L191.141 65.9163L194.259 57.1602H197.707Z" fill="#131313"/>
<path d="M202.054 55.4646H199.365L201.85 51.4761H205.474L202.054 55.4646ZM199.569 57.1325H202.891V69.8278H199.569V57.1325Z" fill="#131313"/>
<path d="M214.675 69.8275L210.191 64.1218V69.8275H206.869V50.9492H210.191V61.4719L214.168 57.1323H218.322L213.05 62.7119L218.779 69.8275H214.675Z" fill="#131313"/>
</g>
<defs>
<clipPath id="clip0_962_10732">
<rect width="147.899" height="41.3482" fill="white" transform="translate(71 44)"/>
</clipPath>
</defs>
</svg>
