<svg width="290" height="130" viewBox="0 0 290 130" fill="none" xmlns="http://www.w3.org/2000/svg">
<path fill-rule="evenodd" clip-rule="evenodd" d="M82.4483 90.4282L75.4659 83.4152C75.4651 83.4145 75.4645 83.4136 75.4641 83.4126C75.4637 83.4116 75.4635 83.4106 75.4635 83.4095C75.4635 83.4085 75.4637 83.4074 75.4641 83.4065C75.4645 83.4055 75.4651 83.4046 75.4659 83.4039L84.2611 74.5691C84.2618 74.5683 84.2627 74.5677 84.2636 74.5673C84.2646 74.5669 84.2657 74.5667 84.2667 74.5667C84.2678 74.5667 84.2688 74.5669 84.2698 74.5673C84.2708 74.5677 84.2716 74.5683 84.2724 74.5691L85.181 75.48C88.6332 78.9468 87.6237 85.322 84.9465 87.9312L82.4596 90.4282C82.4574 90.4316 82.4517 90.4316 82.4483 90.4282V90.4282ZM66.1088 74.0048L83.792 56.2446C83.7954 56.2412 83.7999 56.2412 83.8033 56.2446L84.712 57.1555C88.163 60.6223 87.1546 66.9963 84.4775 69.6056L73.1025 81.0303C73.0991 81.0326 73.0946 81.0326 73.0912 81.0303L66.1088 74.0173C66.108 74.0166 66.1074 74.0157 66.107 74.0147C66.1066 74.0137 66.1064 74.0127 66.1064 74.0116C66.1064 74.0106 66.1066 74.0095 66.107 74.0086C66.1074 74.0076 66.108 74.0067 66.1088 74.006V74.0048ZM56.7346 64.5899L82.4495 38.763C82.4529 38.7596 82.4574 38.7596 82.4608 38.763L83.3694 39.6739C86.8204 43.1407 85.8121 49.5148 83.1349 52.124L63.7273 71.6143C63.7258 71.6155 63.724 71.6161 63.7222 71.6161C63.7203 71.6161 63.7185 71.6155 63.7171 71.6143L56.7346 64.6013C56.7339 64.6005 56.7333 64.5996 56.7329 64.5987C56.7325 64.5977 56.7323 64.5967 56.7323 64.5956C56.7323 64.5945 56.7325 64.5935 56.7329 64.5925C56.7333 64.5916 56.7339 64.5907 56.7346 64.5899ZM82.4528 34L52 64.5899L82.4528 95.1799H82.4562L112.91 64.5933V64.5888L82.4574 34.0011H82.454L82.4528 34ZM158.434 67.0734H169.065L169.068 67.07V62.1088L169.065 62.1065H158.444C158.443 62.1065 158.442 62.1063 158.441 62.1058C158.44 62.1053 158.439 62.1046 158.438 62.1038C158.437 62.1029 158.437 62.1019 158.436 62.1008C158.436 62.0997 158.436 62.0986 158.436 62.0974L158.438 54.8521H172.694L172.697 54.8499V49.8614H152.393V79.315C152.393 79.3173 152.393 79.3184 152.396 79.3184H172.546C172.547 79.3184 172.548 79.3173 172.548 79.315V74.4399L172.546 74.4365H158.428C158.427 74.4365 158.426 74.4363 158.425 74.4359C158.424 74.4355 158.423 74.4349 158.422 74.4342C158.422 74.4334 158.421 74.4326 158.421 74.4316C158.42 74.4306 158.42 74.4296 158.42 74.4286L158.426 67.0813C158.426 67.0768 158.429 67.0723 158.434 67.0723V67.0734ZM189.544 62.6435C190.86 63.0117 192.075 63.4253 193.186 63.8784C194.299 64.3328 195.258 64.8868 196.068 65.5394C196.862 66.1739 197.508 66.9738 197.962 67.8835C198.415 68.7921 198.641 69.8718 198.641 71.1215V71.2495C198.641 72.6124 198.374 73.8621 197.838 74.9984C197.315 76.1194 196.557 77.1148 195.615 77.917C194.669 78.7259 193.558 79.3513 192.281 79.7909C191.004 80.2316 189.611 80.4514 188.103 80.4514C186.702 80.4514 185.364 80.2746 184.088 79.9234C182.878 79.5969 181.71 79.1284 180.609 78.5276C179.619 77.9879 178.699 77.3276 177.871 76.5619C177.089 75.83 176.493 75.0676 176.082 74.2756V74.2722L180.896 71.1226H180.899C181.419 71.7185 181.94 72.251 182.462 72.7189C182.983 73.1868 183.532 73.5856 184.109 73.9119C184.703 74.2457 185.34 74.4965 186.002 74.6574C186.689 74.8274 187.443 74.9123 188.267 74.9123C188.788 74.9123 189.316 74.8557 189.852 74.7424C190.387 74.6291 190.874 74.4433 191.313 74.1872C191.752 73.9312 192.109 73.6117 192.384 73.2276C192.658 72.8424 192.795 72.3666 192.795 71.7978C192.795 71.399 192.699 71.0161 192.508 70.6456C192.315 70.2763 191.985 69.9126 191.52 69.558C191.052 69.2022 190.421 68.8601 189.625 68.5326C188.829 68.2052 187.827 67.8857 186.62 67.5719C185.262 67.2424 183.927 66.8223 182.626 66.3143C181.445 65.8441 180.444 65.2754 179.621 64.6069C178.813 63.959 178.165 63.1341 177.727 62.196C177.288 61.2556 177.069 60.1476 177.069 58.8662C177.069 57.4727 177.322 56.214 177.83 55.0901C178.315 53.9964 179.04 53.026 179.951 52.2509C180.856 51.4827 181.92 50.8936 183.141 50.48C184.409 50.0601 185.737 49.8511 187.073 49.8614C188.527 49.8614 189.845 50.0314 191.026 50.3724C192.205 50.7134 193.262 51.1474 194.196 51.6719C195.128 52.1976 195.945 52.7947 196.645 53.462C197.28 54.0581 197.865 54.7057 198.393 55.3982L198.392 55.4016L193.662 58.5513H193.659C192.479 57.3877 191.361 56.572 190.305 56.1041C189.262 55.6382 188.132 55.3984 186.99 55.4005C186.276 55.4005 185.666 55.4923 185.158 55.6769C184.65 55.8627 184.232 56.0893 183.903 56.359C183.589 56.6091 183.33 56.9206 183.141 57.2744C182.962 57.6154 182.873 57.9429 182.873 58.2544C182.873 58.8232 183.018 59.3126 183.306 59.725C183.593 60.1363 184.019 60.5124 184.582 60.8534C185.144 61.1933 185.845 61.5072 186.682 61.7904C187.519 62.0748 188.473 62.3591 189.544 62.6435V62.6435ZM210.807 54.8691V79.3162L210.809 79.3184H216.941C216.942 79.3184 216.943 79.3184 216.943 79.3162V54.8703H225.717L225.719 54.8669V49.8637L225.717 49.8614H202.033L202.031 49.8637V54.8669L202.033 54.8703H210.807V54.8691ZM237 49.8637V79.3162L236.998 79.3184H231.361C231.36 79.3184 231.359 79.3184 231.359 79.3162V49.8637L231.361 49.8614H236.998C236.999 49.8614 237 49.8614 237 49.8637ZM146.753 54.8374V49.8864C146.753 49.8831 146.753 49.8797 146.751 49.8766C146.75 49.8736 146.748 49.8707 146.746 49.8684C146.744 49.866 146.741 49.8642 146.738 49.863C146.735 49.8618 146.731 49.8613 146.728 49.8614H126.473C126.466 49.8614 126.46 49.8639 126.456 49.8683C126.451 49.8728 126.448 49.8788 126.448 49.8852V79.3162L126.45 79.3184H132.499C132.499 79.3184 132.501 79.3184 132.501 79.3162V67.0915V67.0904H143.101L143.104 67.0881V62.1337L143.101 62.1314H132.508C132.506 62.1311 132.505 62.1302 132.503 62.1287C132.502 62.1273 132.501 62.1254 132.501 62.1235V54.8691C132.501 54.8646 132.505 54.8612 132.509 54.8612H146.728C146.742 54.8612 146.753 54.8499 146.753 54.8363V54.8374Z" fill="#131313"/>
</svg>
