<svg width="290" height="130" viewBox="0 0 290 130" fill="none" xmlns="http://www.w3.org/2000/svg">
<path d="M129.279 72.5159C125.231 72.5159 122.776 69.3053 122.776 65.4774C122.776 61.6495 125.231 58.4389 129.279 58.4389C133.327 58.4389 135.782 61.6495 135.782 65.4774C135.782 69.3053 133.327 72.5159 129.279 72.5159ZM129.279 54.0831C122.818 54.0831 118.254 59.2309 118.254 65.4774C118.254 71.7239 122.818 76.8717 129.279 76.8717C135.74 76.8717 140.304 71.7239 140.304 65.4774C140.304 59.2309 135.738 54.0831 129.279 54.0831ZM95.4281 78.8943L83.4566 57.4257V52.2798H83.6295L98.4875 78.8963H95.4281V78.8943ZM129.279 79.5543C121.311 79.5543 115.584 73.2632 115.584 65.4774C115.584 57.6916 121.311 51.4005 129.279 51.4005C137.247 51.4005 142.974 57.6916 142.974 65.4774C142.974 73.2632 137.247 79.5543 129.279 79.5543ZM201.028 52.1478L212.7 83.0755H217.437L204.128 47.8793H190.347L177.04 83.0735H181.777L193.492 52.0585H196.291L184.576 83.0735H189.313L191.381 77.619H200.511L198.832 73.3078H192.975L197.196 62.1329H197.325L205.163 83.0735H209.901L199.607 55.7097L200.943 52.1459H201.028V52.1478ZM169.589 71.1959L178.332 47.8793H173.595L167.134 65.1241L169.416 71.1959H169.589ZM181.216 47.8793L169.545 78.807H169.372L157.703 47.8793H152.966L164.681 78.8943H161.881L150.166 47.8793H145.429L158.737 83.0735H172.646L185.954 47.8793H181.216ZM100.984 68.6006V47.8793H96.591V60.9003L100.811 68.5987H100.984V68.6006ZM103.698 78.807H103.525L86.3411 47.8793H79.0632V83.0735H83.4566V66.3567H83.5421L92.6727 83.0735H108.133V47.8793H103.654L103.698 78.807ZM72 83.0735H76.4789V47.8793H72V83.0735ZM129.279 47C118.727 47 110.89 55.0071 110.89 65.4774C110.89 75.9477 118.729 83.9548 129.279 83.9548C139.829 83.9548 147.668 75.9477 147.668 65.4774C147.668 55.0071 139.829 47 129.279 47Z" fill="#131313"/>
</svg>
