<svg width="290" height="130" viewBox="0 0 290 130" fill="none" xmlns="http://www.w3.org/2000/svg">
<path d="M125.492 62.7959H120.961V76.3353H124.617V67.3542L124.671 67.291L132.695 76.3353H135.917V62.7959H132.262V70.3418L125.492 62.7959Z" fill="#131313"/>
<path d="M177.067 62.7959H172.951V76.3262H177.067V62.7959Z" fill="#131313"/>
<path d="M89.918 76.3353V62.7959H94.0069V73.14H100.524V76.3353H89.918Z" fill="#131313"/>
<path d="M56.1882 62.7959H52V76.3262H56.1882V62.7959Z" fill="#131313"/>
<path d="M191.682 71.1903C193.523 70.4772 194.615 69.2677 194.615 67.0653C194.615 64.2491 192.341 62.7959 189.353 62.7959H180.236V76.3353H184.352V71.4791H187.674L190.562 76.3262H194.895L191.682 71.1903ZM188.676 68.8796H184.343V65.4586H188.459C190.255 65.4586 190.743 66.2529 190.743 67.1917C190.743 68.2658 189.958 68.8796 188.676 68.8796Z" fill="#131313"/>
<path d="M146.144 62.7959H139.076V76.3353H146.225C151.361 76.3353 153.78 73.4198 153.78 69.5656C153.78 65.3684 151.144 62.7959 146.144 62.7959ZM145.629 73.3385H143.174V65.7385H145.638C148.382 65.7385 149.592 66.9028 149.592 69.5566C149.592 72.0388 148.608 73.3476 145.629 73.3385Z" fill="#131313"/>
<path d="M165.036 62.7959H160.396L154.312 76.3353H158.167L159.34 73.7357H166.119L167.283 76.3353H171.146L165.036 62.7959ZM160.514 71.1361L162.734 65.7023L164.954 71.1361H160.514Z" fill="#131313"/>
<path d="M113.045 62.7959H108.406L102.322 76.3353H106.176L107.35 73.7357H114.129L115.293 76.3353H119.156L113.045 62.7959ZM108.514 71.1361L110.744 65.7023L112.964 71.1361H108.514Z" fill="#131313"/>
<path d="M74.2851 76.3353V62.7959H86.976V65.6031H78.365V68.0762H84.7194V70.8654H78.365V73.4649H87.0301V76.3353H74.2851Z" fill="#131313"/>
<path d="M69.9254 71.6867C69.1131 72.8421 67.6869 73.3746 66.1525 73.3746C63.8688 73.3746 62.4246 71.6597 62.4246 69.5475C62.4246 67.4354 63.8688 65.7475 66.1525 65.7475C67.5606 65.7475 69.0409 66.3252 69.8984 67.4534C69.9074 67.4715 72.0556 65.0163 72.0556 65.0163C70.5482 63.4909 68.4 62.4709 66.1525 62.4709C61.8921 62.4709 58.7148 65.6482 58.7148 69.5656C58.7148 73.483 61.8921 76.6602 66.1525 76.6602C68.4722 76.6602 70.5302 75.6402 72.0376 74.0787C72.0376 74.0787 69.9345 71.6777 69.9254 71.6867Z" fill="#131313"/>
<path d="M226.702 47L194.885 83.105H226.089L237.299 47H226.702ZM214.752 76.2992C214.246 76.3624 213.741 76.3894 213.235 76.3804C212.459 76.3714 211.971 76.2721 211.601 76.1277C211.286 76.0013 211.006 75.6583 211.105 75.3966C211.195 75.198 211.34 75.0265 211.538 74.9182C212.45 74.3315 214.093 74.0246 215.907 73.9072C215.744 74.2592 214.752 76.2992 214.752 76.2992ZM224.41 71.5604C223.092 73.1129 221.792 73.2212 219.229 72.9865C212.495 72.3908 211.195 74.2502 210.979 74.4849C211.024 74.3134 211.078 74.1419 211.159 73.9885C211.583 73.0227 212.098 71.9485 212.676 70.6668C213 69.9989 213.181 69.9718 213.479 69.7552C214.697 68.9518 216.656 68.2026 219.265 68.4283C221.187 68.5998 222.027 68.9879 223.209 69.0511C223.715 69.0872 224.22 69.0601 224.717 68.9699C225.98 68.6991 226.305 68.32 226.305 68.32C226.305 68.32 225.403 70.2877 224.41 71.5604ZM225.953 67.4896C225.538 67.7333 224.996 67.968 223.949 68.0041C222.794 68.0402 222.09 67.7874 220.817 67.5798C219.075 67.3 217.387 67.1917 215.564 67.7694C214.788 68.0131 214.057 68.4012 213.416 68.9067C213.416 68.9067 214.761 65.8829 215.113 65.1066C215.69 63.9242 217.613 63.0757 220.14 63.1028C222.415 63.1299 223.435 63.7166 225.303 63.7437C228.092 63.7346 229.013 62.8049 229.013 62.8049C228.851 63.1479 228.002 64.9261 227.605 65.6843C226.946 66.7133 226.477 67.1827 225.953 67.4896Z" fill="#131313"/>
</svg>
