<svg width="290" height="130" viewBox="0 0 290 130" fill="none" xmlns="http://www.w3.org/2000/svg">
<g clip-path="url(#clip0_962_10757)">
<path d="M182.934 70.1172C182.934 71.689 182.658 72.5324 182.028 73.0308C181.438 73.5292 180.375 73.6825 178.722 73.6825C176.832 73.6825 175.651 73.4908 174.982 72.9924C174.274 72.4941 173.998 71.6507 173.998 70.1555V65.4017C173.998 64.0599 174.274 63.2165 174.903 62.7182C175.533 62.1814 176.635 61.9514 178.367 61.9514C180.336 61.9514 181.477 62.1431 182.107 62.6798C182.697 63.1782 182.894 64.0983 182.894 65.7084V70.1172H182.934ZM183.918 61.8747C183.091 60.993 181.635 60.4179 179.155 60.4179C177.265 60.4179 176.006 60.6096 175.14 60.9163C174.667 61.0697 174.313 61.2997 174.077 61.5297V55.7792H172.227V70.0405C172.227 72.3407 172.896 73.6442 174.077 74.3726C175.258 75.101 176.872 75.1776 178.722 75.1776C180.375 75.1776 181.91 75.0243 183.052 74.2959C184.193 73.5675 184.902 72.2257 184.902 70.0022V64.7883C184.862 63.8683 184.705 62.7565 183.918 61.8747Z" fill="#131313"/>
<path d="M216.865 55.8558H215.015V74.9476H216.865V55.8558Z" fill="#131313"/>
<path d="M227.218 60.6863H224.581L217.141 67.2036L224.935 74.9093H227.612L219.582 67.2036L227.218 60.6863Z" fill="#131313"/>
<path d="M196.632 71.9957C196.632 72.7625 196.239 73.1458 195.491 73.4142C194.743 73.6442 193.641 73.7209 192.42 73.7209H192.184C190.492 73.7209 189.547 73.5675 189.074 73.1458C188.602 72.7625 188.445 72.0341 188.445 70.7306C188.445 69.6188 188.602 68.9671 188.956 68.5454C189.311 68.1237 190.019 67.8937 191.239 67.8937H196.672V71.9957H196.632ZM197.695 61.3764C196.947 60.648 195.648 60.418 193.444 60.418H192.302C190.492 60.418 189.271 60.5713 188.445 60.993C187.618 61.4147 187.224 62.1431 187.067 63.1399L187.028 63.3699H188.838L188.878 63.2166C188.956 62.7949 189.153 62.5265 189.468 62.2965C189.822 62.1048 190.413 61.9514 191.279 61.9514H192.971C194.389 61.9514 195.373 62.0281 195.884 62.2965C196.396 62.5648 196.593 62.9099 196.632 63.7916V66.3985H191.869C189.822 66.3985 188.445 66.6669 187.579 67.3953C186.713 68.1237 186.437 69.1971 186.437 70.7306C186.437 72.5708 186.831 73.7209 187.775 74.4109C188.72 75.101 190.098 75.2543 191.948 75.2543C193.011 75.2543 194.192 75.1777 195.176 74.9477C195.845 74.7943 196.396 74.5643 196.79 74.1809V74.986H198.522V66.5135V64.9034C198.522 63.2549 198.404 62.1431 197.695 61.3764Z" fill="#131313"/>
<path d="M162.425 61.5297C161.559 60.8013 160.221 60.418 158.213 60.418C157.072 60.418 155.891 60.533 154.946 60.8397C154.316 61.0697 153.765 61.4147 153.411 61.9514V60.6863H151.6V74.9477H153.489V64.7117C153.489 63.9066 153.726 63.2166 154.316 62.7565C154.907 62.2581 155.891 61.9514 157.465 61.9514C159.158 61.9514 160.26 62.1431 160.89 62.5648C161.52 62.9865 161.756 63.6383 161.756 64.75V74.9477H163.645V64.5967C163.645 63.3316 163.291 62.2581 162.425 61.5297Z" fill="#131313"/>
<path d="M147.388 70.5006C147.388 71.7274 147.231 72.4941 146.601 72.9541C146.01 73.4142 144.869 73.6825 142.861 73.6825C140.854 73.6825 139.712 73.4525 139.122 72.9541C138.531 72.4941 138.334 71.7274 138.334 70.5006V65.1334C138.334 63.9066 138.492 63.1782 139.122 62.6798C139.712 62.1815 140.854 61.9514 142.861 61.9514C144.869 61.9514 146.01 62.1815 146.601 62.6798C147.231 63.1399 147.388 63.9066 147.388 65.1334V70.5006ZM147.664 61.3764C146.522 60.648 144.947 60.418 142.901 60.418C140.854 60.418 139.24 60.6097 138.137 61.3764C136.996 62.1431 136.445 63.4466 136.445 65.4784V70.1555C136.445 72.1874 136.996 73.4909 138.137 74.2576C139.24 74.986 140.854 75.1777 142.901 75.216C144.947 75.216 146.561 75.0243 147.664 74.2576C148.766 73.4909 149.356 72.1874 149.356 70.1555V65.4784C149.356 63.4466 148.766 62.1048 147.664 61.3764Z" fill="#131313"/>
<path d="M116.92 67.3952H109.087L113.063 57.5426L116.92 67.3952ZM122.234 74.9093L114.48 55.9708H111.724L103.773 74.9093H106.056L108.457 69.0054H117.511L119.794 74.9093H122.234Z" fill="#131313"/>
<path d="M134.24 56.0858H132.351V58.8077H134.24V56.0858Z" fill="#131313"/>
<path d="M134.24 60.6863H132.351V74.9476H134.24V60.6863Z" fill="#131313"/>
<path d="M230.8 56.1626H228.911V58.8078H230.8V56.1626Z" fill="#131313"/>
<path d="M230.8 60.6863H228.911V74.9476H230.8V60.6863Z" fill="#131313"/>
<path d="M125.029 62.8715V60.6479H123.337V74.9093H125.226V66.7052C125.226 65.3251 125.462 64.2516 126.013 63.5616C126.564 62.8715 127.43 62.4881 128.887 62.4881H130.383V60.6479H129.438C127.391 60.6863 125.698 61.6447 125.029 62.8715Z" fill="#131313"/>
<path d="M211.63 61.5297C210.764 60.8013 209.386 60.418 207.379 60.418C206.237 60.418 205.056 60.533 204.111 60.8397C203.482 61.0697 202.931 61.4147 202.576 61.9514V60.6863H200.766V74.9477H202.655V64.7117C202.655 63.9066 202.891 63.2166 203.482 62.7565C204.072 62.2581 205.056 61.9514 206.631 61.9514C208.323 61.9514 209.426 62.1431 210.055 62.5648C210.685 62.9865 210.921 63.6383 210.921 64.75V74.9477H212.811V64.5967C212.811 63.3316 212.496 62.2581 211.63 61.5297Z" fill="#131313"/>
<path d="M69.2899 74.871V65.9768C69.2899 65.9385 69.2899 65.9385 69.2505 65.9385H69.2112L60 74.9093V74.9476C60 74.986 60.0394 74.986 60.0394 74.986H69.1718V83.9185C69.1718 83.9568 69.1718 83.9568 69.2112 83.9568C69.2112 83.9568 69.2112 83.9568 69.2505 83.9568H69.2899L78.5011 74.9476V74.9093C78.5011 74.871 78.4617 74.871 78.4617 74.871H69.2899V74.871Z" fill="#131313"/>
<path d="M69.2112 65.0183C69.2112 65.0183 69.2505 65.0183 69.2112 65.0183C69.2505 65.0183 69.2505 65.0183 69.2505 65.0183C69.2899 65.0183 69.2899 64.98 69.2899 64.98V56.0475H78.4617C78.5011 56.0475 78.5011 56.0475 78.5011 56.0092V55.9708L69.2899 47H69.2505C69.2112 47 69.2112 47.0383 69.2112 47.0383V55.9325H60.0394C60 55.9325 60 55.9325 60 55.9708V56.0092L69.2112 65.0183Z" fill="#131313"/>
<path d="M88.6176 56.0475V64.98C88.6176 65.0183 88.6176 65.0183 88.657 65.0183C88.657 65.0183 88.657 65.0183 88.6963 65.0183H88.7357L97.9469 56.0475V56.0092C97.9469 55.9708 97.9075 55.9708 97.9075 55.9708H88.7357V47.0767C88.7357 47.0383 88.7357 47.0383 88.6963 47.0383C88.657 47.0383 88.657 47.0383 88.657 47.0383L79.4458 55.9708V56.0092L79.4852 56.0475H88.6176Z" fill="#131313"/>
<path d="M88.224 65.44L79.0128 56.4692C78.9734 56.4308 78.9734 56.4308 78.9341 56.4692L69.7229 65.44C69.6835 65.4784 69.6835 65.4784 69.7229 65.5167L78.9341 74.4875H78.9734H79.0128L88.224 65.5167C88.224 65.4784 88.224 65.44 88.224 65.44Z" fill="#131313"/>
<path d="M88.6963 65.9384C88.6963 65.9384 88.657 65.9001 88.657 65.9384C88.6176 65.9384 88.6176 65.9768 88.6176 65.9768V74.8709H79.4852C79.4458 74.8709 79.4458 74.8709 79.4458 74.9093V74.9476L88.657 83.9184H88.6963C88.6963 83.9184 88.6963 83.9184 88.7357 83.9184C88.7751 83.9184 88.7751 83.8801 88.7751 83.8801V74.9859H97.9075C97.9469 74.9859 97.9469 74.9859 97.9469 74.9476V74.9093L88.6963 65.9384Z" fill="#131313"/>
</g>
<defs>
<clipPath id="clip0_962_10757">
<rect width="170.8" height="36.9568" fill="white" transform="translate(60 47)"/>
</clipPath>
</defs>
</svg>
