<svg width="290" height="130" viewBox="0 0 290 130" fill="none" xmlns="http://www.w3.org/2000/svg">
<path fill-rule="evenodd" clip-rule="evenodd" d="M90.4544 51.0479V62.0957H92.2999H94.1453V51.0479V40H92.2999H90.4544V51.0479ZM157.985 51.0479V62.0957H159.729H161.473L161.475 60.9909C161.477 60.0004 161.483 59.8946 161.538 59.9672C161.571 60.0118 161.693 60.176 161.808 60.3321C162.532 61.3133 163.741 62.049 165.063 62.3136C166.697 62.6406 168.509 62.4161 169.917 61.7122C170.589 61.3762 171.047 61.043 171.616 60.4756C172.701 59.3938 173.375 58.0326 173.664 56.3387C173.753 55.8178 173.788 54.2965 173.725 53.7408C173.455 51.3971 172.313 49.4024 170.578 48.247C169.333 47.4185 167.971 47.0471 166.401 47.1083C164.573 47.1795 163.237 47.7412 162.077 48.9263C161.863 49.1455 161.676 49.3248 161.662 49.3248C161.647 49.3248 161.636 47.2267 161.636 44.6624V40H159.811H157.985V51.0479ZM72 51.3135V62.0999L76.5325 62.0843C81.4517 62.0674 81.3987 62.0696 82.5965 61.8307C84.222 61.5065 85.5005 60.8872 86.3994 59.9885C86.8539 59.5341 87.1405 59.1295 87.4128 58.5581C87.8175 57.709 87.9601 56.9397 87.9294 55.7712C87.9117 55.0993 87.8965 54.9703 87.783 54.5345C87.294 52.6567 85.8177 51.2511 83.8838 50.822C83.6942 50.78 83.49 50.7452 83.4299 50.7447C83.225 50.743 83.2768 50.6732 83.55 50.5827C83.9851 50.4386 84.5584 50.154 84.9835 49.8711C86.0461 49.1639 86.7416 48.1076 86.9715 46.8517C87.0598 46.3695 87.0383 45.2654 86.9307 44.7543C86.4399 42.4226 84.6135 40.974 81.6798 40.5896C81.2742 40.5364 80.5137 40.5271 76.6014 40.5271H72V51.3135ZM80.0627 43.853C80.8574 43.9376 81.5559 44.129 82.0103 44.3868C82.2872 44.5438 82.6668 44.8956 82.823 45.1399C83.1533 45.6563 83.282 46.5287 83.1214 47.163C83.0082 47.61 82.8595 47.8992 82.5891 48.1978C82.1644 48.667 81.5686 48.9715 80.6902 49.1685C80.3152 49.2526 80.1777 49.2581 78.0737 49.2735L75.8531 49.2898V46.5504V43.811H77.761C78.8103 43.811 79.8461 43.8299 80.0627 43.853ZM103.584 47.1374C100.091 47.5014 97.3968 49.8427 96.7453 53.0799C96.1753 55.9118 97.0317 58.687 99.0248 60.4668C100.535 61.8153 102.651 62.5317 104.873 62.4468C107.923 62.3301 110.443 60.8056 111.688 58.3227C112.241 57.2209 112.482 56.1446 112.483 54.7778C112.483 53.4358 112.272 52.4567 111.742 51.3519C110.68 49.1353 108.634 47.6581 106.009 47.2127C105.448 47.1175 104.159 47.0775 103.584 47.1374ZM121.158 47.14C118.747 47.3798 116.614 48.6282 115.368 50.5288C113.747 53.0007 113.747 56.5549 115.368 59.0268C116.399 60.6004 117.992 61.7075 119.923 62.1942C120.525 62.346 121.064 62.419 121.786 62.4466C124.237 62.5404 126.458 61.6972 128.012 60.0825C129.087 58.9663 129.7 57.7207 129.986 56.0734C130.084 55.5072 130.084 54.0484 129.986 53.4822C129.7 51.8349 129.087 50.5893 128.012 49.4731C126.335 47.731 123.821 46.8752 121.158 47.14ZM139.557 47.1379C138.772 47.229 138.023 47.5032 137.362 47.9412C136.835 48.2903 136.23 48.9782 135.958 49.5377C135.907 49.6436 135.85 49.7302 135.832 49.7302C135.814 49.7302 135.8 49.2194 135.8 48.595V47.4598H134.055H132.311V54.7778V62.0957H134.135H135.958L135.973 57.7678C135.987 53.9159 135.996 53.4066 136.056 53.137C136.424 51.4869 137.315 50.6174 138.841 50.4192C140.07 50.2597 141.04 50.6984 141.475 51.6094C141.655 51.9882 141.742 52.3128 141.801 52.8317C141.826 53.0577 141.842 54.8905 141.843 57.6462L141.843 62.0957H143.668H145.493V57.9352C145.493 54.3715 145.502 53.7134 145.557 53.3479C145.741 52.1062 146.297 51.1951 147.153 50.7289C147.256 50.673 147.504 50.5779 147.705 50.5176C148.019 50.4229 148.143 50.4077 148.616 50.4053C149.233 50.4022 149.619 50.4843 150.038 50.7075C150.501 50.9545 150.925 51.5013 151.112 52.095C151.334 52.7949 151.333 52.7891 151.334 57.6259L151.334 62.0957H153.179H155.025L155.024 57.6462C155.024 55.1711 155.006 52.9358 154.984 52.6088C154.902 51.4066 154.692 50.5199 154.297 49.7083C153.404 47.8772 151.804 47.0191 149.448 47.1073C147.485 47.1808 146.111 47.9327 145.109 49.4816L144.915 49.7804L144.711 49.3906C144.016 48.0659 142.838 47.322 141.145 47.1378C140.701 47.0895 139.973 47.0896 139.557 47.1379ZM182.422 47.1426C181.41 47.2445 180.5 47.5116 179.543 47.9877C178.791 48.3613 178.29 48.7071 177.737 49.2324C176.366 50.5345 175.618 52.1561 175.46 54.1636C175.244 56.9028 176.383 59.4423 178.512 60.9711C178.983 61.3093 180.044 61.8423 180.627 62.0334C181.447 62.3021 182.475 62.4606 183.398 62.4606C185.306 62.4606 187.013 61.8776 188.385 60.7573C188.72 60.4839 189.59 59.5895 189.573 59.5368C189.566 59.5167 188.979 59.0618 188.268 58.5259L186.975 57.5515L186.612 57.938C186.009 58.5799 185.338 59.0315 184.633 59.2703C183.482 59.6598 182.249 59.6105 181.233 59.1345C180.197 58.6493 179.499 57.7785 179.196 56.5936C179.152 56.424 179.117 56.2333 179.117 56.17V56.0549H184.7H190.283L190.259 55.0312C190.246 54.4682 190.206 53.7794 190.17 53.5007C189.868 51.1352 188.872 49.3009 187.31 48.2328C185.985 47.327 184.308 46.9529 182.422 47.1426ZM199.903 47.1522C199.161 47.2761 198.572 47.5027 197.99 47.8874C197.385 48.2876 196.762 48.9821 196.472 49.5782C196.421 49.6841 196.364 49.7708 196.346 49.7708C196.328 49.7708 196.314 49.2508 196.314 48.6153V47.4598H194.489H192.663V54.7778V62.0957H194.489H196.314V58.0459C196.314 53.6739 196.312 53.7154 196.532 53.0705C196.959 51.8165 197.781 51.0573 199.105 50.6942C199.37 50.6215 199.532 50.6085 200.187 50.6073C200.88 50.606 201.007 50.6169 201.445 50.7152C201.712 50.7753 201.954 50.8246 201.982 50.8247C202.022 50.8248 202.033 50.4459 202.033 49.0646V47.3044L201.657 47.2144C201.19 47.1023 200.375 47.0734 199.903 47.1522ZM208.522 47.1397C206.735 47.3405 205.167 48.1238 204.089 49.3543C203.211 50.3561 202.598 51.677 202.355 53.0919C201.848 56.0379 202.701 58.7854 204.662 60.5272C205.532 61.2996 206.676 61.8624 207.911 62.126C208.387 62.2275 208.488 62.2347 209.455 62.2353C210.383 62.2359 210.533 62.2264 210.915 62.1431C212.186 61.8663 213.09 61.3943 213.889 60.5912C214.131 60.3483 214.336 60.1497 214.346 60.1497C214.355 60.1497 214.362 60.4462 214.362 60.8085C214.361 62.022 214.245 62.8763 213.978 63.6214C213.774 64.1942 213.558 64.5308 213.109 64.9759C212.794 65.2887 212.65 65.3984 212.355 65.5494C211.944 65.7594 211.502 65.9083 210.971 66.0152C210.473 66.1155 209.03 66.1176 208.502 66.0189C207.207 65.7768 206.082 65.218 204.993 64.2769L204.679 64.0053L203.576 65.5052L202.474 67.0051L202.568 67.0854C203.717 68.0727 205.24 68.8107 206.778 69.1249C207.826 69.339 208.199 69.3711 209.658 69.3721C211.126 69.3732 211.46 69.3427 212.395 69.1226C215.305 68.4378 217.144 66.4827 217.765 63.4134C218 62.2561 217.987 62.7119 218.002 54.7677L218.016 47.4598H216.27H214.525V48.5545C214.525 49.1566 214.511 49.6483 214.494 49.6472C214.478 49.6461 214.4 49.5414 214.322 49.4144C214.128 49.0996 213.353 48.3268 212.996 48.0935C211.949 47.4086 210.771 47.0873 209.354 47.1006C209.064 47.1033 208.689 47.1209 208.522 47.1397ZM183.725 49.9144C184.899 50.1183 185.753 50.7151 186.229 51.6638C186.393 51.9887 186.542 52.5516 186.568 52.9432L186.592 53.298H182.854H179.117V53.2018C179.117 53.1489 179.16 52.9332 179.214 52.7224C179.601 51.1979 180.557 50.2391 181.996 49.9313C182.437 49.8372 183.235 49.8294 183.725 49.9144ZM105.076 50.4239C106.532 50.6022 107.71 51.4246 108.35 52.7101C109.463 54.9435 108.571 57.7417 106.425 58.7509C104.954 59.4428 103.103 59.2474 101.867 58.2698C100.173 56.93 99.7364 54.3637 100.873 52.4321C101.725 50.9852 103.344 50.2116 105.076 50.4239ZM123.112 50.4987C124.364 50.777 125.352 51.5536 125.924 52.7101C126.793 54.4647 126.475 56.6012 125.146 57.9426C123.906 59.1946 121.879 59.527 120.231 58.7488C119.736 58.5151 119.426 58.29 119.027 57.8741C118.494 57.3186 118.151 56.6825 117.945 55.8705C117.866 55.5597 117.853 55.4027 117.853 54.7778C117.853 54.1529 117.866 53.9959 117.945 53.6851C118.068 53.2012 118.271 52.7116 118.508 52.3321C118.737 51.9636 119.253 51.4133 119.602 51.1639C120.116 50.7971 120.885 50.5037 121.557 50.4182C121.947 50.3687 122.704 50.4079 123.112 50.4987ZM166.361 50.4239C168.04 50.6296 169.33 51.6834 169.868 53.2891C170.504 55.1849 169.846 57.3404 168.309 58.403C166.799 59.4462 164.669 59.4137 163.224 58.3256C162.438 57.7331 161.909 56.9044 161.644 55.8522C161.551 55.4807 161.538 55.3438 161.538 54.7778C161.538 54.2105 161.551 54.0757 161.645 53.7034C161.825 52.9881 162.076 52.4667 162.495 51.9329C163.376 50.8132 164.848 50.2385 166.361 50.4239ZM211.183 50.4795C211.865 50.6091 212.537 50.9105 213.043 51.3135C213.708 51.843 214.133 52.5303 214.395 53.4977C214.491 53.8528 214.5 53.9532 214.5 54.6764C214.5 55.3997 214.491 55.5001 214.395 55.8552C214.102 56.9379 213.559 57.7211 212.724 58.2653C212.176 58.6221 211.605 58.8291 210.871 58.9364C210.414 59.0031 209.524 58.9639 209.129 58.8597C207.66 58.4719 206.612 57.529 206.116 56.1502C205.961 55.7178 205.886 55.2508 205.886 54.7178C205.886 53.0173 206.676 51.618 208.035 50.9113C208.477 50.6819 208.935 50.5287 209.374 50.4644C209.541 50.4398 209.724 50.4117 209.779 50.4019C209.971 50.3683 210.855 50.4171 211.183 50.4795ZM80.3146 52.6092C81.427 52.6761 82.0676 52.8136 82.7076 53.1231C83.3968 53.4564 83.8052 53.9628 84.0094 54.7372C84.1299 55.1941 84.1303 56.0232 84.0104 56.4742C83.8676 57.0106 83.7065 57.2908 83.3182 57.6777C82.9204 58.074 82.5638 58.2809 81.937 58.4791C81.0698 58.7534 80.3735 58.809 77.7898 58.8106L75.8531 58.8118V55.69V52.5682L77.7493 52.5686C78.7922 52.5688 79.9466 52.587 80.3146 52.6092ZM72 78.4323V89.2188H77.4568C80.9357 89.2188 83.0564 89.2035 83.3074 89.1768C85.9089 88.8997 87.9165 87.3526 88.6701 85.044C88.9171 84.2873 88.9744 83.8902 88.9714 82.9549C88.9686 82.0718 88.9033 81.6307 88.6849 81.0197C88.3451 80.0684 87.6599 79.1582 86.8962 78.6434C86.4134 78.3179 85.6189 77.9835 85.0093 77.8493C84.948 77.8358 84.898 77.8114 84.8982 77.7951C84.8984 77.7788 85.0551 77.6939 85.2464 77.6065C86.6899 76.9466 87.6773 75.6887 87.9749 74.1303C88.2113 72.8924 88.0823 71.6302 87.6219 70.6771C87.3767 70.1695 87.1139 69.7956 86.6802 69.3377C85.8548 68.466 85.111 68.0806 83.8535 67.8729C82.6834 67.6796 82.6298 67.6779 77.1814 67.6615L72 67.6458V78.4323ZM90.9006 78.4344V89.2188H98.404H105.907V88.0025V86.7862H99.8439H93.7803V83.0563V79.3263H99.3977H105.015V78.1303V76.9343H99.3977H93.7803V73.4882V70.0421H99.8033H105.826V68.8461V67.6501H98.3634H90.9006V78.4344ZM107.368 68.8459V70.0416L110.967 70.052L114.567 70.0624L114.577 79.6406L114.587 89.2188H116.027H117.467V79.6304V70.0421H121.056H124.646V68.8461V67.6501H116.007H107.368V68.8459ZM128.893 67.7008C128.881 67.7286 126.998 72.5588 124.707 78.4344C122.416 84.3101 120.532 89.1402 120.521 89.1681C120.504 89.2081 120.811 89.2188 121.976 89.2188H123.451L124.541 86.2895C125.141 84.6785 125.685 83.2189 125.751 83.046L125.87 82.7316L130.437 82.7419L135.004 82.7522L136.177 85.9855L137.351 89.2188H138.947H140.544L140.459 89.0059C140.413 88.8888 138.544 84.1134 136.307 78.3939C134.069 72.6743 132.208 67.9171 132.169 67.8224L132.1 67.6501H130.506C129.27 67.6501 128.909 67.6614 128.893 67.7008ZM82.1803 70.1393C82.8329 70.2243 83.2081 70.3276 83.6608 70.5471C84.2519 70.8338 84.727 71.3293 84.9598 71.9021C85.1741 72.4291 85.269 73.3185 85.1835 73.9976C84.9808 75.6076 84.07 76.4779 82.2585 76.7928C81.6087 76.9058 80.7449 76.9331 77.8101 76.9337L74.8797 76.9343V73.4844V70.0344L78.2765 70.0538C81.0968 70.07 81.7594 70.0845 82.1803 70.1393ZM132.266 75.2113C133.229 77.9095 134.028 80.1581 134.041 80.2082L134.065 80.2994H130.43C128.431 80.2994 126.795 80.2911 126.795 80.2811C126.795 80.253 130.408 70.3131 130.433 70.273C130.445 70.2536 130.468 70.253 130.484 70.2717C130.501 70.2903 131.302 72.5132 132.266 75.2113ZM82.1398 79.3677C83.1673 79.4573 83.7681 79.6085 84.4193 79.9415C85.2279 80.355 85.7783 81.0435 86.0178 81.9413C86.0794 82.172 86.0931 82.3655 86.0911 82.9752C86.0888 83.6558 86.0785 83.7626 85.9802 84.1285C85.5876 85.5898 84.4879 86.5209 82.8928 86.7427C82.6882 86.7712 81.2485 86.7862 78.7299 86.7862H74.8797V83.0563V79.3263L78.2765 79.3267C80.2071 79.3269 81.8747 79.3446 82.1398 79.3677Z" fill="#131313"/>
</svg>
