<svg width="290" height="130" viewBox="0 0 290 130" fill="none" xmlns="http://www.w3.org/2000/svg">
<path fill-rule="evenodd" clip-rule="evenodd" d="M69.3902 85.8V105.818H76.0083V107.434H65.1754V85.8H69.3902Z" fill="#131313"/>
<path fill-rule="evenodd" clip-rule="evenodd" d="M87.3147 85.8L93.3169 107.434H88.9937L87.5939 102.283H80.5809L79.1033 107.434H77.3926L83.6752 85.8H87.3147ZM81.0321 100.682H87.1745L84.1887 89.7149L81.0321 100.682Z" fill="#131313"/>
<path fill-rule="evenodd" clip-rule="evenodd" d="M109.717 85.8V107.434H106.451L97.4011 90.9191V107.434H95.8456V85.8H99.0645L108.224 102.314V85.8H109.717Z" fill="#131313"/>
<path fill-rule="evenodd" clip-rule="evenodd" d="M113.64 107.434V85.8H120.482C123.146 85.8 125.277 86.566 126.874 88.0979C128.771 89.9156 129.719 92.7368 129.719 96.5614C129.719 101.073 128.444 104.206 125.894 105.96C124.463 106.942 122.597 107.434 120.296 107.434H113.64ZM117.854 106.007H120C121.774 106.007 123.11 105.305 124.013 103.9C124.79 102.695 125.179 100.217 125.179 96.4662C125.179 94.1632 125.07 92.5202 124.852 91.5377C124.448 89.6781 123.566 88.4047 122.209 87.7175C121.587 87.4005 120.85 87.2424 120 87.2424H117.854V106.007Z" fill="#131313"/>
<path fill-rule="evenodd" clip-rule="evenodd" d="M145.276 91.569L143.193 92.1393C143.317 91.4216 143.379 90.8246 143.379 90.3489C143.379 89.5353 143.068 88.7903 142.446 88.1139C141.617 87.2057 140.425 86.7516 138.87 86.751C137.179 86.751 136.029 87.2477 135.418 88.241C135.054 88.8329 134.874 89.461 134.874 90.1273C134.874 90.7503 135.034 91.3372 135.355 91.8859C135.77 92.6048 136.894 93.3181 138.73 94.0256C142.399 95.4419 144.644 96.8734 145.463 98.3209C145.93 99.1662 146.163 100.207 146.163 101.443C146.163 103.81 145.157 105.595 143.146 106.8C142.026 107.476 140.622 107.814 138.932 107.815C135.676 107.815 133.525 106.763 132.479 104.661C132.094 103.89 131.903 103.086 131.903 102.251C131.903 101.871 131.928 101.359 131.981 100.714L134.22 100.064C133.992 100.995 133.878 101.792 133.878 102.457C133.878 103.778 134.412 104.835 135.479 105.627C136.34 106.272 137.366 106.594 138.559 106.594C139.875 106.594 140.933 106.187 141.731 105.374C142.415 104.676 142.757 103.868 142.757 102.949C142.757 101.607 142 100.503 140.487 99.6362C140.186 99.4673 139.165 99.0233 137.424 98.305C135.588 97.5448 134.277 96.7255 133.489 95.8484C132.514 94.7706 132.027 93.3181 132.027 91.4902C132.027 89.7786 132.623 88.368 133.815 87.2584C135.122 86.0435 136.868 85.4363 139.057 85.4357C141.337 85.4357 143.063 86.1597 144.235 87.6071C144.794 88.3045 145.121 89.1498 145.214 90.1425C145.256 90.5972 145.276 91.0729 145.276 91.569Z" fill="#131313"/>
<path fill-rule="evenodd" clip-rule="evenodd" d="M148.669 107.434V85.8H155.698C158.041 85.8 159.912 86.2275 161.312 87.0843C163.032 88.1404 163.893 89.7835 163.893 92.0127C163.893 96.3029 161.027 98.4471 155.294 98.4471H152.992V107.434H148.669ZM152.992 96.9419H154.936C156.564 96.9419 157.74 96.5563 158.466 95.7847C159.202 95.0137 159.57 93.7936 159.57 92.1239C159.57 90.0744 159.015 88.7057 157.906 88.0185C157.149 87.5542 156.16 87.3224 154.936 87.3218H152.992V96.9419Z" fill="#131313"/>
<path fill-rule="evenodd" clip-rule="evenodd" d="M166.995 107.434H171.272V85.8H166.995V107.434ZM167.027 84.0566H165.876L168.504 79.9678H172.392L167.027 84.0566Z" fill="#131313"/>
<path fill-rule="evenodd" clip-rule="evenodd" d="M188.574 85.8V87.4164H183.473V107.434H178.979V87.4164H173.847V85.8H188.574Z" fill="#131313"/>
<path fill-rule="evenodd" clip-rule="evenodd" d="M197.751 85.8L203.753 107.434H199.431L198.03 102.283H191.017L189.54 107.434H187.83L194.112 85.8H197.751ZM191.469 100.682H197.611L194.625 89.7149L191.469 100.682Z" fill="#131313"/>
<path fill-rule="evenodd" clip-rule="evenodd" d="M211.2 85.8V105.818H217.819V107.434H206.986V85.8H211.2Z" fill="#131313"/>
<path fill-rule="evenodd" clip-rule="evenodd" d="M220.723 107.434H225V85.8H220.723V107.434Z" fill="#131313"/>
<path fill-rule="evenodd" clip-rule="evenodd" d="M119.857 43.2908C120.841 32.3615 130.771 23.6633 143.164 22.9351V27.9937H139.463L139.458 39.4265H128.793V43.2908H119.857Z" fill="#131313"/>
<path fill-rule="evenodd" clip-rule="evenodd" d="M143.164 67.2229C130.771 66.4942 120.841 57.7964 119.857 46.8667H128.793V50.8599H139.489V62.1638H143.164V67.2229Z" fill="#131313"/>
<path fill-rule="evenodd" clip-rule="evenodd" d="M169.845 46.8668C168.861 57.7965 158.93 66.4944 146.537 67.223V62.1639H150.275V50.8584L160.909 50.86V46.8668H169.845Z" fill="#131313"/>
<path fill-rule="evenodd" clip-rule="evenodd" d="M146.537 22.9351C158.93 23.6633 168.861 32.3615 169.845 43.2908H160.909V39.4265H150.292L150.299 27.9933L146.537 27.9937V22.9351Z" fill="#131313"/>
</svg>
