<svg width="290" height="130" viewBox="0 0 290 130" fill="none" xmlns="http://www.w3.org/2000/svg">
<mask id="mask0_962_10829" style="mask-type:luminance" maskUnits="userSpaceOnUse" x="53" y="46" width="184" height="38">
<path d="M236.654 46H53V84H236.654V46Z" fill="white"/>
</mask>
<g mask="url(#mask0_962_10829)">
<path d="M107.2 46C96.6968 46 88.1816 54.507 88.1816 65C88.1816 75.4931 96.6968 84 107.2 84C117.703 84 126.219 75.4931 126.219 65C126.219 54.507 117.703 46 107.2 46ZM107.2 78.3179C99.8367 78.3179 93.8691 72.3562 93.8691 65C93.8691 57.6438 99.8367 51.6821 107.2 51.6821C114.563 51.6821 120.531 57.6438 120.531 65C120.531 72.3562 114.563 78.3179 107.2 78.3179Z" fill="#131313"/>
<path d="M53 83.1902V46.954H69.3271C72.5316 47.0221 75.1476 47.377 77.1822 48.0115C79.2132 48.6496 80.8172 49.7144 81.987 51.2128C83.1568 52.7113 83.9678 54.5074 84.4164 56.6081C84.8648 58.7089 85.1053 61.4083 85.1412 64.7135C85.1053 68.3272 84.8648 71.2345 84.4164 73.4393C83.9678 75.6404 83.1425 77.4902 81.9369 78.9887C80.731 80.4872 79.1378 81.5447 77.157 82.1649C75.1763 82.7851 72.5674 83.1293 69.3271 83.1974H53V83.1902ZM58.7881 78.1822H69.0688C73.0305 78.1139 75.6929 77.1318 77.0529 75.2389C78.4129 73.346 79.127 69.8364 79.1989 64.7064C79.1307 59.7521 78.4309 56.4145 77.1069 54.6902C75.779 52.9694 73.1022 52.0589 69.0724 51.9549H58.7917V78.1785L58.7881 78.1822Z" fill="#131313"/>
<path d="M129.829 83.1902V46.954H135.617V61.6162H154.994V46.954H160.833V83.1937H154.994V66.6243H135.617V83.1937H129.829V83.1902Z" fill="#131313"/>
<path d="M206.531 83.1902V46.954H225.444C229.407 46.954 232.267 47.8753 234.021 49.7144C235.78 51.557 236.656 54.3676 236.656 58.1532C236.656 61.9389 235.775 64.796 234.021 66.6208C232.267 68.4455 229.404 69.356 225.444 69.356H212.319V83.1902H206.531ZM212.319 64.3479H224.77C226.874 64.3479 228.412 63.8568 229.396 62.8781C230.379 61.8958 230.868 60.3042 230.868 58.103C230.868 55.9019 230.376 54.3676 229.396 53.4068C228.412 52.4425 226.874 51.9621 224.77 51.9621H212.319V64.3516V64.3479Z" fill="#131313"/>
<path d="M183.462 46C172.959 46 164.443 54.507 164.443 65C164.443 75.4931 172.959 84 183.462 84C193.965 84 202.48 75.4931 202.48 65C202.48 54.507 193.965 46 183.462 46ZM183.462 78.3179C176.099 78.3179 170.131 72.3562 170.131 65C170.131 57.6438 176.099 51.6821 183.462 51.6821C190.825 51.6821 196.793 57.6438 196.793 65C196.793 72.3562 190.825 78.3179 183.462 78.3179Z" fill="#131313"/>
</g>
</svg>
