<svg width="290" height="130" viewBox="0 0 290 130" fill="none" xmlns="http://www.w3.org/2000/svg">
<g clip-path="url(#clip0_962_10935)">
<path d="M104.457 61.5027H100.474C100.151 61.5027 99.8887 61.7681 99.8887 62.0955V79.0907C99.8887 79.4181 100.151 79.6835 100.474 79.6835H104.457C104.781 79.6835 105.043 79.4181 105.043 79.0907V62.0955C105.043 61.7681 104.781 61.5027 104.457 61.5027Z" fill="#131313"/>
<path d="M132.436 52.6467H128.453C128.129 52.6467 127.867 52.9121 127.867 53.2395V79.088C127.867 79.4154 128.129 79.6808 128.453 79.6808H132.436C132.759 79.6808 133.021 79.4154 133.021 79.088V53.2395C133.021 52.9121 132.759 52.6467 132.436 52.6467Z" fill="#131313"/>
<path d="M166.839 61.4229C163.677 61.4229 162.154 61.4504 158.054 61.5028C157.974 61.4913 157.893 61.4987 157.817 61.5244C157.741 61.5501 157.671 61.5934 157.614 61.651C157.558 61.7085 157.515 61.7786 157.489 61.8558C157.464 61.933 157.457 62.0151 157.468 62.0956V79.0908C157.457 79.1713 157.464 79.2534 157.489 79.3306C157.515 79.4078 157.558 79.4779 157.614 79.5354C157.671 79.593 157.741 79.6363 157.817 79.662C157.893 79.6877 157.974 79.6951 158.054 79.6836H162.037C162.116 79.6951 162.197 79.6877 162.274 79.662C162.35 79.6363 162.419 79.593 162.476 79.5354C162.533 79.4779 162.576 79.4078 162.601 79.3306C162.626 79.2534 162.634 79.1713 162.622 79.0908V65.2553H165.278C168.324 65.2553 169.027 66.1266 169.027 69.4076V79.0908C169.016 79.1713 169.023 79.2534 169.048 79.3306C169.074 79.4078 169.117 79.4779 169.173 79.5354C169.23 79.593 169.3 79.6363 169.376 79.662C169.452 79.6877 169.533 79.6951 169.613 79.6836H173.596C173.675 79.6951 173.756 79.6877 173.833 79.662C173.909 79.6363 173.978 79.593 174.035 79.5354C174.092 79.4779 174.135 79.4078 174.16 79.3306C174.185 79.2534 174.193 79.1713 174.181 79.0908V68.1807C174.181 62.727 170.277 61.4229 166.839 61.4229Z" fill="#131313"/>
<path d="M194.435 52.7571H190.449C190.06 52.7571 189.863 52.9556 189.863 53.5098V61.3843H185.802C181.988 61.3843 177.953 62.5699 177.953 70.5932C177.953 78.4181 181.977 79.7608 185.802 79.7608C190.762 79.7608 192.323 79.725 194.435 79.6836C194.514 79.694 194.595 79.6858 194.67 79.6597C194.746 79.6335 194.815 79.5902 194.872 79.5329C194.928 79.4757 194.971 79.406 194.997 79.3294C195.023 79.2527 195.031 79.1711 195.02 79.0908V53.5181C195.02 52.9639 194.824 52.7571 194.435 52.7571ZM189.863 75.9669H186.818C184.124 75.9669 183.107 74.6628 183.107 70.6704C183.107 66.4823 184.124 65.2553 186.818 65.2553H189.863V75.9669Z" fill="#131313"/>
<path d="M203.905 79.8028C205.821 79.6821 207.278 78.0123 207.159 76.073C207.039 74.1337 205.389 72.6594 203.473 72.7801C201.557 72.9007 200.101 74.5706 200.22 76.5099C200.339 78.4492 201.989 79.9234 203.905 79.8028Z" fill="#131313"/>
<path d="M102.464 57.0363C104.384 57.0363 105.941 55.4612 105.941 53.5182C105.941 51.5751 104.384 50 102.464 50C100.545 50 98.9883 51.5751 98.9883 53.5182C98.9883 55.4612 100.545 57.0363 102.464 57.0363Z" fill="#131313"/>
<path d="M145.985 61.4229C142.784 61.4229 141.027 61.4642 138.918 61.5028C138.836 61.4953 138.754 61.5066 138.677 61.5361C138.6 61.5655 138.53 61.6122 138.473 61.6727C138.417 61.7332 138.374 61.8059 138.35 61.8854C138.325 61.9648 138.318 62.049 138.33 62.1314V64.6598C138.318 64.7406 138.326 64.823 138.351 64.9004C138.377 64.9778 138.42 65.0481 138.477 65.1057C138.534 65.1633 138.604 65.2065 138.68 65.232C138.757 65.2575 138.839 65.2646 138.918 65.2526H144.19C147.235 65.2526 148.017 66.1238 148.017 67.5851V68.4123H142.977C138.918 68.4123 136.535 69.6778 136.573 73.866C136.614 78.3326 138.956 79.7553 143.018 79.7553C148.837 79.7553 150.477 79.7112 152.586 79.6781C152.665 79.689 152.746 79.6812 152.822 79.6553C152.898 79.6294 152.967 79.586 153.024 79.5286C153.08 79.4713 153.123 79.4014 153.149 79.3245C153.175 79.2476 153.182 79.1657 153.171 79.0853V67.7809C153.163 62.727 149.265 61.4229 145.985 61.4229ZM148.017 75.9669H144.111C142.509 75.9669 141.768 75.4927 141.73 73.8715C141.692 72.2503 142.471 71.7788 144.073 71.7788H148.017V75.9669Z" fill="#131313"/>
<path d="M120.132 69.5262L115.485 67.9849C114.43 67.6293 114.123 67.3122 114.123 66.5209C114.123 65.611 114.591 65.2167 116.073 65.2167H122.788C122.869 65.2287 122.951 65.2212 123.029 65.1949C123.106 65.1686 123.176 65.1243 123.233 65.0654C123.29 65.0066 123.332 64.9349 123.357 64.8563C123.382 64.7777 123.387 64.6943 123.374 64.6129V62.0543C123.384 61.974 123.376 61.8923 123.35 61.8157C123.325 61.7391 123.282 61.6694 123.225 61.6122C123.169 61.5549 123.1 61.5116 123.024 61.4854C122.948 61.4593 122.868 61.4511 122.788 61.4615C120.68 61.4201 118.974 61.3843 115.329 61.3843C111.684 61.3843 109.08 62.4871 109.08 66.1266V66.7966C109.08 68.8535 110.369 70.7504 113.025 71.6603L117.476 73.1602C118.65 73.5572 118.838 73.7943 118.838 74.5387C118.838 75.5672 118.37 75.8842 117.277 75.8842H109.941C109.861 75.8727 109.78 75.8801 109.704 75.9058C109.628 75.9315 109.558 75.9749 109.502 76.0324C109.445 76.0899 109.402 76.16 109.377 76.2372C109.351 76.3144 109.344 76.3965 109.355 76.477V79.044C109.344 79.1245 109.351 79.2066 109.377 79.2838C109.402 79.3609 109.445 79.4311 109.502 79.4886C109.558 79.5461 109.628 79.5895 109.704 79.6152C109.78 79.6409 109.861 79.6483 109.941 79.6367C112.049 79.6781 113.61 79.7167 117.283 79.7167C121.734 79.7167 123.922 78.6497 123.922 74.9358V74.263C123.922 72.5288 123.257 70.5519 120.132 69.5262Z" fill="#131313"/>
<path d="M216.928 61.5027H212.945C212.622 61.5027 212.359 61.7681 212.359 62.0955V79.0907C212.359 79.4181 212.622 79.6835 212.945 79.6835H216.928C217.251 79.6835 217.514 79.4181 217.514 79.0907V62.0955C217.514 61.7681 217.251 61.5027 216.928 61.5027Z" fill="#131313"/>
<path d="M215.183 57.013C217.098 56.8751 218.54 55.1921 218.404 53.254C218.268 51.3159 216.605 49.8565 214.69 49.9944C212.775 50.1323 211.333 51.8153 211.469 53.7534C211.606 55.6915 213.268 57.1509 215.183 57.013Z" fill="#131313"/>
<path d="M232.606 69.5262L227.959 67.9849C226.904 67.6293 226.596 67.3122 226.596 66.5209C226.596 65.611 227.065 65.2167 228.55 65.2167H235.268C235.348 65.2277 235.429 65.2195 235.506 65.1928C235.582 65.1661 235.652 65.1216 235.708 65.0629C235.765 65.0041 235.807 64.9329 235.831 64.8547C235.855 64.7766 235.861 64.6938 235.848 64.6129V62.0543C235.858 61.974 235.85 61.8923 235.824 61.8157C235.798 61.7391 235.756 61.6694 235.699 61.6122C235.642 61.5549 235.574 61.5116 235.498 61.4854C235.422 61.4593 235.342 61.4511 235.262 61.4615C233.154 61.4201 231.448 61.3843 227.803 61.3843C224.158 61.3843 221.543 62.4899 221.543 66.1266V66.7966C221.543 68.8535 222.832 70.7504 225.488 71.6603L229.95 73.1602C231.121 73.5572 231.312 73.7943 231.312 74.5387C231.312 75.5672 230.843 75.8842 229.748 75.8842H222.412C222.331 75.8706 222.248 75.8765 222.17 75.9017C222.092 75.9268 222.021 75.9704 221.962 76.0288C221.904 76.0872 221.86 76.1589 221.835 76.2377C221.809 76.3166 221.803 76.4005 221.815 76.4825V79.0495C221.805 79.1299 221.812 79.2117 221.838 79.2887C221.864 79.3656 221.906 79.4354 221.963 79.4928C222.02 79.5502 222.089 79.5936 222.165 79.6195C222.241 79.6454 222.322 79.6532 222.401 79.6423C224.51 79.6836 226.073 79.7222 229.743 79.7222C234.197 79.7222 236.382 78.6552 236.382 74.9413V74.263C236.393 72.5288 235.731 70.5519 232.606 69.5262Z" fill="#131313"/>
<path d="M60.9538 76.284C60.9589 76.7474 60.8725 77.2072 60.6996 77.6364C60.5268 78.0656 60.2709 78.4555 59.9471 78.7832C59.6233 79.1109 59.238 79.3699 58.814 79.5449C58.3899 79.7198 57.9356 79.8073 57.4777 79.8021C56.5558 79.8021 55.6716 79.4315 55.0197 78.7717C54.3678 78.1119 54.0016 77.217 54.0016 76.284C54.0016 75.3509 54.3678 74.456 55.0197 73.7963C55.6716 73.1365 56.5558 72.7658 57.4777 72.7658C57.9356 72.7607 58.3899 72.8481 58.814 73.0231C59.238 73.1981 59.6233 73.457 59.9471 73.7847C60.2709 74.1125 60.5268 74.5024 60.6996 74.9315C60.8725 75.3607 60.9589 75.8205 60.9538 76.284V76.284ZM68.7124 72.7658C68.0254 72.768 67.3544 72.9762 66.7842 73.3641C66.214 73.752 65.7701 74.3022 65.5087 74.9453C65.2473 75.5883 65.18 76.2953 65.3153 76.9771C65.4507 77.6588 65.7826 78.2846 66.2692 78.7756C66.7558 79.2665 67.3752 79.6005 68.0492 79.7353C68.7232 79.8702 69.4215 79.7999 70.0561 79.5333C70.6906 79.2667 71.2329 78.8157 71.6144 78.2374C71.9958 77.6591 72.1994 76.9793 72.1994 76.284C72.205 75.8195 72.1185 75.3586 71.945 74.9285C71.7716 74.4984 71.5148 74.1079 71.1897 73.7799C70.8647 73.452 70.478 73.1933 70.0525 73.0191C69.627 72.8449 69.1714 72.7588 68.7124 72.7658V72.7658ZM79.9608 72.7658C79.2733 72.7658 78.6012 72.9722 78.0295 73.3587C77.4579 73.7453 77.0124 74.2948 76.7493 74.9376C76.4862 75.5805 76.4173 76.2879 76.5515 76.9703C76.6856 77.6528 77.0166 78.2797 77.5028 78.7717C77.9889 79.2637 78.6083 79.5988 79.2826 79.7345C79.9569 79.8703 80.6559 79.8006 81.291 79.5343C81.9262 79.268 82.4691 78.8171 82.8511 78.2386C83.233 77.66 83.4369 76.9798 83.4369 76.284C83.442 75.8215 83.3559 75.3626 83.1837 74.9341C83.0115 74.5057 82.7566 74.1163 82.434 73.7887C82.1113 73.4611 81.7274 73.202 81.3046 73.0263C80.8818 72.8507 80.4287 72.7621 79.9717 72.7658H79.9608ZM57.4777 61.3842C57.0132 61.3711 56.5508 61.4523 56.1179 61.6231C55.6849 61.7939 55.2902 62.0508 54.9571 62.3787C54.6239 62.7066 54.3591 63.0987 54.1783 63.5319C53.9975 63.9652 53.9043 64.4307 53.9043 64.901C53.9043 65.3713 53.9975 65.8368 54.1783 66.2701C54.3591 66.7033 54.6239 67.0954 54.9571 67.4233C55.2902 67.7511 55.6849 68.0081 56.1179 68.1789C56.5508 68.3497 57.0132 68.4309 57.4777 68.4178C57.9422 68.4309 58.4046 68.3497 58.8376 68.1789C59.2705 68.0081 59.6652 67.7511 59.9984 67.4233C60.3315 67.0954 60.5963 66.7033 60.7771 66.2701C60.958 65.8368 61.0511 65.3713 61.0511 64.901C61.0511 64.4307 60.958 63.9652 60.7771 63.5319C60.5963 63.0987 60.3315 62.7066 59.9984 62.3787C59.6652 62.0508 59.2705 61.7939 58.8376 61.6231C58.4046 61.4523 57.9422 61.3711 57.4777 61.3842V61.3842ZM68.7233 61.3842C68.0352 61.3842 67.3626 61.5909 66.7907 61.9781C66.2188 62.3653 65.7732 62.9156 65.5105 63.5592C65.2478 64.2029 65.1798 64.911 65.315 65.5938C65.4503 66.2766 65.7827 66.9035 66.2702 67.395C66.7577 67.8864 67.3784 68.2204 68.0536 68.3546C68.7288 68.4888 69.4281 68.4171 70.0631 68.1487C70.698 67.8804 71.2399 67.4273 71.6203 66.8469C72.0006 66.2665 72.2021 65.585 72.1994 64.8886C72.2035 64.4251 72.1159 63.9656 71.9418 63.5369C71.7677 63.1083 71.5106 62.7192 71.1856 62.3927C70.8607 62.0661 70.4745 61.8086 70.0497 61.6355C69.625 61.4623 69.1703 61.3769 68.7124 61.3842H68.7233ZM79.9717 61.3842C79.2836 61.3842 78.611 61.5909 78.039 61.9781C77.4671 62.3653 77.0216 62.9156 76.7589 63.5592C76.4962 64.2029 76.4281 64.911 76.5634 65.5938C76.6986 66.2766 77.031 66.9035 77.5185 67.395C78.0061 67.8864 78.6267 68.2204 79.3019 68.3546C79.9771 68.4888 80.6765 68.4171 81.3114 68.1487C81.9463 67.8804 82.4883 67.4273 82.8686 66.8469C83.2489 66.2665 83.4505 65.585 83.4478 64.8886C83.4514 64.4262 83.3639 63.9677 83.1904 63.54C83.0168 63.1122 82.7607 62.7238 82.437 62.3975C82.1133 62.0712 81.7285 61.8135 81.3052 61.6395C80.8819 61.4655 80.4285 61.3787 79.9717 61.3842ZM57.4777 49.9999C57.0198 49.9947 56.5655 50.0822 56.1414 50.2571C55.7174 50.4321 55.3322 50.6911 55.0083 51.0188C54.6845 51.3465 54.4287 51.7364 54.2558 52.1656C54.0829 52.5948 53.9965 53.0546 54.0016 53.518C53.9965 53.9815 54.0829 54.4413 54.2558 54.8704C54.4287 55.2996 54.6845 55.6895 55.0083 56.0172C55.3322 56.345 55.7174 56.6039 56.1414 56.7789C56.5655 56.9539 57.0198 57.0413 57.4777 57.0362C57.9356 57.0413 58.3899 56.9539 58.814 56.7789C59.238 56.6039 59.6233 56.345 59.9471 56.0172C60.2709 55.6895 60.5268 55.2996 60.6996 54.8704C60.8725 54.4413 60.9589 53.9815 60.9538 53.518C60.9589 53.0546 60.8725 52.5948 60.6996 52.1656C60.5268 51.7364 60.2709 51.3465 59.9471 51.0188C59.6233 50.6911 59.238 50.4321 58.814 50.2571C58.3899 50.0822 57.9356 49.9947 57.4777 49.9999V49.9999ZM68.7124 49.9999C68.2556 49.9962 67.8026 50.0847 67.3799 50.2604C66.9573 50.4361 66.5735 50.6953 66.2511 51.0229C65.9287 51.3505 65.674 51.74 65.5021 52.1684C65.3302 52.5968 65.2445 53.0556 65.2499 53.518C65.2369 53.9881 65.3172 54.4561 65.486 54.8943C65.6547 55.3325 65.9086 55.732 66.2325 56.0691C66.5565 56.4063 66.9439 56.6743 67.372 56.8573C67.8001 57.0404 68.26 57.1346 68.7247 57.1346C69.1894 57.1346 69.6493 57.0404 70.0774 56.8573C70.5054 56.6743 70.8929 56.4063 71.2168 56.0691C71.5408 55.732 71.7947 55.3325 71.9634 54.8943C72.1322 54.4561 72.2125 53.9881 72.1994 53.518C72.2046 53.0536 72.1178 52.5929 71.9443 52.163C71.7707 51.7331 71.5139 51.3427 71.1889 51.0148C70.8639 50.6869 70.4774 50.4282 70.0521 50.2539C69.6267 50.0796 69.1713 49.9932 68.7124 49.9999V49.9999ZM79.9717 49.9999C79.5138 49.9947 79.0594 50.0822 78.6354 50.2571C78.2114 50.4321 77.8261 50.6911 77.5023 51.0188C77.1785 51.3465 76.9226 51.7364 76.7498 52.1656C76.5769 52.5948 76.4904 53.0546 76.4956 53.518C76.4956 54.4511 76.8618 55.3459 77.5137 56.0057C78.1656 56.6655 79.0498 57.0362 79.9717 57.0362C80.8936 57.0362 81.7778 56.6655 82.4297 56.0057C83.0816 55.3459 83.4478 54.4511 83.4478 53.518C83.4529 53.0546 83.3665 52.5948 83.1936 52.1656C83.0207 51.7364 82.7649 51.3465 82.441 51.0188C82.1172 50.6911 81.732 50.4321 81.3079 50.2571C80.8839 50.0822 80.4296 49.9947 79.9717 49.9999V49.9999Z" fill="#131313"/>
</g>
<defs>
<clipPath id="clip0_962_10935">
<rect width="182.39" height="29.8023" fill="white" transform="translate(54 50)"/>
</clipPath>
</defs>
</svg>
