<svg width="290" height="130" viewBox="0 0 290 130" fill="none" xmlns="http://www.w3.org/2000/svg">
<path fill-rule="evenodd" clip-rule="evenodd" d="M185.094 67.2637L185.875 66.4481C186.325 65.9751 186.797 65.9869 187.291 66.4898C187.784 66.9927 187.841 67.4448 187.465 67.8396L186.512 68.8338C186.946 69.6038 187.166 70.4859 187.166 71.4253V81.0539C187.166 83.9607 184.978 85.4134 180.604 85.4134H175.499C171.036 85.4134 168.808 83.9607 168.808 81.0539V75.5008C168.808 72.521 171.064 71.0292 175.578 71.0292H180.604C182.218 71.0292 183.538 71.2363 184.557 71.6389V71.0122C184.557 69.6624 183.203 68.0807 180.495 68.0807H178.07C177.33 68.0807 176.963 67.7185 176.963 66.9927C176.963 66.2683 177.33 65.9048 178.07 65.9048H180.178C182.305 65.9048 183.939 66.4168 185.094 67.2637ZM180.988 83.2323C183.365 83.2323 184.555 82.5053 184.555 81.0513V75.2559C184.555 73.8735 183.365 73.1803 180.988 73.1803H175.214C172.628 73.1803 171.335 73.9516 171.335 75.4995V81.0513C171.335 82.5053 172.628 83.2323 175.214 83.2323H180.988ZM223.771 71.0305H222.627C218.342 71.0305 216.198 72.4871 216.198 75.3966V84.2617C216.198 85.0317 216.625 85.416 217.474 85.416C218.321 85.416 218.746 85.0317 218.746 84.2617V75.3927C218.746 73.9204 219.954 73.1829 222.367 73.1829H223.929C224.468 73.1829 224.738 72.8259 224.738 72.1093C224.738 71.3914 224.417 71.0305 223.771 71.0305ZM208.476 72.1341C208.476 71.4005 208.912 71.0305 209.776 71.0305C210.607 71.0305 211.021 71.4005 211.019 72.1328V81.2376C211.019 84.0232 208.656 85.4134 203.932 85.4134H199.552C194.79 85.4134 192.41 84.0245 192.41 81.2402V72.1471C192.41 71.3914 192.825 71.0148 193.658 71.0148C194.49 71.0148 194.905 71.3914 194.905 72.1471V81.2389C194.905 82.5679 196.315 83.2323 199.132 83.2323H204.352C207.103 83.2323 208.476 82.5874 208.476 81.2897V72.1341ZM163.91 71.0305H162.765C158.48 71.0305 156.338 72.4871 156.338 75.3966V84.2617C156.338 85.0317 156.761 85.416 157.611 85.416C158.462 85.416 158.883 85.0317 158.883 84.2617V75.3927C158.883 73.9204 160.091 73.1829 162.507 73.1829H164.066C164.606 73.1829 164.876 72.8259 164.876 72.1093C164.876 71.3914 164.555 71.0305 163.91 71.0305ZM141.008 67.9243C141.008 68.7712 140.507 69.1934 139.497 69.1934C138.472 69.1934 137.959 68.7725 137.959 67.9243C137.959 67.0957 138.472 66.6826 139.497 66.6826C140.507 66.6826 141.008 67.0957 141.008 67.9243ZM148.615 81.0513C148.615 82.5053 147.426 83.2323 145.049 83.2323H139.273C136.69 83.2323 135.394 82.5053 135.394 81.0513V75.4995C135.394 73.9516 136.69 73.1803 139.273 73.1803H145.049C147.426 73.1803 148.615 73.8735 148.615 75.2559V81.0513ZM139.64 71.0305H144.663C149.04 71.0305 151.23 72.5145 151.23 75.4774V81.0552C151.23 83.962 149.04 85.4147 144.663 85.4147H139.562C135.097 85.4147 132.867 83.962 132.867 81.0552V75.5034C132.867 72.5223 135.125 71.0305 139.64 71.0305ZM144.631 69.1934C145.634 69.1934 146.136 68.7712 146.136 67.9243C146.136 67.0957 145.634 66.6826 144.631 66.6826C143.589 66.6826 143.07 67.0957 143.07 67.9243C143.07 68.7725 143.589 69.1934 144.631 69.1934ZM128.955 71.0513C129.126 71.0969 129.285 71.1777 129.424 71.295C129.563 71.4096 129.678 71.5373 129.775 71.6702C129.868 71.8057 129.917 71.9425 129.917 72.0885C129.917 72.3047 129.823 72.538 129.632 72.7907L120.546 84.8232C120.235 85.218 119.907 85.4147 119.557 85.4147C119.227 85.4147 118.931 85.2349 118.672 84.8753L109.68 72.8455C109.526 72.6487 109.447 72.4155 109.447 72.1458C109.447 71.8409 109.578 71.5686 109.84 71.3341C110.099 71.1008 110.379 70.9862 110.67 70.9862C110.845 70.9862 111.013 71.024 111.18 71.093C111.346 71.1647 111.477 71.2832 111.583 71.4422L119.607 82.4493L127.677 71.3328C127.85 71.0995 128.112 70.9823 128.457 70.9823C128.616 70.9823 128.777 71.0044 128.955 71.0513Z" fill="#131313"/>
<path fill-rule="evenodd" clip-rule="evenodd" d="M68.0191 45.9388C70.9865 44.0873 74.8456 45.0588 76.6438 48.1114L92.8387 75.5956C94.637 78.6496 93.6968 82.624 90.7304 84.4781C87.7663 86.3282 83.9052 85.3581 82.106 82.3041L65.9107 54.8186C64.1138 51.7673 65.0583 47.7902 68.0191 45.9388ZM90.9455 53.099C90.9455 48.6245 94.4657 45 98.8065 45C103.149 45 106.671 48.6245 106.671 53.099C106.671 57.5709 103.149 61.1955 98.8065 61.1955C94.4657 61.1955 90.9455 57.5709 90.9455 53.099Z" fill="#131313"/>
</svg>
