<svg width="671" height="1343" viewBox="0 0 671 1343" fill="none" xmlns="http://www.w3.org/2000/svg">
<g clip-path="url(#clip0_3290_6885)">
<path d="M-0.197325 656.394C-0.197325 649.127 -0.197325 641.842 -0.197325 634.574C1.07833 634.054 2.38756 633.55 3.64644 632.996C17.0744 627.088 24.4598 630.512 27.4811 644.813C28.9246 651.611 28.9918 658.677 29.7303 665.626C31.9292 686.356 42.6548 691.844 59.5741 679.608C70.585 671.652 80.656 662.101 89.9885 652.198C104.356 636.957 117.13 620.189 131.783 605.251C141.451 595.398 152.513 586.468 164.212 579.184C174.954 572.486 183.095 576.918 186.032 589.238C187.576 595.7 187.677 602.498 188.449 609.145C191.37 634.104 202.431 639.609 221.751 623.697C237.176 610.991 250.571 595.767 264.485 581.282C278.417 566.796 291.459 551.438 305.743 537.322C311.534 531.598 319.204 527.284 326.741 523.961C334.798 520.402 341.277 523.625 343.912 532.102C346.044 538.916 346.295 546.319 347.42 553.452C348.83 562.399 347.789 573.141 357.911 577.404C367.344 581.382 375.636 575.39 382.014 569.364C397.003 555.198 411.237 540.209 425.521 525.32C438.865 511.422 451.672 497.021 465.184 483.291C469.615 478.792 475.204 475.133 480.827 472.179C493.382 465.566 502.077 469.779 504.847 483.61C506.038 489.602 505.938 495.829 506.794 501.905C507.952 510.113 507.784 519.513 516.663 523.709C525.24 527.754 532.945 522.652 538.819 517.431C552.365 505.413 565.34 492.69 577.878 479.615C593.152 463.703 607.42 446.817 622.795 431.022C628.116 425.55 635.065 421.237 641.98 417.813C652.789 412.441 660.511 416.252 663.482 428.001C665.043 434.161 664.791 440.774 666.05 447.035C667.292 453.145 669.423 459.07 671.152 465.062V498.632C660.595 497.608 656.415 494.067 654.535 483.324C653.343 476.459 653.276 469.426 652.437 462.494C649.986 442.252 639.815 437.367 622.761 448.328C618.313 451.181 613.915 454.337 610.189 458.046C600.487 467.698 591.004 477.584 581.722 487.638C567.522 503.03 554.11 519.228 539.239 533.931C532.089 540.998 522.79 546.302 513.675 550.834C506.559 554.375 500.617 551.052 497.528 543.599C495.95 539.789 495.195 535.576 494.557 531.464C493.332 523.474 493.198 515.249 491.234 507.461C488.615 497.054 481.096 493.63 471.26 498.028C465.721 500.512 460.047 503.634 455.801 507.83C441.735 521.779 428.391 536.449 414.56 550.632C399 566.612 384.33 583.715 367.226 597.848C348.897 613.022 337.148 606.677 335.049 582.91C334.412 575.692 333.958 568.34 332.146 561.375C329.292 550.397 322.024 547.074 311.702 551.891C305.961 554.577 300.086 557.917 295.655 562.348C281.254 576.75 267.725 592.024 253.441 606.543C237.831 622.438 222.808 639.19 205.57 653.138C189.91 665.811 178.513 659.533 176.146 639.425C175.827 636.655 175.944 633.819 175.575 631.066C174.887 625.812 174.535 620.441 173.108 615.389C169.868 603.891 162.735 600.265 152.143 605.855C144.103 610.102 136.08 615.355 129.836 621.868C112.648 639.811 96.8703 659.114 79.5818 676.973C68.3862 688.538 56.3178 699.633 43.1919 708.881C30.3514 717.928 20.8511 713.01 17.8801 697.518C16.252 689.058 16.0841 680.313 14.7581 671.786C13.4321 663.31 9.03442 657.334 -0.28125 656.411L-0.197325 656.394Z" fill="#E7F5ED"/>
<path d="M671.202 1060.91V1086.09C655.928 1090.98 650.137 1087.62 647.384 1071.59C645.874 1062.81 645.84 1053.73 643.876 1045.09C641.174 1033.24 633.117 1029.32 622.509 1035.22C613.831 1040.05 605.271 1045.92 598.439 1053.04C581.436 1070.77 565.944 1089.95 548.873 1107.61C538.081 1118.77 526.314 1129.36 513.574 1138.19C500.818 1147.02 491.015 1141.8 488.397 1126.46C487.088 1118.77 487.188 1110.83 485.829 1103.16C482.824 1086.06 473.576 1081.31 459.292 1091.06C447.643 1099.02 436.917 1108.72 427.148 1118.94C411.538 1135.29 397.573 1153.23 381.879 1169.51C373.252 1178.44 363.147 1186.37 352.573 1192.88C341.411 1199.74 333.387 1195.51 329.863 1182.87C328.973 1179.67 328.704 1176.29 328.218 1172.99C327.093 1165.28 326.841 1157.33 324.693 1149.91C322.007 1140.64 315.041 1137.47 306.364 1141.62C299.163 1145.06 291.794 1149.25 286.222 1154.84C271.249 1169.87 257.57 1186.15 242.698 1201.27C228.062 1216.14 213.576 1231.45 197.211 1244.26C182.91 1255.45 171.882 1249.33 169.516 1231.16C168.542 1223.69 168.542 1216.06 167.182 1208.66C164.497 1194.14 155.416 1189.4 142.962 1197.17C132.891 1203.47 123.29 1211.12 115.099 1219.72C98.1457 1237.51 82.821 1256.85 65.7674 1274.52C56.3678 1284.26 45.5247 1293.03 34.0773 1300.23C22.9992 1307.2 14.5228 1302.8 11.6526 1290.03C9.77266 1281.64 10.2091 1272.71 8.11094 1264.38C6.71779 1258.88 2.68939 1254.04 -0.164062 1248.91C-0.164062 1239.96 -0.164062 1231 -0.164062 1222.05C11.0651 1218.51 16.8727 1221.4 19.9276 1232.56C21.1025 1236.82 21.3543 1241.35 21.9082 1245.77C22.6132 1251.31 22.6803 1256.98 23.9224 1262.38C26.9605 1275.58 34.9837 1279.42 46.9011 1273.21C52.5408 1270.27 58.2645 1266.78 62.6622 1262.28C77.5001 1247.13 91.5995 1231.23 106.27 1215.92C119.194 1202.43 132.102 1188.85 145.882 1176.26C152.714 1170.02 161.375 1163.12 171.446 1168.15C180.946 1172.9 180.14 1183.51 181.215 1192.61C181.953 1198.97 182.356 1205.47 184.085 1211.58C186.989 1221.76 193.871 1225.21 203.404 1220.52C211.075 1216.76 218.696 1212 224.738 1206.04C237.864 1193.11 249.765 1178.98 262.521 1165.67C276.788 1150.76 291.022 1135.74 306.129 1121.71C312.457 1115.82 320.816 1109.78 330.366 1114.36C339.816 1118.91 339.145 1129.11 340.353 1137.82C341.125 1143.35 341.025 1149.02 342.166 1154.44C345.12 1168.44 353.513 1172.38 366.185 1165.37C372.48 1161.88 378.774 1157.73 383.709 1152.59C398.815 1136.9 412.898 1120.23 428.072 1104.61C441.466 1090.82 454.844 1076.73 469.967 1065.03C485.359 1053.13 495.984 1058.8 498.686 1078.07C499.895 1086.63 500.146 1095.41 502.177 1103.75C504.746 1114.29 512.349 1118.1 521.967 1113.1C530.527 1108.65 539.004 1103.11 545.735 1096.3C560.438 1081.39 573.514 1064.91 588.15 1049.94C601.763 1036.01 615.577 1021.97 631.053 1010.27C644.548 1000.07 655.173 1005.84 657.623 1022.44C658.647 1029.34 658.563 1036.42 659.738 1043.29C660.997 1050.62 661.987 1058.56 671.202 1060.88V1060.91Z" fill="#E7F5ED"/>
<path d="M-0.199219 392.87V362.657C10.2914 361.146 15.1087 363.832 17.7607 373.936C19.2378 379.543 19.3385 385.518 20.0771 391.309C21.2688 400.591 20.161 411.568 30.383 416.251C40.5883 420.934 48.9976 413.784 55.8627 407.641C68.3172 396.495 79.9995 384.41 91.4637 372.224C105.815 356.984 119.209 340.803 133.896 325.881C140.224 319.452 148.247 314.199 156.371 310.153C166.375 305.151 173.928 309.079 176.799 319.989C178.477 326.401 178.544 333.216 179.4 339.846C180.508 348.373 180.206 358.108 189.203 362.573C198.401 367.138 206.391 361.247 212.735 355.691C225.106 344.882 236.872 333.283 248.202 321.366C263.963 304.765 278.784 287.275 294.646 270.759C299.95 265.237 306.765 260.755 313.613 257.213C325.43 251.087 333.671 255.283 336.592 268.342C337.867 274.032 337.784 280.008 338.69 285.782C339.546 291.253 340.234 296.91 342.198 302.013C345.135 309.583 350.926 312.285 358.396 309.197C364.74 306.578 371.454 303.389 376.238 298.672C391.68 283.365 406.216 267.117 421.289 251.439C434.633 237.558 447.826 223.492 461.909 210.4C468.74 204.055 477.502 197.56 487.573 202.36C496.939 206.808 496.2 217.148 497.359 225.943C498.231 232.573 498.45 239.388 500.262 245.766C503.149 255.871 510.283 259.446 519.599 254.88C527.253 251.121 534.856 246.32 540.899 240.361C553.823 227.655 565.976 214.11 577.994 200.514C593.537 182.94 607.988 164.208 628.332 151.703C643.103 142.606 652.989 147.356 655.658 164.46C656.766 171.627 656.699 178.979 657.84 186.129C659.116 194.068 661.533 201.588 671.184 203.183V226.682C654.03 233.06 646.963 228.763 644.63 210.4C644.21 207.077 644.462 203.669 643.959 200.363C643.069 194.589 642.532 188.63 640.568 183.192C637.631 175.001 630.967 171.862 623.078 175.454C616.062 178.643 608.945 182.655 603.457 187.959C590.616 200.346 578.799 213.808 566.412 226.682C550.752 242.963 535.326 259.479 519.011 275.073C512.717 281.099 504.173 286.957 494.774 282.206C485.592 277.557 486.029 267.419 484.954 258.607C484.216 252.514 484.165 246.27 482.722 240.361C479.885 228.78 471.627 224.634 461.187 230.257C453.18 234.571 445.224 239.875 438.947 246.387C423.068 262.87 408.616 280.729 392.704 297.179C380.535 309.767 367.896 322.272 353.796 332.511C339.563 342.867 329.643 337.479 326.857 320.073C325.497 311.547 325.396 302.768 323.516 294.376C320.764 282.122 312.472 278.01 301.595 284.12C292.934 288.988 284.525 295.013 277.609 302.097C263.392 316.683 250.72 332.78 236.52 347.383C223.343 360.945 209.949 374.608 194.926 385.971C180.71 396.714 169.984 390.889 167.55 373.265C166.593 366.35 166.577 359.3 165.469 352.435C162.682 335.146 152.544 329.909 138.378 340.014C125.99 348.86 114.61 359.468 104.069 370.495C87.6703 387.65 72.7987 406.264 56.3494 423.368C49.1319 430.888 40.1687 437.166 31.0209 442.302C20.7485 448.076 12.8931 444.333 9.92214 432.936C7.89115 425.181 8.26042 416.822 6.44764 408.983C5.20555 403.411 2.10033 398.241 -0.199219 392.87Z" fill="#E7F5ED"/>
<path d="M671.2 792.354V812.496C670.444 812.849 669.639 813.117 668.934 813.537C648.993 825.773 639.056 820.603 637.428 797.121C637.093 792.388 636.74 787.638 636.136 782.921C635.783 780.168 635.179 777.399 634.273 774.78C630.932 765.263 624.487 761.923 615.272 765.985C609.229 768.654 603.069 772.128 598.42 776.711C584.488 790.407 571.211 804.758 557.817 818.992C545.95 831.598 534.738 844.891 522.3 856.909C515.804 863.187 507.764 868.357 499.59 872.301C490.61 876.648 483.577 872.956 480.807 863.288C478.995 856.926 478.877 850.095 477.887 843.481C476.544 834.518 477.551 823.826 467.598 819.361C457.711 814.93 449.285 821.476 442.84 827.67C426.743 843.112 411.25 859.226 396.211 875.708C380.584 892.829 366.468 911.544 346.041 923.479C331.807 931.804 323.096 927.641 320.225 911.595C318.597 902.548 318.53 893.198 316.566 884.252C313.965 872.419 306.008 868.659 295.199 874.114C288.535 877.471 282.157 881.852 276.618 886.854C267.923 894.709 259.799 903.236 251.86 911.863C236.552 928.531 222.016 945.954 206.205 962.118C199.323 969.151 190.561 974.841 181.766 979.389C172.417 984.207 165.216 980.564 162.446 970.342C160.432 962.89 159.996 954.967 159.274 947.213C157.159 924.905 146.618 919.668 128.238 932.073C124.076 934.876 119.863 937.813 116.405 941.388C104.924 953.205 93.7621 965.34 82.4658 977.342C68.5006 992.196 54.8544 1007.35 40.4025 1021.72C35.3838 1026.71 28.737 1030.5 22.1908 1033.37C13.1269 1037.33 6.3122 1033.71 3.19019 1024.32C1.69633 1019.86 0.924216 1015.18 -0.183594 1010.58C-0.183594 990.988 -0.183594 971.417 -0.183594 951.829C7.38644 953.91 10.3742 959.818 11.482 966.734C12.7576 974.706 12.9087 982.881 14.3186 990.82C17.4407 1008.39 26.7731 1012.98 41.4768 1002.85C52.4206 995.318 62.5587 986.204 71.7401 976.57C85.806 961.816 98.1765 945.433 112.36 930.797C122.582 920.239 133.794 910.218 146.014 902.145C158.905 893.618 168.439 899.006 170.956 914.448C172.114 921.599 172.047 928.951 173.138 936.118C175.908 954.363 185.761 958.895 201.287 949.16C205.533 946.491 209.78 943.604 213.338 940.129C223.309 930.36 233.128 920.407 242.645 910.185C257.668 894.021 272.086 877.303 287.394 861.408C292.715 855.885 299.513 851.437 306.327 847.762C318.547 841.182 326.688 845.193 329.759 858.856C331.035 864.546 331.203 870.488 331.79 876.313C332.663 884.94 332.411 894.843 341.324 899.124C350.657 903.605 359.083 897.646 365.629 891.755C378.671 880.005 391.125 867.534 403.21 854.778C416.655 840.578 428.908 825.236 442.655 811.372C449.805 804.154 458.55 798.061 467.514 793.21C477.467 787.822 484.836 791.7 488.109 802.492C489.385 806.722 489.67 811.254 490.274 815.669C491.113 821.745 491.197 828.006 492.691 833.897C495.947 846.67 503.92 850.481 515.267 843.985C523.425 839.319 531.431 833.679 537.91 826.931C553.57 810.616 567.703 792.807 583.582 776.727C596.439 763.702 610.136 751.181 624.991 740.572C635.867 732.801 644.965 737.736 647.751 750.929C649.581 759.623 649.681 768.687 651.125 777.483C653.223 790.374 658.443 794.033 671.233 792.388L671.2 792.354Z" fill="#E7F5ED"/>
<path d="M-0.199219 928.311C-0.199219 922.151 -0.199219 916.007 -0.199219 909.847C5.79303 906.339 11.4831 902.11 17.8447 899.508C25.7 896.302 31.3398 899.256 34.68 907.111C35.8717 909.898 36.5599 912.969 36.9796 915.974C38.2384 924.803 38.5238 933.85 40.5548 942.477C43.1397 953.388 50.8608 957.064 60.9653 951.994C68.3507 948.285 75.669 943.585 81.5102 937.811C94.4178 925.055 106.621 911.576 118.639 897.98C134.198 880.39 148.751 861.758 169.078 849.237C184.016 840.039 193.483 844.654 196.185 862.01C197.461 870.268 197.511 878.778 199.291 886.902C202.211 900.246 210.57 904.493 222.135 897.376C232.491 890.998 242.361 883.226 250.787 874.481C265.91 858.804 279.271 841.432 294.361 825.738C304.952 814.727 316.399 804.203 328.904 795.508C342.769 785.873 352.739 791.245 355.357 808.097C356.516 815.549 356.432 823.186 357.657 830.622C360.242 846.518 369.977 851.57 383.254 842.623C394.5 835.037 405.075 826.023 414.457 816.204C432.216 797.623 448.447 777.598 466.239 759.051C473.658 751.33 482.873 744.884 492.256 739.631C502.411 733.941 510.031 738.019 513.304 749.299C514.53 753.545 514.765 758.094 515.335 762.509C516.091 768.316 516.158 774.292 517.501 779.948C520.505 792.587 528.696 796.733 540.026 790.355C548.452 785.622 556.694 779.78 563.34 772.815C580.125 755.241 595.484 736.307 612.336 718.817C623.129 707.622 634.962 697.181 647.484 688.017C657.487 680.699 662.372 682.159 671.201 689.947V763.801C668.901 760.629 665.444 757.742 664.537 754.2C662.825 747.503 662.439 740.436 661.717 733.504C659.183 709.149 648.021 703.627 628.852 719.019C614.988 730.147 602.768 743.424 590.482 756.365C577.389 770.146 565.606 785.168 552.229 798.63C544.659 806.234 535.561 812.78 526.145 817.95C515.906 823.572 508.235 819.393 505.18 808.147C503.955 803.615 503.77 798.781 503.133 794.081C502.344 788.29 502.142 782.315 500.632 776.709C497.409 764.724 489.956 760.998 479.197 766.957C470.738 771.64 462.395 777.347 455.732 784.262C440.021 800.543 425.888 818.369 410.06 834.499C397.421 847.374 383.993 859.828 369.39 870.352C357.808 878.694 348.526 873.709 345.555 859.576C343.893 851.687 343.927 843.463 342.601 835.507C339.58 817.463 330.012 812.679 315.124 823.337C302.955 832.049 291.809 842.506 281.436 853.349C266.196 869.312 252.516 886.768 237.225 902.68C229.185 911.039 219.718 918.458 209.764 924.417C197.881 931.534 189.119 926.968 186.383 913.423C184.889 906.071 185.023 898.417 183.932 890.964C181.012 871.04 170.857 865.938 154.693 877.788C142.389 886.802 131.261 897.662 120.703 908.74C106.822 923.292 94.5521 939.389 80.5702 953.841C71.9091 962.787 62.0396 970.995 51.5154 977.592C38.7084 985.615 29.4095 980.613 26.8582 965.674C25.549 957.987 25.6665 950.047 24.374 942.343C21.6716 926.28 15.0583 922.688 -0.182434 928.328L-0.199219 928.311Z" fill="#E7F5ED"/>
<path d="M671.2 518.759V537.223C664.151 541.654 657.437 546.841 649.934 550.298C640.719 554.562 633.971 551.389 631.017 541.621C629.02 535.024 628.617 527.924 627.828 521.009C626.804 512.113 627.173 501.941 617.908 497.51C608.559 493.045 600.183 499.087 593.654 505.029C580.461 517.031 567.889 529.77 555.585 542.695C541.352 557.684 528.209 573.73 513.556 588.266C506.791 594.98 498.013 600.083 489.352 604.296C481.563 608.089 474.883 604.615 472.181 596.289C470.234 590.264 469.78 583.734 468.79 577.406C468.018 572.455 467.934 567.352 466.692 562.518C463.52 550.131 456.117 546.421 444.754 552.464C437.201 556.492 429.832 561.544 423.823 567.587C411.016 580.428 399.451 594.51 386.812 607.535C371.873 622.927 357.354 639.007 340.754 652.452C324.003 666.048 312.102 659.602 310.205 638.084C309.954 635.298 310.021 632.478 309.651 629.725C308.98 624.757 308.594 619.671 307.167 614.904C303.877 603.91 297.029 600.603 286.639 605.672C279.942 608.945 273.194 612.99 267.991 618.227C254.009 632.26 241.051 647.316 227.304 661.6C213.188 676.27 198.988 690.906 184.049 704.704C177.856 710.427 169.597 716.05 160.483 711.502C151.554 707.037 151.856 697.285 150.731 688.724C149.808 681.557 149.506 674.155 147.441 667.307C144.521 657.571 137.622 654.382 128.491 658.847C121.055 662.473 113.603 667.038 107.812 672.846C93.2424 687.482 79.9823 703.411 65.5304 718.182C51.1289 732.919 36.1902 747.153 20.9495 761.017C15.2426 766.204 7.65573 767.95 -0.25 765.499C-0.199645 740.875 -0.199645 716.269 -0.199645 691.645C1.04244 696.16 2.63702 700.608 3.42591 705.19C4.73514 712.878 4.76872 720.851 6.71577 728.354C9.46851 738.912 16.7364 742.302 26.6564 737.636C33.1354 734.581 39.6144 730.636 44.7002 725.668C57.4736 713.18 69.3574 699.786 81.7951 686.962C97.9255 670.362 113.922 653.61 130.673 637.664C136.397 632.226 144.269 627.409 152.812 631.286C161.742 635.348 161.742 644.63 162.833 652.922C163.807 660.374 164.075 668.045 166.106 675.229C168.976 685.451 175.724 688.238 185.594 684.125C189.672 682.43 193.852 680.298 197.108 677.394C207.129 668.498 217.25 659.619 226.381 649.867C242.612 632.528 257.769 614.165 274.168 596.994C280.815 590.045 289.023 584.154 297.449 579.42C309.316 572.774 317.255 576.869 320.444 589.978C321.435 594.023 321.67 598.253 322.19 602.399C322.878 607.938 322.996 613.611 324.288 618.999C327.326 631.722 335.383 635.868 346.73 629.406C355.609 624.337 364.27 618.127 371.286 610.775C388.826 592.378 404.906 572.572 422.531 554.26C432.518 543.87 443.629 534.151 455.631 526.246C467.85 518.206 477.166 523.241 479.918 537.71C481.53 546.186 481.547 554.965 483.124 563.441C485.928 578.531 494.857 583.046 507.849 574.721C518.323 568.007 528.226 559.832 536.803 550.819C555.098 531.583 571.967 511.005 590.263 491.769C597.665 483.998 606.696 477.334 616.011 471.946C627.425 465.35 636.204 469.949 638.906 482.94C640.316 489.738 640.383 496.805 641.105 503.754C643.371 525.306 652.821 530.005 671.2 518.776V518.759Z" fill="#E7F5ED"/>
<path d="M671.201 161.238C670.177 153.852 669.203 146.45 668.129 139.065C665.41 120.282 654.802 114.592 639.88 126.107C624.958 137.621 611.664 151.385 598.488 164.981C583.734 180.221 570.356 196.805 555.468 211.911C548.956 218.542 540.697 223.93 532.338 228.143C522.754 232.977 515.319 229.066 512.381 218.693C510.803 213.12 510.619 207.145 509.897 201.337C508.722 191.736 509.863 180.221 499.507 175.538C489.218 170.872 480.204 178.09 473.322 184.72C458.048 199.407 443.831 215.185 429.161 230.492C415.834 244.39 402.758 258.557 388.961 271.968C384.295 276.483 378.017 279.756 371.941 282.308C363.297 285.917 357.002 283.097 354.099 274.15C351.984 267.621 351.514 260.521 350.658 253.639C349.533 244.525 350.238 233.917 340.671 229.301C331.019 224.651 322.341 230.929 315.778 237.19C300.454 251.809 286.052 267.403 271.298 282.627C256.93 297.465 242.881 312.605 228.11 327.023C223.881 331.152 217.939 333.938 212.299 336.137C204.074 339.343 197.646 336.54 194.977 328.181C192.812 321.366 192.274 313.998 191.385 306.814C190.294 297.968 190.915 287.746 181.767 283.13C172.082 278.246 163.404 284.456 156.824 290.65C141.819 304.8 127.669 319.873 113.385 334.778C99.873 348.894 86.8646 363.497 73.1177 377.395C68.7032 381.86 62.9627 385.317 57.2894 388.221C45.3553 394.331 37.5335 390.521 34.21 377.361C33.119 373.064 32.9176 368.532 32.3637 364.101C32.1287 362.154 32.0951 360.19 31.9441 358.243C30.1313 334.308 20.0771 329.406 -0.199219 342.516C-0.199219 336.355 -0.199219 330.212 -0.199219 324.052C3.40956 321.568 7.01833 319.033 10.6439 316.583C18.0796 311.564 25.8511 305.051 35.1332 309.651C44.3146 314.199 43.7775 324.455 45.0028 333.25C45.9931 340.401 46.3624 347.786 48.4605 354.618C51.079 363.128 57.323 365.947 65.6148 362.758C71.0028 360.694 76.7097 358.042 80.7213 354.08C96.5663 338.37 111.622 321.87 127.3 305.975C142.557 290.499 157.211 274.167 174.012 260.538C189.404 248.066 200.549 253.924 203.352 273.546C204.494 281.552 204.645 289.76 206.407 297.616C209.059 309.432 216.932 313.209 227.741 308.123C232.995 305.656 238.316 302.584 242.428 298.589C254.832 286.521 266.833 274.033 278.684 261.41C292.263 246.942 305.07 231.735 319.068 217.719C325.245 211.525 333.101 206.557 340.989 202.629C350.288 197.997 357.573 201.605 360.561 211.576C362.374 217.652 362.525 224.215 363.616 230.543C364.656 236.552 365.193 242.796 367.292 248.452C370.111 256.022 376.12 258.809 383.489 255.502C390.774 252.246 398.293 248.301 403.933 242.829C417.731 229.418 430.353 214.782 443.73 200.917C458.652 185.475 473.574 169.999 489.151 155.245C495.412 149.303 503.821 144.201 512.767 148.766C521.193 153.08 521.244 162.48 522.234 170.855C523.124 178.325 523.543 185.995 525.641 193.129C528.344 202.26 535.494 205.584 544.071 201.421C551.742 197.695 559.53 193.095 565.455 187.086C580.746 171.594 594.712 154.792 609.835 139.098C622.793 125.653 636.019 112.326 650.32 100.409C655.456 96.1285 664.118 96.0782 671.184 94.0975V161.238H671.201Z" fill="#E7F5ED"/>
<path d="M671.2 997.131C670.981 996.946 670.646 996.812 670.579 996.594C663.999 976.62 655.64 972.994 639.358 986.405C623.295 999.649 609.196 1015.34 594.643 1030.35C580.645 1044.77 567.569 1060.09 553.285 1074.21C547.679 1079.75 540.293 1083.98 533.009 1087.2C524.599 1090.94 517.953 1087.67 515.233 1078.77C513.152 1071.94 512.816 1064.56 511.809 1057.39C510.584 1048.63 511.322 1038.39 501.789 1033.99C492.288 1029.61 483.98 1035.72 477.669 1041.7C462.075 1056.45 447.338 1072.11 432.467 1087.59C419.895 1100.68 407.843 1114.27 395.053 1127.15C390.403 1131.83 384.613 1135.64 378.771 1138.83C365.948 1145.85 357.152 1141.58 354.299 1127.2C353.157 1121.47 353.074 1115.53 352.452 1109.71C351.58 1101.37 351.513 1092.13 342.902 1087.75C334.006 1083.22 325.949 1088.73 320.091 1094.2C304.011 1109.22 288.854 1125.25 273.462 1141C259.027 1155.77 245.146 1171.09 230.241 1185.34C223.275 1191.99 214.362 1198.97 204.006 1194.47C193.75 1190.01 194.892 1178.83 193.801 1169.51C193.247 1164.8 193.264 1159.98 192.324 1155.35C189.319 1140.36 180.356 1135.57 167.566 1143.75C156.857 1150.6 146.803 1158.99 137.991 1168.19C122.733 1184.12 109.137 1201.64 93.9131 1217.6C84.3289 1227.64 73.7543 1237.07 62.3405 1244.89C48.2915 1254.53 38.5562 1249.54 35.6692 1232.64C34.5446 1226.04 34.5278 1219.28 33.6382 1212.63C31.0197 1193.1 21.9726 1188.85 4.88548 1199C3.22376 1199.99 1.51169 1200.93 -0.183594 1201.89C-0.183594 1196.3 -0.183594 1190.7 -0.183594 1185.11C6.83254 1180.09 13.4794 1174.43 20.9319 1170.18C34.0242 1162.75 42.2489 1166.63 45.438 1181.21C46.5626 1186.37 46.5123 1191.75 47.2172 1196.99C48.4425 1206.02 47.6201 1216.78 57.4897 1221.16C67.2417 1225.49 75.7853 1219 82.3483 1212.78C97.354 1198.62 111.42 1183.46 125.821 1168.66C140.81 1153.25 155.262 1137.3 170.889 1122.57C177.553 1116.29 186.298 1109.39 196.469 1114.47C206.037 1119.28 205.114 1129.87 206.255 1138.91C207.061 1145.26 207.296 1151.8 209.075 1157.88C212.063 1168.07 218.894 1171.31 228.495 1166.86C234.991 1163.86 241.588 1160.05 246.606 1155.04C260.672 1141.08 273.832 1126.21 287.562 1111.91C301.678 1097.22 315.626 1082.3 330.531 1068.43C337.061 1062.36 345.671 1055.83 355.44 1060.68C364.991 1065.43 364.252 1076 365.478 1085.05C366.367 1091.66 366.585 1098.5 368.449 1104.84C371.185 1114.19 377.731 1117.26 386.694 1113.64C392.048 1111.45 397.638 1108.67 401.683 1104.67C416.789 1089.78 431.292 1074.29 446.012 1059.02C459.574 1044.95 472.767 1030.48 486.884 1016.99C491.936 1012.15 498.969 1009.01 505.599 1006.31C511.792 1003.78 517.331 1006.41 520.185 1012.61C521.914 1016.35 523.022 1020.5 523.659 1024.57C524.918 1032.56 525.002 1040.79 526.781 1048.64C529.551 1060.9 537.608 1064.64 548.803 1058.8C555.417 1055.34 561.996 1051.09 567.216 1045.82C580.594 1032.35 592.981 1017.91 606.141 1004.21C620.442 989.326 634.642 974.253 650 960.506C655.371 955.689 664.016 954.547 671.166 951.744V997.064L671.2 997.131Z" fill="#E7F5ED"/>
<path d="M671.2 362.658V391.192C664.301 387.634 657.402 388.322 651.36 392.636C643.202 398.46 634.776 404.251 627.894 411.435C613.98 425.954 601.575 441.933 587.543 456.318C574.535 469.645 561.107 482.906 546.185 493.916C532.992 503.652 522.77 497.995 520.151 481.747C518.825 473.489 518.792 464.996 517.13 456.822C514.243 442.773 505.381 438.459 493.161 445.928C483.963 451.551 475.084 458.349 467.681 466.154C451.131 483.577 436.092 502.426 419.458 519.749C409.471 530.155 398.427 539.941 386.476 547.931C373.216 556.793 363.631 551.489 360.946 535.61C360.056 530.39 359.888 525.036 359.385 519.749C359.116 516.962 359.032 514.142 358.445 511.423C355.256 496.501 346.527 492.154 333.435 499.758C326.251 503.92 319.302 509.023 313.495 514.914C301.527 527.033 290.617 540.193 278.85 552.53C264.398 567.67 249.946 582.843 234.639 597.077C228.294 602.969 219.817 608.944 210.367 604.076C201.522 599.528 201.891 589.776 200.85 581.198C200.028 574.283 199.692 567.183 197.812 560.553C194.942 550.448 187.943 547.125 178.375 551.59C171.644 554.729 164.88 558.807 159.643 563.994C145.963 577.539 133.341 592.159 119.88 605.94C104.303 621.885 89.3476 638.721 72.143 652.736C55.8615 665.996 44.112 659.534 41.9468 638.469C41.6614 635.683 41.8293 632.863 41.4432 630.093C40.7047 624.856 40.3018 619.468 38.7408 614.466C35.4174 603.841 28.7705 600.669 18.7163 605.503C12.0023 608.726 6.094 613.61 -0.183594 617.756C-0.183594 612.167 -0.183594 606.561 -0.183594 600.971C2.18309 599.175 4.54978 597.379 6.93325 595.6C14.3186 590.128 21.2173 583.783 29.1902 579.402C41.2586 572.789 49.0132 576.499 52.0681 589.927C53.9145 598.034 53.948 606.544 55.1733 614.819C57.7079 632.091 67.5942 637.21 82.0797 627.441C92.6375 620.324 102.49 611.73 111.252 602.482C128.524 584.237 144.386 564.632 161.741 546.454C169.53 538.296 178.929 531.213 188.698 525.523C199.944 518.976 208.236 523.257 211.207 535.862C212.667 542.056 212.466 548.619 213.456 554.947C214.765 563.356 214.211 573.326 223.678 577.338C232.876 581.232 240.967 575.676 247.127 569.869C262.351 555.551 276.769 540.361 291.372 525.388C306.562 509.812 321.182 493.648 336.876 478.609C343.573 472.197 352.469 465.6 362.473 470.535C371.957 475.218 371.218 485.86 372.393 494.94C373.283 501.822 373.736 508.905 375.767 515.468C378.402 523.962 384.646 526.798 392.871 523.66C398.007 521.696 403.479 519.245 407.339 515.502C422.161 501.134 436.445 486.246 450.796 471.408C465.348 456.368 479.498 440.943 494.353 426.223C498.583 422.043 504.39 419.022 509.996 416.773C519.044 413.13 525.489 416.118 528.426 425.417C530.424 431.694 530.81 438.526 531.666 445.139C532.874 454.455 531.817 465.298 542.157 469.931C552.06 474.379 560.318 467.631 566.914 461.589C580.292 449.386 592.864 436.26 605.369 423.134C619.989 407.776 633.719 391.511 648.808 376.64C654.935 370.597 663.663 367.207 671.216 362.607L671.2 362.658Z" fill="#E7F5ED"/>
<path d="M-0.199219 466.724C6.68263 472.784 14.4037 472.801 21.2352 467.698C31.6923 459.876 42.3004 451.886 51.2804 442.47C68.6193 424.275 84.5315 404.704 101.753 386.391C108.937 378.737 117.413 371.973 126.259 366.266C140.308 357.202 149.741 361.583 152.779 377.865C154.206 385.519 154.139 393.441 155.498 401.129C158.503 418.065 168.524 423.285 182.153 412.744C197.931 400.541 212.03 386.005 226.029 371.688C240.666 356.716 253.892 340.367 268.562 325.428C274.689 319.184 282.511 314.132 290.383 310.204C300.538 305.152 307.705 308.945 310.844 319.889C312.304 324.942 312.673 330.313 313.378 335.55C313.68 337.749 313.512 340.014 313.714 342.247C315.711 364.453 327.243 370.748 344.565 357.001C360.208 344.597 373.804 329.541 387.736 315.089C401.097 301.208 413.417 286.319 426.828 272.488C432.384 266.748 439.182 261.864 446.164 257.919C459.206 250.567 468.287 255.166 471.124 269.92C472.114 275.107 472.198 280.478 472.819 285.749C473.272 289.626 473.557 293.57 474.548 297.313C477.938 310.003 485.894 314.249 497.073 307.317C507.866 300.637 518.021 292.379 526.967 283.332C539.522 270.642 550.483 256.375 562.551 243.182C571.783 233.094 581.367 223.258 591.438 214.009C596.491 209.377 602.668 205.6 608.928 202.713C618.748 198.181 625.915 201.706 629.07 211.995C630.363 216.225 630.732 220.74 631.303 225.171C632.058 230.979 632.058 236.955 633.384 242.628C636.573 256.341 644.446 259.95 656.934 253.639C661.868 251.155 666.451 247.999 671.201 245.146V260.252C665.007 265.439 659.082 271.028 652.536 275.711C645.553 280.696 637.933 286.873 628.835 282.157C619.99 277.574 620.258 267.873 619.184 259.312C618.345 252.682 618.261 245.834 616.515 239.456C613.528 228.495 606.192 225.104 595.97 229.938C589.995 232.775 583.885 236.266 579.269 240.899C565.069 255.116 551.692 270.139 537.76 284.641C523.661 299.328 509.712 314.216 494.858 328.114C488.311 334.224 479.785 340.703 469.982 335.869C460.381 331.135 461.12 320.594 459.861 311.564C458.904 304.682 458.585 297.565 456.504 291.036C453.701 282.241 446.97 279.219 438.577 282.895C432.266 285.665 425.754 289.139 420.953 293.923C406.132 308.694 392.335 324.505 377.648 339.41C362.004 355.272 346.831 371.856 329.509 385.703C315.157 397.184 304.348 391.209 301.713 372.963C300.521 364.688 300.353 356.195 298.557 348.071C295.855 335.869 287.429 331.689 276.619 337.765C268.193 342.499 259.935 348.273 253.254 355.188C238.131 370.849 224.485 387.952 209.345 403.613C196.974 416.403 184.201 429.16 169.967 439.717C155.683 450.292 145.041 444.551 142.54 426.927C141.449 419.189 141.55 411.233 140.023 403.596C137.136 389.228 127.854 384.629 115.5 392.468C105.462 398.829 95.8949 406.517 87.7206 415.127C69.6432 434.178 52.8414 454.421 34.9989 473.707C25.1126 484.365 14.2695 494.185 -0.199219 498.616V466.724Z" fill="#E7F5ED"/>
<path d="M671.201 829.28V844.387C662.976 851.353 654.986 858.637 646.443 865.2C639.376 870.639 631.471 876.933 622.121 872.468C612.789 868.02 613.326 857.848 612.235 848.986C611.312 841.55 610.724 833.896 608.458 826.83C605.874 818.773 599.663 816.104 591.774 819.243C585.899 821.576 579.706 824.53 575.325 828.878C559.497 844.588 544.054 860.736 529.049 877.252C513.825 894.003 499.843 912.047 479.902 923.629C466.122 931.635 457.545 927.573 454.389 912.131C453.449 907.515 453.533 902.681 452.794 898.015C451.838 891.989 451.217 885.745 449.152 880.089C446.382 872.502 440.407 869.631 433.038 872.871C425.754 876.077 418.167 879.971 412.594 885.477C397.521 900.382 383.724 916.546 368.903 931.736C354.501 946.49 340.469 961.865 324.456 974.706C308.376 987.597 297.751 982.259 294.512 962.033C293.891 958.189 294.126 954.211 293.522 950.367C292.649 944.879 292.028 939.222 290.131 934.069C287.16 926.063 281.117 923.041 273.43 926.667C265.474 930.427 257.35 934.992 251.156 941.085C237.04 954.966 224.384 970.325 210.503 984.475C195.296 999.967 180.323 1015.95 163.438 1029.46C149.07 1040.96 138.227 1035.13 135.575 1016.94C134.366 1008.66 134.282 1000.15 132.385 992.061C129.347 979.086 121.576 975.293 109.994 982.057C100.477 987.63 91.2958 994.512 83.6754 1002.47C67.8304 1018.98 53.731 1037.2 37.7013 1053.53C26.0861 1065.36 12.507 1075.3 -0.199219 1086.09C-0.199219 1077.7 -0.199219 1069.31 -0.199219 1060.91C6.53157 1058.78 14.9073 1058.5 19.6742 1054.2C36.0228 1039.48 51.2636 1023.52 66.6219 1007.74C80.0499 993.924 92.7897 979.422 106.436 965.826C111.27 960.992 117.514 957.182 123.724 954.211C134.601 948.991 142.205 952.818 145.109 964.668C146.552 970.576 146.703 976.821 147.391 982.914C148.398 991.776 147.945 1002.05 157.211 1006.46C166.509 1010.89 174.952 1004.89 181.465 998.926C194.859 986.724 207.633 973.799 220.137 960.673C234.405 945.718 247.648 929.772 262.268 915.169C268.629 908.824 276.854 903.873 285.028 899.929C293.706 895.732 300.387 899.257 303.374 908.371C305.002 913.356 305.523 918.744 306.295 923.981C307.151 929.772 307.134 935.748 308.527 941.387C311.565 953.724 318.968 957.048 330.583 951.626C334.091 949.981 337.666 948.051 340.52 945.466C350.641 936.285 360.964 927.221 370.296 917.251C386.141 900.314 400.828 882.287 416.942 865.62C424.193 858.134 433.206 851.89 442.388 846.821C452.341 841.332 459.861 845.142 462.933 856.069C464.645 862.179 464.896 868.725 465.702 875.087C466.843 884.151 465.887 894.96 475.84 899.223C485.894 903.537 494.639 896.823 501.404 890.395C516.175 876.379 530.056 861.44 544.155 846.72C557.684 832.604 570.608 817.9 584.624 804.287C590.062 799 597.38 795.207 604.447 792.186C612.285 788.845 618.076 791.816 621.131 799.856C622.877 804.472 623.565 809.558 624.287 814.493C625.126 820.3 625.025 826.259 626.15 831.983C628.97 846.384 637.832 850.614 650.606 843.346C657.806 839.251 664.336 833.98 671.167 829.247L671.201 829.28Z" fill="#E7F5ED"/>
<path d="M671.202 634.574V656.395C661.568 662.387 650.792 667.12 642.567 674.64C629.827 686.289 619.035 700.036 607.033 712.507C591.944 728.184 576.82 743.861 560.975 758.733C555.017 764.322 546.909 769.442 538.081 765.262C529.285 761.1 529.403 751.717 528.328 743.425C527.405 736.241 527.137 728.856 525.274 721.923C522.42 711.332 515.169 707.874 505.367 712.742C498.199 716.3 491.083 720.782 485.409 726.355C472.653 738.859 460.953 752.438 448.583 765.329C433.711 780.839 418.974 796.499 403.398 811.287C397.053 817.313 388.56 823.221 379.194 818.941C369.358 814.459 370.063 803.901 368.955 794.804C368.183 788.442 367.897 781.93 366.202 775.82C363.114 764.792 355.93 761.452 345.708 766.605C338.809 770.096 331.91 774.41 326.489 779.832C312.876 793.461 300.422 808.249 286.91 821.979C271.082 838.059 255.606 854.726 238.099 868.826C224.419 879.837 214.164 874.331 210.941 857.026C210.135 852.662 210.186 848.13 209.531 843.715C208.759 838.495 208.205 833.141 206.577 828.156C203.522 818.823 197.261 815.567 188.331 819.612C181.315 822.784 174.199 826.897 168.794 832.268C154.527 846.418 141.434 861.742 127.352 876.094C111.926 891.804 96.954 908.203 79.8668 921.933C65.0792 933.817 54.3033 928.026 51.4834 909.277C50.1574 900.449 49.9224 891.385 47.8075 882.774C45.3233 872.636 38.1225 869.43 28.5215 873.391C23.9224 875.288 19.6255 878.091 15.5467 880.961C10.1419 884.755 5.05607 889.018 -0.164062 893.097C-0.164062 888.615 -0.164062 884.15 -0.164062 879.669C11.3672 869.615 22.1936 858.536 34.648 849.775C49.402 839.368 59.5234 844.571 62.0747 862.313C63.0986 869.497 63.0986 876.832 64.391 883.949C67.4123 900.583 76.3252 905.132 90.4917 896.152C100.059 890.076 109.056 882.589 116.878 874.365C131.682 858.788 144.892 841.651 159.864 826.242C171.077 814.711 183.246 803.717 196.455 794.636C208.474 786.361 217.823 791.43 220.844 805.848C222.103 811.824 222.019 818.085 222.825 824.161C223.412 828.575 223.932 833.107 225.426 837.236C228.548 845.914 234.943 849.221 243.353 845.528C250.151 842.54 257.066 838.646 262.303 833.51C276.235 819.83 289.142 805.11 302.738 791.078C317.677 775.652 332.565 760.16 348.209 745.489C354.151 739.917 362.123 734.579 371.019 738.574C380.335 742.737 380.1 752.405 381.158 760.965C382.014 767.881 382.333 774.947 384.095 781.628C387.016 792.722 393.965 795.878 404.489 791.094C409.759 788.694 415.198 785.757 419.243 781.728C433.678 767.36 447.458 752.355 461.625 737.718C476.178 722.679 490.462 707.371 505.686 693.053C512.215 686.91 520.809 680.481 530.544 685.181C540.179 689.83 539.574 700.355 540.498 709.486C541.018 714.488 541.169 719.557 542.109 724.475C544.878 738.943 553.506 743.257 566.38 736.275C571.969 733.236 577.576 729.628 582.007 725.113C595.871 710.963 608.863 695.94 622.778 681.824C638.606 665.761 655.072 650.319 671.253 634.608L671.202 634.574Z" fill="#E7F5ED"/>
<path d="M-0.199219 812.494C-0.199219 805.78 -0.199219 799.066 -0.199219 792.352C6.56514 787.955 14.2023 784.446 19.926 778.958C32.6155 766.805 44.3482 753.629 56.5005 740.906C71.5567 725.179 86.3275 709.166 101.921 693.975C106.503 689.511 113.217 686.892 119.36 684.441C125.772 681.89 131.076 684.828 133.879 690.853C135.726 694.815 136.75 699.296 137.404 703.66C138.395 710.29 138.311 717.088 139.486 723.685C142.205 739.11 151.218 743.458 164.747 735.77C170.286 732.614 175.674 728.838 180.29 724.457C189.421 715.813 198.183 706.766 206.709 697.534C221.883 681.101 236.385 664.065 251.945 648.018C258.055 641.724 265.793 636.587 273.614 632.492C284.474 626.785 292.195 630.578 295.066 642.412C296.694 649.143 296.878 656.226 297.701 663.141C300.588 687.631 311.582 693.119 330.583 677.526C345.824 665.021 359.117 650.083 372.814 635.765C385.369 622.639 396.649 608.254 409.707 595.682C417.378 588.297 426.929 582.405 436.513 577.622C444.083 573.845 450.428 577.269 452.996 585.41C455.144 592.225 455.463 599.61 456.537 606.76C457.897 615.757 456.907 626.533 466.776 630.948C476.495 635.295 485.005 628.866 491.601 622.689C506.053 609.144 519.716 594.759 533.413 580.442C547.327 565.923 560.604 550.782 574.805 536.566C579.823 531.547 586.353 527.619 592.848 524.598C602.785 519.982 609.986 523.289 612.906 533.863C614.887 541.03 615.223 548.701 615.911 556.187C618.093 579.434 628.919 584.705 647.937 571.193C656.061 565.419 663.446 558.638 671.184 552.327V565.755C668.767 567.987 666.4 570.27 663.95 572.469C653.543 581.751 643.858 592.057 632.528 600.046C616.633 611.259 606.293 605.904 603.876 586.635C603.037 579.988 603.003 573.207 601.879 566.611C598.992 549.675 589.475 545.008 575.191 554.425C565.707 560.686 556.694 568.105 548.905 576.38C531.08 595.28 514.597 615.472 496.62 634.238C488.429 642.798 478.626 650.267 468.421 656.343C457.075 663.108 449.337 658.995 445.862 646.272C444.905 642.798 444.637 639.139 444.217 635.53C443.529 629.706 443.462 623.747 442.27 618.04C439.316 603.89 430.94 599.711 418.435 606.727C411.201 610.789 404.101 615.74 398.361 621.666C384.345 636.084 371.555 651.694 357.523 666.095C343.524 680.463 329.592 695.184 313.848 707.437C299.01 718.985 288.301 713.194 285.498 694.445C285.045 691.407 285.179 688.302 284.81 685.247C284.172 679.993 283.87 674.605 282.511 669.52C279.321 657.619 272.205 654.329 260.992 659.482C256.712 661.446 252.381 663.813 248.957 666.968C238.483 676.603 228.077 686.372 218.308 696.695C200.835 715.158 184.184 734.41 166.425 752.572C160.954 758.161 153.333 762.156 146.032 765.328C137.841 768.887 131.462 765.782 128.978 757.221C126.83 749.819 126.175 741.913 125.47 734.159C123.221 709.77 112.646 704.567 92.7058 718.431C87.9052 721.771 83.2054 725.447 79.1603 729.644C68.6864 740.503 58.7665 751.9 48.3262 762.794C32.2798 779.495 15.9815 795.944 -0.199219 812.494Z" fill="#E7F5ED"/>
<path d="M671.2 909.85V928.313C662.22 935.346 652.284 941.473 644.445 949.613C628.768 965.928 614.769 983.855 599.042 1000.14C588.249 1011.31 576.533 1022.01 563.776 1030.79C550.785 1039.72 541.486 1034.73 538.465 1019.32C537.558 1014.69 537.592 1009.87 536.87 1005.19C535.98 999.414 535.477 993.439 533.513 988.017C530.492 979.625 524.264 976.738 516.14 980.447C509.124 983.636 501.823 987.514 496.502 992.902C480.221 1009.38 465.198 1027.11 449 1043.68C435.572 1057.41 422.094 1071.42 406.904 1083.05C392.083 1094.4 381.861 1089.03 378.89 1070.7C378.185 1066.3 378.218 1061.79 377.547 1057.37C376.758 1052.15 376.204 1046.78 374.442 1041.86C371.42 1033.42 365.428 1030.58 357.17 1033.99C351.312 1036.41 345.252 1039.45 340.737 1043.74C327.427 1056.47 314.687 1069.81 301.997 1083.17C288.351 1097.57 275.444 1112.68 261.395 1126.66C255.587 1132.44 248.101 1136.98 240.632 1140.53C231.5 1144.86 224.535 1141.48 221.614 1131.86C219.701 1125.54 219.449 1118.69 218.442 1112.09C217.686 1107.14 217.435 1102.02 216.008 1097.25C213.037 1087.28 206.038 1083.79 196.588 1088.12C190.327 1090.99 183.898 1094.59 179.115 1099.42C163.974 1114.66 149.338 1130.44 134.92 1146.4C120.115 1162.78 106.318 1180.24 86.9649 1191.69C72.7647 1200.1 63.4826 1195.55 60.5956 1179.28C59.9578 1175.72 60.0081 1172.03 59.5717 1168.44C58.9339 1163.19 58.6486 1157.8 57.2722 1152.73C53.8481 1140.16 46.8823 1136.9 35.2671 1142.71C29.5769 1145.54 24.189 1149.29 19.3213 1153.4C12.4898 1159.14 6.24579 1165.59 -0.25 1171.73C-0.25 1167.25 -0.25 1162.78 -0.25 1158.3C12.3555 1146.06 24.5414 1133.34 37.7512 1121.79C44.2806 1116.09 52.5053 1109.79 62.0056 1114.39C71.3548 1118.92 70.868 1129.03 71.9591 1137.84C72.7815 1144.47 72.9997 1151.3 74.7789 1157.66C77.7331 1168.2 84.9674 1171.65 94.7699 1166.73C102.155 1163.02 109.658 1158.47 115.348 1152.59C131.865 1135.54 147.106 1117.26 163.622 1100.21C175.825 1087.62 188.397 1075.05 202.395 1064.61C216.998 1053.71 226.952 1058.72 230.057 1076.56C231.484 1084.78 231.517 1093.28 233.179 1101.45C235.865 1114.56 244.375 1118.79 256.091 1112.23C264.047 1107.76 271.768 1102.21 278.096 1095.69C292.296 1081.06 305.052 1065.04 319.32 1050.49C333.15 1036.37 347.183 1022.16 362.893 1010.31C376.439 1000.09 386.711 1005.83 389.246 1022.68C390.32 1029.85 390.303 1037.2 391.529 1044.33C394.55 1061.84 404.017 1066.45 418.687 1056.6C428.355 1050.12 437.486 1042.42 445.476 1033.94C461.388 1017.07 475.873 998.844 491.886 982.076C501.068 972.441 511.357 963.461 522.452 956.176C536.148 947.179 545.85 952.484 548.468 968.799C549.308 974.035 549.375 979.39 550.013 984.66C550.516 988.806 550.936 993.053 552.195 996.997C555.384 1006.95 562.316 1010.49 571.716 1006.03C578.681 1002.7 585.714 998.542 591.153 993.17C604.665 979.826 617.153 965.475 630.278 951.745C643.757 937.646 657.504 923.832 671.133 909.883L671.2 909.85Z" fill="#E7F5ED"/>
<path d="M671.201 50.4572V68.9207C662.859 74.9129 653.392 79.8309 646.409 87.1156C627.476 106.905 610.103 128.155 591.12 147.877C581.737 157.629 570.843 166.358 559.379 173.558C548.486 180.407 539.741 175.774 536.988 163.135C535.158 154.726 535.007 145.947 533.698 137.403C531.13 120.669 521.126 115.549 507.094 125.117C496.116 132.603 485.894 141.633 476.73 151.285C460.969 167.902 446.718 185.979 430.957 202.596C422.565 211.442 412.964 219.516 402.742 226.112C389.582 234.589 380.149 229.889 377.295 214.564C375.667 205.802 375.701 196.722 373.938 188.01C371.303 174.951 362.474 170.436 351.06 177.15C341.778 182.622 332.782 189.286 325.363 197.057C308.964 214.228 294.126 232.893 277.693 250.031C267.32 260.857 256.007 271.163 243.687 279.606C230.477 288.653 220.624 283.399 217.955 267.621C216.747 260.488 216.881 253.119 215.723 245.969C212.685 227.22 202.413 222.302 187.021 233.481C175.573 241.789 165.032 251.642 155.297 261.948C139.737 278.381 125.638 296.206 110.028 312.572C102.206 320.763 92.9911 328.014 83.3229 333.922C70.8685 341.526 61.7039 336.776 58.9679 322.374C57.6251 315.257 57.6419 307.905 56.7187 300.705C54.2849 281.469 44.281 276.702 27.8653 286.857C26.4386 287.73 24.9615 288.586 23.7026 289.677C15.6962 296.626 7.75687 303.642 -0.199219 310.625C-0.199219 306.143 -0.199219 301.678 -0.199219 297.197C12.8259 285.011 25.0119 271.751 39.0777 260.924C55.3088 248.419 65.9337 253.505 69.2907 273.53C69.9285 277.374 69.6935 281.352 70.2978 285.212C71.1538 290.701 71.7581 296.374 73.638 301.544C76.5082 309.416 82.7523 312.555 90.3726 309.114C97.8923 305.723 105.529 301.494 111.421 295.854C124.312 283.5 136.162 270.039 148.365 256.98C160.954 243.501 173.039 229.536 186.165 216.595C192.006 210.838 199.408 206.222 206.861 202.647C216.344 198.098 223.377 201.539 226.415 211.593C228.245 217.669 228.496 224.215 229.453 230.543C230.192 235.512 230.36 240.631 231.769 245.398C234.841 255.771 242.159 259.548 251.76 254.798C259.179 251.139 266.548 246.472 272.372 240.682C285.633 227.489 297.651 213.07 310.693 199.642C326.051 183.848 340.939 167.365 357.909 153.467C373.787 140.458 385.537 146.853 387.769 167.499C388.273 172.232 388.525 176.982 389.045 181.716C389.347 184.485 389.716 187.272 390.438 189.957C393.879 202.613 401.365 206.272 413.081 200.246C419.224 197.074 425.082 192.962 430.185 188.312C438.645 180.608 446.668 172.383 454.389 163.924C469.479 147.407 483.83 130.219 499.289 114.089C505.952 107.14 514.11 101.181 522.519 96.4145C534.168 89.818 542.678 94.031 545.582 107.123C547.26 114.71 547.445 122.633 548.452 130.387C550.987 149.673 561.377 155.011 577.154 143.782C588.216 135.893 598.404 126.443 607.754 116.54C623.095 100.275 637.194 82.8522 652.334 66.4029C657.874 60.3939 664.89 55.7444 671.218 50.4907L671.201 50.4572Z" fill="#E7F5ED"/>
<path d="M671.201 273.696V287.124C669.22 288.97 667.189 290.766 665.259 292.663C653.358 304.446 641.911 316.733 629.423 327.845C622.709 333.82 614.4 340.534 604.564 336.086C594.325 331.453 595.198 320.577 594.04 311.244C593.285 305.168 593.1 298.907 591.489 293.066C588.518 282.256 580.864 278.581 570.91 283.7C563.559 287.477 556.207 292.143 550.416 297.967C536.635 311.815 524.08 326.854 510.501 340.92C496.167 355.741 482.286 371.301 466.273 384.125C449.387 397.653 438.729 392.232 435.506 371.016C435.002 367.709 435.053 364.335 434.65 361.012C434.062 356.312 433.743 351.495 432.501 346.963C429.564 336.254 422.027 332.477 411.99 337.244C405.763 340.198 399.519 343.925 394.618 348.692C382.213 360.743 370.464 373.483 358.631 386.139C345.471 400.221 333 414.975 319.253 428.454C312.841 434.731 304.516 439.515 296.325 443.409C288.536 447.119 281.772 443.695 279.07 435.453C277.089 429.444 276.518 422.932 275.578 416.604C274.957 412.475 275.192 408.178 274.319 404.116C271.114 389.143 262.385 384.813 249.327 392.584C241.253 397.402 233.498 403.293 226.969 410.041C213.575 423.888 201.523 439.028 188.162 452.91C175.019 466.556 161.927 480.554 147.022 492.069C130.606 504.742 119.344 498.649 117.178 478.087C116.624 472.8 116.373 467.496 115.768 462.208C113.469 442.134 102.844 437.031 86.0757 448.596C78.0692 454.118 70.3985 460.446 63.802 467.563C46.8827 485.791 30.7859 504.758 14.068 523.188C9.855 527.771 4.58451 531.43 -0.199219 535.542C-0.199219 529.953 -0.199219 524.347 -0.199219 518.757C4.29916 515.518 9.41859 512.866 13.1952 508.921C27.0764 494.385 40.303 479.212 54.1674 464.659C67.2597 450.929 80.4359 437.249 94.401 424.425C101.065 418.299 109.726 412.072 119.377 417.023C128.424 421.673 128.038 431.844 129.045 440.724C129.767 447.085 130.052 453.598 131.748 459.708C134.769 470.618 142.356 474.428 152.192 469.107C160.685 464.525 169.094 458.885 175.775 452.003C191.133 436.175 204.897 418.802 220.289 403.025C233.079 389.899 246.423 376.957 261.11 366.098C274.017 356.547 284.072 361.851 286.875 377.629C288.385 386.122 288.452 394.901 290.131 403.343C292.934 417.426 301.696 421.656 314.05 414.187C322.811 408.899 331.271 402.504 338.304 395.119C353.713 378.938 367.678 361.381 383.12 345.251C394.064 333.803 405.629 322.591 418.435 313.376C433.458 302.583 443.73 307.938 446.45 326.149C447.608 333.87 447.608 341.81 449.202 349.413C452.274 364.033 460.985 368.246 473.675 360.29C483.276 354.264 492.441 346.963 500.229 338.738C516.762 321.315 531.852 302.533 548.351 285.06C557.298 275.576 567.218 266.646 577.96 259.295C592.613 249.274 603.087 254.645 605.622 272.152C606.427 277.674 606.545 283.297 607.216 288.836C607.653 292.428 608.14 296.087 609.281 299.495C612.571 309.364 619.335 312.772 628.835 308.575C634.626 306.024 640.249 302.499 645.033 298.353C654.097 290.515 662.506 281.938 671.184 273.663L671.201 273.696Z" fill="#E7F5ED"/>
<path d="M-0.199219 1321.08C7.11904 1330.99 12.7588 1333.13 23.0312 1326C35.0829 1317.62 46.5302 1307.96 56.7355 1297.38C74.3765 1279.09 90.4734 1259.3 108.03 1240.92C114.862 1233.77 123.389 1227.86 132.05 1222.96C143.027 1216.76 151.252 1220.72 154.055 1232.98C155.968 1241.37 156.136 1250.13 157.395 1258.69C159.98 1276.15 170.118 1281.82 184.134 1271.2C199.811 1259.31 213.709 1244.95 227.54 1230.83C241.992 1216.06 254.966 1199.84 269.485 1185.14C276.032 1178.51 284.239 1173.09 292.531 1168.74C302.518 1163.5 310.072 1167.31 312.975 1178.29C314.671 1184.7 314.654 1191.55 315.577 1198.17C316.769 1206.66 316.265 1216.61 325.262 1220.98C334.695 1225.56 343.104 1219.65 349.499 1213.67C364.388 1199.79 378.454 1185.02 392.637 1170.4C407.408 1155.18 421.692 1139.45 436.698 1124.46C440.911 1120.25 446.668 1117.19 452.224 1114.76C462.244 1110.38 469.025 1113.7 471.996 1124.45C473.692 1130.56 473.994 1137.08 474.716 1143.45C475.739 1152.31 475.219 1162.58 484.249 1167.21C493.918 1172.18 502.629 1165.77 509.192 1159.63C524.433 1145.31 538.784 1130.04 553.286 1114.95C566.647 1101.05 579.404 1086.58 593.083 1073.02C598.119 1068.03 604.699 1064.2 611.194 1061.15C621.081 1056.52 628.08 1059.92 631.085 1070.55C632.814 1076.66 633.233 1083.17 633.938 1089.55C634.945 1098.7 634.307 1109.29 643.976 1113.82C653.274 1118.17 660.928 1111.27 668.347 1106.27C669.271 1105.65 670.261 1105.13 671.201 1104.54V1121.32C668.801 1123.15 666.434 1125.03 663.983 1126.81C658.092 1131.04 652.553 1135.94 646.191 1139.28C634.072 1145.63 625.462 1141.3 622.743 1127.87C621.534 1121.88 621.652 1115.63 620.812 1109.56C619.688 1101.33 619.889 1091.87 611.077 1087.67C602.231 1083.46 594.258 1088.63 588.249 1094.23C572.975 1108.5 558.372 1123.51 543.853 1138.56C530.475 1152.43 517.954 1167.15 504.224 1180.64C498.399 1186.38 490.863 1190.86 483.36 1194.29C474.565 1198.32 467.783 1194.96 464.98 1185.71C462.983 1179.11 462.731 1172 461.623 1165.12C460.767 1159.91 460.432 1154.49 458.719 1149.57C455.614 1140.66 449.505 1137.64 440.944 1141.43C434.146 1144.44 427.097 1148.16 421.96 1153.35C406.048 1169.41 391.378 1186.68 375.483 1202.78C361.014 1217.43 346.495 1232.32 330.264 1244.86C317.071 1255.07 306.362 1249.06 303.828 1232.34C303.039 1227.1 302.904 1221.75 302.317 1216.48C301.948 1213.15 301.578 1209.8 300.689 1206.59C297.147 1193.75 290.013 1190.46 278.046 1196.49C273.346 1198.85 268.495 1201.57 264.836 1205.27C250.115 1220.15 235.983 1235.61 221.38 1250.62C206.793 1265.61 192.258 1280.7 177 1294.98C170.739 1300.84 162.313 1306.11 153.35 1301.65C144.857 1297.42 144.857 1287.93 143.883 1279.57C143.078 1272.66 142.826 1265.56 141.047 1258.88C138.109 1247.85 130.673 1244.17 120.619 1249.39C112.781 1253.46 104.942 1258.51 98.8994 1264.84C74.4269 1290.5 50.6425 1316.82 26.6232 1342.89H-0.199219V1321.07V1321.08Z" fill="#E7F5ED"/>
<path d="M671.201 856.136V867.886C660.777 879.535 650.857 891.72 639.729 902.664C631.437 910.822 622.172 918.358 612.252 924.367C600.284 931.602 592.076 927.221 588.854 913.541C587.897 909.496 587.662 905.266 587.175 901.12C586.621 896.403 586.453 891.636 585.564 886.987C582.693 872.082 573.764 867.5 560.772 875.456C551.809 880.944 543.249 887.658 536.014 895.262C520.236 911.862 505.986 929.906 490.057 946.322C479.063 957.669 467.112 968.478 454.104 977.357C441.431 986.002 432.233 981.05 429.43 965.977C427.801 957.232 427.734 948.168 426.073 939.44C423.538 926.18 415.616 922.387 403.413 928.093C400.157 929.621 396.783 931.35 394.148 933.733C384.211 942.713 374.039 951.525 364.908 961.277C348.694 978.6 333.621 997.029 317.121 1014.08C309.887 1021.57 300.84 1027.8 291.625 1032.75C281.621 1038.12 274.051 1034.23 271.281 1023.21C269.401 1015.71 269.099 1007.79 268.294 1000.03C266.095 978.767 255.722 973.598 238.047 985.23C233.868 987.982 229.638 990.92 226.18 994.478C214.128 1006.9 202.396 1019.62 190.546 1032.24C177.369 1046.29 164.579 1060.73 150.866 1074.22C145.427 1079.58 138.361 1083.72 131.345 1086.9C122.13 1091.08 115.382 1087.75 112.462 1078.05C110.565 1071.72 110.313 1064.89 109.289 1058.29C108.467 1053.07 108.215 1047.65 106.587 1042.68C103.616 1033.59 96.7845 1030.16 88.1906 1034.26C80.738 1037.82 73.168 1042.21 67.394 1047.99C52.9757 1062.36 39.598 1077.78 25.6833 1092.67C17.19 1101.77 8.44506 1110.66 -0.199219 1119.66C-0.199219 1114.63 -0.199219 1109.59 -0.199219 1104.55C11.4496 1092.92 23.4005 1081.56 34.68 1069.57C48.4605 1054.92 61.2507 1039.33 75.3333 1024.98C81.8794 1018.31 89.953 1012.74 98.2112 1008.28C109.289 1002.27 117.38 1006.29 120.116 1018.55C121.744 1025.85 121.727 1033.52 122.684 1040.99C125.403 1062.27 135.742 1067.07 153.367 1055C159.107 1051.08 164.713 1046.71 169.531 1041.73C180.592 1030.26 191.032 1018.21 201.875 1006.55C214.414 993.035 226.818 979.372 239.927 966.414C244.996 961.412 251.425 957.4 257.87 954.261C268.613 949.041 275.746 952.465 278.885 963.946C280.496 969.804 280.899 976.031 281.52 982.124C282.477 991.289 281.856 1001.96 291.39 1006.5C300.957 1011.04 309.685 1004.67 316.332 998.473C330.616 985.162 344.145 971.03 357.607 956.88C370.313 943.519 381.995 929.134 395.222 916.327C402.271 909.496 411.184 904.158 420.047 899.727C427.617 895.95 433.626 899.156 436.933 906.944C438.426 910.486 439.182 914.414 439.736 918.258C440.827 925.71 440.877 933.364 442.539 940.665C445.543 953.976 453.415 957.635 465.517 951.206C472.097 947.698 478.526 943.301 483.83 938.081C495.361 926.717 506.003 914.447 517.266 902.798C533.732 885.762 550.097 868.574 567.234 852.209C572.908 846.787 580.847 841.903 589.391 845.965C598.186 850.144 598.304 859.325 599.344 867.684C600.301 875.422 600.754 883.362 602.869 890.797C605.387 899.643 612.05 902.664 620.628 899.24C626.251 896.991 631.941 893.953 636.389 889.924C648.356 879.065 659.653 867.483 671.234 856.187L671.201 856.136Z" fill="#E7F5ED"/>
<path d="M-0.199219 589.255C-0.199219 584.773 -0.199219 580.309 -0.199219 575.827C4.68522 570.523 9.21717 564.833 14.5548 560.015C27.5464 548.266 40.068 535.728 54.3856 525.808C65.3798 518.187 74.2255 523.172 77.1461 536.433C78.8749 544.288 78.9924 552.496 80.1506 560.502C82.7355 578.546 91.8162 582.994 107.409 573.964C110.061 572.42 112.814 570.842 114.996 568.744C126.058 558.085 137.27 547.578 147.794 536.416C163.69 519.547 178.712 501.839 194.859 485.205C200.566 479.33 208.002 474.664 215.421 471.055C225.442 466.187 233.096 470.065 235.899 480.874C237.56 487.286 237.493 494.134 238.433 500.764C239.642 509.258 239.256 519.127 248.219 523.558C257.367 528.074 265.558 522.316 271.735 516.609C286.673 502.795 300.806 488.092 314.99 473.489C330.163 457.879 344.833 441.782 360.158 426.323C363.968 422.479 369.205 419.693 374.257 417.46C384.63 412.878 391.798 416.185 394.936 426.978C396.481 432.282 396.682 437.972 397.488 443.477C398.293 449 398.478 454.673 400.006 459.994C402.96 470.333 410.295 473.908 420.013 469.477C425.787 466.859 431.629 463.502 436.127 459.138C448.749 446.901 460.818 434.078 472.903 421.287C487.086 406.265 500.766 390.739 515.285 376.035C520.27 370.983 526.783 367.072 533.228 363.933C543.5 358.931 550.685 362.187 553.941 373.098C555.754 379.174 555.821 385.737 556.895 392.048C557.868 397.788 558.422 403.747 560.42 409.152C563.24 416.789 569.047 419.659 576.5 416.554C583.348 413.701 590.448 410.125 595.702 405.056C609.549 391.679 622.457 377.344 635.717 363.362C647.584 350.841 659.418 338.269 671.268 325.73V342.515C655.859 357.79 640.3 372.913 625.059 388.355C609.768 403.848 595.182 420.029 579.504 435.102C573.009 441.329 564.499 447.69 554.696 443.427C544.323 438.912 545.364 427.918 544.038 418.652C543.182 412.576 543.131 406.315 541.553 400.44C538.599 389.581 530.962 385.703 521.059 391.041C512.331 395.741 503.754 401.599 496.821 408.632C482.722 422.949 470.251 438.861 456.202 453.246C442.404 467.379 428.423 481.646 412.779 493.547C399.015 504.004 388.474 498.112 385.957 480.891C384.748 472.616 384.63 464.123 382.818 455.999C379.864 442.806 371.303 438.643 359.805 445.559C350.574 451.114 341.627 457.845 334.225 465.633C317.474 483.241 302.199 502.242 285.448 519.832C275.88 529.886 265.339 539.37 253.909 547.192C239.188 557.263 229.067 551.791 226.65 533.982C225.861 528.174 225.71 522.266 224.972 516.458C224.518 512.883 223.931 509.224 222.672 505.867C219.5 497.307 213.256 494.269 204.678 497.407C200.281 499.019 195.782 501.234 192.308 504.289C182.052 513.32 171.763 522.417 162.447 532.387C146.401 549.508 131.513 567.72 115.248 584.622C108.198 591.941 99.5037 598.134 90.5908 603.069C79.5127 609.212 71.6238 605.234 68.7536 592.813C66.8736 584.706 66.7561 576.213 65.598 567.921C63.0299 549.659 53.3953 545.178 37.6174 554.963C33.589 557.464 29.5942 560.183 26.17 563.423C17.1397 571.815 8.52898 580.611 -0.199219 589.255Z" fill="#E7F5ED"/>
<path d="M-0.199219 867.887C-0.199219 863.406 -0.199219 858.941 -0.199219 854.459C2.33532 852.009 4.95378 849.625 7.40439 847.108C22.343 831.682 36.9796 815.955 52.3378 800.949C56.5509 796.836 62.6438 794.369 68.25 792.036C75.3501 789.082 80.9395 791.952 84.0951 798.716C85.7064 802.191 86.6464 806.102 87.2171 809.912C88.3752 817.633 88.4256 825.556 90.1209 833.142C93.1422 846.755 101.619 850.649 113.687 843.566C121.559 838.95 129.28 833.428 135.558 826.865C150.446 811.355 164.076 794.638 178.93 779.111C190.663 766.842 202.614 754.454 216.025 744.165C233.33 730.922 244.593 736.78 246.725 758.382C247.363 764.777 247.48 771.273 248.655 777.567C251.542 793.026 260.707 797.659 273.933 789.182C283.937 782.754 293.438 775.016 301.629 766.405C319.891 747.17 336.693 726.524 355.122 707.44C363.314 698.946 373.385 691.779 383.674 685.904C393.476 680.315 401.197 684.377 404.017 695.371C405.863 702.605 406.031 710.259 406.971 717.729C409.942 741.144 420.517 746.33 439.098 731.761C452.408 721.321 464.191 708.782 475.924 696.479C491.148 680.516 505.231 663.446 520.656 647.702C526.967 641.256 535.058 636.103 543.165 631.991C552.715 627.157 560.319 630.967 563.089 641.391C564.868 648.054 564.75 655.205 565.825 662.07C567.134 670.496 566.613 680.449 575.862 684.646C585.043 688.825 593.151 683.118 599.395 677.411C613.376 664.621 626.637 651.025 639.779 637.345C650.572 626.099 660.777 614.266 671.234 602.701V617.808C658.511 631.101 645.822 644.429 633.082 657.706C618.781 672.611 604.799 687.818 589.945 702.135C585.127 706.768 578.229 709.588 571.867 712.173C565.522 714.758 560.118 711.955 557.382 705.828C555.485 701.582 554.428 696.831 553.706 692.199C552.766 686.139 552.85 679.912 551.893 673.853C549.325 657.487 539.925 652.737 525.859 661.298C518.289 665.913 510.971 671.436 504.845 677.797C491.484 691.678 479.382 706.768 465.987 720.616C452.626 734.43 439.333 748.63 424.193 760.296C407.743 772.985 396.8 767.01 394.416 746.196C393.627 739.264 393.61 732.197 392.284 725.366C389.565 711.317 380.686 706.667 368.5 714.12C358.597 720.163 349.181 727.615 341.141 735.974C325.682 752.104 311.935 769.88 296.375 785.893C285.364 797.223 273.296 807.898 260.304 816.827C248.571 824.867 239.323 819.949 236.469 805.9C234.858 798.011 234.858 789.804 233.532 781.831C230.527 763.787 220.893 758.886 206.072 769.695C192.862 779.33 180.928 790.945 169.547 802.762C153.081 819.849 138.059 838.346 121.526 855.366C114.862 862.231 106.302 867.72 97.7245 872.1C88.3417 876.884 81.443 873.275 78.3546 863.07C76.6089 857.279 76.4243 851.002 75.4172 844.976C74.4101 838.95 73.9569 832.706 71.9931 826.982C69.2403 818.926 63.2313 816.038 55.3759 819.244C49.0144 821.846 42.485 825.22 37.5502 829.853C24.5251 842.055 12.3224 855.148 -0.199219 867.887Z" fill="#E7F5ED"/>
<path d="M671.201 298.875V312.303C668.935 314.2 666.383 315.845 664.47 318.027C652.855 331.253 641.961 345.185 629.675 357.757C619.201 368.466 607.955 378.839 595.584 387.181C582.66 395.876 573.227 390.739 570.407 375.264C568.863 366.77 568.896 357.992 567.201 349.549C564.381 335.533 555.384 331.052 543.282 338.639C533.211 344.95 523.627 352.604 515.419 361.198C499.977 377.345 486.23 395.103 470.754 411.2C460.381 421.993 449.035 432.282 436.681 440.658C423.505 449.588 413.752 444.233 411.1 428.405C409.724 420.163 409.791 411.653 408.146 403.479C405.226 389.01 396.162 384.663 383.607 392.502C374.224 398.36 365.244 405.443 357.657 413.466C340.57 431.527 324.977 450.981 307.772 468.924C298.389 478.709 287.664 487.572 276.317 494.974C264.5 502.678 255.436 497.878 252.247 484.03C251.307 479.968 251.156 475.722 250.636 471.576C249.931 466.054 249.847 460.363 248.403 455.026C245.08 442.79 237.51 439.349 226.163 445.173C220.02 448.329 213.893 452.24 209.093 457.107C195.195 471.223 182.17 486.212 168.406 500.48C154.089 515.318 139.67 530.139 124.513 544.104C118.555 549.609 110.531 554.964 101.669 550.667C92.9407 546.454 92.9072 537.205 91.8497 528.863C90.8762 521.125 90.423 513.203 88.2577 505.784C85.7232 497.072 78.9588 494.252 70.3649 497.358C66.4876 498.751 62.4592 500.631 59.4043 503.333C48.7458 512.733 38.1042 522.233 28.1674 532.388C18.2643 542.509 9.21717 553.47 -0.199219 564.078C-0.199219 559.596 -0.199219 555.132 -0.199219 550.65C8.07579 541.636 16.2165 532.489 24.6762 523.66C39.3462 508.352 53.8317 492.842 69.19 478.256C75.7361 472.029 84.4475 465.802 94.1157 470.569C103.633 475.269 103.079 485.776 104.036 494.941C104.673 501.034 104.959 507.278 106.553 513.136C109.575 524.214 116.641 527.839 126.88 522.888C134.064 519.413 141.231 514.915 146.804 509.275C161.138 494.806 174.398 479.263 188.447 464.509C201.338 450.981 214.296 437.452 228.026 424.813C234.673 418.686 243.2 412.342 252.952 416.79C262.755 421.271 262.134 431.829 263.208 440.91C263.896 446.717 263.963 452.693 265.323 458.333C268.227 470.434 276.434 474.648 287.277 468.672C295.72 464.006 304.012 458.232 310.693 451.35C325.279 436.327 338.254 419.761 352.924 404.822C366.553 390.941 380.652 377.227 396.162 365.612C408.113 356.649 418.184 362.154 420.97 376.992C422.296 384.092 422.195 391.461 423.202 398.645C425.922 417.998 436.211 423.336 451.922 411.922C464.46 402.808 475.773 391.746 486.532 380.484C502.528 363.715 517.165 345.655 533.161 328.887C539.808 321.921 547.965 315.996 556.341 311.212C568.242 304.431 577.003 308.795 579.941 322.206C581.367 328.719 581.586 335.5 582.089 342.18C583.801 364.253 594.762 369.657 613.108 357.404C614.736 356.313 616.448 355.289 617.841 353.93C629.171 342.768 640.535 331.639 651.646 320.259C658.394 313.344 664.705 306.009 671.218 298.875H671.201Z" fill="#E7F5ED"/>
<path d="M671.201 881.314V894.742C660.274 906.643 649.599 918.779 638.369 930.377C624.203 944.997 609.936 959.566 595.014 973.397C588.921 979.037 580.713 983.971 572.052 979.876C563.357 975.78 563.374 966.247 562.3 957.955C561.427 951.325 561.444 944.493 559.916 938.031C557.113 926.13 549.61 922.656 538.549 927.591C535.007 929.169 531.382 931.032 528.528 933.6C518.541 942.529 508.37 951.342 499.222 961.094C483.175 978.231 468.22 996.392 452.056 1013.4C445.409 1020.39 437.335 1026.4 429.01 1031.34C416.321 1038.86 407.357 1034.44 404.47 1020.11C403.262 1014.12 403.346 1007.87 402.523 1001.8C401.415 993.539 401.432 984.19 392.368 980.212C383.758 976.418 376.171 981.471 370.263 986.758C356.969 998.658 344.145 1011.15 331.825 1024.05C317.742 1038.81 304.801 1054.65 290.584 1069.26C284.256 1075.75 276.485 1081.29 268.495 1085.67C256.779 1092.1 248.521 1087.87 245.466 1074.8C244.207 1069.39 244.14 1063.72 243.452 1058.16C242.948 1054.02 242.697 1049.79 241.656 1045.76C238.4 1033.03 230.779 1029.26 219.13 1035.6C211.611 1039.7 204.242 1044.78 198.283 1050.88C184.771 1064.62 172.586 1079.65 159.107 1093.41C144.286 1108.52 129.599 1124.03 113.032 1137.07C98.8994 1148.2 87.6367 1141.83 85.4211 1123.76C84.5482 1116.54 84.5315 1109.19 83.2054 1102.07C80.3352 1086.56 71.3385 1082.16 57.9272 1090.3C49.8872 1095.19 42.2333 1101.15 35.5864 1107.83C23.2159 1120.25 11.6846 1133.56 -0.199219 1146.52C-0.199219 1142.04 -0.199219 1137.57 -0.199219 1133.09C0.891806 1132.33 2.20104 1131.78 3.04029 1130.81C15.5787 1116.54 27.5296 1101.67 40.7562 1088.07C49.8369 1078.74 59.975 1070.03 70.9188 1063.05C83.8768 1054.79 92.6722 1059.4 95.6263 1074.59C97.2713 1083.05 97.2545 1091.83 98.8323 1100.31C101.568 1114.88 110.38 1119.26 123.103 1111.49C132.302 1105.88 141.13 1099.03 148.566 1091.26C163.807 1075.32 177.504 1057.89 192.795 1042C203.772 1030.6 215.488 1019.51 228.396 1010.44C242.831 1000.3 252.381 1005.47 255.218 1023.06C256.595 1031.59 256.695 1040.35 258.508 1048.78C261.043 1060.61 269.166 1064.79 279.758 1059.07C288.251 1054.49 296.576 1048.76 303.274 1041.88C318.447 1026.27 332.161 1009.23 347.267 993.556C359.436 980.933 371.924 968.311 385.856 957.787C401.432 946.021 411.956 951.459 414.625 970.745C415.767 979.037 415.968 987.513 417.865 995.62C420.567 1007.13 427.953 1010.37 438.729 1005.67C442.035 1004.23 445.493 1002.62 448.111 1000.25C459.055 990.333 470.234 980.564 480.372 969.839C496.284 952.986 510.988 934.993 527.102 918.325C533.967 911.225 542.544 905.334 551.289 900.634C561.679 895.045 568.98 898.972 572.32 910.302C573.411 914.012 573.697 917.973 574.267 921.833C575.375 929.269 575.661 936.94 577.708 944.107C580.344 953.356 587.36 956.729 596.038 952.634C603.507 949.109 611.077 944.695 616.868 938.937C630.934 924.989 643.959 910 657.471 895.498C661.952 890.681 666.619 886.048 671.218 881.331L671.201 881.314Z" fill="#E7F5ED"/>
<path d="M671.201 20.2445V33.6725C660.072 45.8081 649.179 58.1786 637.765 70.0456C623.28 85.1353 608.744 100.191 593.52 114.509C587.309 120.35 579.118 125.772 569.987 121.24C561.007 116.792 561.108 107.174 560.218 98.5465C559.614 92.7054 559.48 86.7635 558.271 81.0566C555.401 67.5614 546.992 63.6002 534.756 69.7938C530.794 71.7912 526.783 74.1076 523.577 77.1289C513.002 87.0656 502.394 97.0359 492.508 107.644C477.653 123.59 463.805 140.492 448.682 156.169C442.002 163.102 433.777 168.943 425.334 173.643C414.004 179.954 405.645 175.758 402.825 163.152C401.315 156.388 401.315 149.304 400.459 142.389C397.589 119.091 386.259 113.368 368.198 128.457C351.161 142.691 336.525 159.829 320.898 175.758C306.043 190.881 291.658 206.508 276.283 221.077C269.955 227.069 261.596 233.062 252.079 228.731C242.143 224.199 243.015 213.641 241.673 204.645C240.649 197.779 240.414 190.646 238.4 184.083C235.58 174.902 228.58 171.645 219.936 175.808C212.484 179.4 204.93 183.831 199.19 189.639C183.899 205.131 169.95 221.967 154.71 237.51C140.476 252.012 126.192 266.749 110.162 279.103C96.8349 289.375 86.2268 283.517 83.6419 266.816C82.4501 259.095 82.4501 251.173 80.9395 243.535C77.8007 227.573 68.6361 223.242 54.9563 232.138C45.4392 238.332 36.7278 246.036 28.6038 254.026C18.4993 263.996 9.36823 274.923 -0.199219 285.448C-0.199219 280.966 -0.199219 276.501 -0.199219 272.02C3.10743 268.797 6.58192 265.708 9.72072 262.318C23.5348 247.312 36.8285 231.836 51.1629 217.351C57.1216 211.342 64.7419 206.508 72.3959 202.765C82.1983 197.964 89.3488 201.556 92.4036 212.013C94.0989 217.838 94.3339 224.082 95.2571 230.141C96.046 235.378 96.2642 240.783 97.7916 245.785C100.846 255.788 107.846 259.347 117.212 254.899C124.178 251.609 131.194 247.396 136.582 241.991C150.966 227.573 164.26 212.063 178.41 197.41C192.543 182.774 206.206 167.432 221.917 154.642C239.709 140.173 250.988 145.931 253.707 168.641C254.664 176.664 255.067 184.872 257.182 192.61C259.784 202.194 267.052 205.601 276.065 201.338C283.283 197.931 290.517 193.583 296.157 188.044C309.484 174.935 321.687 160.701 334.645 147.206C349.315 131.915 364.002 116.607 379.326 101.971C385.587 95.9952 393.963 90.8758 402.943 94.7363C412.191 98.7144 412.024 108.55 413.098 117.161C414.021 124.63 414.407 132.301 416.522 139.435C419.224 148.566 426.341 151.856 434.952 147.743C442.404 144.185 449.891 139.72 455.749 133.98C468.908 121.106 480.909 107.057 493.632 93.746C508.084 78.6227 522.435 63.3652 537.609 48.9972C544.189 42.77 552.95 36.5763 562.585 41.3433C572.085 46.0431 571.448 56.584 572.455 65.7319C573.143 72.0934 573.579 78.606 575.392 84.6821C578.531 95.2231 585.564 98.429 595.484 93.7125C601.711 90.7583 608.039 87.032 612.806 82.1644C628.231 66.42 642.952 49.9707 657.991 33.8404C662.305 29.2077 666.803 24.7429 671.218 20.2109L671.201 20.2445Z" fill="#E7F5ED"/>
<path d="M-0.199219 842.71C-0.199219 837.675 -0.199219 832.639 -0.199219 827.604C9.65358 817.415 19.6574 807.378 29.3256 797.021C42.2836 783.123 54.5367 768.554 67.9814 755.143C74.3933 748.748 82.3494 743.444 90.4398 739.315C100.192 734.329 107.174 738.022 110.565 748.412C111.673 751.819 112.176 755.478 112.613 759.07C113.385 765.449 113.368 771.978 114.644 778.239C117.615 792.842 126.242 797.139 138.999 789.72C146.888 785.138 154.609 779.565 160.836 772.968C179.065 753.666 196.051 733.205 214.431 714.053C223.83 704.251 234.405 695.204 245.718 687.751C258.81 679.107 268.025 683.857 270.996 699.383C272.406 706.768 272.322 714.422 273.379 721.892C275.88 739.617 286.103 744.803 300.806 734.581C311.733 726.978 321.871 717.914 331.053 708.246C349.348 689.01 366.368 668.583 384.681 649.38C391.109 642.633 399.284 637.127 407.542 632.663C418.637 626.687 426.543 630.665 429.346 643.086C431.175 651.21 431.31 659.703 432.568 667.962C435.388 686.425 445.006 691.158 460.465 680.601C470.301 673.887 479.533 665.863 487.724 657.186C502.31 641.743 515.335 624.841 530.089 609.583C540.496 598.807 551.91 588.602 564.297 580.243C576.919 571.716 586.302 576.668 589.089 591.623C590.616 599.831 590.65 608.324 592.127 616.549C594.913 632.176 604.027 636.96 617.203 628.315C628.298 621.014 638.201 611.732 647.937 602.584C656.229 594.796 663.513 585.95 671.234 577.557V589.307C658.847 603.322 646.98 617.858 633.888 631.202C624.958 640.3 615.005 648.793 604.296 655.625C591.522 663.765 582.391 658.982 579.437 644.076C578.296 638.353 578.329 632.394 577.591 626.57C577.07 622.424 576.617 618.194 575.358 614.25C572.169 604.33 565.204 600.805 555.821 605.353C548.637 608.845 541.419 613.226 535.779 618.798C522.469 631.924 510.249 646.141 497.325 659.67C483.259 674.39 469.328 689.312 454.49 703.227C447.742 709.555 438.98 716.269 428.943 711.519C419.275 706.936 419.996 696.345 419.073 687.214C418.519 681.658 418.284 676.001 417.009 670.614C413.971 657.807 406.35 654.013 394.651 659.838C388.726 662.792 383.019 666.652 378.101 671.1C369.608 678.754 361.467 686.878 353.78 695.338C339.865 710.629 326.856 726.776 312.489 741.631C304.415 749.973 295.015 757.426 285.079 763.418C272.993 770.736 264.819 766.489 261.563 752.826C260.472 748.244 260.455 743.427 259.75 738.727C258.844 732.668 258.458 726.424 256.578 720.666C253.556 711.418 247.044 708.464 238.097 712.341C232.29 714.859 226.264 718.048 221.85 722.446C206.659 737.619 192.241 753.582 177.302 769.041C163.538 783.274 149.926 797.726 135.39 811.138C128.81 817.197 120.2 823.726 110.481 818.842C100.998 814.075 101.686 803.5 100.628 794.42C99.9401 788.612 99.8394 782.653 98.4798 776.997C95.6431 765.298 87.8381 761.571 77.0118 766.825C71.5399 769.477 66.1351 772.801 61.6535 776.879C52.3546 785.322 43.3914 794.168 34.8479 803.383C22.8634 816.19 11.4496 829.551 -0.199219 842.71Z" fill="#E7F5ED"/>
<path d="M555.384 0.101929C568.812 0.101929 582.24 0.101929 595.668 0.101929C596.273 4.23104 596.86 8.34336 597.464 12.4725C598.387 18.7836 598.606 25.313 600.435 31.3556C603.457 41.242 610.087 44.6997 619.134 40.537C638.235 31.7249 652.553 17.1555 664.487 0.101929H671.201V6.81593C668.112 10.4247 665.276 14.2853 661.902 17.6087C646.007 33.2187 631.018 50.0373 613.628 63.7842C599.076 75.2819 587.914 68.7526 585.715 50.0541C584.892 43.1219 584.825 36.0554 583.65 29.1903C580.998 13.7481 572.052 9.41761 558.389 16.9037C553.773 19.4383 549.174 22.4092 545.397 26.0348C535.125 35.9043 525.037 45.9921 515.369 56.4492C500.934 72.0424 487.321 88.3742 472.567 103.632C466.256 110.144 458.451 115.616 450.461 119.98C439.047 126.241 430.84 122.213 427.902 109.59C426.392 103.111 426.324 96.3136 425.552 89.6667C422.699 65.2613 411.604 59.7223 392.519 75.1477C377.849 87.0147 365.093 101.349 352 115.062C338.102 129.615 325.195 145.108 311.062 159.408C305.086 165.451 297.55 170.352 289.946 174.263C279.741 179.5 271.651 175.472 268.931 164.242C267.253 157.243 267.152 149.874 266.38 142.657C263.862 119.443 252.23 113.417 234.287 128.323C217.435 142.338 203.05 159.324 187.491 174.934C170.957 191.518 155.381 209.277 137.404 224.131C122.482 236.452 111.572 230.677 108.4 211.543C107.762 207.699 107.779 203.754 107.292 199.877C106.688 195.177 106.369 190.36 105.06 185.845C101.938 175.086 94.5521 171.494 84.4475 176.328C78.2371 179.315 72.1945 183.193 67.0415 187.775C58.4811 195.362 50.374 203.536 42.6529 211.979C28.1506 227.874 14.068 244.156 -0.199219 260.269C-0.199219 254.68 -0.199219 249.074 -0.199219 243.484C4.63486 239.389 10.0061 235.763 14.2191 231.114C30.3663 213.322 45.6574 194.707 62.2746 177.368C71.8588 167.364 82.6851 158.183 94.1828 150.512C105.748 142.808 115.55 147.726 118.404 161.339C119.931 168.674 119.864 176.344 120.821 183.814C123.254 203.049 133.292 207.9 149.59 197.712C152.897 195.647 156.338 193.532 159.04 190.78C172.3 177.2 185.393 163.437 198.418 149.639C211.443 135.825 224.032 121.575 237.426 108.147C242.445 103.111 248.857 99.0663 255.285 95.8939C266.313 90.4556 273.614 94.0308 276.988 105.78C278.214 110.027 278.499 114.559 279.12 118.957C279.976 125.033 280.11 131.277 281.671 137.151C284.81 148.951 292.514 152.627 303.274 146.803C311.045 142.59 318.716 137.42 324.826 131.126C339.428 116.12 352.773 99.9055 367.208 84.7319C379.31 72.0089 391.865 59.6551 404.907 47.9224C411.302 42.1651 419.627 36.8779 428.59 41.3259C437.084 45.5557 437.319 54.9385 438.124 63.331C438.695 69.1722 438.812 75.0973 439.987 80.821C442.942 95.2225 452.073 99.872 464.41 92.1005C474.229 85.9069 483.628 78.4375 491.601 70.0282C513.321 47.1335 534.202 23.4499 555.401 0.0683594L555.384 0.101929Z" fill="#E7F5ED"/>
<path d="M40.0859 1342.9C55.9142 1325.24 71.3564 1307.22 87.7889 1290.15C93.6301 1284.09 101.469 1279.49 109.139 1275.76C118.539 1271.2 125.522 1274.79 128.61 1284.77C130.07 1289.51 130.305 1294.64 131.044 1299.6C131.984 1305.92 132.168 1312.47 133.931 1318.56C137.003 1329.22 143.901 1332.46 153.855 1327.76C160.082 1324.82 166.393 1321.15 171.261 1316.36C184.403 1303.47 196.824 1289.84 209.497 1276.48C223.328 1261.91 236.806 1246.99 251.107 1232.88C255.924 1228.11 262.42 1224.63 268.714 1221.88C277.913 1217.84 284.627 1221.11 287.631 1230.74C289.276 1236 289.444 1241.7 290.334 1247.21C291.391 1253.79 291.794 1260.6 293.808 1266.9C296.477 1275.26 302.989 1278.38 311.063 1274.85C317.861 1271.88 324.894 1268.14 330.08 1262.99C345.288 1247.83 359.471 1231.63 374.359 1216.14C387.502 1202.46 400.628 1188.73 414.576 1175.92C421.189 1169.85 429.666 1163.4 439.468 1168.05C449.237 1172.68 448.331 1183.28 449.522 1192.31C450.362 1198.65 450.496 1205.2 452.208 1211.31C455.145 1221.78 462.715 1225.69 472.132 1220.32C482.186 1214.58 492.056 1207.68 500.079 1199.41C516.981 1181.97 532.155 1162.87 548.94 1145.31C558.709 1135.09 569.502 1125.45 581.15 1117.53C595.267 1107.93 604.918 1113.05 607.57 1129.98C608.863 1138.24 608.93 1146.72 610.642 1154.88C613.512 1168.52 622.039 1172.68 634.074 1165.57C642.869 1160.38 650.59 1153.28 658.563 1146.75C663.044 1143.08 667.023 1138.78 671.236 1134.77V1148.2C669.037 1150.21 666.838 1152.24 664.656 1154.25C651.362 1166.52 638.958 1180 624.506 1190.75C610.088 1201.47 599.899 1195.95 597.163 1178.06C595.821 1169.24 595.737 1160.16 593.605 1151.55C590.852 1140.47 583.416 1137.23 573.144 1142.04C567.639 1144.6 562.032 1147.78 557.752 1151.97C544.777 1164.63 532.289 1177.8 519.868 1191.01C507.061 1204.64 494.892 1218.89 481.733 1232.17C475.925 1238.03 468.741 1242.86 461.473 1246.82C450.378 1252.87 442.406 1249.17 439.233 1237.02C437.639 1230.86 437.538 1224.33 436.598 1217.99C435.86 1213.04 435.44 1207.93 433.812 1203.27C430.79 1194.5 424.446 1191.4 415.969 1195.13C409.423 1198.01 402.608 1201.55 397.657 1206.54C381.56 1222.79 366.521 1240.08 350.575 1256.48C337.18 1270.26 324.038 1284.57 309.015 1296.41C292.012 1309.78 280.414 1303.59 278.299 1282.07C277.594 1274.85 277.342 1267.5 275.714 1260.49C272.709 1247.58 264.552 1243.37 253.39 1250.28C242.597 1256.98 232.207 1265.02 223.445 1274.18C202.061 1296.57 181.735 1319.96 160.972 1342.93H120.688C120.016 1337.98 119.496 1333.01 118.657 1328.1C117.599 1321.8 117.028 1315.29 114.897 1309.36C112.161 1301.73 106.152 1298.89 98.7663 1302.03C78.7754 1310.51 64.0717 1325.36 51.869 1342.93H40.1195L40.0859 1342.9Z" fill="#E7F5ED"/>
<path d="M541.956 0.101562C525.725 18.1287 509.779 36.4411 493.078 54.0318C488.009 59.3694 481.245 63.4649 474.598 66.8052C464.158 72.0589 456.621 68.5004 453.231 57.4223C451.938 53.2093 451.687 48.6606 451.116 44.2461C450.361 38.4385 450.31 32.4798 448.951 26.8233C445.795 13.6806 437.604 9.65223 425.905 16.2152C417.966 20.68 410.194 26.1687 403.9 32.6812C389.364 47.7374 375.986 63.9013 361.736 79.2428C351.682 90.0859 341.09 100.442 330.482 110.748C327.326 113.82 323.432 116.271 319.572 118.486C305.036 126.828 296.157 122.917 293.052 106.569C291.608 98.9149 291.608 91.0091 290.332 83.3048C287.63 66.973 277.71 61.7361 264.232 71.3371C251.173 80.6528 239.256 91.8987 228.094 103.497C213.759 118.369 201.12 134.852 186.87 149.807C178.846 158.216 169.682 165.904 159.93 172.232C146.367 181.027 136.901 176.445 133.963 160.65C132.436 152.442 132.453 143.966 130.925 135.758C128.139 120.836 118.286 115.532 106.201 124.462C91.4972 135.305 78.086 148.128 65.2791 161.238C50.2565 176.596 36.8621 193.532 22.0241 209.075C15.5619 215.856 7.27011 220.875 -0.199219 226.699C-0.199219 218.86 -0.199219 211.039 -0.199219 203.2C8.1765 199.088 18.0796 196.62 24.6258 190.544C39.9337 176.344 53.4289 160.197 68.0654 145.241C83.2558 129.715 97.9762 113.467 114.694 99.7373C130.203 86.9807 142.104 93.208 144.37 113.115C145.159 120.047 145.209 127.114 146.552 133.945C149.506 149.035 158.083 153.231 171.343 145.762C178.091 141.968 184.688 137.302 190.042 131.763C203.638 117.731 216.126 102.608 229.755 88.6257C244.325 73.6702 258.76 58.3119 275.041 45.3875C289.661 33.7723 300.89 39.7813 303.408 58.3623C304.381 65.5631 304.348 72.9149 305.607 80.0485C308.309 95.3564 317.927 100.258 330.885 91.7477C341.527 84.7651 351.614 76.423 360.376 67.1912C381.122 45.27 400.929 22.5095 421.104 0.101562C434.532 0.101562 447.96 0.101562 461.388 0.101562C462.06 4.76779 462.63 9.43402 463.403 14.0835C464.443 20.3778 464.896 26.8904 466.927 32.8659C469.798 41.3087 476.126 44.3468 484.182 40.7884C503.72 32.1441 518.222 17.474 530.207 0.101562C534.118 0.101562 538.045 0.101562 541.956 0.101562Z" fill="#E7F5ED"/>
<path d="M174.363 1342.9C191.014 1324.51 207.446 1305.93 224.449 1287.86C228.746 1283.3 234.571 1279.89 240.194 1276.92C252.212 1270.58 260.117 1274.22 263.424 1287.24C264.515 1291.54 264.633 1296.07 265.237 1300.49C266.026 1306.28 266.244 1312.24 267.788 1317.84C270.961 1329.32 278.698 1333.52 288.669 1327.33C300.166 1320.19 311.194 1311.67 320.594 1301.98C337.496 1284.56 352.653 1265.44 369.321 1247.77C377.293 1239.31 386.425 1231.57 396.109 1225.17C410.981 1215.35 420.246 1219.82 423.301 1237.29C424.694 1245.25 424.661 1253.46 426.155 1261.38C428.874 1275.83 438.29 1280.68 450.426 1272.39C462.763 1263.96 474.277 1253.94 484.684 1243.18C499.623 1227.74 512.748 1210.54 527.62 1195.03C536.432 1185.85 546.453 1177.42 557.145 1170.54C570.287 1162.08 579.67 1167.01 582.289 1182.42C583.732 1190.93 583.766 1199.69 585.461 1208.14C588.298 1222.25 597.815 1227.37 609.195 1218.86C624.704 1207.25 638.485 1193.26 652.668 1179.94C659.265 1173.73 665.039 1166.66 671.182 1159.96V1171.71C665.223 1178.36 659.315 1185.06 653.306 1191.67C641.288 1204.88 629.606 1218.44 617 1231.06C610.773 1237.29 603.27 1242.61 595.515 1246.84C584.437 1252.88 576.548 1249.14 573.309 1236.97C571.731 1231.1 571.664 1224.84 570.741 1218.78C569.952 1213.56 569.515 1208.17 567.837 1203.23C564.832 1194.44 558.337 1191.03 550.061 1195.19C541.468 1199.53 532.823 1204.8 526.025 1211.49C512.329 1224.99 500.26 1240.13 486.816 1253.89C472.045 1269 457.492 1284.66 440.909 1297.6C425.836 1309.37 414.858 1302.99 412.609 1283.74C411.636 1275.43 411.317 1266.95 409.303 1258.89C406.55 1247.87 398.879 1244.06 388.942 1249.48C379.996 1254.36 371.1 1260.34 364.117 1267.67C340.669 1292.31 318.093 1317.76 295.181 1342.9H254.897C254.209 1338.56 253.504 1334.19 252.816 1329.84C251.876 1323.82 251.641 1317.59 249.895 1311.8C246.807 1301.54 240.412 1298.54 230.609 1302.72C225.305 1304.99 219.951 1307.94 215.771 1311.82C204.979 1321.82 194.807 1332.5 184.384 1342.92H174.312L174.363 1342.9Z" fill="#E7F5ED"/>
<path d="M286.824 0.101562C300.806 0.101562 314.805 0.101562 328.787 0.101562C329.945 10.7936 330.13 21.7039 332.547 32.1106C334.695 41.3591 341.913 44.1286 350.775 40.587C355.357 38.7574 360.141 36.4914 363.7 33.2016C375.281 22.4592 386.343 11.1797 397.605 0.101562C400.962 0.101562 404.319 0.101562 407.676 0.101562C390.64 18.8672 373.754 37.8007 356.415 56.2977C352.689 60.2758 347.586 63.1628 342.702 65.7813C329.962 72.596 321.62 69.004 318.531 54.9717C316.802 47.1163 316.752 38.9085 315.56 30.9188C312.942 13.1267 303.089 8.14158 288.117 18.2294C278.029 25.0273 268.613 33.2687 260.254 42.1312C244.929 58.3623 231.081 75.9865 215.689 92.1673C206.525 101.802 196.32 110.832 185.309 118.234C171.394 127.584 162.112 122.968 158.855 106.703C157.983 102.356 157.999 97.8238 157.429 93.4094C156.791 88.441 156.472 83.3384 155.096 78.5714C151.94 67.7115 144.79 64.2706 134.534 68.8865C129.263 71.2532 123.859 74.2577 119.814 78.2693C105.58 92.4191 92.0847 107.307 77.9853 121.608C61.5696 138.259 45.691 155.598 27.9324 170.688C15.6794 181.145 7.68973 178.14 -0.199219 164.595V94.0976C7.11904 97.4881 8.98218 104.202 9.95571 111.252C11.0635 119.258 11.2314 127.449 12.9267 135.322C15.9144 149.169 24.2565 153.483 36.1907 146.047C46.9666 139.316 57.1383 131.041 65.984 121.894C80.1674 107.257 92.5547 90.8916 106.621 76.1376C117.162 65.0595 128.374 54.2835 140.694 45.3204C156.103 34.1248 167.097 39.9827 169.396 59.0169C170.37 67.0569 170.588 75.2648 172.451 83.0866C175.389 95.3732 183.445 99.1163 194.524 93.0065C202.261 88.7431 209.983 83.5734 216.008 77.1951C239.977 51.8497 263.275 25.8665 286.824 0.101562Z" fill="#E7F5ED"/>
<path d="M308.645 1342.9C327.242 1322.93 345.42 1302.55 364.656 1283.21C370.9 1276.94 379.712 1270.57 389.498 1275.41C399.099 1280.14 398.411 1290.65 399.401 1299.75C400.005 1305.3 400.156 1310.96 401.382 1316.36C404.235 1329 412.46 1333.2 423.79 1327.06C431.309 1322.98 438.678 1317.91 444.687 1311.85C457.679 1298.79 469.613 1284.67 482.235 1271.25C494.656 1258.02 507.077 1244.76 520.186 1232.24C525.087 1227.55 531.616 1224.18 537.961 1221.53C546.169 1218.1 552.531 1221.01 555.216 1229.45C557.298 1236 557.851 1243.08 558.724 1249.96C559.916 1259.33 559.01 1270.34 569.131 1274.87C578.816 1279.22 587.326 1272.54 593.973 1266.41C607.703 1253.76 620.694 1240.26 633.535 1226.68C644.663 1214.9 655.104 1202.48 665.947 1190.44C667.34 1188.9 669.421 1187.99 671.201 1186.78V1201.89C654.029 1219.82 637.093 1237.98 619.603 1255.59C605.286 1270 591.287 1285.08 575.308 1297.48C560.117 1309.28 549.14 1303.12 546.84 1283.92C545.917 1276.16 545.733 1268.24 544.004 1260.67C540.966 1247.38 532.892 1243.62 521.008 1250.45C512.868 1255.13 504.794 1260.74 498.399 1267.54C475.051 1292.29 452.408 1317.72 429.513 1342.9H387.551C387.081 1335.45 386.879 1327.95 386.057 1320.53C383.858 1300.45 372.931 1294.83 356.834 1307.17C343.087 1317.71 331.355 1330.88 318.732 1342.9H308.661H308.645Z" fill="#E7F5ED"/>
<path d="M273.396 0.101562C255.487 19.6057 237.795 39.3113 219.516 58.463C215.622 62.5418 209.899 65.2274 204.561 67.4766C195.279 71.3875 188.733 68.3494 185.46 58.7819C183.865 54.0989 183.429 48.9795 182.724 44.0279C182.22 40.4359 182.354 36.76 181.801 33.1848C178.511 11.935 168.171 6.93306 151.017 20.2436C137.22 30.9524 125.017 43.8936 112.898 56.5831C98.0434 72.126 84.3804 88.8439 69.3914 104.252C63.0802 110.748 55.1745 116.119 47.1513 120.4C36.6103 126.023 28.6374 121.894 25.5322 110.262C24.2565 105.444 24.0048 100.358 23.3669 95.3732C22.7627 90.6734 22.6787 85.8729 21.6716 81.257C18.835 68.1983 12.6749 64.8413 -0.199219 68.9201C-0.199219 62.2061 -0.199219 55.4921 -0.199219 48.7781C1.49607 47.8381 3.24171 46.9989 4.86985 45.975C23.0648 34.6283 33.0687 39.4288 35.3682 60.6451C36.09 67.3087 36.1739 74.1066 37.5335 80.636C40.5883 95.39 48.9473 99.7038 61.7878 92.2512C70.3817 87.2661 78.6903 81.0388 85.4714 73.8213C108.232 49.6173 130.237 24.7252 152.544 0.101562C166.526 0.101562 180.525 0.101562 194.507 0.101562C195.648 10.609 195.85 21.3178 198.216 31.5399C200.499 41.3927 207.616 44.1958 217.015 40.4863C221.128 38.8581 225.458 36.9111 228.614 33.9569C240.431 22.9292 251.794 11.4314 263.325 0.101562C266.682 0.101562 270.039 0.101562 273.396 0.101562Z" fill="#E7F5ED"/>
<path d="M442.926 1342.9C460.03 1320.44 477.839 1298.61 500.683 1281.62C507.33 1276.68 514.816 1271.01 523.645 1275.34C532.373 1279.62 532.339 1288.97 533.414 1297.23C534.135 1302.75 534.085 1308.41 535.109 1313.86C538.13 1329.89 546.959 1334.24 560.84 1325.49C569.955 1319.74 578.649 1312.77 586.051 1304.93C603.105 1286.86 618.933 1267.64 635.853 1249.43C646.058 1238.45 656.431 1227.29 671.219 1222.05V1248.9C665.915 1249.32 659.822 1248.22 655.491 1250.48C647.736 1254.56 640.066 1259.76 634.073 1266.13C610.289 1291.37 587.159 1317.25 563.795 1342.9H521.832C521.261 1334.83 521.06 1326.72 520.036 1318.7C517.82 1301.31 507.414 1295.4 493.499 1305.74C478.879 1316.62 466.408 1330.4 452.997 1342.9H442.926Z" fill="#E7F5ED"/>
<path d="M139.116 0.101562C122.449 22.2242 104.808 43.5244 82.769 60.5611C75.8368 65.9156 67.9143 72.3442 58.3972 67.5773C49.0815 62.911 49.6187 52.84 48.5276 44.0447C47.8059 38.2371 47.7891 32.2784 46.4967 26.6051C43.6096 13.9995 35.2507 9.63544 24.0383 15.913C15.3605 20.7639 7.8408 27.6793 -0.199219 33.6716C-0.199219 28.6361 -0.199219 23.6006 -0.199219 18.5651C5.96088 12.405 12.1042 6.26166 18.2643 0.101562C32.2462 0.101562 46.2449 0.101562 60.2268 0.101562C60.7807 7.8898 61.0325 15.7116 61.9221 23.4663C64.0538 41.6948 74.8465 47.7878 89.3655 36.9446C103.734 26.1855 115.903 12.5057 129.045 0.101562C132.402 0.101562 135.759 0.101562 139.116 0.101562Z" fill="#E7F5ED"/>
<path d="M671.199 1319.4V1342.9H656.093C655.488 1334.83 655.253 1326.72 654.196 1318.71C651.846 1301.02 641.204 1295.33 626.92 1306.11C612.603 1316.9 600.4 1330.51 587.274 1342.9H577.203C593.72 1320.66 611.495 1299.53 633.55 1282.53C640.55 1277.14 648.439 1270.74 657.889 1275.44C667.188 1280.08 666.415 1290.3 667.741 1299.04C668.782 1305.84 670.024 1312.62 671.182 1319.4H671.199Z" fill="#E7F5ED"/>
<path d="M600.703 1342.9C605.99 1338.92 610.908 1334.31 616.632 1331.12C629.909 1323.7 637.915 1327.81 640.987 1342.9H600.703Z" fill="#E7F5ED"/>
<path d="M115.616 0.101562C109.842 4.34817 104.471 9.41724 98.1764 12.6735C85.8059 19.119 77.7323 14.3352 75.332 0.101562C88.76 0.101562 102.188 0.101562 115.616 0.101562Z" fill="#E7F5ED"/>
<path d="M466.422 1342.9C471.978 1338.79 477.148 1333.97 483.173 1330.73C496.098 1323.78 504.188 1328.23 506.706 1342.9H466.422Z" fill="#E7F5ED"/>
<path d="M248.219 0.101562C242.428 8.98083 233.817 13.731 223.729 15.1577C215.757 16.2823 211.241 10.844 209.613 0.101562H248.219Z" fill="#E7F5ED"/>
<path d="M516.777 0.101562C509.09 5.12028 501.939 11.6161 493.547 14.7549C485.222 17.8769 479.296 11.2132 478.172 0.101562C491.046 0.101562 503.903 0.101562 516.777 0.101562Z" fill="#E7F5ED"/>
<path d="M651.059 0.101562C643.606 5.06992 636.691 11.4482 628.55 14.6542C619.738 18.1119 613.259 11.3307 612.453 0.101562C625.327 0.101562 638.185 0.101562 651.059 0.101562Z" fill="#E7F5ED"/>
<path d="M382.5 0.101562C374.863 5.12028 367.763 11.5993 359.404 14.7549C351.112 17.8769 345.338 11.3811 343.895 0.101562C356.769 0.101562 369.626 0.101562 382.5 0.101562Z" fill="#E7F5ED"/>
<path d="M65.2617 1342.9C72.9828 1337.88 80.15 1331.47 88.5593 1328.27C96.8343 1325.09 102.843 1331.83 103.867 1342.9H65.2617Z" fill="#E7F5ED"/>
<path d="M199.543 1342.9C207.499 1337.87 214.935 1331.39 223.579 1328.2C231.384 1325.31 236.94 1331.99 238.148 1342.9H199.543Z" fill="#E7F5ED"/>
<path d="M333.82 1342.9C339.41 1334.21 347.97 1329.83 357.588 1327.95C365.93 1326.3 370.831 1331.77 372.426 1342.9H333.82Z" fill="#E7F5ED"/>
</g>
<defs>
<clipPath id="clip0_3290_6885">
<rect width="671" height="1343" rx="8" fill="white"/>
</clipPath>
</defs>
</svg>
