<svg width="22" height="22" viewBox="0 0 22 22" fill="none" xmlns="http://www.w3.org/2000/svg">
<path d="M11.3348 2.43872C12.0725 2.43886 12.7054 2.88426 12.9803 3.52075C13.243 3.36975 13.5483 3.28443 13.8729 3.28442C14.8626 3.28442 15.6647 4.0867 15.6649 5.07642V5.98853C15.8924 5.88393 16.1444 5.82257 16.411 5.82251C17.4008 5.82251 18.204 6.62559 18.204 7.61548V14.384C18.204 17.243 15.8862 19.5615 13.0272 19.5618H12.1805C10.6017 19.5617 9.1873 18.8537 8.23914 17.7415H8.23816C8.21788 17.7236 8.1975 17.7054 8.17761 17.6868L3.94324 13.7043C3.14206 12.9512 3.06088 11.6917 3.7616 10.843C4.44875 10.0108 5.65594 9.85824 6.52625 10.5012L7.00378 10.8538V5.9231C7.00378 4.93329 7.80601 4.13125 8.79578 4.1311C9.06215 4.1311 9.31446 4.1908 9.54187 4.29517V4.23071C9.54187 3.24085 10.3449 2.43872 11.3348 2.43872ZM11.3348 3.48462C10.9227 3.48462 10.5887 3.81861 10.5887 4.23071V10.2542H9.54187V5.9231C9.54187 5.511 9.2078 5.177 8.79578 5.177C8.3838 5.17715 8.04968 5.51108 8.04968 5.9231V12.928L7.8905 12.8108L5.90417 11.343C5.48289 11.0318 4.90304 11.1037 4.56824 11.509C4.2194 11.9317 4.25927 12.5667 4.65906 12.9426L8.89441 16.9241C8.92184 16.9499 8.94988 16.9744 8.97839 16.9973L8.98621 17.0042L8.99304 17.012C9.75076 17.9301 10.8974 18.5149 12.1805 18.5149H13.0272C15.3084 18.5147 17.1571 16.6652 17.1571 14.384V7.61548C17.1571 7.20338 16.823 6.86938 16.411 6.86938C15.9991 6.86961 15.6649 7.20351 15.6649 7.61548V10.2542H14.619V5.07642C14.6188 4.66449 14.2848 4.33032 13.8729 4.33032C13.4613 4.33034 13.1276 4.66405 13.1268 5.07544V10.2542H12.0809V4.23071C12.0809 3.81872 11.7468 3.4848 11.3348 3.48462Z" fill="white" stroke="white" stroke-width="0.2"/>
</svg>
